<svg class="marks" width="2067" height="499" viewBox="0 0 2067 499" version="1.1" xmlns="http://www.w3.org/2000/svg" xmlns:xlink="http://www.w3.org/1999/xlink"><g transform="translate(67,11)"><g class="mark-group role-frame root"><g transform="translate(0,0)"><path class="background" d="M0.5,0.5h1995v300h-1995Z" style="fill: none; stroke: #ddd;"></path><g><g class="mark-group role-axis"><g transform="translate(0.5,0.5)"><path class="background" d="M0,0h0v0h0Z" style="pointer-events: none; fill: none;"></path><g><g class="mark-rule role-axis-grid" style="pointer-events: none;"><line transform="translate(0,300)" x2="1995" y2="0" style="fill: none; stroke: #ddd; stroke-width: 1; opacity: 1;"></line><line transform="translate(0,270)" x2="1995" y2="0" style="fill: none; stroke: #ddd; stroke-width: 1; opacity: 1;"></line><line transform="translate(0,240)" x2="1995" y2="0" style="fill: none; stroke: #ddd; stroke-width: 1; opacity: 1;"></line><line transform="translate(0,210)" x2="1995" y2="0" style="fill: none; stroke: #ddd; stroke-width: 1; opacity: 1;"></line><line transform="translate(0,180)" x2="1995" y2="0" style="fill: none; stroke: #ddd; stroke-width: 1; opacity: 1;"></line><line transform="translate(0,150)" x2="1995" y2="0" style="fill: none; stroke: #ddd; stroke-width: 1; opacity: 1;"></line><line transform="translate(0,120)" x2="1995" y2="0" style="fill: none; stroke: #ddd; stroke-width: 1; opacity: 1;"></line><line transform="translate(0,90)" x2="1995" y2="0" style="fill: none; stroke: #ddd; stroke-width: 1; opacity: 1;"></line><line transform="translate(0,60)" x2="1995" y2="0" style="fill: none; stroke: #ddd; stroke-width: 1; opacity: 1;"></line><line transform="translate(0,30)" x2="1995" y2="0" style="fill: none; stroke: #ddd; stroke-width: 1; opacity: 1;"></line><line transform="translate(0,0)" x2="1995" y2="0" style="fill: none; stroke: #ddd; stroke-width: 1; opacity: 1;"></line></g></g></g></g><g class="mark-rect role-mark marks"><path d="M442.04999999999995,299.9955h18.900000000000002v0.004500000000007276h-18.900000000000002Z" style="fill: #4c78a8;"></path><path d="M1492.05,299.772h18.900000000000002v0.22800000000000864h-18.900000000000002Z" style="fill: #4c78a8;"></path><path d="M1429.05,299.8875h18.900000000000002v0.11250000000001137h-18.900000000000002Z" style="fill: #4c78a8;"></path><path d="M673.05,299.9865h18.900000000000002v0.013500000000021828h-18.900000000000002Z" style="fill: #4c78a8;"></path><path d="M547.05,299.9565h18.900000000000002v0.04349999999999454h-18.900000000000002Z" style="fill: #4c78a8;"></path><path d="M1807.05,299.925h18.900000000000002v0.07499999999998863h-18.900000000000002Z" style="fill: #4c78a8;"></path><path d="M1702.05,296.2335h18.900000000000002v3.7665000000000077h-18.900000000000002Z" style="fill: #4c78a8;"></path><path d="M169.04999999999995,299.6625h18.900000000000002v0.33749999999997726h-18.900000000000002Z" style="fill: #4c78a8;"></path><path d="M253.04999999999995,299.9745h18.900000000000002v0.025500000000022283h-18.900000000000002Z" style="fill: #4c78a8;"></path><path d="M1198.05,299.9985h18.900000000000002v0.0015000000000213731h-18.900000000000002Z" style="fill: #4c78a8;"></path><path d="M295.04999999999995,297.3555h18.900000000000002v2.6444999999999936h-18.900000000000002Z" style="fill: #4c78a8;"></path><path d="M904.05,274.257h18.900000000000002v25.742999999999995h-18.900000000000002Z" style="fill: #4c78a8;"></path><path d="M1933.05,295.353h18.900000000000002v4.646999999999991h-18.900000000000002Z" style="fill: #4c78a8;"></path><path d="M1261.05,297.069h18.900000000000002v2.930999999999983h-18.900000000000002Z" style="fill: #4c78a8;"></path><path d="M106.04999999999995,299.9175h18.900000000000002v0.08249999999998181h-18.900000000000002Z" style="fill: #4c78a8;"></path><path d="M337.04999999999995,280.119h18.900000000000002v19.880999999999972h-18.900000000000002Z" style="fill: #4c78a8;"></path><path d="M757.05,299.985h18.900000000000002v0.014999999999986358h-18.900000000000002Z" style="fill: #4c78a8;"></path><path d="M1744.05,299.892h18.900000000000002v0.10800000000000409h-18.900000000000002Z" style="fill: #4c78a8;"></path><path d="M568.05,298.821h18.900000000000002v1.1789999999999736h-18.900000000000002Z" style="fill: #4c78a8;"></path><path d="M1240.05,299.8695h18.900000000000002v0.13049999999998363h-18.900000000000002Z" style="fill: #4c78a8;"></path><path d="M1471.05,299.997h18.900000000000002v0.002999999999985903h-18.900000000000002Z" style="fill: #4c78a8;"></path><path d="M400.04999999999995,299.6955h18.900000000000002v0.30450000000001864h-18.900000000000002Z" style="fill: #4c78a8;"></path><path d="M1786.05,299.5155h18.900000000000002v0.48450000000002547h-18.900000000000002Z" style="fill: #4c78a8;"></path><path d="M1639.05,299.3865h18.900000000000002v0.6134999999999877h-18.900000000000002Z" style="fill: #4c78a8;"></path><path d="M988.05,299.9925h18.900000000000002v0.007499999999993179h-18.900000000000002Z" style="fill: #4c78a8;"></path><path d="M484.04999999999995,299.997h18.900000000000002v0.002999999999985903h-18.900000000000002Z" style="fill: #4c78a8;"></path><path d="M1828.05,297.9495h18.900000000000002v2.0504999999999995h-18.900000000000002Z" style="fill: #4c78a8;"></path><path d="M589.05,299.9985h18.900000000000002v0.0015000000000213731h-18.900000000000002Z" style="fill: #4c78a8;"></path><path d="M421.04999999999995,298.9725h18.900000000000002v1.027499999999975h-18.900000000000002Z" style="fill: #4c78a8;"></path><path d="M1408.05,299.9895h18.900000000000002v0.010499999999979082h-18.900000000000002Z" style="fill: #4c78a8;"></path><path d="M1282.05,173.28300000000002h18.900000000000002v126.71699999999998h-18.900000000000002Z" style="fill: #4c78a8;"></path><path d="M652.05,299.8545h18.900000000000002v0.14550000000002683h-18.900000000000002Z" style="fill: #4c78a8;"></path><path d="M1.0499999999999545,299.859h18.900000000000002v0.14100000000001955h-18.900000000000002Z" style="fill: #4c78a8;"></path><path d="M1177.05,299.934h18.900000000000002v0.06599999999997408h-18.900000000000002Z" style="fill: #4c78a8;"></path><path d="M1030.05,298.6605h18.900000000000002v1.3394999999999868h-18.900000000000002Z" style="fill: #4c78a8;"></path><path d="M1849.05,274.7685h18.900000000000002v25.231499999999983h-18.900000000000002Z" style="fill: #4c78a8;"></path><path d="M1135.05,298.9545h18.900000000000002v1.045500000000004h-18.900000000000002Z" style="fill: #4c78a8;"></path><path d="M883.05,249.2895h18.900000000000002v50.710499999999996h-18.900000000000002Z" style="fill: #4c78a8;"></path><path d="M1072.05,299.925h18.900000000000002v0.07499999999998863h-18.900000000000002Z" style="fill: #4c78a8;"></path><path d="M274.04999999999995,248.9115h18.900000000000002v51.08850000000001h-18.900000000000002Z" style="fill: #4c78a8;"></path><path d="M1534.05,292.5525h18.900000000000002v7.447499999999991h-18.900000000000002Z" style="fill: #4c78a8;"></path><path d="M841.05,296.8065h18.900000000000002v3.193499999999972h-18.900000000000002Z" style="fill: #4c78a8;"></path><path d="M1156.05,280.275h18.900000000000002v19.725000000000023h-18.900000000000002Z" style="fill: #4c78a8;"></path><path d="M1324.05,256.332h18.900000000000002v43.668000000000006h-18.900000000000002Z" style="fill: #4c78a8;"></path><path d="M1219.05,298.7985h18.900000000000002v1.20150000000001h-18.900000000000002Z" style="fill: #4c78a8;"></path><path d="M211.04999999999995,292.137h18.900000000000002v7.8629999999999995h-18.900000000000002Z" style="fill: #4c78a8;"></path><path d="M505.04999999999995,294.636h18.900000000000002v5.363999999999976h-18.900000000000002Z" style="fill: #4c78a8;"></path><path d="M379.04999999999995,282.4245h18.900000000000002v17.575499999999977h-18.900000000000002Z" style="fill: #4c78a8;"></path><path d="M715.05,297.6135h18.900000000000002v2.3865000000000123h-18.900000000000002Z" style="fill: #4c78a8;"></path><path d="M463.04999999999995,291.9915h18.900000000000002v8.008500000000026h-18.900000000000002Z" style="fill: #4c78a8;"></path><path d="M631.05,299.853h18.900000000000002v0.14699999999999136h-18.900000000000002Z" style="fill: #4c78a8;"></path><path d="M1765.05,276.3795h18.900000000000002v23.620499999999993h-18.900000000000002Z" style="fill: #4c78a8;"></path><path d="M925.05,271.056h18.900000000000002v28.944000000000017h-18.900000000000002Z" style="fill: #4c78a8;"></path><path d="M127.04999999999995,256.3785h18.900000000000002v43.621500000000026h-18.900000000000002Z" style="fill: #4c78a8;"></path><path d="M358.04999999999995,299.991h18.900000000000002v0.009000000000014552h-18.900000000000002Z" style="fill: #4c78a8;"></path><path d="M1576.05,283.1985h18.900000000000002v16.801499999999976h-18.900000000000002Z" style="fill: #4c78a8;"></path><path d="M1975.05,292.2915h18.900000000000002v7.708500000000015h-18.900000000000002Z" style="fill: #4c78a8;"></path><path d="M694.05,289.653h18.900000000000002v10.34699999999998h-18.900000000000002Z" style="fill: #4c78a8;"></path><path d="M1387.05,299.9475h18.900000000000002v0.052500000000009095h-18.900000000000002Z" style="fill: #4c78a8;"></path><path d="M820.05,299.9265h18.900000000000002v0.0735000000000241h-18.900000000000002Z" style="fill: #4c78a8;"></path><path d="M85.04999999999995,291.7785h18.900000000000002v8.221499999999992h-18.900000000000002Z" style="fill: #4c78a8;"></path><path d="M232.04999999999995,298.1835h18.900000000000002v1.816500000000019h-18.900000000000002Z" style="fill: #4c78a8;"></path><path d="M1555.05,23.418000000000006h18.900000000000002v276.582h-18.900000000000002Z" style="fill: #4c78a8;"></path><path d="M1870.05,284.7795h18.900000000000002v15.220500000000015h-18.900000000000002Z" style="fill: #4c78a8;"></path><path d="M1723.05,278.808h18.900000000000002v21.192000000000007h-18.900000000000002Z" style="fill: #4c78a8;"></path><path d="M1912.05,294.4125h18.900000000000002v5.587499999999977h-18.900000000000002Z" style="fill: #4c78a8;"></path><path d="M946.05,299.6355h18.900000000000002v0.3645000000000209h-18.900000000000002Z" style="fill: #4c78a8;"></path><path d="M1891.05,295.92h18.900000000000002v4.079999999999984h-18.900000000000002Z" style="fill: #4c78a8;"></path><path d="M1450.05,299.8995h18.900000000000002v0.10050000000001091h-18.900000000000002Z" style="fill: #4c78a8;"></path><path d="M1366.05,298.8255h18.900000000000002v1.1745000000000232h-18.900000000000002Z" style="fill: #4c78a8;"></path><path d="M1513.05,291.0345h18.900000000000002v8.96550000000002h-18.900000000000002Z" style="fill: #4c78a8;"></path><path d="M1660.05,277.14h18.900000000000002v22.860000000000014h-18.900000000000002Z" style="fill: #4c78a8;"></path><path d="M610.05,298.095h18.900000000000002v1.9049999999999727h-18.900000000000002Z" style="fill: #4c78a8;"></path><path d="M22.049999999999955,294.06h18.900000000000002v5.939999999999998h-18.900000000000002Z" style="fill: #4c78a8;"></path><path d="M1303.05,290.5365h18.900000000000002v9.46350000000001h-18.900000000000002Z" style="fill: #4c78a8;"></path><path d="M862.05,266.5815h18.900000000000002v33.418499999999995h-18.900000000000002Z" style="fill: #4c78a8;"></path><path d="M1954.05,299.97h18.900000000000002v0.029999999999972715h-18.900000000000002Z" style="fill: #4c78a8;"></path><path d="M736.05,299.247h18.900000000000002v0.7529999999999859h-18.900000000000002Z" style="fill: #4c78a8;"></path><path d="M43.049999999999955,299.8365h18.900000000000002v0.1634999999999991h-18.900000000000002Z" style="fill: #4c78a8;"></path><path d="M1114.05,299.7645h18.900000000000002v0.23550000000000182h-18.900000000000002Z" style="fill: #4c78a8;"></path><path d="M1597.05,291.4095h18.900000000000002v8.59050000000002h-18.900000000000002Z" style="fill: #4c78a8;"></path><path d="M967.05,296.253h18.900000000000002v3.747000000000014h-18.900000000000002Z" style="fill: #4c78a8;"></path><path d="M64.04999999999995,265.6755h18.900000000000002v34.3245h-18.900000000000002Z" style="fill: #4c78a8;"></path><path d="M316.04999999999995,293.328h18.900000000000002v6.6720000000000255h-18.900000000000002Z" style="fill: #4c78a8;"></path><path d="M1345.05,298.5075h18.900000000000002v1.4925000000000068h-18.900000000000002Z" style="fill: #4c78a8;"></path><path d="M526.05,288.501h18.900000000000002v11.499000000000024h-18.900000000000002Z" style="fill: #4c78a8;"></path><path d="M148.04999999999995,297.534h18.900000000000002v2.466000000000008h-18.900000000000002Z" style="fill: #4c78a8;"></path><path d="M1093.05,297.258h18.900000000000002v2.7420000000000186h-18.900000000000002Z" style="fill: #4c78a8;"></path><path d="M190.04999999999995,293.1495h18.900000000000002v6.850500000000011h-18.900000000000002Z" style="fill: #4c78a8;"></path><path d="M1618.05,265.3485h18.900000000000002v34.6515h-18.900000000000002Z" style="fill: #4c78a8;"></path><path d="M778.05,299.7435h18.900000000000002v0.2565000000000168h-18.900000000000002Z" style="fill: #4c78a8;"></path><path d="M1681.05,298.6425h18.900000000000002v1.357500000000016h-18.900000000000002Z" style="fill: #4c78a8;"></path><path d="M799.05,251.427h18.900000000000002v48.57300000000001h-18.900000000000002Z" style="fill: #4c78a8;"></path><path d="M1009.05,296.7975h18.900000000000002v3.2024999999999864h-18.900000000000002Z" style="fill: #4c78a8;"></path><path d="M1051.05,298.182h18.900000000000002v1.8179999999999836h-18.900000000000002Z" style="fill: #4c78a8;"></path></g><g class="mark-group role-axis"><g transform="translate(0.5,300.5)"><path class="background" d="M0,0h0v0h0Z" style="pointer-events: none; fill: none;"></path><g><g class="mark-rule role-axis-tick" style="pointer-events: none;"><line transform="translate(9,0)" x2="0" y2="5" style="fill: none; stroke: #888; stroke-width: 1; opacity: 1;"></line><line transform="translate(30,0)" x2="0" y2="5" style="fill: none; stroke: #888; stroke-width: 1; opacity: 1;"></line><line transform="translate(51,0)" x2="0" y2="5" style="fill: none; stroke: #888; stroke-width: 1; opacity: 1;"></line><line transform="translate(72,0)" x2="0" y2="5" style="fill: none; stroke: #888; stroke-width: 1; opacity: 1;"></line><line transform="translate(93,0)" x2="0" y2="5" style="fill: none; stroke: #888; stroke-width: 1; opacity: 1;"></line><line transform="translate(114,0)" x2="0" y2="5" style="fill: none; stroke: #888; stroke-width: 1; opacity: 1;"></line><line transform="translate(135,0)" x2="0" y2="5" style="fill: none; stroke: #888; stroke-width: 1; opacity: 1;"></line><line transform="translate(156,0)" x2="0" y2="5" style="fill: none; stroke: #888; stroke-width: 1; opacity: 1;"></line><line transform="translate(177,0)" x2="0" y2="5" style="fill: none; stroke: #888; stroke-width: 1; opacity: 1;"></line><line transform="translate(198,0)" x2="0" y2="5" style="fill: none; stroke: #888; stroke-width: 1; opacity: 1;"></line><line transform="translate(219,0)" x2="0" y2="5" style="fill: none; stroke: #888; stroke-width: 1; opacity: 1;"></line><line transform="translate(240,0)" x2="0" y2="5" style="fill: none; stroke: #888; stroke-width: 1; opacity: 1;"></line><line transform="translate(261,0)" x2="0" y2="5" style="fill: none; stroke: #888; stroke-width: 1; opacity: 1;"></line><line transform="translate(282,0)" x2="0" y2="5" style="fill: none; stroke: #888; stroke-width: 1; opacity: 1;"></line><line transform="translate(303,0)" x2="0" y2="5" style="fill: none; stroke: #888; stroke-width: 1; opacity: 1;"></line><line transform="translate(324,0)" x2="0" y2="5" style="fill: none; stroke: #888; stroke-width: 1; opacity: 1;"></line><line transform="translate(345,0)" x2="0" y2="5" style="fill: none; stroke: #888; stroke-width: 1; opacity: 1;"></line><line transform="translate(366,0)" x2="0" y2="5" style="fill: none; stroke: #888; stroke-width: 1; opacity: 1;"></line><line transform="translate(387,0)" x2="0" y2="5" style="fill: none; stroke: #888; stroke-width: 1; opacity: 1;"></line><line transform="translate(408,0)" x2="0" y2="5" style="fill: none; stroke: #888; stroke-width: 1; opacity: 1;"></line><line transform="translate(429,0)" x2="0" y2="5" style="fill: none; stroke: #888; stroke-width: 1; opacity: 1;"></line><line transform="translate(450,0)" x2="0" y2="5" style="fill: none; stroke: #888; stroke-width: 1; opacity: 1;"></line><line transform="translate(471,0)" x2="0" y2="5" style="fill: none; stroke: #888; stroke-width: 1; opacity: 1;"></line><line transform="translate(492,0)" x2="0" y2="5" style="fill: none; stroke: #888; stroke-width: 1; opacity: 1;"></line><line transform="translate(514,0)" x2="0" y2="5" style="fill: none; stroke: #888; stroke-width: 1; opacity: 1;"></line><line transform="translate(535,0)" x2="0" y2="5" style="fill: none; stroke: #888; stroke-width: 1; opacity: 1;"></line><line transform="translate(556,0)" x2="0" y2="5" style="fill: none; stroke: #888; stroke-width: 1; opacity: 1;"></line><line transform="translate(577,0)" x2="0" y2="5" style="fill: none; stroke: #888; stroke-width: 1; opacity: 1;"></line><line transform="translate(598,0)" x2="0" y2="5" style="fill: none; stroke: #888; stroke-width: 1; opacity: 1;"></line><line transform="translate(619,0)" x2="0" y2="5" style="fill: none; stroke: #888; stroke-width: 1; opacity: 1;"></line><line transform="translate(640,0)" x2="0" y2="5" style="fill: none; stroke: #888; stroke-width: 1; opacity: 1;"></line><line transform="translate(661,0)" x2="0" y2="5" style="fill: none; stroke: #888; stroke-width: 1; opacity: 1;"></line><line transform="translate(682,0)" x2="0" y2="5" style="fill: none; stroke: #888; stroke-width: 1; opacity: 1;"></line><line transform="translate(703,0)" x2="0" y2="5" style="fill: none; stroke: #888; stroke-width: 1; opacity: 1;"></line><line transform="translate(724,0)" x2="0" y2="5" style="fill: none; stroke: #888; stroke-width: 1; opacity: 1;"></line><line transform="translate(745,0)" x2="0" y2="5" style="fill: none; stroke: #888; stroke-width: 1; opacity: 1;"></line><line transform="translate(766,0)" x2="0" y2="5" style="fill: none; stroke: #888; stroke-width: 1; opacity: 1;"></line><line transform="translate(787,0)" x2="0" y2="5" style="fill: none; stroke: #888; stroke-width: 1; opacity: 1;"></line><line transform="translate(808,0)" x2="0" y2="5" style="fill: none; stroke: #888; stroke-width: 1; opacity: 1;"></line><line transform="translate(829,0)" x2="0" y2="5" style="fill: none; stroke: #888; stroke-width: 1; opacity: 1;"></line><line transform="translate(850,0)" x2="0" y2="5" style="fill: none; stroke: #888; stroke-width: 1; opacity: 1;"></line><line transform="translate(871,0)" x2="0" y2="5" style="fill: none; stroke: #888; stroke-width: 1; opacity: 1;"></line><line transform="translate(892,0)" x2="0" y2="5" style="fill: none; stroke: #888; stroke-width: 1; opacity: 1;"></line><line transform="translate(913,0)" x2="0" y2="5" style="fill: none; stroke: #888; stroke-width: 1; opacity: 1;"></line><line transform="translate(934,0)" x2="0" y2="5" style="fill: none; stroke: #888; stroke-width: 1; opacity: 1;"></line><line transform="translate(955,0)" x2="0" y2="5" style="fill: none; stroke: #888; stroke-width: 1; opacity: 1;"></line><line transform="translate(976,0)" x2="0" y2="5" style="fill: none; stroke: #888; stroke-width: 1; opacity: 1;"></line><line transform="translate(997,0)" x2="0" y2="5" style="fill: none; stroke: #888; stroke-width: 1; opacity: 1;"></line><line transform="translate(1018,0)" x2="0" y2="5" style="fill: none; stroke: #888; stroke-width: 1; opacity: 1;"></line><line transform="translate(1039,0)" x2="0" y2="5" style="fill: none; stroke: #888; stroke-width: 1; opacity: 1;"></line><line transform="translate(1060,0)" x2="0" y2="5" style="fill: none; stroke: #888; stroke-width: 1; opacity: 1;"></line><line transform="translate(1081,0)" x2="0" y2="5" style="fill: none; stroke: #888; stroke-width: 1; opacity: 1;"></line><line transform="translate(1102,0)" x2="0" y2="5" style="fill: none; stroke: #888; stroke-width: 1; opacity: 1;"></line><line transform="translate(1123,0)" x2="0" y2="5" style="fill: none; stroke: #888; stroke-width: 1; opacity: 1;"></line><line transform="translate(1144,0)" x2="0" y2="5" style="fill: none; stroke: #888; stroke-width: 1; opacity: 1;"></line><line transform="translate(1165,0)" x2="0" y2="5" style="fill: none; stroke: #888; stroke-width: 1; opacity: 1;"></line><line transform="translate(1186,0)" x2="0" y2="5" style="fill: none; stroke: #888; stroke-width: 1; opacity: 1;"></line><line transform="translate(1207,0)" x2="0" y2="5" style="fill: none; stroke: #888; stroke-width: 1; opacity: 1;"></line><line transform="translate(1228,0)" x2="0" y2="5" style="fill: none; stroke: #888; stroke-width: 1; opacity: 1;"></line><line transform="translate(1249,0)" x2="0" y2="5" style="fill: none; stroke: #888; stroke-width: 1; opacity: 1;"></line><line transform="translate(1270,0)" x2="0" y2="5" style="fill: none; stroke: #888; stroke-width: 1; opacity: 1;"></line><line transform="translate(1291,0)" x2="0" y2="5" style="fill: none; stroke: #888; stroke-width: 1; opacity: 1;"></line><line transform="translate(1312,0)" x2="0" y2="5" style="fill: none; stroke: #888; stroke-width: 1; opacity: 1;"></line><line transform="translate(1333,0)" x2="0" y2="5" style="fill: none; stroke: #888; stroke-width: 1; opacity: 1;"></line><line transform="translate(1354,0)" x2="0" y2="5" style="fill: none; stroke: #888; stroke-width: 1; opacity: 1;"></line><line transform="translate(1375,0)" x2="0" y2="5" style="fill: none; stroke: #888; stroke-width: 1; opacity: 1;"></line><line transform="translate(1396,0)" x2="0" y2="5" style="fill: none; stroke: #888; stroke-width: 1; opacity: 1;"></line><line transform="translate(1417,0)" x2="0" y2="5" style="fill: none; stroke: #888; stroke-width: 1; opacity: 1;"></line><line transform="translate(1438,0)" x2="0" y2="5" style="fill: none; stroke: #888; stroke-width: 1; opacity: 1;"></line><line transform="translate(1459,0)" x2="0" y2="5" style="fill: none; stroke: #888; stroke-width: 1; opacity: 1;"></line><line transform="translate(1480,0)" x2="0" y2="5" style="fill: none; stroke: #888; stroke-width: 1; opacity: 1;"></line><line transform="translate(1501,0)" x2="0" y2="5" style="fill: none; stroke: #888; stroke-width: 1; opacity: 1;"></line><line transform="translate(1522,0)" x2="0" y2="5" style="fill: none; stroke: #888; stroke-width: 1; opacity: 1;"></line><line transform="translate(1543,0)" x2="0" y2="5" style="fill: none; stroke: #888; stroke-width: 1; opacity: 1;"></line><line transform="translate(1564,0)" x2="0" y2="5" style="fill: none; stroke: #888; stroke-width: 1; opacity: 1;"></line><line transform="translate(1585,0)" x2="0" y2="5" style="fill: none; stroke: #888; stroke-width: 1; opacity: 1;"></line><line transform="translate(1606,0)" x2="0" y2="5" style="fill: none; stroke: #888; stroke-width: 1; opacity: 1;"></line><line transform="translate(1627,0)" x2="0" y2="5" style="fill: none; stroke: #888; stroke-width: 1; opacity: 1;"></line><line transform="translate(1648,0)" x2="0" y2="5" style="fill: none; stroke: #888; stroke-width: 1; opacity: 1;"></line><line transform="translate(1669,0)" x2="0" y2="5" style="fill: none; stroke: #888; stroke-width: 1; opacity: 1;"></line><line transform="translate(1690,0)" x2="0" y2="5" style="fill: none; stroke: #888; stroke-width: 1; opacity: 1;"></line><line transform="translate(1711,0)" x2="0" y2="5" style="fill: none; stroke: #888; stroke-width: 1; opacity: 1;"></line><line transform="translate(1732,0)" x2="0" y2="5" style="fill: none; stroke: #888; stroke-width: 1; opacity: 1;"></line><line transform="translate(1753,0)" x2="0" y2="5" style="fill: none; stroke: #888; stroke-width: 1; opacity: 1;"></line><line transform="translate(1774,0)" x2="0" y2="5" style="fill: none; stroke: #888; stroke-width: 1; opacity: 1;"></line><line transform="translate(1795,0)" x2="0" y2="5" style="fill: none; stroke: #888; stroke-width: 1; opacity: 1;"></line><line transform="translate(1816,0)" x2="0" y2="5" style="fill: none; stroke: #888; stroke-width: 1; opacity: 1;"></line><line transform="translate(1837,0)" x2="0" y2="5" style="fill: none; stroke: #888; stroke-width: 1; opacity: 1;"></line><line transform="translate(1858,0)" x2="0" y2="5" style="fill: none; stroke: #888; stroke-width: 1; opacity: 1;"></line><line transform="translate(1879,0)" x2="0" y2="5" style="fill: none; stroke: #888; stroke-width: 1; opacity: 1;"></line><line transform="translate(1900,0)" x2="0" y2="5" style="fill: none; stroke: #888; stroke-width: 1; opacity: 1;"></line><line transform="translate(1921,0)" x2="0" y2="5" style="fill: none; stroke: #888; stroke-width: 1; opacity: 1;"></line><line transform="translate(1942,0)" x2="0" y2="5" style="fill: none; stroke: #888; stroke-width: 1; opacity: 1;"></line><line transform="translate(1963,0)" x2="0" y2="5" style="fill: none; stroke: #888; stroke-width: 1; opacity: 1;"></line><line transform="translate(1984,0)" x2="0" y2="5" style="fill: none; stroke: #888; stroke-width: 1; opacity: 1;"></line></g><g class="mark-text role-axis-label" style="pointer-events: none;"><text text-anchor="end" transform="translate(9.499999999999956,7) rotate(270) translate(0,3)" style="font-family: sans-serif; font-size: 10px; fill: #000; opacity: 1;">100percentfedup.com</text><text text-anchor="end" transform="translate(30.499999999999957,7) rotate(270) translate(0,3)" style="font-family: sans-serif; font-size: 10px; fill: #000; opacity: 1;">4threvolutionarywar.wordpress.com</text><text text-anchor="end" transform="translate(51.49999999999996,7) rotate(270) translate(0,3)" style="font-family: sans-serif; font-size: 10px; fill: #000; opacity: 1;">aheadoftheherd.com</text><text text-anchor="end" transform="translate(72.49999999999996,7) rotate(270) translate(0,3)" style="font-family: sans-serif; font-size: 10px; fill: #000; opacity: 1;">americablog.com</text><text text-anchor="end" transform="translate(93.49999999999996,7) rotate(270) translate(0,3)" style="font-family: sans-serif; font-size: 10px; fill: #000; opacity: 1;">americanlookout.com</text><text text-anchor="end" transform="translate(114.49999999999996,7) rotate(270) translate(0,3)" style="font-family: sans-serif; font-size: 10px; fill: #000; opacity: 1;">americanpatriotdaily.com</text><text text-anchor="end" transform="translate(135.49999999999994,7) rotate(270) translate(0,3)" style="font-family: sans-serif; font-size: 10px; fill: #000; opacity: 1;">americanthinker.com</text><text text-anchor="end" transform="translate(156.49999999999994,7) rotate(270) translate(0,3)" style="font-family: sans-serif; font-size: 10px; fill: #000; opacity: 1;">americasfreedomfighters.com</text><text text-anchor="end" transform="translate(177.49999999999994,7) rotate(270) translate(0,3)" style="font-family: sans-serif; font-size: 10px; fill: #000; opacity: 1;">anotherdayintheempire.com</text><text text-anchor="end" transform="translate(198.49999999999994,7) rotate(270) translate(0,3)" style="font-family: sans-serif; font-size: 10px; fill: #000; opacity: 1;">antiwar.com</text><text text-anchor="end" transform="translate(219.49999999999994,7) rotate(270) translate(0,3)" style="font-family: sans-serif; font-size: 10px; fill: #000; opacity: 1;">centerforsecuritypolicy.org</text><text text-anchor="end" transform="translate(240.49999999999994,7) rotate(270) translate(0,3)" style="font-family: sans-serif; font-size: 10px; fill: #000; opacity: 1;">charismanews.com</text><text text-anchor="end" transform="translate(261.49999999999994,7) rotate(270) translate(0,3)" style="font-family: sans-serif; font-size: 10px; fill: #000; opacity: 1;">citizensunited.org</text><text text-anchor="end" transform="translate(282.49999999999994,7) rotate(270) translate(0,3)" style="font-family: sans-serif; font-size: 10px; fill: #000; opacity: 1;">conservapedia.com</text><text text-anchor="end" transform="translate(303.49999999999994,7) rotate(270) translate(0,3)" style="font-family: sans-serif; font-size: 10px; fill: #000; opacity: 1;">conservativefiringline.com</text><text text-anchor="end" transform="translate(324.49999999999994,7) rotate(270) translate(0,3)" style="font-family: sans-serif; font-size: 10px; fill: #000; opacity: 1;">conservativehq.com</text><text text-anchor="end" transform="translate(345.49999999999994,7) rotate(270) translate(0,3)" style="font-family: sans-serif; font-size: 10px; fill: #000; opacity: 1;">conservativepapers.com</text><text text-anchor="end" transform="translate(366.49999999999994,7) rotate(270) translate(0,3)" style="font-family: sans-serif; font-size: 10px; fill: #000; opacity: 1;">conservativespirit.com</text><text text-anchor="end" transform="translate(387.49999999999994,7) rotate(270) translate(0,3)" style="font-family: sans-serif; font-size: 10px; fill: #000; opacity: 1;">conservativetribune.com</text><text text-anchor="end" transform="translate(408.49999999999994,7) rotate(270) translate(0,3)" style="font-family: sans-serif; font-size: 10px; fill: #000; opacity: 1;">counterjihad.com</text><text text-anchor="end" transform="translate(429.49999999999994,7) rotate(270) translate(0,3)" style="font-family: sans-serif; font-size: 10px; fill: #000; opacity: 1;">cowgernation.com</text><text text-anchor="end" transform="translate(450.49999999999994,7) rotate(270) translate(0,3)" style="font-family: sans-serif; font-size: 10px; fill: #000; opacity: 1;">dailypoliticsusa.com</text><text text-anchor="end" transform="translate(471.49999999999994,7) rotate(270) translate(0,3)" style="font-family: sans-serif; font-size: 10px; fill: #000; opacity: 1;">dailysignal.com</text><text text-anchor="end" transform="translate(492.49999999999994,7) rotate(270) translate(0,3)" style="font-family: sans-serif; font-size: 10px; fill: #000; opacity: 1;">dailytelegraph.com.au</text><text text-anchor="end" transform="translate(513.5,7) rotate(270) translate(0,3)" style="font-family: sans-serif; font-size: 10px; fill: #000; opacity: 1;">dailywire.com</text><text text-anchor="end" transform="translate(534.5,7) rotate(270) translate(0,3)" style="font-family: sans-serif; font-size: 10px; fill: #000; opacity: 1;">darkpolitricks.com</text><text text-anchor="end" transform="translate(555.5,7) rotate(270) translate(0,3)" style="font-family: sans-serif; font-size: 10px; fill: #000; opacity: 1;">debunkingskeptics.com</text><text text-anchor="end" transform="translate(576.5,7) rotate(270) translate(0,3)" style="font-family: sans-serif; font-size: 10px; fill: #000; opacity: 1;">defenddemocracy.press</text><text text-anchor="end" transform="translate(597.5,7) rotate(270) translate(0,3)" style="font-family: sans-serif; font-size: 10px; fill: #000; opacity: 1;">elelephantintheroom.blogspot.com</text><text text-anchor="end" transform="translate(618.5,7) rotate(270) translate(0,3)" style="font-family: sans-serif; font-size: 10px; fill: #000; opacity: 1;">endingthefed.com</text><text text-anchor="end" transform="translate(639.5,7) rotate(270) translate(0,3)" style="font-family: sans-serif; font-size: 10px; fill: #000; opacity: 1;">endtime.com</text><text text-anchor="end" transform="translate(660.5,7) rotate(270) translate(0,3)" style="font-family: sans-serif; font-size: 10px; fill: #000; opacity: 1;">federalistpress.com</text><text text-anchor="end" transform="translate(681.5,7) rotate(270) translate(0,3)" style="font-family: sans-serif; font-size: 10px; fill: #000; opacity: 1;">firearmscoalition.org</text><text text-anchor="end" transform="translate(702.5,7) rotate(270) translate(0,3)" style="font-family: sans-serif; font-size: 10px; fill: #000; opacity: 1;">frontpagemag.com</text><text text-anchor="end" transform="translate(723.5,7) rotate(270) translate(0,3)" style="font-family: sans-serif; font-size: 10px; fill: #000; opacity: 1;">gulagbound.com</text><text text-anchor="end" transform="translate(744.5,7) rotate(270) translate(0,3)" style="font-family: sans-serif; font-size: 10px; fill: #000; opacity: 1;">heartland.org</text><text text-anchor="end" transform="translate(765.5,7) rotate(270) translate(0,3)" style="font-family: sans-serif; font-size: 10px; fill: #000; opacity: 1;">horowitzfreedomcenter.org</text><text text-anchor="end" transform="translate(786.5,7) rotate(270) translate(0,3)" style="font-family: sans-serif; font-size: 10px; fill: #000; opacity: 1;">intrepidreport.com</text><text text-anchor="end" transform="translate(807.5,7) rotate(270) translate(0,3)" style="font-family: sans-serif; font-size: 10px; fill: #000; opacity: 1;">investmentwatchblog.com</text><text text-anchor="end" transform="translate(828.5,7) rotate(270) translate(0,3)" style="font-family: sans-serif; font-size: 10px; fill: #000; opacity: 1;">jamesrgrangerjr.com</text><text text-anchor="end" transform="translate(849.5,7) rotate(270) translate(0,3)" style="font-family: sans-serif; font-size: 10px; fill: #000; opacity: 1;">journal-neo.org</text><text text-anchor="end" transform="translate(870.5,7) rotate(270) translate(0,3)" style="font-family: sans-serif; font-size: 10px; fill: #000; opacity: 1;">katehon.com</text><text text-anchor="end" transform="translate(891.5,7) rotate(270) translate(0,3)" style="font-family: sans-serif; font-size: 10px; fill: #000; opacity: 1;">lewrockwell.com</text><text text-anchor="end" transform="translate(912.5,7) rotate(270) translate(0,3)" style="font-family: sans-serif; font-size: 10px; fill: #000; opacity: 1;">libertyunyielding.com</text><text text-anchor="end" transform="translate(933.5,7) rotate(270) translate(0,3)" style="font-family: sans-serif; font-size: 10px; fill: #000; opacity: 1;">lifenews.com</text><text text-anchor="end" transform="translate(954.5,7) rotate(270) translate(0,3)" style="font-family: sans-serif; font-size: 10px; fill: #000; opacity: 1;">meanlefthook.com</text><text text-anchor="end" transform="translate(975.5,7) rotate(270) translate(0,3)" style="font-family: sans-serif; font-size: 10px; fill: #000; opacity: 1;">moonofalabama.org</text><text text-anchor="end" transform="translate(996.5,7) rotate(270) translate(0,3)" style="font-family: sans-serif; font-size: 10px; fill: #000; opacity: 1;">newslogue.com</text><text text-anchor="end" transform="translate(1017.5,7) rotate(270) translate(0,3)" style="font-family: sans-serif; font-size: 10px; fill: #000; opacity: 1;">oathkeepers.org</text><text text-anchor="end" transform="translate(1038.5,7) rotate(270) translate(0,3)" style="font-family: sans-serif; font-size: 10px; fill: #000; opacity: 1;">off-guardian.org</text><text text-anchor="end" transform="translate(1059.5,7) rotate(270) translate(0,3)" style="font-family: sans-serif; font-size: 10px; fill: #000; opacity: 1;">oftwominds.com</text><text text-anchor="end" transform="translate(1080.5,7) rotate(270) translate(0,3)" style="font-family: sans-serif; font-size: 10px; fill: #000; opacity: 1;">openmindmagazine.com</text><text text-anchor="end" transform="translate(1101.5,7) rotate(270) translate(0,3)" style="font-family: sans-serif; font-size: 10px; fill: #000; opacity: 1;">orientalreview.org</text><text text-anchor="end" transform="translate(1122.5,7) rotate(270) translate(0,3)" style="font-family: sans-serif; font-size: 10px; fill: #000; opacity: 1;">palmerreport.com</text><text text-anchor="end" transform="translate(1143.5,7) rotate(270) translate(0,3)" style="font-family: sans-serif; font-size: 10px; fill: #000; opacity: 1;">patriotchronicle.com</text><text text-anchor="end" transform="translate(1164.5,7) rotate(270) translate(0,3)" style="font-family: sans-serif; font-size: 10px; fill: #000; opacity: 1;">patriotpost.us</text><text text-anchor="end" transform="translate(1185.5,7) rotate(270) translate(0,3)" style="font-family: sans-serif; font-size: 10px; fill: #000; opacity: 1;">patriotrising.com</text><text text-anchor="end" transform="translate(1206.5,7) rotate(270) translate(0,3)" style="font-family: sans-serif; font-size: 10px; fill: #000; opacity: 1;">patriotupdate.com</text><text text-anchor="end" transform="translate(1227.5,7) rotate(270) translate(0,3)" style="font-family: sans-serif; font-size: 10px; fill: #000; opacity: 1;">paulcraigroberts.org</text><text text-anchor="end" transform="translate(1248.5,7) rotate(270) translate(0,3)" style="font-family: sans-serif; font-size: 10px; fill: #000; opacity: 1;">platosguns.com</text><text text-anchor="end" transform="translate(1269.5,7) rotate(270) translate(0,3)" style="font-family: sans-serif; font-size: 10px; fill: #000; opacity: 1;">politicalcult.com</text><text text-anchor="end" transform="translate(1290.5,7) rotate(270) translate(0,3)" style="font-family: sans-serif; font-size: 10px; fill: #000; opacity: 1;">pravda.ru</text><text text-anchor="end" transform="translate(1311.5,7) rotate(270) translate(0,3)" style="font-family: sans-serif; font-size: 10px; fill: #000; opacity: 1;">pravdareport.com</text><text text-anchor="end" transform="translate(1332.5,7) rotate(270) translate(0,3)" style="font-family: sans-serif; font-size: 10px; fill: #000; opacity: 1;">presstv.com</text><text text-anchor="end" transform="translate(1353.5,7) rotate(270) translate(0,3)" style="font-family: sans-serif; font-size: 10px; fill: #000; opacity: 1;">projectveritas.com</text><text text-anchor="end" transform="translate(1374.5,7) rotate(270) translate(0,3)" style="font-family: sans-serif; font-size: 10px; fill: #000; opacity: 1;">qpolitical.com</text><text text-anchor="end" transform="translate(1395.5,7) rotate(270) translate(0,3)" style="font-family: sans-serif; font-size: 10px; fill: #000; opacity: 1;">readconservatives.news</text><text text-anchor="end" transform="translate(1416.5,7) rotate(270) translate(0,3)" style="font-family: sans-serif; font-size: 10px; fill: #000; opacity: 1;">reagancoalition.com</text><text text-anchor="end" transform="translate(1437.5,7) rotate(270) translate(0,3)" style="font-family: sans-serif; font-size: 10px; fill: #000; opacity: 1;">realtimepolitics.com</text><text text-anchor="end" transform="translate(1458.5,7) rotate(270) translate(0,3)" style="font-family: sans-serif; font-size: 10px; fill: #000; opacity: 1;">redflagnews.com</text><text text-anchor="end" transform="translate(1479.5,7) rotate(270) translate(0,3)" style="font-family: sans-serif; font-size: 10px; fill: #000; opacity: 1;">redstatewatcher.com</text><text text-anchor="end" transform="translate(1500.5,7) rotate(270) translate(0,3)" style="font-family: sans-serif; font-size: 10px; fill: #000; opacity: 1;">rightalert.com</text><text text-anchor="end" transform="translate(1521.5,7) rotate(270) translate(0,3)" style="font-family: sans-serif; font-size: 10px; fill: #000; opacity: 1;">rightwingnews.com</text><text text-anchor="end" transform="translate(1542.5,7) rotate(270) translate(0,3)" style="font-family: sans-serif; font-size: 10px; fill: #000; opacity: 1;">russia-insider.com</text><text text-anchor="end" transform="translate(1563.5,7) rotate(270) translate(0,3)" style="font-family: sans-serif; font-size: 10px; fill: #000; opacity: 1;">sputniknews.com</text><text text-anchor="end" transform="translate(1584.5,7) rotate(270) translate(0,3)" style="font-family: sans-serif; font-size: 10px; fill: #000; opacity: 1;">thefederalistpapers.org</text><text text-anchor="end" transform="translate(1605.5,7) rotate(270) translate(0,3)" style="font-family: sans-serif; font-size: 10px; fill: #000; opacity: 1;">thegatewaypundit.com</text><text text-anchor="end" transform="translate(1626.5,7) rotate(270) translate(0,3)" style="font-family: sans-serif; font-size: 10px; fill: #000; opacity: 1;">thenewamerican.com</text><text text-anchor="end" transform="translate(1647.5,7) rotate(270) translate(0,3)" style="font-family: sans-serif; font-size: 10px; fill: #000; opacity: 1;">thenewsdoctors.com</text><text text-anchor="end" transform="translate(1668.5,7) rotate(270) translate(0,3)" style="font-family: sans-serif; font-size: 10px; fill: #000; opacity: 1;">truepundit.com</text><text text-anchor="end" transform="translate(1689.5,7) rotate(270) translate(0,3)" style="font-family: sans-serif; font-size: 10px; fill: #000; opacity: 1;">truthandaction.org</text><text text-anchor="end" transform="translate(1710.5,7) rotate(270) translate(0,3)" style="font-family: sans-serif; font-size: 10px; fill: #000; opacity: 1;">truthkings.com</text><text text-anchor="end" transform="translate(1731.5,7) rotate(270) translate(0,3)" style="font-family: sans-serif; font-size: 10px; fill: #000; opacity: 1;">truthrevolt.org</text><text text-anchor="end" transform="translate(1752.5,7) rotate(270) translate(0,3)" style="font-family: sans-serif; font-size: 10px; fill: #000; opacity: 1;">unclesamsmisguidedchildren.com</text><text text-anchor="end" transform="translate(1773.5,7) rotate(270) translate(0,3)" style="font-family: sans-serif; font-size: 10px; fill: #000; opacity: 1;">unz.com</text><text text-anchor="end" transform="translate(1794.5,7) rotate(270) translate(0,3)" style="font-family: sans-serif; font-size: 10px; fill: #000; opacity: 1;">usapoliticstoday.com</text><text text-anchor="end" transform="translate(1815.5,7) rotate(270) translate(0,3)" style="font-family: sans-serif; font-size: 10px; fill: #000; opacity: 1;">uschronicle.com</text><text text-anchor="end" transform="translate(1836.5,7) rotate(270) translate(0,3)" style="font-family: sans-serif; font-size: 10px; fill: #000; opacity: 1;">usherald.com</text><text text-anchor="end" transform="translate(1857.5,7) rotate(270) translate(0,3)" style="font-family: sans-serif; font-size: 10px; fill: #000; opacity: 1;">vdare.com</text><text text-anchor="end" transform="translate(1878.5,7) rotate(270) translate(0,3)" style="font-family: sans-serif; font-size: 10px; fill: #000; opacity: 1;">veteranstoday.com</text><text text-anchor="end" transform="translate(1899.5,7) rotate(270) translate(0,3)" style="font-family: sans-serif; font-size: 10px; fill: #000; opacity: 1;">washingtonsblog.com</text><text text-anchor="end" transform="translate(1920.5,7) rotate(270) translate(0,3)" style="font-family: sans-serif; font-size: 10px; fill: #000; opacity: 1;">wearechange.org</text><text text-anchor="end" transform="translate(1941.5,7) rotate(270) translate(0,3)" style="font-family: sans-serif; font-size: 10px; fill: #000; opacity: 1;">westernjournalism.com</text><text text-anchor="end" transform="translate(1962.5,7) rotate(270) translate(0,3)" style="font-family: sans-serif; font-size: 10px; fill: #000; opacity: 1;">winningdemocrats.com</text><text text-anchor="end" transform="translate(1983.5,7) rotate(270) translate(0,3)" style="font-family: sans-serif; font-size: 10px; fill: #000; opacity: 1;">wnd.com</text></g><g class="mark-rule role-axis-domain" style="pointer-events: none;"><line transform="translate(0,0)" x2="1995" y2="0" style="fill: none; stroke: #888; stroke-width: 1; opacity: 1;"></line></g><g class="mark-text role-axis-title" style="pointer-events: none;"><text text-anchor="middle" transform="translate(997.5,178.2900390625)" style="font-family: sans-serif; font-size: 11px; font-weight: bold; fill: #000; opacity: 1;">domains</text></g></g></g></g><g class="mark-group role-axis"><g transform="translate(0.5,0.5)"><path class="background" d="M0,0h0v0h0Z" style="pointer-events: none; fill: none;"></path><g><g class="mark-rule role-axis-tick" style="pointer-events: none;"><line transform="translate(0,300)" x2="-5" y2="0" style="fill: none; stroke: #888; stroke-width: 1; opacity: 1;"></line><line transform="translate(0,270)" x2="-5" y2="0" style="fill: none; stroke: #888; stroke-width: 1; opacity: 1;"></line><line transform="translate(0,240)" x2="-5" y2="0" style="fill: none; stroke: #888; stroke-width: 1; opacity: 1;"></line><line transform="translate(0,210)" x2="-5" y2="0" style="fill: none; stroke: #888; stroke-width: 1; opacity: 1;"></line><line transform="translate(0,180)" x2="-5" y2="0" style="fill: none; stroke: #888; stroke-width: 1; opacity: 1;"></line><line transform="translate(0,150)" x2="-5" y2="0" style="fill: none; stroke: #888; stroke-width: 1; opacity: 1;"></line><line transform="translate(0,120)" x2="-5" y2="0" style="fill: none; stroke: #888; stroke-width: 1; opacity: 1;"></line><line transform="translate(0,90)" x2="-5" y2="0" style="fill: none; stroke: #888; stroke-width: 1; opacity: 1;"></line><line transform="translate(0,60)" x2="-5" y2="0" style="fill: none; stroke: #888; stroke-width: 1; opacity: 1;"></line><line transform="translate(0,30)" x2="-5" y2="0" style="fill: none; stroke: #888; stroke-width: 1; opacity: 1;"></line><line transform="translate(0,0)" x2="-5" y2="0" style="fill: none; stroke: #888; stroke-width: 1; opacity: 1;"></line></g><g class="mark-text role-axis-label" style="pointer-events: none;"><text text-anchor="end" transform="translate(-7,303)" style="font-family: sans-serif; font-size: 10px; fill: #000; opacity: 1;">0</text><text text-anchor="end" transform="translate(-7,273)" style="font-family: sans-serif; font-size: 10px; fill: #000; opacity: 1;">20,000</text><text text-anchor="end" transform="translate(-7,243)" style="font-family: sans-serif; font-size: 10px; fill: #000; opacity: 1;">40,000</text><text text-anchor="end" transform="translate(-7,213)" style="font-family: sans-serif; font-size: 10px; fill: #000; opacity: 1;">60,000</text><text text-anchor="end" transform="translate(-7,183)" style="font-family: sans-serif; font-size: 10px; fill: #000; opacity: 1;">80,000</text><text text-anchor="end" transform="translate(-7,153)" style="font-family: sans-serif; font-size: 10px; fill: #000; opacity: 1;">100,000</text><text text-anchor="end" transform="translate(-7,123)" style="font-family: sans-serif; font-size: 10px; fill: #000; opacity: 1;">120,000</text><text text-anchor="end" transform="translate(-7,93)" style="font-family: sans-serif; font-size: 10px; fill: #000; opacity: 1;">140,000</text><text text-anchor="end" transform="translate(-7,63)" style="font-family: sans-serif; font-size: 10px; fill: #000; opacity: 1;">160,000</text><text text-anchor="end" transform="translate(-7,33)" style="font-family: sans-serif; font-size: 10px; fill: #000; opacity: 1;">180,000</text><text text-anchor="end" transform="translate(-7,3)" style="font-family: sans-serif; font-size: 10px; fill: #000; opacity: 1;">200,000</text></g><g class="mark-rule role-axis-domain" style="pointer-events: none;"><line transform="translate(0,300)" x2="0" y2="-300" style="fill: none; stroke: #888; stroke-width: 1; opacity: 1;"></line></g><g class="mark-text role-axis-title" style="pointer-events: none;"><text text-anchor="middle" transform="translate(-48.1474609375,150) rotate(-90) translate(0,-2)" style="font-family: sans-serif; font-size: 11px; font-weight: bold; fill: #000; opacity: 1;">Count</text></g></g></g></g></g></g></g></g></svg>