<svg class="marks" width="1751" height="504" viewBox="0 0 1751 504" version="1.1" xmlns="http://www.w3.org/2000/svg" xmlns:xlink="http://www.w3.org/1999/xlink"><g transform="translate(66,10)"><g class="mark-group role-frame root"><g transform="translate(0,0)"><path class="background" d="M0.5,0.5h1680v300h-1680Z" style="fill: none; stroke: #ddd;"></path><g><g class="mark-group role-axis"><g transform="translate(0.5,0.5)"><path class="background" d="M0,0h0v0h0Z" style="pointer-events: none; fill: none;"></path><g><g class="mark-rule role-axis-grid" style="pointer-events: none;"><line transform="translate(0,300)" x2="1680" y2="0" style="fill: none; stroke: #ddd; stroke-width: 1; opacity: 1;"></line><line transform="translate(0,267)" x2="1680" y2="0" style="fill: none; stroke: #ddd; stroke-width: 1; opacity: 1;"></line><line transform="translate(0,233)" x2="1680" y2="0" style="fill: none; stroke: #ddd; stroke-width: 1; opacity: 1;"></line><line transform="translate(0,200)" x2="1680" y2="0" style="fill: none; stroke: #ddd; stroke-width: 1; opacity: 1;"></line><line transform="translate(0,167)" x2="1680" y2="0" style="fill: none; stroke: #ddd; stroke-width: 1; opacity: 1;"></line><line transform="translate(0,133)" x2="1680" y2="0" style="fill: none; stroke: #ddd; stroke-width: 1; opacity: 1;"></line><line transform="translate(0,100)" x2="1680" y2="0" style="fill: none; stroke: #ddd; stroke-width: 1; opacity: 1;"></line><line transform="translate(0,67)" x2="1680" y2="0" style="fill: none; stroke: #ddd; stroke-width: 1; opacity: 1;"></line><line transform="translate(0,33)" x2="1680" y2="0" style="fill: none; stroke: #ddd; stroke-width: 1; opacity: 1;"></line><line transform="translate(0,0)" x2="1680" y2="0" style="fill: none; stroke: #ddd; stroke-width: 1; opacity: 1;"></line></g></g></g></g><g class="mark-rect role-mark marks"><path d="M941,299.9683333333333h18v0.03166666666669471h-18Z" style="fill: #4c78a8;"></path><path d="M361,299.99833333333333h18v0.0016666666666651508h-18Z" style="fill: #4c78a8;"></path><path d="M381,299.995h18v0.0049999999999954525h-18Z" style="fill: #4c78a8;"></path><path d="M1501,299.875h18v0.125h-18Z" style="fill: #4c78a8;"></path><path d="M921,299.99833333333333h18v0.0016666666666651508h-18Z" style="fill: #4c78a8;"></path><path d="M981,299.9166666666667h18v0.08333333333331439h-18Z" style="fill: #4c78a8;"></path><path d="M1081,299.8666666666667h18v0.13333333333332575h-18Z" style="fill: #4c78a8;"></path><path d="M241,299.97h18v0.029999999999972715h-18Z" style="fill: #4c78a8;"></path><path d="M1481,256.7583333333333h18v43.241666666666674h-18Z" style="fill: #4c78a8;"></path><path d="M601,291.325h18v8.675000000000011h-18Z" style="fill: #4c78a8;"></path><path d="M401,299.975h18v0.024999999999977263h-18Z" style="fill: #4c78a8;"></path><path d="M1221,299.1566666666667h18v0.8433333333333053h-18Z" style="fill: #4c78a8;"></path><path d="M1661,299.72833333333335h18v0.27166666666664696h-18Z" style="fill: #4c78a8;"></path><path d="M561,283.8466666666667h18v16.153333333333308h-18Z" style="fill: #4c78a8;"></path><path d="M861,297.0366666666667h18v2.96333333333331h-18Z" style="fill: #4c78a8;"></path><path d="M1201,299.975h18v0.024999999999977263h-18Z" style="fill: #4c78a8;"></path><path d="M1301,299.97h18v0.029999999999972715h-18Z" style="fill: #4c78a8;"></path><path d="M1281,299.77166666666665h18v0.22833333333335304h-18Z" style="fill: #4c78a8;"></path><path d="M1361,273.08h18v26.920000000000016h-18Z" style="fill: #4c78a8;"></path><path d="M1021,275.7416666666667h18v24.258333333333326h-18Z" style="fill: #4c78a8;"></path><path d="M1381,299.91333333333336h18v0.08666666666664469h-18Z" style="fill: #4c78a8;"></path><path d="M181,299.985h18v0.014999999999986358h-18Z" style="fill: #4c78a8;"></path><path d="M1421,295.13666666666666h18v4.863333333333344h-18Z" style="fill: #4c78a8;"></path><path d="M321,299.98333333333335h18v0.01666666666665151h-18Z" style="fill: #4c78a8;"></path><path d="M461,292.55h18v7.449999999999989h-18Z" style="fill: #4c78a8;"></path><path d="M1041,299.5516666666667h18v0.4483333333333235h-18Z" style="fill: #4c78a8;"></path><path d="M1161,294.4166666666667h18v5.583333333333314h-18Z" style="fill: #4c78a8;"></path><path d="M441,289.405h18v10.595000000000027h-18Z" style="fill: #4c78a8;"></path><path d="M121,299.88166666666666h18v0.1183333333333394h-18Z" style="fill: #4c78a8;"></path><path d="M1181,292.2916666666667h18v7.708333333333314h-18Z" style="fill: #4c78a8;"></path><path d="M421,299.805h18v0.19499999999999318h-18Z" style="fill: #4c78a8;"></path><path d="M1541,298.83166666666665h18v1.1683333333333508h-18Z" style="fill: #4c78a8;"></path><path d="M1141,299.99333333333334h18v0.006666666666660603h-18Z" style="fill: #4c78a8;"></path><path d="M1061,299.12h18v0.8799999999999955h-18Z" style="fill: #4c78a8;"></path><path d="M1321,257.82h18v42.18000000000001h-18Z" style="fill: #4c78a8;"></path><path d="M1441,268.37166666666667h18v31.62833333333333h-18Z" style="fill: #4c78a8;"></path><path d="M701,299.42333333333335h18v0.5766666666666538h-18Z" style="fill: #4c78a8;"></path><path d="M761,299.86h18v0.13999999999998636h-18Z" style="fill: #4c78a8;"></path><path d="M541,289.59333333333336h18v10.406666666666638h-18Z" style="fill: #4c78a8;"></path><path d="M481,299.97833333333335h18v0.02166666666664696h-18Z" style="fill: #4c78a8;"></path><path d="M81,267.68h18v32.31999999999999h-18Z" style="fill: #4c78a8;"></path><path d="M161,288.3666666666667h18v11.633333333333326h-18Z" style="fill: #4c78a8;"></path><path d="M521,297.86833333333334h18v2.1316666666666606h-18Z" style="fill: #4c78a8;"></path><path d="M1601,255.32333333333332h18v44.67666666666668h-18Z" style="fill: #4c78a8;"></path><path d="M901,283.6983333333333h18v16.301666666666677h-18Z" style="fill: #4c78a8;"></path><path d="M1001,295.83h18v4.170000000000016h-18Z" style="fill: #4c78a8;"></path><path d="M1521,299.94h18v0.060000000000002274h-18Z" style="fill: #4c78a8;"></path><path d="M681,297.40166666666664h18v2.5983333333333576h-18Z" style="fill: #4c78a8;"></path><path d="M1101,284.69166666666666h18v15.308333333333337h-18Z" style="fill: #4c78a8;"></path><path d="M1401,272.905h18v27.095000000000027h-18Z" style="fill: #4c78a8;"></path><path d="M801,297.9066666666667h18v2.0933333333333053h-18Z" style="fill: #4c78a8;"></path><path d="M841,298.58h18v1.420000000000016h-18Z" style="fill: #4c78a8;"></path><path d="M301,296.45h18v3.5500000000000114h-18Z" style="fill: #4c78a8;"></path><path d="M1241,299.945h18v0.05500000000000682h-18Z" style="fill: #4c78a8;"></path><path d="M1641,267.9h18v32.10000000000002h-18Z" style="fill: #4c78a8;"></path><path d="M581,299.9483333333333h18v0.05166666666667652h-18Z" style="fill: #4c78a8;"></path><path d="M201,299.90833333333336h18v0.09166666666664014h-18Z" style="fill: #4c78a8;"></path><path d="M501,297.685h18v2.3149999999999977h-18Z" style="fill: #4c78a8;"></path><path d="M1,286.9866666666667h18v13.013333333333321h-18Z" style="fill: #4c78a8;"></path><path d="M741,298.83666666666664h18v1.1633333333333553h-18Z" style="fill: #4c78a8;"></path><path d="M21,299.94666666666666h18v0.05333333333334167h-18Z" style="fill: #4c78a8;"></path><path d="M41,299.99833333333333h18v0.0016666666666651508h-18Z" style="fill: #4c78a8;"></path><path d="M141,299.825h18v0.17500000000001137h-18Z" style="fill: #4c78a8;"></path><path d="M621,297.87833333333333h18v2.1216666666666697h-18Z" style="fill: #4c78a8;"></path><path d="M1561,298.38666666666666h18v1.613333333333344h-18Z" style="fill: #4c78a8;"></path><path d="M341,297.465h18v2.535000000000025h-18Z" style="fill: #4c78a8;"></path><path d="M101,295.94166666666666h18v4.058333333333337h-18Z" style="fill: #4c78a8;"></path><path d="M641,299.8283333333333h18v0.17166666666668107h-18Z" style="fill: #4c78a8;"></path><path d="M1261,289.78833333333336h18v10.211666666666645h-18Z" style="fill: #4c78a8;"></path><path d="M61,25.636666666666656h18v274.36333333333334h-18Z" style="fill: #4c78a8;"></path><path d="M1461,297.2733333333333h18v2.726666666666688h-18Z" style="fill: #4c78a8;"></path><path d="M221,288.585h18v11.41500000000002h-18Z" style="fill: #4c78a8;"></path><path d="M1581,299.12h18v0.8799999999999955h-18Z" style="fill: #4c78a8;"></path><path d="M261,279.1616666666667h18v20.83833333333331h-18Z" style="fill: #4c78a8;"></path><path d="M661,299.765h18v0.23500000000001364h-18Z" style="fill: #4c78a8;"></path><path d="M721,299.21166666666664h18v0.7883333333333553h-18Z" style="fill: #4c78a8;"></path><path d="M1121,296.6933333333333h18v3.306666666666672h-18Z" style="fill: #4c78a8;"></path><path d="M781,285.5683333333333h18v14.431666666666672h-18Z" style="fill: #4c78a8;"></path><path d="M961,299.95166666666665h18v0.04833333333334622h-18Z" style="fill: #4c78a8;"></path><path d="M281,299.99833333333333h18v0.0016666666666651508h-18Z" style="fill: #4c78a8;"></path><path d="M1341,295.8616666666667h18v4.138333333333321h-18Z" style="fill: #4c78a8;"></path><path d="M881,296.09h18v3.910000000000025h-18Z" style="fill: #4c78a8;"></path><path d="M821,293.0516666666667h18v6.9483333333333235h-18Z" style="fill: #4c78a8;"></path><path d="M1621,299.58666666666664h18v0.4133333333333553h-18Z" style="fill: #4c78a8;"></path></g><g class="mark-group role-axis"><g transform="translate(0.5,300.5)"><path class="background" d="M0,0h0v0h0Z" style="pointer-events: none; fill: none;"></path><g><g class="mark-rule role-axis-tick" style="pointer-events: none;"><line transform="translate(9,0)" x2="0" y2="5" style="fill: none; stroke: #888; stroke-width: 1; opacity: 1;"></line><line transform="translate(29,0)" x2="0" y2="5" style="fill: none; stroke: #888; stroke-width: 1; opacity: 1;"></line><line transform="translate(49,0)" x2="0" y2="5" style="fill: none; stroke: #888; stroke-width: 1; opacity: 1;"></line><line transform="translate(69,0)" x2="0" y2="5" style="fill: none; stroke: #888; stroke-width: 1; opacity: 1;"></line><line transform="translate(89,0)" x2="0" y2="5" style="fill: none; stroke: #888; stroke-width: 1; opacity: 1;"></line><line transform="translate(109,0)" x2="0" y2="5" style="fill: none; stroke: #888; stroke-width: 1; opacity: 1;"></line><line transform="translate(129,0)" x2="0" y2="5" style="fill: none; stroke: #888; stroke-width: 1; opacity: 1;"></line><line transform="translate(149,0)" x2="0" y2="5" style="fill: none; stroke: #888; stroke-width: 1; opacity: 1;"></line><line transform="translate(169,0)" x2="0" y2="5" style="fill: none; stroke: #888; stroke-width: 1; opacity: 1;"></line><line transform="translate(189,0)" x2="0" y2="5" style="fill: none; stroke: #888; stroke-width: 1; opacity: 1;"></line><line transform="translate(209,0)" x2="0" y2="5" style="fill: none; stroke: #888; stroke-width: 1; opacity: 1;"></line><line transform="translate(229,0)" x2="0" y2="5" style="fill: none; stroke: #888; stroke-width: 1; opacity: 1;"></line><line transform="translate(249,0)" x2="0" y2="5" style="fill: none; stroke: #888; stroke-width: 1; opacity: 1;"></line><line transform="translate(269,0)" x2="0" y2="5" style="fill: none; stroke: #888; stroke-width: 1; opacity: 1;"></line><line transform="translate(289,0)" x2="0" y2="5" style="fill: none; stroke: #888; stroke-width: 1; opacity: 1;"></line><line transform="translate(309,0)" x2="0" y2="5" style="fill: none; stroke: #888; stroke-width: 1; opacity: 1;"></line><line transform="translate(329,0)" x2="0" y2="5" style="fill: none; stroke: #888; stroke-width: 1; opacity: 1;"></line><line transform="translate(349,0)" x2="0" y2="5" style="fill: none; stroke: #888; stroke-width: 1; opacity: 1;"></line><line transform="translate(369,0)" x2="0" y2="5" style="fill: none; stroke: #888; stroke-width: 1; opacity: 1;"></line><line transform="translate(389,0)" x2="0" y2="5" style="fill: none; stroke: #888; stroke-width: 1; opacity: 1;"></line><line transform="translate(409,0)" x2="0" y2="5" style="fill: none; stroke: #888; stroke-width: 1; opacity: 1;"></line><line transform="translate(429,0)" x2="0" y2="5" style="fill: none; stroke: #888; stroke-width: 1; opacity: 1;"></line><line transform="translate(449,0)" x2="0" y2="5" style="fill: none; stroke: #888; stroke-width: 1; opacity: 1;"></line><line transform="translate(469,0)" x2="0" y2="5" style="fill: none; stroke: #888; stroke-width: 1; opacity: 1;"></line><line transform="translate(489,0)" x2="0" y2="5" style="fill: none; stroke: #888; stroke-width: 1; opacity: 1;"></line><line transform="translate(509,0)" x2="0" y2="5" style="fill: none; stroke: #888; stroke-width: 1; opacity: 1;"></line><line transform="translate(529,0)" x2="0" y2="5" style="fill: none; stroke: #888; stroke-width: 1; opacity: 1;"></line><line transform="translate(549,0)" x2="0" y2="5" style="fill: none; stroke: #888; stroke-width: 1; opacity: 1;"></line><line transform="translate(569,0)" x2="0" y2="5" style="fill: none; stroke: #888; stroke-width: 1; opacity: 1;"></line><line transform="translate(589,0)" x2="0" y2="5" style="fill: none; stroke: #888; stroke-width: 1; opacity: 1;"></line><line transform="translate(609,0)" x2="0" y2="5" style="fill: none; stroke: #888; stroke-width: 1; opacity: 1;"></line><line transform="translate(629,0)" x2="0" y2="5" style="fill: none; stroke: #888; stroke-width: 1; opacity: 1;"></line><line transform="translate(649,0)" x2="0" y2="5" style="fill: none; stroke: #888; stroke-width: 1; opacity: 1;"></line><line transform="translate(669,0)" x2="0" y2="5" style="fill: none; stroke: #888; stroke-width: 1; opacity: 1;"></line><line transform="translate(689,0)" x2="0" y2="5" style="fill: none; stroke: #888; stroke-width: 1; opacity: 1;"></line><line transform="translate(709,0)" x2="0" y2="5" style="fill: none; stroke: #888; stroke-width: 1; opacity: 1;"></line><line transform="translate(729,0)" x2="0" y2="5" style="fill: none; stroke: #888; stroke-width: 1; opacity: 1;"></line><line transform="translate(749,0)" x2="0" y2="5" style="fill: none; stroke: #888; stroke-width: 1; opacity: 1;"></line><line transform="translate(769,0)" x2="0" y2="5" style="fill: none; stroke: #888; stroke-width: 1; opacity: 1;"></line><line transform="translate(789,0)" x2="0" y2="5" style="fill: none; stroke: #888; stroke-width: 1; opacity: 1;"></line><line transform="translate(809,0)" x2="0" y2="5" style="fill: none; stroke: #888; stroke-width: 1; opacity: 1;"></line><line transform="translate(829,0)" x2="0" y2="5" style="fill: none; stroke: #888; stroke-width: 1; opacity: 1;"></line><line transform="translate(849,0)" x2="0" y2="5" style="fill: none; stroke: #888; stroke-width: 1; opacity: 1;"></line><line transform="translate(869,0)" x2="0" y2="5" style="fill: none; stroke: #888; stroke-width: 1; opacity: 1;"></line><line transform="translate(889,0)" x2="0" y2="5" style="fill: none; stroke: #888; stroke-width: 1; opacity: 1;"></line><line transform="translate(909,0)" x2="0" y2="5" style="fill: none; stroke: #888; stroke-width: 1; opacity: 1;"></line><line transform="translate(929,0)" x2="0" y2="5" style="fill: none; stroke: #888; stroke-width: 1; opacity: 1;"></line><line transform="translate(949,0)" x2="0" y2="5" style="fill: none; stroke: #888; stroke-width: 1; opacity: 1;"></line><line transform="translate(969,0)" x2="0" y2="5" style="fill: none; stroke: #888; stroke-width: 1; opacity: 1;"></line><line transform="translate(989,0)" x2="0" y2="5" style="fill: none; stroke: #888; stroke-width: 1; opacity: 1;"></line><line transform="translate(1009,0)" x2="0" y2="5" style="fill: none; stroke: #888; stroke-width: 1; opacity: 1;"></line><line transform="translate(1029,0)" x2="0" y2="5" style="fill: none; stroke: #888; stroke-width: 1; opacity: 1;"></line><line transform="translate(1049,0)" x2="0" y2="5" style="fill: none; stroke: #888; stroke-width: 1; opacity: 1;"></line><line transform="translate(1069,0)" x2="0" y2="5" style="fill: none; stroke: #888; stroke-width: 1; opacity: 1;"></line><line transform="translate(1089,0)" x2="0" y2="5" style="fill: none; stroke: #888; stroke-width: 1; opacity: 1;"></line><line transform="translate(1109,0)" x2="0" y2="5" style="fill: none; stroke: #888; stroke-width: 1; opacity: 1;"></line><line transform="translate(1129,0)" x2="0" y2="5" style="fill: none; stroke: #888; stroke-width: 1; opacity: 1;"></line><line transform="translate(1149,0)" x2="0" y2="5" style="fill: none; stroke: #888; stroke-width: 1; opacity: 1;"></line><line transform="translate(1169,0)" x2="0" y2="5" style="fill: none; stroke: #888; stroke-width: 1; opacity: 1;"></line><line transform="translate(1189,0)" x2="0" y2="5" style="fill: none; stroke: #888; stroke-width: 1; opacity: 1;"></line><line transform="translate(1209,0)" x2="0" y2="5" style="fill: none; stroke: #888; stroke-width: 1; opacity: 1;"></line><line transform="translate(1229,0)" x2="0" y2="5" style="fill: none; stroke: #888; stroke-width: 1; opacity: 1;"></line><line transform="translate(1249,0)" x2="0" y2="5" style="fill: none; stroke: #888; stroke-width: 1; opacity: 1;"></line><line transform="translate(1269,0)" x2="0" y2="5" style="fill: none; stroke: #888; stroke-width: 1; opacity: 1;"></line><line transform="translate(1289,0)" x2="0" y2="5" style="fill: none; stroke: #888; stroke-width: 1; opacity: 1;"></line><line transform="translate(1309,0)" x2="0" y2="5" style="fill: none; stroke: #888; stroke-width: 1; opacity: 1;"></line><line transform="translate(1329,0)" x2="0" y2="5" style="fill: none; stroke: #888; stroke-width: 1; opacity: 1;"></line><line transform="translate(1349,0)" x2="0" y2="5" style="fill: none; stroke: #888; stroke-width: 1; opacity: 1;"></line><line transform="translate(1369,0)" x2="0" y2="5" style="fill: none; stroke: #888; stroke-width: 1; opacity: 1;"></line><line transform="translate(1389,0)" x2="0" y2="5" style="fill: none; stroke: #888; stroke-width: 1; opacity: 1;"></line><line transform="translate(1409,0)" x2="0" y2="5" style="fill: none; stroke: #888; stroke-width: 1; opacity: 1;"></line><line transform="translate(1429,0)" x2="0" y2="5" style="fill: none; stroke: #888; stroke-width: 1; opacity: 1;"></line><line transform="translate(1449,0)" x2="0" y2="5" style="fill: none; stroke: #888; stroke-width: 1; opacity: 1;"></line><line transform="translate(1469,0)" x2="0" y2="5" style="fill: none; stroke: #888; stroke-width: 1; opacity: 1;"></line><line transform="translate(1489,0)" x2="0" y2="5" style="fill: none; stroke: #888; stroke-width: 1; opacity: 1;"></line><line transform="translate(1509,0)" x2="0" y2="5" style="fill: none; stroke: #888; stroke-width: 1; opacity: 1;"></line><line transform="translate(1529,0)" x2="0" y2="5" style="fill: none; stroke: #888; stroke-width: 1; opacity: 1;"></line><line transform="translate(1549,0)" x2="0" y2="5" style="fill: none; stroke: #888; stroke-width: 1; opacity: 1;"></line><line transform="translate(1569,0)" x2="0" y2="5" style="fill: none; stroke: #888; stroke-width: 1; opacity: 1;"></line><line transform="translate(1589,0)" x2="0" y2="5" style="fill: none; stroke: #888; stroke-width: 1; opacity: 1;"></line><line transform="translate(1609,0)" x2="0" y2="5" style="fill: none; stroke: #888; stroke-width: 1; opacity: 1;"></line><line transform="translate(1629,0)" x2="0" y2="5" style="fill: none; stroke: #888; stroke-width: 1; opacity: 1;"></line><line transform="translate(1649,0)" x2="0" y2="5" style="fill: none; stroke: #888; stroke-width: 1; opacity: 1;"></line><line transform="translate(1669,0)" x2="0" y2="5" style="fill: none; stroke: #888; stroke-width: 1; opacity: 1;"></line></g><g class="mark-text role-axis-label" style="pointer-events: none;"><text text-anchor="end" transform="translate(9,7) rotate(270) translate(0,3)" style="font-family: sans-serif; font-size: 10px; fill: #000; opacity: 1;">21stcenturywire.com</text><text text-anchor="end" transform="translate(29,7) rotate(270) translate(0,3)" style="font-family: sans-serif; font-size: 10px; fill: #000; opacity: 1;">82.221.129.208</text><text text-anchor="end" transform="translate(49,7) rotate(270) translate(0,3)" style="font-family: sans-serif; font-size: 10px; fill: #000; opacity: 1;">NoMoreFakeNews.com</text><text text-anchor="end" transform="translate(69,7) rotate(270) translate(0,3)" style="font-family: sans-serif; font-size: 10px; fill: #000; opacity: 1;">abovetopsecret.com</text><text text-anchor="end" transform="translate(89,7) rotate(270) translate(0,3)" style="font-family: sans-serif; font-size: 10px; fill: #000; opacity: 1;">activistpost.com</text><text text-anchor="end" transform="translate(109,7) rotate(270) translate(0,3)" style="font-family: sans-serif; font-size: 10px; fill: #000; opacity: 1;">americanfreepress.net</text><text text-anchor="end" transform="translate(129,7) rotate(270) translate(0,3)" style="font-family: sans-serif; font-size: 10px; fill: #000; opacity: 1;">angrypatriotmovement.com</text><text text-anchor="end" transform="translate(149,7) rotate(270) translate(0,3)" style="font-family: sans-serif; font-size: 10px; fill: #000; opacity: 1;">assassinationscience.com</text><text text-anchor="end" transform="translate(169,7) rotate(270) translate(0,3)" style="font-family: sans-serif; font-size: 10px; fill: #000; opacity: 1;">awarenessact.com</text><text text-anchor="end" transform="translate(189,7) rotate(270) translate(0,3)" style="font-family: sans-serif; font-size: 10px; fill: #000; opacity: 1;">awdnews.com</text><text text-anchor="end" transform="translate(209,7) rotate(270) translate(0,3)" style="font-family: sans-serif; font-size: 10px; fill: #000; opacity: 1;">blackgenocide.org</text><text text-anchor="end" transform="translate(229,7) rotate(270) translate(0,3)" style="font-family: sans-serif; font-size: 10px; fill: #000; opacity: 1;">canadafreepress.com</text><text text-anchor="end" transform="translate(249,7) rotate(270) translate(0,3)" style="font-family: sans-serif; font-size: 10px; fill: #000; opacity: 1;">concisepolitics.com</text><text text-anchor="end" transform="translate(269,7) rotate(270) translate(0,3)" style="font-family: sans-serif; font-size: 10px; fill: #000; opacity: 1;">conservativerefocus.com</text><text text-anchor="end" transform="translate(289,7) rotate(270) translate(0,3)" style="font-family: sans-serif; font-size: 10px; fill: #000; opacity: 1;">conspiracyplanet.com</text><text text-anchor="end" transform="translate(309,7) rotate(270) translate(0,3)" style="font-family: sans-serif; font-size: 10px; fill: #000; opacity: 1;">corbettreport.com</text><text text-anchor="end" transform="translate(329,7) rotate(270) translate(0,3)" style="font-family: sans-serif; font-size: 10px; fill: #000; opacity: 1;">countdowntozerotime.com</text><text text-anchor="end" transform="translate(349,7) rotate(270) translate(0,3)" style="font-family: sans-serif; font-size: 10px; fill: #000; opacity: 1;">counterpsyops.com</text><text text-anchor="end" transform="translate(369,7) rotate(270) translate(0,3)" style="font-family: sans-serif; font-size: 10px; fill: #000; opacity: 1;">cryptogon.com</text><text text-anchor="end" transform="translate(389,7) rotate(270) translate(0,3)" style="font-family: sans-serif; font-size: 10px; fill: #000; opacity: 1;">dailyoccupation.com</text><text text-anchor="end" transform="translate(409,7) rotate(270) translate(0,3)" style="font-family: sans-serif; font-size: 10px; fill: #000; opacity: 1;">dataasylum.com</text><text text-anchor="end" transform="translate(429,7) rotate(270) translate(0,3)" style="font-family: sans-serif; font-size: 10px; fill: #000; opacity: 1;">davidwolfe.com</text><text text-anchor="end" transform="translate(449,7) rotate(270) translate(0,3)" style="font-family: sans-serif; font-size: 10px; fill: #000; opacity: 1;">dcclothesline.com</text><text text-anchor="end" transform="translate(469,7) rotate(270) translate(0,3)" style="font-family: sans-serif; font-size: 10px; fill: #000; opacity: 1;">educate-yourself.org</text><text text-anchor="end" transform="translate(489,7) rotate(270) translate(0,3)" style="font-family: sans-serif; font-size: 10px; fill: #000; opacity: 1;">electionnightgatekeepers.com</text><text text-anchor="end" transform="translate(509,7) rotate(270) translate(0,3)" style="font-family: sans-serif; font-size: 10px; fill: #000; opacity: 1;">endoftheamericandream.com</text><text text-anchor="end" transform="translate(529,7) rotate(270) translate(0,3)" style="font-family: sans-serif; font-size: 10px; fill: #000; opacity: 1;">eyeopening.info</text><text text-anchor="end" transform="translate(549,7) rotate(270) translate(0,3)" style="font-family: sans-serif; font-size: 10px; fill: #000; opacity: 1;">familysecuritymatters.org</text><text text-anchor="end" transform="translate(569,7) rotate(270) translate(0,3)" style="font-family: sans-serif; font-size: 10px; fill: #000; opacity: 1;">fellowshipoftheminds.com</text><text text-anchor="end" transform="translate(589,7) rotate(270) translate(0,3)" style="font-family: sans-serif; font-size: 10px; fill: #000; opacity: 1;">fprnradio.com</text><text text-anchor="end" transform="translate(609,7) rotate(270) translate(0,3)" style="font-family: sans-serif; font-size: 10px; fill: #000; opacity: 1;">freedomoutpost.com</text><text text-anchor="end" transform="translate(629,7) rotate(270) translate(0,3)" style="font-family: sans-serif; font-size: 10px; fill: #000; opacity: 1;">fromthetrenchesworldreport.com</text><text text-anchor="end" transform="translate(649,7) rotate(270) translate(0,3)" style="font-family: sans-serif; font-size: 10px; fill: #000; opacity: 1;">gaia.com</text><text text-anchor="end" transform="translate(669,7) rotate(270) translate(0,3)" style="font-family: sans-serif; font-size: 10px; fill: #000; opacity: 1;">govtslaves.info</text><text text-anchor="end" transform="translate(689,7) rotate(270) translate(0,3)" style="font-family: sans-serif; font-size: 10px; fill: #000; opacity: 1;">greanvillepost.com</text><text text-anchor="end" transform="translate(709,7) rotate(270) translate(0,3)" style="font-family: sans-serif; font-size: 10px; fill: #000; opacity: 1;">hangthebankers.com</text><text text-anchor="end" transform="translate(729,7) rotate(270) translate(0,3)" style="font-family: sans-serif; font-size: 10px; fill: #000; opacity: 1;">henrymakow.com</text><text text-anchor="end" transform="translate(749,7) rotate(270) translate(0,3)" style="font-family: sans-serif; font-size: 10px; fill: #000; opacity: 1;">humansarefree.com</text><text text-anchor="end" transform="translate(769,7) rotate(270) translate(0,3)" style="font-family: sans-serif; font-size: 10px; fill: #000; opacity: 1;">illuminati-news.com</text><text text-anchor="end" transform="translate(789,7) rotate(270) translate(0,3)" style="font-family: sans-serif; font-size: 10px; fill: #000; opacity: 1;">infiniteunknown.net</text><text text-anchor="end" transform="translate(809,7) rotate(270) translate(0,3)" style="font-family: sans-serif; font-size: 10px; fill: #000; opacity: 1;">informationclearinghouse.info</text><text text-anchor="end" transform="translate(829,7) rotate(270) translate(0,3)" style="font-family: sans-serif; font-size: 10px; fill: #000; opacity: 1;">infowars.com</text><text text-anchor="end" transform="translate(849,7) rotate(270) translate(0,3)" style="font-family: sans-serif; font-size: 10px; fill: #000; opacity: 1;">intellihub.com</text><text text-anchor="end" transform="translate(869,7) rotate(270) translate(0,3)" style="font-family: sans-serif; font-size: 10px; fill: #000; opacity: 1;">investmentresearchdynamics.com</text><text text-anchor="end" transform="translate(889,7) rotate(270) translate(0,3)" style="font-family: sans-serif; font-size: 10px; fill: #000; opacity: 1;">jesus-is-savior.com</text><text text-anchor="end" transform="translate(909,7) rotate(270) translate(0,3)" style="font-family: sans-serif; font-size: 10px; fill: #000; opacity: 1;">jihadwatch.org</text><text text-anchor="end" transform="translate(929,7) rotate(270) translate(0,3)" style="font-family: sans-serif; font-size: 10px; fill: #000; opacity: 1;">knowledgeoftoday.org</text><text text-anchor="end" transform="translate(949,7) rotate(270) translate(0,3)" style="font-family: sans-serif; font-size: 10px; fill: #000; opacity: 1;">libertytalk.fm</text><text text-anchor="end" transform="translate(969,7) rotate(270) translate(0,3)" style="font-family: sans-serif; font-size: 10px; fill: #000; opacity: 1;">libertyvideos.org</text><text text-anchor="end" transform="translate(989,7) rotate(270) translate(0,3)" style="font-family: sans-serif; font-size: 10px; fill: #000; opacity: 1;">nasamoonhoax.com</text><text text-anchor="end" transform="translate(1009,7) rotate(270) translate(0,3)" style="font-family: sans-serif; font-size: 10px; fill: #000; opacity: 1;">neonnettle.com</text><text text-anchor="end" transform="translate(1029,7) rotate(270) translate(0,3)" style="font-family: sans-serif; font-size: 10px; fill: #000; opacity: 1;">newstarget.com</text><text text-anchor="end" transform="translate(1049,7) rotate(270) translate(0,3)" style="font-family: sans-serif; font-size: 10px; fill: #000; opacity: 1;">nodisinfo.com</text><text text-anchor="end" transform="translate(1069,7) rotate(270) translate(0,3)" style="font-family: sans-serif; font-size: 10px; fill: #000; opacity: 1;">nowtheendbegins.com</text><text text-anchor="end" transform="translate(1089,7) rotate(270) translate(0,3)" style="font-family: sans-serif; font-size: 10px; fill: #000; opacity: 1;">oilgeopolitics.net</text><text text-anchor="end" transform="translate(1109,7) rotate(270) translate(0,3)" style="font-family: sans-serif; font-size: 10px; fill: #000; opacity: 1;">pamelageller.com</text><text text-anchor="end" transform="translate(1129,7) rotate(270) translate(0,3)" style="font-family: sans-serif; font-size: 10px; fill: #000; opacity: 1;">politicalblindspot.com</text><text text-anchor="end" transform="translate(1149,7) rotate(270) translate(0,3)" style="font-family: sans-serif; font-size: 10px; fill: #000; opacity: 1;">prepperwebsite.com</text><text text-anchor="end" transform="translate(1169,7) rotate(270) translate(0,3)" style="font-family: sans-serif; font-size: 10px; fill: #000; opacity: 1;">prisonplanet.com</text><text text-anchor="end" transform="translate(1189,7) rotate(270) translate(0,3)" style="font-family: sans-serif; font-size: 10px; fill: #000; opacity: 1;">rense.com</text><text text-anchor="end" transform="translate(1209,7) rotate(270) translate(0,3)" style="font-family: sans-serif; font-size: 10px; fill: #000; opacity: 1;">rumormillnews.com</text><text text-anchor="end" transform="translate(1229,7) rotate(270) translate(0,3)" style="font-family: sans-serif; font-size: 10px; fill: #000; opacity: 1;">secretsofthefed.com</text><text text-anchor="end" transform="translate(1249,7) rotate(270) translate(0,3)" style="font-family: sans-serif; font-size: 10px; fill: #000; opacity: 1;">sheepkillers.com</text><text text-anchor="end" transform="translate(1269,7) rotate(270) translate(0,3)" style="font-family: sans-serif; font-size: 10px; fill: #000; opacity: 1;">shoebat.com</text><text text-anchor="end" transform="translate(1289,7) rotate(270) translate(0,3)" style="font-family: sans-serif; font-size: 10px; fill: #000; opacity: 1;">skeptiko.com</text><text text-anchor="end" transform="translate(1309,7) rotate(270) translate(0,3)" style="font-family: sans-serif; font-size: 10px; fill: #000; opacity: 1;">sonsoflibertyradio.com</text><text text-anchor="end" transform="translate(1329,7) rotate(270) translate(0,3)" style="font-family: sans-serif; font-size: 10px; fill: #000; opacity: 1;">thedailysheeple.com</text><text text-anchor="end" transform="translate(1349,7) rotate(270) translate(0,3)" style="font-family: sans-serif; font-size: 10px; fill: #000; opacity: 1;">theeconomiccollapseblog.com</text><text text-anchor="end" transform="translate(1369,7) rotate(270) translate(0,3)" style="font-family: sans-serif; font-size: 10px; fill: #000; opacity: 1;">theeventchronicle.com</text><text text-anchor="end" transform="translate(1389,7) rotate(270) translate(0,3)" style="font-family: sans-serif; font-size: 10px; fill: #000; opacity: 1;">theforbiddenknowledge.com</text><text text-anchor="end" transform="translate(1409,7) rotate(270) translate(0,3)" style="font-family: sans-serif; font-size: 10px; fill: #000; opacity: 1;">thelibertybeacon.com</text><text text-anchor="end" transform="translate(1429,7) rotate(270) translate(0,3)" style="font-family: sans-serif; font-size: 10px; fill: #000; opacity: 1;">themindunleashed.com</text><text text-anchor="end" transform="translate(1449,7) rotate(270) translate(0,3)" style="font-family: sans-serif; font-size: 10px; fill: #000; opacity: 1;">thephaser.com</text><text text-anchor="end" transform="translate(1469,7) rotate(270) translate(0,3)" style="font-family: sans-serif; font-size: 10px; fill: #000; opacity: 1;">thepoliticalinsider.com</text><text text-anchor="end" transform="translate(1489,7) rotate(270) translate(0,3)" style="font-family: sans-serif; font-size: 10px; fill: #000; opacity: 1;">truthbroadcastnetwork.com</text><text text-anchor="end" transform="translate(1509,7) rotate(270) translate(0,3)" style="font-family: sans-serif; font-size: 10px; fill: #000; opacity: 1;">ufoholic.com</text><text text-anchor="end" transform="translate(1529,7) rotate(270) translate(0,3)" style="font-family: sans-serif; font-size: 10px; fill: #000; opacity: 1;">weshapelife.org</text><text text-anchor="end" transform="translate(1549,7) rotate(270) translate(0,3)" style="font-family: sans-serif; font-size: 10px; fill: #000; opacity: 1;">whatdoesitmean.com</text><text text-anchor="end" transform="translate(1569,7) rotate(270) translate(0,3)" style="font-family: sans-serif; font-size: 10px; fill: #000; opacity: 1;">whatreallyhappened.com</text><text text-anchor="end" transform="translate(1589,7) rotate(270) translate(0,3)" style="font-family: sans-serif; font-size: 10px; fill: #000; opacity: 1;">whowhatwhy.org</text><text text-anchor="end" transform="translate(1609,7) rotate(270) translate(0,3)" style="font-family: sans-serif; font-size: 10px; fill: #000; opacity: 1;">wikispooks.com</text><text text-anchor="end" transform="translate(1629,7) rotate(270) translate(0,3)" style="font-family: sans-serif; font-size: 10px; fill: #000; opacity: 1;">worldtruth.tv</text><text text-anchor="end" transform="translate(1649,7) rotate(270) translate(0,3)" style="font-family: sans-serif; font-size: 10px; fill: #000; opacity: 1;">zerohedge.com</text><text text-anchor="end" transform="translate(1669,7) rotate(270) translate(0,3)" style="font-family: sans-serif; font-size: 10px; fill: #000; opacity: 1;">zootfeed.com</text></g><g class="mark-rule role-axis-domain" style="pointer-events: none;"><line transform="translate(0,0)" x2="1680" y2="0" style="fill: none; stroke: #888; stroke-width: 1; opacity: 1;"></line></g><g class="mark-text role-axis-title" style="pointer-events: none;"><text text-anchor="middle" transform="translate(840,187)" style="font-family: sans-serif; font-size: 11px; font-weight: bold; fill: #000; opacity: 1;">domains</text></g></g></g></g><g class="mark-group role-axis"><g transform="translate(0.5,0.5)"><path class="background" d="M0,0h0v0h0Z" style="pointer-events: none; fill: none;"></path><g><g class="mark-rule role-axis-tick" style="pointer-events: none;"><line transform="translate(0,300)" x2="-5" y2="0" style="fill: none; stroke: #888; stroke-width: 1; opacity: 1;"></line><line transform="translate(0,267)" x2="-5" y2="0" style="fill: none; stroke: #888; stroke-width: 1; opacity: 1;"></line><line transform="translate(0,233)" x2="-5" y2="0" style="fill: none; stroke: #888; stroke-width: 1; opacity: 1;"></line><line transform="translate(0,200)" x2="-5" y2="0" style="fill: none; stroke: #888; stroke-width: 1; opacity: 1;"></line><line transform="translate(0,167)" x2="-5" y2="0" style="fill: none; stroke: #888; stroke-width: 1; opacity: 1;"></line><line transform="translate(0,133)" x2="-5" y2="0" style="fill: none; stroke: #888; stroke-width: 1; opacity: 1;"></line><line transform="translate(0,100)" x2="-5" y2="0" style="fill: none; stroke: #888; stroke-width: 1; opacity: 1;"></line><line transform="translate(0,67)" x2="-5" y2="0" style="fill: none; stroke: #888; stroke-width: 1; opacity: 1;"></line><line transform="translate(0,33)" x2="-5" y2="0" style="fill: none; stroke: #888; stroke-width: 1; opacity: 1;"></line><line transform="translate(0,0)" x2="-5" y2="0" style="fill: none; stroke: #888; stroke-width: 1; opacity: 1;"></line></g><g class="mark-text role-axis-label" style="pointer-events: none;"><text text-anchor="end" transform="translate(-7,303)" style="font-family: sans-serif; font-size: 10px; fill: #000; opacity: 1;">0</text><text text-anchor="end" transform="translate(-7,269.6666666666667)" style="font-family: sans-serif; font-size: 10px; fill: #000; opacity: 1;">20,000</text><text text-anchor="end" transform="translate(-7,236.33333333333334)" style="font-family: sans-serif; font-size: 10px; fill: #000; opacity: 1;">40,000</text><text text-anchor="end" transform="translate(-7,203)" style="font-family: sans-serif; font-size: 10px; fill: #000; opacity: 1;">60,000</text><text text-anchor="end" transform="translate(-7,169.66666666666669)" style="font-family: sans-serif; font-size: 10px; fill: #000; opacity: 1;">80,000</text><text text-anchor="end" transform="translate(-7,136.33333333333331)" style="font-family: sans-serif; font-size: 10px; fill: #000; opacity: 1;">100,000</text><text text-anchor="end" transform="translate(-7,103)" style="font-family: sans-serif; font-size: 10px; fill: #000; opacity: 1;">120,000</text><text text-anchor="end" transform="translate(-7,69.66666666666666)" style="font-family: sans-serif; font-size: 10px; fill: #000; opacity: 1;">140,000</text><text text-anchor="end" transform="translate(-7,36.33333333333337)" style="font-family: sans-serif; font-size: 10px; fill: #000; opacity: 1;">160,000</text><text text-anchor="end" transform="translate(-7,3)" style="font-family: sans-serif; font-size: 10px; fill: #000; opacity: 1;">180,000</text></g><g class="mark-rule role-axis-domain" style="pointer-events: none;"><line transform="translate(0,300)" x2="0" y2="-300" style="fill: none; stroke: #888; stroke-width: 1; opacity: 1;"></line></g><g class="mark-text role-axis-title" style="pointer-events: none;"><text text-anchor="middle" transform="translate(-50,150) rotate(-90) translate(0,-2)" style="font-family: sans-serif; font-size: 11px; font-weight: bold; fill: #000; opacity: 1;">Count</text></g></g></g></g></g></g></g></g></svg>