<svg class="marks" width="1836" height="493" viewBox="0 0 1836 493" version="1.1" xmlns="http://www.w3.org/2000/svg" xmlns:xlink="http://www.w3.org/1999/xlink"><g transform="translate(67,11)"><g class="mark-group role-frame root"><g transform="translate(0,0)"><path class="background" d="M0.5,0.5h1764v300h-1764Z" style="fill: none; stroke: #ddd;"></path><g><g class="mark-group role-axis"><g transform="translate(0.5,0.5)"><path class="background" d="M0,0h0v0h0Z" style="pointer-events: none; fill: none;"></path><g><g class="mark-rule role-axis-grid" style="pointer-events: none;"><line transform="translate(0,300)" x2="1764" y2="0" style="fill: none; stroke: #ddd; stroke-width: 1; opacity: 1;"></line><line transform="translate(0,267)" x2="1764" y2="0" style="fill: none; stroke: #ddd; stroke-width: 1; opacity: 1;"></line><line transform="translate(0,233)" x2="1764" y2="0" style="fill: none; stroke: #ddd; stroke-width: 1; opacity: 1;"></line><line transform="translate(0,200)" x2="1764" y2="0" style="fill: none; stroke: #ddd; stroke-width: 1; opacity: 1;"></line><line transform="translate(0,167)" x2="1764" y2="0" style="fill: none; stroke: #ddd; stroke-width: 1; opacity: 1;"></line><line transform="translate(0,133)" x2="1764" y2="0" style="fill: none; stroke: #ddd; stroke-width: 1; opacity: 1;"></line><line transform="translate(0,100)" x2="1764" y2="0" style="fill: none; stroke: #ddd; stroke-width: 1; opacity: 1;"></line><line transform="translate(0,67)" x2="1764" y2="0" style="fill: none; stroke: #ddd; stroke-width: 1; opacity: 1;"></line><line transform="translate(0,33)" x2="1764" y2="0" style="fill: none; stroke: #ddd; stroke-width: 1; opacity: 1;"></line><line transform="translate(0,0)" x2="1764" y2="0" style="fill: none; stroke: #ddd; stroke-width: 1; opacity: 1;"></line></g></g></g></g><g class="mark-rect role-mark marks"><path d="M988.05,299.9683333333333h18.900000000000002v0.03166666666669471h-18.900000000000002Z" style="fill: #4c78a8;"></path><path d="M379.04999999999995,299.99833333333333h18.900000000000002v0.0016666666666651508h-18.900000000000002Z" style="fill: #4c78a8;"></path><path d="M400.04999999999995,299.995h18.900000000000002v0.0049999999999954525h-18.900000000000002Z" style="fill: #4c78a8;"></path><path d="M1576.05,299.875h18.900000000000002v0.125h-18.900000000000002Z" style="fill: #4c78a8;"></path><path d="M967.05,299.99833333333333h18.900000000000002v0.0016666666666651508h-18.900000000000002Z" style="fill: #4c78a8;"></path><path d="M1030.05,299.9166666666667h18.900000000000002v0.08333333333331439h-18.900000000000002Z" style="fill: #4c78a8;"></path><path d="M1135.05,299.8666666666667h18.900000000000002v0.13333333333332575h-18.900000000000002Z" style="fill: #4c78a8;"></path><path d="M253.04999999999995,299.97h18.900000000000002v0.029999999999972715h-18.900000000000002Z" style="fill: #4c78a8;"></path><path d="M1555.05,256.7583333333333h18.900000000000002v43.241666666666674h-18.900000000000002Z" style="fill: #4c78a8;"></path><path d="M631.05,291.325h18.900000000000002v8.675000000000011h-18.900000000000002Z" style="fill: #4c78a8;"></path><path d="M421.04999999999995,299.975h18.900000000000002v0.024999999999977263h-18.900000000000002Z" style="fill: #4c78a8;"></path><path d="M1282.05,299.1566666666667h18.900000000000002v0.8433333333333053h-18.900000000000002Z" style="fill: #4c78a8;"></path><path d="M1744.05,299.72833333333335h18.900000000000002v0.27166666666664696h-18.900000000000002Z" style="fill: #4c78a8;"></path><path d="M589.05,283.8466666666667h18.900000000000002v16.153333333333308h-18.900000000000002Z" style="fill: #4c78a8;"></path><path d="M904.05,297.0366666666667h18.900000000000002v2.96333333333331h-18.900000000000002Z" style="fill: #4c78a8;"></path><path d="M1261.05,299.975h18.900000000000002v0.024999999999977263h-18.900000000000002Z" style="fill: #4c78a8;"></path><path d="M1366.05,299.97h18.900000000000002v0.029999999999972715h-18.900000000000002Z" style="fill: #4c78a8;"></path><path d="M1345.05,299.77166666666665h18.900000000000002v0.22833333333335304h-18.900000000000002Z" style="fill: #4c78a8;"></path><path d="M1429.05,273.08h18.900000000000002v26.920000000000016h-18.900000000000002Z" style="fill: #4c78a8;"></path><path d="M1072.05,275.7416666666667h18.900000000000002v24.258333333333326h-18.900000000000002Z" style="fill: #4c78a8;"></path><path d="M1450.05,299.91333333333336h18.900000000000002v0.08666666666664469h-18.900000000000002Z" style="fill: #4c78a8;"></path><path d="M190.04999999999995,299.985h18.900000000000002v0.014999999999986358h-18.900000000000002Z" style="fill: #4c78a8;"></path><path d="M1492.05,295.13666666666666h18.900000000000002v4.863333333333344h-18.900000000000002Z" style="fill: #4c78a8;"></path><path d="M337.04999999999995,299.98333333333335h18.900000000000002v0.01666666666665151h-18.900000000000002Z" style="fill: #4c78a8;"></path><path d="M484.04999999999995,292.55h18.900000000000002v7.449999999999989h-18.900000000000002Z" style="fill: #4c78a8;"></path><path d="M1093.05,299.5516666666667h18.900000000000002v0.4483333333333235h-18.900000000000002Z" style="fill: #4c78a8;"></path><path d="M1219.05,294.4166666666667h18.900000000000002v5.583333333333314h-18.900000000000002Z" style="fill: #4c78a8;"></path><path d="M463.04999999999995,289.405h18.900000000000002v10.595000000000027h-18.900000000000002Z" style="fill: #4c78a8;"></path><path d="M127.04999999999995,299.88166666666666h18.900000000000002v0.1183333333333394h-18.900000000000002Z" style="fill: #4c78a8;"></path><path d="M1240.05,292.2916666666667h18.900000000000002v7.708333333333314h-18.900000000000002Z" style="fill: #4c78a8;"></path><path d="M442.04999999999995,299.805h18.900000000000002v0.19499999999999318h-18.900000000000002Z" style="fill: #4c78a8;"></path><path d="M1618.05,298.83166666666665h18.900000000000002v1.1683333333333508h-18.900000000000002Z" style="fill: #4c78a8;"></path><path d="M1198.05,299.99333333333334h18.900000000000002v0.006666666666660603h-18.900000000000002Z" style="fill: #4c78a8;"></path><path d="M1114.05,299.12h18.900000000000002v0.8799999999999955h-18.900000000000002Z" style="fill: #4c78a8;"></path><path d="M1387.05,257.82h18.900000000000002v42.18000000000001h-18.900000000000002Z" style="fill: #4c78a8;"></path><path d="M1513.05,268.37166666666667h18.900000000000002v31.62833333333333h-18.900000000000002Z" style="fill: #4c78a8;"></path><path d="M736.05,299.42333333333335h18.900000000000002v0.5766666666666538h-18.900000000000002Z" style="fill: #4c78a8;"></path><path d="M799.05,299.86h18.900000000000002v0.13999999999998636h-18.900000000000002Z" style="fill: #4c78a8;"></path><path d="M568.05,289.59333333333336h18.900000000000002v10.406666666666638h-18.900000000000002Z" style="fill: #4c78a8;"></path><path d="M505.04999999999995,299.97833333333335h18.900000000000002v0.02166666666664696h-18.900000000000002Z" style="fill: #4c78a8;"></path><path d="M85.04999999999995,267.68h18.900000000000002v32.31999999999999h-18.900000000000002Z" style="fill: #4c78a8;"></path><path d="M169.04999999999995,288.3666666666667h18.900000000000002v11.633333333333326h-18.900000000000002Z" style="fill: #4c78a8;"></path><path d="M547.05,297.86833333333334h18.900000000000002v2.1316666666666606h-18.900000000000002Z" style="fill: #4c78a8;"></path><path d="M1681.05,255.32333333333332h18.900000000000002v44.67666666666668h-18.900000000000002Z" style="fill: #4c78a8;"></path><path d="M946.05,283.6983333333333h18.900000000000002v16.301666666666677h-18.900000000000002Z" style="fill: #4c78a8;"></path><path d="M1051.05,295.83h18.900000000000002v4.170000000000016h-18.900000000000002Z" style="fill: #4c78a8;"></path><path d="M1597.05,299.94h18.900000000000002v0.060000000000002274h-18.900000000000002Z" style="fill: #4c78a8;"></path><path d="M715.05,297.40166666666664h18.900000000000002v2.5983333333333576h-18.900000000000002Z" style="fill: #4c78a8;"></path><path d="M1156.05,284.69166666666666h18.900000000000002v15.308333333333337h-18.900000000000002Z" style="fill: #4c78a8;"></path><path d="M1471.05,272.905h18.900000000000002v27.095000000000027h-18.900000000000002Z" style="fill: #4c78a8;"></path><path d="M841.05,297.9066666666667h18.900000000000002v2.0933333333333053h-18.900000000000002Z" style="fill: #4c78a8;"></path><path d="M883.05,298.58h18.900000000000002v1.420000000000016h-18.900000000000002Z" style="fill: #4c78a8;"></path><path d="M316.04999999999995,296.45h18.900000000000002v3.5500000000000114h-18.900000000000002Z" style="fill: #4c78a8;"></path><path d="M1303.05,299.945h18.900000000000002v0.05500000000000682h-18.900000000000002Z" style="fill: #4c78a8;"></path><path d="M1723.05,267.9h18.900000000000002v32.10000000000002h-18.900000000000002Z" style="fill: #4c78a8;"></path><path d="M610.05,299.9483333333333h18.900000000000002v0.05166666666667652h-18.900000000000002Z" style="fill: #4c78a8;"></path><path d="M211.04999999999995,299.90833333333336h18.900000000000002v0.09166666666664014h-18.900000000000002Z" style="fill: #4c78a8;"></path><path d="M526.05,297.685h18.900000000000002v2.3149999999999977h-18.900000000000002Z" style="fill: #4c78a8;"></path><path d="M1.0499999999999545,286.9866666666667h18.900000000000002v13.013333333333321h-18.900000000000002Z" style="fill: #4c78a8;"></path><path d="M778.05,298.83666666666664h18.900000000000002v1.1633333333333553h-18.900000000000002Z" style="fill: #4c78a8;"></path><path d="M22.049999999999955,299.94666666666666h18.900000000000002v0.05333333333334167h-18.900000000000002Z" style="fill: #4c78a8;"></path><path d="M43.049999999999955,299.99833333333333h18.900000000000002v0.0016666666666651508h-18.900000000000002Z" style="fill: #4c78a8;"></path><path d="M148.04999999999995,299.825h18.900000000000002v0.17500000000001137h-18.900000000000002Z" style="fill: #4c78a8;"></path><path d="M652.05,297.87833333333333h18.900000000000002v2.1216666666666697h-18.900000000000002Z" style="fill: #4c78a8;"></path><path d="M1639.05,298.38666666666666h18.900000000000002v1.613333333333344h-18.900000000000002Z" style="fill: #4c78a8;"></path><path d="M358.04999999999995,297.465h18.900000000000002v2.535000000000025h-18.900000000000002Z" style="fill: #4c78a8;"></path><path d="M106.04999999999995,295.94166666666666h18.900000000000002v4.058333333333337h-18.900000000000002Z" style="fill: #4c78a8;"></path><path d="M673.05,299.8283333333333h18.900000000000002v0.17166666666668107h-18.900000000000002Z" style="fill: #4c78a8;"></path><path d="M1324.05,289.78833333333336h18.900000000000002v10.211666666666645h-18.900000000000002Z" style="fill: #4c78a8;"></path><path d="M64.04999999999995,25.636666666666656h18.900000000000002v274.36333333333334h-18.900000000000002Z" style="fill: #4c78a8;"></path><path d="M1534.05,297.2733333333333h18.900000000000002v2.726666666666688h-18.900000000000002Z" style="fill: #4c78a8;"></path><path d="M232.04999999999995,288.585h18.900000000000002v11.41500000000002h-18.900000000000002Z" style="fill: #4c78a8;"></path><path d="M1660.05,299.12h18.900000000000002v0.8799999999999955h-18.900000000000002Z" style="fill: #4c78a8;"></path><path d="M274.04999999999995,279.1616666666667h18.900000000000002v20.83833333333331h-18.900000000000002Z" style="fill: #4c78a8;"></path><path d="M694.05,299.765h18.900000000000002v0.23500000000001364h-18.900000000000002Z" style="fill: #4c78a8;"></path><path d="M757.05,299.21166666666664h18.900000000000002v0.7883333333333553h-18.900000000000002Z" style="fill: #4c78a8;"></path><path d="M1177.05,296.6933333333333h18.900000000000002v3.306666666666672h-18.900000000000002Z" style="fill: #4c78a8;"></path><path d="M820.05,285.5683333333333h18.900000000000002v14.431666666666672h-18.900000000000002Z" style="fill: #4c78a8;"></path><path d="M1009.05,299.95166666666665h18.900000000000002v0.04833333333334622h-18.900000000000002Z" style="fill: #4c78a8;"></path><path d="M295.04999999999995,299.99833333333333h18.900000000000002v0.0016666666666651508h-18.900000000000002Z" style="fill: #4c78a8;"></path><path d="M1408.05,295.8616666666667h18.900000000000002v4.138333333333321h-18.900000000000002Z" style="fill: #4c78a8;"></path><path d="M925.05,296.09h18.900000000000002v3.910000000000025h-18.900000000000002Z" style="fill: #4c78a8;"></path><path d="M862.05,293.0516666666667h18.900000000000002v6.9483333333333235h-18.900000000000002Z" style="fill: #4c78a8;"></path><path d="M1702.05,299.58666666666664h18.900000000000002v0.4133333333333553h-18.900000000000002Z" style="fill: #4c78a8;"></path></g><g class="mark-group role-axis"><g transform="translate(0.5,300.5)"><path class="background" d="M0,0h0v0h0Z" style="pointer-events: none; fill: none;"></path><g><g class="mark-rule role-axis-tick" style="pointer-events: none;"><line transform="translate(9,0)" x2="0" y2="5" style="fill: none; stroke: #888; stroke-width: 1; opacity: 1;"></line><line transform="translate(30,0)" x2="0" y2="5" style="fill: none; stroke: #888; stroke-width: 1; opacity: 1;"></line><line transform="translate(51,0)" x2="0" y2="5" style="fill: none; stroke: #888; stroke-width: 1; opacity: 1;"></line><line transform="translate(72,0)" x2="0" y2="5" style="fill: none; stroke: #888; stroke-width: 1; opacity: 1;"></line><line transform="translate(93,0)" x2="0" y2="5" style="fill: none; stroke: #888; stroke-width: 1; opacity: 1;"></line><line transform="translate(114,0)" x2="0" y2="5" style="fill: none; stroke: #888; stroke-width: 1; opacity: 1;"></line><line transform="translate(135,0)" x2="0" y2="5" style="fill: none; stroke: #888; stroke-width: 1; opacity: 1;"></line><line transform="translate(156,0)" x2="0" y2="5" style="fill: none; stroke: #888; stroke-width: 1; opacity: 1;"></line><line transform="translate(177,0)" x2="0" y2="5" style="fill: none; stroke: #888; stroke-width: 1; opacity: 1;"></line><line transform="translate(198,0)" x2="0" y2="5" style="fill: none; stroke: #888; stroke-width: 1; opacity: 1;"></line><line transform="translate(219,0)" x2="0" y2="5" style="fill: none; stroke: #888; stroke-width: 1; opacity: 1;"></line><line transform="translate(240,0)" x2="0" y2="5" style="fill: none; stroke: #888; stroke-width: 1; opacity: 1;"></line><line transform="translate(261,0)" x2="0" y2="5" style="fill: none; stroke: #888; stroke-width: 1; opacity: 1;"></line><line transform="translate(282,0)" x2="0" y2="5" style="fill: none; stroke: #888; stroke-width: 1; opacity: 1;"></line><line transform="translate(303,0)" x2="0" y2="5" style="fill: none; stroke: #888; stroke-width: 1; opacity: 1;"></line><line transform="translate(324,0)" x2="0" y2="5" style="fill: none; stroke: #888; stroke-width: 1; opacity: 1;"></line><line transform="translate(345,0)" x2="0" y2="5" style="fill: none; stroke: #888; stroke-width: 1; opacity: 1;"></line><line transform="translate(366,0)" x2="0" y2="5" style="fill: none; stroke: #888; stroke-width: 1; opacity: 1;"></line><line transform="translate(387,0)" x2="0" y2="5" style="fill: none; stroke: #888; stroke-width: 1; opacity: 1;"></line><line transform="translate(408,0)" x2="0" y2="5" style="fill: none; stroke: #888; stroke-width: 1; opacity: 1;"></line><line transform="translate(429,0)" x2="0" y2="5" style="fill: none; stroke: #888; stroke-width: 1; opacity: 1;"></line><line transform="translate(450,0)" x2="0" y2="5" style="fill: none; stroke: #888; stroke-width: 1; opacity: 1;"></line><line transform="translate(471,0)" x2="0" y2="5" style="fill: none; stroke: #888; stroke-width: 1; opacity: 1;"></line><line transform="translate(492,0)" x2="0" y2="5" style="fill: none; stroke: #888; stroke-width: 1; opacity: 1;"></line><line transform="translate(514,0)" x2="0" y2="5" style="fill: none; stroke: #888; stroke-width: 1; opacity: 1;"></line><line transform="translate(535,0)" x2="0" y2="5" style="fill: none; stroke: #888; stroke-width: 1; opacity: 1;"></line><line transform="translate(556,0)" x2="0" y2="5" style="fill: none; stroke: #888; stroke-width: 1; opacity: 1;"></line><line transform="translate(577,0)" x2="0" y2="5" style="fill: none; stroke: #888; stroke-width: 1; opacity: 1;"></line><line transform="translate(598,0)" x2="0" y2="5" style="fill: none; stroke: #888; stroke-width: 1; opacity: 1;"></line><line transform="translate(619,0)" x2="0" y2="5" style="fill: none; stroke: #888; stroke-width: 1; opacity: 1;"></line><line transform="translate(640,0)" x2="0" y2="5" style="fill: none; stroke: #888; stroke-width: 1; opacity: 1;"></line><line transform="translate(661,0)" x2="0" y2="5" style="fill: none; stroke: #888; stroke-width: 1; opacity: 1;"></line><line transform="translate(682,0)" x2="0" y2="5" style="fill: none; stroke: #888; stroke-width: 1; opacity: 1;"></line><line transform="translate(703,0)" x2="0" y2="5" style="fill: none; stroke: #888; stroke-width: 1; opacity: 1;"></line><line transform="translate(724,0)" x2="0" y2="5" style="fill: none; stroke: #888; stroke-width: 1; opacity: 1;"></line><line transform="translate(745,0)" x2="0" y2="5" style="fill: none; stroke: #888; stroke-width: 1; opacity: 1;"></line><line transform="translate(766,0)" x2="0" y2="5" style="fill: none; stroke: #888; stroke-width: 1; opacity: 1;"></line><line transform="translate(787,0)" x2="0" y2="5" style="fill: none; stroke: #888; stroke-width: 1; opacity: 1;"></line><line transform="translate(808,0)" x2="0" y2="5" style="fill: none; stroke: #888; stroke-width: 1; opacity: 1;"></line><line transform="translate(829,0)" x2="0" y2="5" style="fill: none; stroke: #888; stroke-width: 1; opacity: 1;"></line><line transform="translate(850,0)" x2="0" y2="5" style="fill: none; stroke: #888; stroke-width: 1; opacity: 1;"></line><line transform="translate(871,0)" x2="0" y2="5" style="fill: none; stroke: #888; stroke-width: 1; opacity: 1;"></line><line transform="translate(892,0)" x2="0" y2="5" style="fill: none; stroke: #888; stroke-width: 1; opacity: 1;"></line><line transform="translate(913,0)" x2="0" y2="5" style="fill: none; stroke: #888; stroke-width: 1; opacity: 1;"></line><line transform="translate(934,0)" x2="0" y2="5" style="fill: none; stroke: #888; stroke-width: 1; opacity: 1;"></line><line transform="translate(955,0)" x2="0" y2="5" style="fill: none; stroke: #888; stroke-width: 1; opacity: 1;"></line><line transform="translate(976,0)" x2="0" y2="5" style="fill: none; stroke: #888; stroke-width: 1; opacity: 1;"></line><line transform="translate(997,0)" x2="0" y2="5" style="fill: none; stroke: #888; stroke-width: 1; opacity: 1;"></line><line transform="translate(1018,0)" x2="0" y2="5" style="fill: none; stroke: #888; stroke-width: 1; opacity: 1;"></line><line transform="translate(1039,0)" x2="0" y2="5" style="fill: none; stroke: #888; stroke-width: 1; opacity: 1;"></line><line transform="translate(1060,0)" x2="0" y2="5" style="fill: none; stroke: #888; stroke-width: 1; opacity: 1;"></line><line transform="translate(1081,0)" x2="0" y2="5" style="fill: none; stroke: #888; stroke-width: 1; opacity: 1;"></line><line transform="translate(1102,0)" x2="0" y2="5" style="fill: none; stroke: #888; stroke-width: 1; opacity: 1;"></line><line transform="translate(1123,0)" x2="0" y2="5" style="fill: none; stroke: #888; stroke-width: 1; opacity: 1;"></line><line transform="translate(1144,0)" x2="0" y2="5" style="fill: none; stroke: #888; stroke-width: 1; opacity: 1;"></line><line transform="translate(1165,0)" x2="0" y2="5" style="fill: none; stroke: #888; stroke-width: 1; opacity: 1;"></line><line transform="translate(1186,0)" x2="0" y2="5" style="fill: none; stroke: #888; stroke-width: 1; opacity: 1;"></line><line transform="translate(1207,0)" x2="0" y2="5" style="fill: none; stroke: #888; stroke-width: 1; opacity: 1;"></line><line transform="translate(1228,0)" x2="0" y2="5" style="fill: none; stroke: #888; stroke-width: 1; opacity: 1;"></line><line transform="translate(1249,0)" x2="0" y2="5" style="fill: none; stroke: #888; stroke-width: 1; opacity: 1;"></line><line transform="translate(1270,0)" x2="0" y2="5" style="fill: none; stroke: #888; stroke-width: 1; opacity: 1;"></line><line transform="translate(1291,0)" x2="0" y2="5" style="fill: none; stroke: #888; stroke-width: 1; opacity: 1;"></line><line transform="translate(1312,0)" x2="0" y2="5" style="fill: none; stroke: #888; stroke-width: 1; opacity: 1;"></line><line transform="translate(1333,0)" x2="0" y2="5" style="fill: none; stroke: #888; stroke-width: 1; opacity: 1;"></line><line transform="translate(1354,0)" x2="0" y2="5" style="fill: none; stroke: #888; stroke-width: 1; opacity: 1;"></line><line transform="translate(1375,0)" x2="0" y2="5" style="fill: none; stroke: #888; stroke-width: 1; opacity: 1;"></line><line transform="translate(1396,0)" x2="0" y2="5" style="fill: none; stroke: #888; stroke-width: 1; opacity: 1;"></line><line transform="translate(1417,0)" x2="0" y2="5" style="fill: none; stroke: #888; stroke-width: 1; opacity: 1;"></line><line transform="translate(1438,0)" x2="0" y2="5" style="fill: none; stroke: #888; stroke-width: 1; opacity: 1;"></line><line transform="translate(1459,0)" x2="0" y2="5" style="fill: none; stroke: #888; stroke-width: 1; opacity: 1;"></line><line transform="translate(1480,0)" x2="0" y2="5" style="fill: none; stroke: #888; stroke-width: 1; opacity: 1;"></line><line transform="translate(1501,0)" x2="0" y2="5" style="fill: none; stroke: #888; stroke-width: 1; opacity: 1;"></line><line transform="translate(1522,0)" x2="0" y2="5" style="fill: none; stroke: #888; stroke-width: 1; opacity: 1;"></line><line transform="translate(1543,0)" x2="0" y2="5" style="fill: none; stroke: #888; stroke-width: 1; opacity: 1;"></line><line transform="translate(1564,0)" x2="0" y2="5" style="fill: none; stroke: #888; stroke-width: 1; opacity: 1;"></line><line transform="translate(1585,0)" x2="0" y2="5" style="fill: none; stroke: #888; stroke-width: 1; opacity: 1;"></line><line transform="translate(1606,0)" x2="0" y2="5" style="fill: none; stroke: #888; stroke-width: 1; opacity: 1;"></line><line transform="translate(1627,0)" x2="0" y2="5" style="fill: none; stroke: #888; stroke-width: 1; opacity: 1;"></line><line transform="translate(1648,0)" x2="0" y2="5" style="fill: none; stroke: #888; stroke-width: 1; opacity: 1;"></line><line transform="translate(1669,0)" x2="0" y2="5" style="fill: none; stroke: #888; stroke-width: 1; opacity: 1;"></line><line transform="translate(1690,0)" x2="0" y2="5" style="fill: none; stroke: #888; stroke-width: 1; opacity: 1;"></line><line transform="translate(1711,0)" x2="0" y2="5" style="fill: none; stroke: #888; stroke-width: 1; opacity: 1;"></line><line transform="translate(1732,0)" x2="0" y2="5" style="fill: none; stroke: #888; stroke-width: 1; opacity: 1;"></line><line transform="translate(1753,0)" x2="0" y2="5" style="fill: none; stroke: #888; stroke-width: 1; opacity: 1;"></line></g><g class="mark-text role-axis-label" style="pointer-events: none;"><text text-anchor="end" transform="translate(9.499999999999956,7) rotate(270) translate(0,3)" style="font-family: sans-serif; font-size: 10px; fill: #000; opacity: 1;">21stcenturywire.com</text><text text-anchor="end" transform="translate(30.499999999999957,7) rotate(270) translate(0,3)" style="font-family: sans-serif; font-size: 10px; fill: #000; opacity: 1;">82.221.129.208</text><text text-anchor="end" transform="translate(51.49999999999996,7) rotate(270) translate(0,3)" style="font-family: sans-serif; font-size: 10px; fill: #000; opacity: 1;">NoMoreFakeNews.com</text><text text-anchor="end" transform="translate(72.49999999999996,7) rotate(270) translate(0,3)" style="font-family: sans-serif; font-size: 10px; fill: #000; opacity: 1;">abovetopsecret.com</text><text text-anchor="end" transform="translate(93.49999999999996,7) rotate(270) translate(0,3)" style="font-family: sans-serif; font-size: 10px; fill: #000; opacity: 1;">activistpost.com</text><text text-anchor="end" transform="translate(114.49999999999996,7) rotate(270) translate(0,3)" style="font-family: sans-serif; font-size: 10px; fill: #000; opacity: 1;">americanfreepress.net</text><text text-anchor="end" transform="translate(135.49999999999994,7) rotate(270) translate(0,3)" style="font-family: sans-serif; font-size: 10px; fill: #000; opacity: 1;">angrypatriotmovement.com</text><text text-anchor="end" transform="translate(156.49999999999994,7) rotate(270) translate(0,3)" style="font-family: sans-serif; font-size: 10px; fill: #000; opacity: 1;">assassinationscience.com</text><text text-anchor="end" transform="translate(177.49999999999994,7) rotate(270) translate(0,3)" style="font-family: sans-serif; font-size: 10px; fill: #000; opacity: 1;">awarenessact.com</text><text text-anchor="end" transform="translate(198.49999999999994,7) rotate(270) translate(0,3)" style="font-family: sans-serif; font-size: 10px; fill: #000; opacity: 1;">awdnews.com</text><text text-anchor="end" transform="translate(219.49999999999994,7) rotate(270) translate(0,3)" style="font-family: sans-serif; font-size: 10px; fill: #000; opacity: 1;">blackgenocide.org</text><text text-anchor="end" transform="translate(240.49999999999994,7) rotate(270) translate(0,3)" style="font-family: sans-serif; font-size: 10px; fill: #000; opacity: 1;">canadafreepress.com</text><text text-anchor="end" transform="translate(261.49999999999994,7) rotate(270) translate(0,3)" style="font-family: sans-serif; font-size: 10px; fill: #000; opacity: 1;">concisepolitics.com</text><text text-anchor="end" transform="translate(282.49999999999994,7) rotate(270) translate(0,3)" style="font-family: sans-serif; font-size: 10px; fill: #000; opacity: 1;">conservativerefocus.com</text><text text-anchor="end" transform="translate(303.49999999999994,7) rotate(270) translate(0,3)" style="font-family: sans-serif; font-size: 10px; fill: #000; opacity: 1;">conspiracyplanet.com</text><text text-anchor="end" transform="translate(324.49999999999994,7) rotate(270) translate(0,3)" style="font-family: sans-serif; font-size: 10px; fill: #000; opacity: 1;">corbettreport.com</text><text text-anchor="end" transform="translate(345.49999999999994,7) rotate(270) translate(0,3)" style="font-family: sans-serif; font-size: 10px; fill: #000; opacity: 1;">countdowntozerotime.com</text><text text-anchor="end" transform="translate(366.49999999999994,7) rotate(270) translate(0,3)" style="font-family: sans-serif; font-size: 10px; fill: #000; opacity: 1;">counterpsyops.com</text><text text-anchor="end" transform="translate(387.49999999999994,7) rotate(270) translate(0,3)" style="font-family: sans-serif; font-size: 10px; fill: #000; opacity: 1;">cryptogon.com</text><text text-anchor="end" transform="translate(408.49999999999994,7) rotate(270) translate(0,3)" style="font-family: sans-serif; font-size: 10px; fill: #000; opacity: 1;">dailyoccupation.com</text><text text-anchor="end" transform="translate(429.49999999999994,7) rotate(270) translate(0,3)" style="font-family: sans-serif; font-size: 10px; fill: #000; opacity: 1;">dataasylum.com</text><text text-anchor="end" transform="translate(450.49999999999994,7) rotate(270) translate(0,3)" style="font-family: sans-serif; font-size: 10px; fill: #000; opacity: 1;">davidwolfe.com</text><text text-anchor="end" transform="translate(471.49999999999994,7) rotate(270) translate(0,3)" style="font-family: sans-serif; font-size: 10px; fill: #000; opacity: 1;">dcclothesline.com</text><text text-anchor="end" transform="translate(492.49999999999994,7) rotate(270) translate(0,3)" style="font-family: sans-serif; font-size: 10px; fill: #000; opacity: 1;">educate-yourself.org</text><text text-anchor="end" transform="translate(513.5,7) rotate(270) translate(0,3)" style="font-family: sans-serif; font-size: 10px; fill: #000; opacity: 1;">electionnightgatekeepers.com</text><text text-anchor="end" transform="translate(534.5,7) rotate(270) translate(0,3)" style="font-family: sans-serif; font-size: 10px; fill: #000; opacity: 1;">endoftheamericandream.com</text><text text-anchor="end" transform="translate(555.5,7) rotate(270) translate(0,3)" style="font-family: sans-serif; font-size: 10px; fill: #000; opacity: 1;">eyeopening.info</text><text text-anchor="end" transform="translate(576.5,7) rotate(270) translate(0,3)" style="font-family: sans-serif; font-size: 10px; fill: #000; opacity: 1;">familysecuritymatters.org</text><text text-anchor="end" transform="translate(597.5,7) rotate(270) translate(0,3)" style="font-family: sans-serif; font-size: 10px; fill: #000; opacity: 1;">fellowshipoftheminds.com</text><text text-anchor="end" transform="translate(618.5,7) rotate(270) translate(0,3)" style="font-family: sans-serif; font-size: 10px; fill: #000; opacity: 1;">fprnradio.com</text><text text-anchor="end" transform="translate(639.5,7) rotate(270) translate(0,3)" style="font-family: sans-serif; font-size: 10px; fill: #000; opacity: 1;">freedomoutpost.com</text><text text-anchor="end" transform="translate(660.5,7) rotate(270) translate(0,3)" style="font-family: sans-serif; font-size: 10px; fill: #000; opacity: 1;">fromthetrenchesworldreport.com</text><text text-anchor="end" transform="translate(681.5,7) rotate(270) translate(0,3)" style="font-family: sans-serif; font-size: 10px; fill: #000; opacity: 1;">gaia.com</text><text text-anchor="end" transform="translate(702.5,7) rotate(270) translate(0,3)" style="font-family: sans-serif; font-size: 10px; fill: #000; opacity: 1;">govtslaves.info</text><text text-anchor="end" transform="translate(723.5,7) rotate(270) translate(0,3)" style="font-family: sans-serif; font-size: 10px; fill: #000; opacity: 1;">greanvillepost.com</text><text text-anchor="end" transform="translate(744.5,7) rotate(270) translate(0,3)" style="font-family: sans-serif; font-size: 10px; fill: #000; opacity: 1;">hangthebankers.com</text><text text-anchor="end" transform="translate(765.5,7) rotate(270) translate(0,3)" style="font-family: sans-serif; font-size: 10px; fill: #000; opacity: 1;">henrymakow.com</text><text text-anchor="end" transform="translate(786.5,7) rotate(270) translate(0,3)" style="font-family: sans-serif; font-size: 10px; fill: #000; opacity: 1;">humansarefree.com</text><text text-anchor="end" transform="translate(807.5,7) rotate(270) translate(0,3)" style="font-family: sans-serif; font-size: 10px; fill: #000; opacity: 1;">illuminati-news.com</text><text text-anchor="end" transform="translate(828.5,7) rotate(270) translate(0,3)" style="font-family: sans-serif; font-size: 10px; fill: #000; opacity: 1;">infiniteunknown.net</text><text text-anchor="end" transform="translate(849.5,7) rotate(270) translate(0,3)" style="font-family: sans-serif; font-size: 10px; fill: #000; opacity: 1;">informationclearinghouse.info</text><text text-anchor="end" transform="translate(870.5,7) rotate(270) translate(0,3)" style="font-family: sans-serif; font-size: 10px; fill: #000; opacity: 1;">infowars.com</text><text text-anchor="end" transform="translate(891.5,7) rotate(270) translate(0,3)" style="font-family: sans-serif; font-size: 10px; fill: #000; opacity: 1;">intellihub.com</text><text text-anchor="end" transform="translate(912.5,7) rotate(270) translate(0,3)" style="font-family: sans-serif; font-size: 10px; fill: #000; opacity: 1;">investmentresearchdynamics.com</text><text text-anchor="end" transform="translate(933.5,7) rotate(270) translate(0,3)" style="font-family: sans-serif; font-size: 10px; fill: #000; opacity: 1;">jesus-is-savior.com</text><text text-anchor="end" transform="translate(954.5,7) rotate(270) translate(0,3)" style="font-family: sans-serif; font-size: 10px; fill: #000; opacity: 1;">jihadwatch.org</text><text text-anchor="end" transform="translate(975.5,7) rotate(270) translate(0,3)" style="font-family: sans-serif; font-size: 10px; fill: #000; opacity: 1;">knowledgeoftoday.org</text><text text-anchor="end" transform="translate(996.5,7) rotate(270) translate(0,3)" style="font-family: sans-serif; font-size: 10px; fill: #000; opacity: 1;">libertytalk.fm</text><text text-anchor="end" transform="translate(1017.5,7) rotate(270) translate(0,3)" style="font-family: sans-serif; font-size: 10px; fill: #000; opacity: 1;">libertyvideos.org</text><text text-anchor="end" transform="translate(1038.5,7) rotate(270) translate(0,3)" style="font-family: sans-serif; font-size: 10px; fill: #000; opacity: 1;">nasamoonhoax.com</text><text text-anchor="end" transform="translate(1059.5,7) rotate(270) translate(0,3)" style="font-family: sans-serif; font-size: 10px; fill: #000; opacity: 1;">neonnettle.com</text><text text-anchor="end" transform="translate(1080.5,7) rotate(270) translate(0,3)" style="font-family: sans-serif; font-size: 10px; fill: #000; opacity: 1;">newstarget.com</text><text text-anchor="end" transform="translate(1101.5,7) rotate(270) translate(0,3)" style="font-family: sans-serif; font-size: 10px; fill: #000; opacity: 1;">nodisinfo.com</text><text text-anchor="end" transform="translate(1122.5,7) rotate(270) translate(0,3)" style="font-family: sans-serif; font-size: 10px; fill: #000; opacity: 1;">nowtheendbegins.com</text><text text-anchor="end" transform="translate(1143.5,7) rotate(270) translate(0,3)" style="font-family: sans-serif; font-size: 10px; fill: #000; opacity: 1;">oilgeopolitics.net</text><text text-anchor="end" transform="translate(1164.5,7) rotate(270) translate(0,3)" style="font-family: sans-serif; font-size: 10px; fill: #000; opacity: 1;">pamelageller.com</text><text text-anchor="end" transform="translate(1185.5,7) rotate(270) translate(0,3)" style="font-family: sans-serif; font-size: 10px; fill: #000; opacity: 1;">politicalblindspot.com</text><text text-anchor="end" transform="translate(1206.5,7) rotate(270) translate(0,3)" style="font-family: sans-serif; font-size: 10px; fill: #000; opacity: 1;">prepperwebsite.com</text><text text-anchor="end" transform="translate(1227.5,7) rotate(270) translate(0,3)" style="font-family: sans-serif; font-size: 10px; fill: #000; opacity: 1;">prisonplanet.com</text><text text-anchor="end" transform="translate(1248.5,7) rotate(270) translate(0,3)" style="font-family: sans-serif; font-size: 10px; fill: #000; opacity: 1;">rense.com</text><text text-anchor="end" transform="translate(1269.5,7) rotate(270) translate(0,3)" style="font-family: sans-serif; font-size: 10px; fill: #000; opacity: 1;">rumormillnews.com</text><text text-anchor="end" transform="translate(1290.5,7) rotate(270) translate(0,3)" style="font-family: sans-serif; font-size: 10px; fill: #000; opacity: 1;">secretsofthefed.com</text><text text-anchor="end" transform="translate(1311.5,7) rotate(270) translate(0,3)" style="font-family: sans-serif; font-size: 10px; fill: #000; opacity: 1;">sheepkillers.com</text><text text-anchor="end" transform="translate(1332.5,7) rotate(270) translate(0,3)" style="font-family: sans-serif; font-size: 10px; fill: #000; opacity: 1;">shoebat.com</text><text text-anchor="end" transform="translate(1353.5,7) rotate(270) translate(0,3)" style="font-family: sans-serif; font-size: 10px; fill: #000; opacity: 1;">skeptiko.com</text><text text-anchor="end" transform="translate(1374.5,7) rotate(270) translate(0,3)" style="font-family: sans-serif; font-size: 10px; fill: #000; opacity: 1;">sonsoflibertyradio.com</text><text text-anchor="end" transform="translate(1395.5,7) rotate(270) translate(0,3)" style="font-family: sans-serif; font-size: 10px; fill: #000; opacity: 1;">thedailysheeple.com</text><text text-anchor="end" transform="translate(1416.5,7) rotate(270) translate(0,3)" style="font-family: sans-serif; font-size: 10px; fill: #000; opacity: 1;">theeconomiccollapseblog.com</text><text text-anchor="end" transform="translate(1437.5,7) rotate(270) translate(0,3)" style="font-family: sans-serif; font-size: 10px; fill: #000; opacity: 1;">theeventchronicle.com</text><text text-anchor="end" transform="translate(1458.5,7) rotate(270) translate(0,3)" style="font-family: sans-serif; font-size: 10px; fill: #000; opacity: 1;">theforbiddenknowledge.com</text><text text-anchor="end" transform="translate(1479.5,7) rotate(270) translate(0,3)" style="font-family: sans-serif; font-size: 10px; fill: #000; opacity: 1;">thelibertybeacon.com</text><text text-anchor="end" transform="translate(1500.5,7) rotate(270) translate(0,3)" style="font-family: sans-serif; font-size: 10px; fill: #000; opacity: 1;">themindunleashed.com</text><text text-anchor="end" transform="translate(1521.5,7) rotate(270) translate(0,3)" style="font-family: sans-serif; font-size: 10px; fill: #000; opacity: 1;">thephaser.com</text><text text-anchor="end" transform="translate(1542.5,7) rotate(270) translate(0,3)" style="font-family: sans-serif; font-size: 10px; fill: #000; opacity: 1;">thepoliticalinsider.com</text><text text-anchor="end" transform="translate(1563.5,7) rotate(270) translate(0,3)" style="font-family: sans-serif; font-size: 10px; fill: #000; opacity: 1;">truthbroadcastnetwork.com</text><text text-anchor="end" transform="translate(1584.5,7) rotate(270) translate(0,3)" style="font-family: sans-serif; font-size: 10px; fill: #000; opacity: 1;">ufoholic.com</text><text text-anchor="end" transform="translate(1605.5,7) rotate(270) translate(0,3)" style="font-family: sans-serif; font-size: 10px; fill: #000; opacity: 1;">weshapelife.org</text><text text-anchor="end" transform="translate(1626.5,7) rotate(270) translate(0,3)" style="font-family: sans-serif; font-size: 10px; fill: #000; opacity: 1;">whatdoesitmean.com</text><text text-anchor="end" transform="translate(1647.5,7) rotate(270) translate(0,3)" style="font-family: sans-serif; font-size: 10px; fill: #000; opacity: 1;">whatreallyhappened.com</text><text text-anchor="end" transform="translate(1668.5,7) rotate(270) translate(0,3)" style="font-family: sans-serif; font-size: 10px; fill: #000; opacity: 1;">whowhatwhy.org</text><text text-anchor="end" transform="translate(1689.5,7) rotate(270) translate(0,3)" style="font-family: sans-serif; font-size: 10px; fill: #000; opacity: 1;">wikispooks.com</text><text text-anchor="end" transform="translate(1710.5,7) rotate(270) translate(0,3)" style="font-family: sans-serif; font-size: 10px; fill: #000; opacity: 1;">worldtruth.tv</text><text text-anchor="end" transform="translate(1731.5,7) rotate(270) translate(0,3)" style="font-family: sans-serif; font-size: 10px; fill: #000; opacity: 1;">zerohedge.com</text><text text-anchor="end" transform="translate(1752.5,7) rotate(270) translate(0,3)" style="font-family: sans-serif; font-size: 10px; fill: #000; opacity: 1;">zootfeed.com</text></g><g class="mark-rule role-axis-domain" style="pointer-events: none;"><line transform="translate(0,0)" x2="1764" y2="0" style="fill: none; stroke: #888; stroke-width: 1; opacity: 1;"></line></g><g class="mark-text role-axis-title" style="pointer-events: none;"><text text-anchor="middle" transform="translate(882,172.1669921875)" style="font-family: sans-serif; font-size: 11px; font-weight: bold; fill: #000; opacity: 1;">domains</text></g></g></g></g><g class="mark-group role-axis"><g transform="translate(0.5,0.5)"><path class="background" d="M0,0h0v0h0Z" style="pointer-events: none; fill: none;"></path><g><g class="mark-rule role-axis-tick" style="pointer-events: none;"><line transform="translate(0,300)" x2="-5" y2="0" style="fill: none; stroke: #888; stroke-width: 1; opacity: 1;"></line><line transform="translate(0,267)" x2="-5" y2="0" style="fill: none; stroke: #888; stroke-width: 1; opacity: 1;"></line><line transform="translate(0,233)" x2="-5" y2="0" style="fill: none; stroke: #888; stroke-width: 1; opacity: 1;"></line><line transform="translate(0,200)" x2="-5" y2="0" style="fill: none; stroke: #888; stroke-width: 1; opacity: 1;"></line><line transform="translate(0,167)" x2="-5" y2="0" style="fill: none; stroke: #888; stroke-width: 1; opacity: 1;"></line><line transform="translate(0,133)" x2="-5" y2="0" style="fill: none; stroke: #888; stroke-width: 1; opacity: 1;"></line><line transform="translate(0,100)" x2="-5" y2="0" style="fill: none; stroke: #888; stroke-width: 1; opacity: 1;"></line><line transform="translate(0,67)" x2="-5" y2="0" style="fill: none; stroke: #888; stroke-width: 1; opacity: 1;"></line><line transform="translate(0,33)" x2="-5" y2="0" style="fill: none; stroke: #888; stroke-width: 1; opacity: 1;"></line><line transform="translate(0,0)" x2="-5" y2="0" style="fill: none; stroke: #888; stroke-width: 1; opacity: 1;"></line></g><g class="mark-text role-axis-label" style="pointer-events: none;"><text text-anchor="end" transform="translate(-7,303)" style="font-family: sans-serif; font-size: 10px; fill: #000; opacity: 1;">0</text><text text-anchor="end" transform="translate(-7,269.6666666666667)" style="font-family: sans-serif; font-size: 10px; fill: #000; opacity: 1;">20,000</text><text text-anchor="end" transform="translate(-7,236.33333333333334)" style="font-family: sans-serif; font-size: 10px; fill: #000; opacity: 1;">40,000</text><text text-anchor="end" transform="translate(-7,203)" style="font-family: sans-serif; font-size: 10px; fill: #000; opacity: 1;">60,000</text><text text-anchor="end" transform="translate(-7,169.66666666666669)" style="font-family: sans-serif; font-size: 10px; fill: #000; opacity: 1;">80,000</text><text text-anchor="end" transform="translate(-7,136.33333333333331)" style="font-family: sans-serif; font-size: 10px; fill: #000; opacity: 1;">100,000</text><text text-anchor="end" transform="translate(-7,103)" style="font-family: sans-serif; font-size: 10px; fill: #000; opacity: 1;">120,000</text><text text-anchor="end" transform="translate(-7,69.66666666666666)" style="font-family: sans-serif; font-size: 10px; fill: #000; opacity: 1;">140,000</text><text text-anchor="end" transform="translate(-7,36.33333333333337)" style="font-family: sans-serif; font-size: 10px; fill: #000; opacity: 1;">160,000</text><text text-anchor="end" transform="translate(-7,3)" style="font-family: sans-serif; font-size: 10px; fill: #000; opacity: 1;">180,000</text></g><g class="mark-rule role-axis-domain" style="pointer-events: none;"><line transform="translate(0,300)" x2="0" y2="-300" style="fill: none; stroke: #888; stroke-width: 1; opacity: 1;"></line></g><g class="mark-text role-axis-title" style="pointer-events: none;"><text text-anchor="middle" transform="translate(-48.1474609375,150) rotate(-90) translate(0,-2)" style="font-family: sans-serif; font-size: 11px; font-weight: bold; fill: #000; opacity: 1;">Count</text></g></g></g></g></g></g></g></g></svg>