<svg class="marks" width="549" height="458" viewBox="0 0 549 458" version="1.1" xmlns="http://www.w3.org/2000/svg" xmlns:xlink="http://www.w3.org/1999/xlink"><g transform="translate(61,11)"><g class="mark-group role-frame root"><g transform="translate(0,0)"><path class="background" d="M0.5,0.5h483v300h-483Z" style="fill: none; stroke: #ddd;"></path><g><g class="mark-group role-axis"><g transform="translate(0.5,0.5)"><path class="background" d="M0,0h0v0h0Z" style="pointer-events: none; fill: none;"></path><g><g class="mark-rule role-axis-grid" style="pointer-events: none;"><line transform="translate(0,300)" x2="483" y2="0" style="fill: none; stroke: #ddd; stroke-width: 1; opacity: 1;"></line><line transform="translate(0,257)" x2="483" y2="0" style="fill: none; stroke: #ddd; stroke-width: 1; opacity: 1;"></line><line transform="translate(0,214)" x2="483" y2="0" style="fill: none; stroke: #ddd; stroke-width: 1; opacity: 1;"></line><line transform="translate(0,171)" x2="483" y2="0" style="fill: none; stroke: #ddd; stroke-width: 1; opacity: 1;"></line><line transform="translate(0,129)" x2="483" y2="0" style="fill: none; stroke: #ddd; stroke-width: 1; opacity: 1;"></line><line transform="translate(0,86)" x2="483" y2="0" style="fill: none; stroke: #ddd; stroke-width: 1; opacity: 1;"></line><line transform="translate(0,43)" x2="483" y2="0" style="fill: none; stroke: #ddd; stroke-width: 1; opacity: 1;"></line><line transform="translate(0,0)" x2="483" y2="0" style="fill: none; stroke: #ddd; stroke-width: 1; opacity: 1;"></line></g></g></g></g><g class="mark-rect role-mark marks"><path d="M463.05,299.88h18.900000000000002v0.12000000000000455h-18.900000000000002Z" style="fill: #4c78a8;"></path><path d="M190.05,297.1714285714286h18.900000000000002v2.828571428571422h-18.900000000000002Z" style="fill: #4c78a8;"></path><path d="M337.05,253.57714285714286h18.900000000000002v46.42285714285714h-18.900000000000002Z" style="fill: #4c78a8;"></path><path d="M1.0500000000000114,263.0571428571429h18.900000000000002v36.94285714285712h-18.900000000000002Z" style="fill: #4c78a8;"></path><path d="M232.05,288.01714285714286h18.900000000000002v11.982857142857142h-18.900000000000002Z" style="fill: #4c78a8;"></path><path d="M169.05,278.20285714285717h18.900000000000002v21.79714285714283h-18.900000000000002Z" style="fill: #4c78a8;"></path><path d="M253.05,287.89714285714285h18.900000000000002v12.102857142857147h-18.900000000000002Z" style="fill: #4c78a8;"></path><path d="M211.05,297.4371428571429h18.900000000000002v2.5628571428571263h-18.900000000000002Z" style="fill: #4c78a8;"></path><path d="M421.05,266.1857142857143h18.900000000000002v33.81428571428569h-18.900000000000002Z" style="fill: #4c78a8;"></path><path d="M64.05000000000001,299.82h18.900000000000002v0.18000000000000682h-18.900000000000002Z" style="fill: #4c78a8;"></path><path d="M295.05,8.648571428571415h18.900000000000002v291.3514285714286h-18.900000000000002Z" style="fill: #4c78a8;"></path><path d="M274.05,271.1742857142857h18.900000000000002v28.825714285714298h-18.900000000000002Z" style="fill: #4c78a8;"></path><path d="M127.05000000000001,291.2914285714286h18.900000000000002v8.708571428571418h-18.900000000000002Z" style="fill: #4c78a8;"></path><path d="M148.05,298.68857142857144h18.900000000000002v1.3114285714285643h-18.900000000000002Z" style="fill: #4c78a8;"></path><path d="M442.05,297.42h18.900000000000002v2.579999999999984h-18.900000000000002Z" style="fill: #4c78a8;"></path><path d="M43.05000000000001,252.81428571428572h18.900000000000002v47.18571428571428h-18.900000000000002Z" style="fill: #4c78a8;"></path><path d="M85.05000000000001,296.41714285714284h18.900000000000002v3.582857142857165h-18.900000000000002Z" style="fill: #4c78a8;"></path><path d="M316.05,206.4h18.900000000000002v93.6h-18.900000000000002Z" style="fill: #4c78a8;"></path><path d="M22.05000000000001,284.33142857142855h18.900000000000002v15.668571428571454h-18.900000000000002Z" style="fill: #4c78a8;"></path><path d="M106.05000000000001,296.80285714285714h18.900000000000002v3.1971428571428646h-18.900000000000002Z" style="fill: #4c78a8;"></path><path d="M358.05,298.56857142857143h18.900000000000002v1.4314285714285688h-18.900000000000002Z" style="fill: #4c78a8;"></path><path d="M400.05,293.3228571428571h18.900000000000002v6.677142857142883h-18.900000000000002Z" style="fill: #4c78a8;"></path><path d="M379.05,292.8h18.900000000000002v7.199999999999989h-18.900000000000002Z" style="fill: #4c78a8;"></path></g><g class="mark-group role-axis"><g transform="translate(0.5,300.5)"><path class="background" d="M0,0h0v0h0Z" style="pointer-events: none; fill: none;"></path><g><g class="mark-rule role-axis-tick" style="pointer-events: none;"><line transform="translate(10,0)" x2="0" y2="5" style="fill: none; stroke: #888; stroke-width: 1; opacity: 1;"></line><line transform="translate(31,0)" x2="0" y2="5" style="fill: none; stroke: #888; stroke-width: 1; opacity: 1;"></line><line transform="translate(52,0)" x2="0" y2="5" style="fill: none; stroke: #888; stroke-width: 1; opacity: 1;"></line><line transform="translate(73,0)" x2="0" y2="5" style="fill: none; stroke: #888; stroke-width: 1; opacity: 1;"></line><line transform="translate(94,0)" x2="0" y2="5" style="fill: none; stroke: #888; stroke-width: 1; opacity: 1;"></line><line transform="translate(115,0)" x2="0" y2="5" style="fill: none; stroke: #888; stroke-width: 1; opacity: 1;"></line><line transform="translate(136,0)" x2="0" y2="5" style="fill: none; stroke: #888; stroke-width: 1; opacity: 1;"></line><line transform="translate(157,0)" x2="0" y2="5" style="fill: none; stroke: #888; stroke-width: 1; opacity: 1;"></line><line transform="translate(178,0)" x2="0" y2="5" style="fill: none; stroke: #888; stroke-width: 1; opacity: 1;"></line><line transform="translate(199,0)" x2="0" y2="5" style="fill: none; stroke: #888; stroke-width: 1; opacity: 1;"></line><line transform="translate(220,0)" x2="0" y2="5" style="fill: none; stroke: #888; stroke-width: 1; opacity: 1;"></line><line transform="translate(241,0)" x2="0" y2="5" style="fill: none; stroke: #888; stroke-width: 1; opacity: 1;"></line><line transform="translate(262,0)" x2="0" y2="5" style="fill: none; stroke: #888; stroke-width: 1; opacity: 1;"></line><line transform="translate(283,0)" x2="0" y2="5" style="fill: none; stroke: #888; stroke-width: 1; opacity: 1;"></line><line transform="translate(304,0)" x2="0" y2="5" style="fill: none; stroke: #888; stroke-width: 1; opacity: 1;"></line><line transform="translate(325,0)" x2="0" y2="5" style="fill: none; stroke: #888; stroke-width: 1; opacity: 1;"></line><line transform="translate(346,0)" x2="0" y2="5" style="fill: none; stroke: #888; stroke-width: 1; opacity: 1;"></line><line transform="translate(367,0)" x2="0" y2="5" style="fill: none; stroke: #888; stroke-width: 1; opacity: 1;"></line><line transform="translate(388,0)" x2="0" y2="5" style="fill: none; stroke: #888; stroke-width: 1; opacity: 1;"></line><line transform="translate(409,0)" x2="0" y2="5" style="fill: none; stroke: #888; stroke-width: 1; opacity: 1;"></line><line transform="translate(430,0)" x2="0" y2="5" style="fill: none; stroke: #888; stroke-width: 1; opacity: 1;"></line><line transform="translate(451,0)" x2="0" y2="5" style="fill: none; stroke: #888; stroke-width: 1; opacity: 1;"></line><line transform="translate(472,0)" x2="0" y2="5" style="fill: none; stroke: #888; stroke-width: 1; opacity: 1;"></line></g><g class="mark-text role-axis-label" style="pointer-events: none;"><text text-anchor="end" transform="translate(9.500000000000012,7) rotate(270) translate(0,3)" style="font-family: sans-serif; font-size: 10px; fill: #000; opacity: 1;">ancient-code.com</text><text text-anchor="end" transform="translate(30.500000000000014,7) rotate(270) translate(0,3)" style="font-family: sans-serif; font-size: 10px; fill: #000; opacity: 1;">collective-evolution.com</text><text text-anchor="end" transform="translate(51.500000000000014,7) rotate(270) translate(0,3)" style="font-family: sans-serif; font-size: 10px; fill: #000; opacity: 1;">collectivelyconscious.net</text><text text-anchor="end" transform="translate(72.50000000000001,7) rotate(270) translate(0,3)" style="font-family: sans-serif; font-size: 10px; fill: #000; opacity: 1;">dineal.com</text><text text-anchor="end" transform="translate(93.50000000000001,7) rotate(270) translate(0,3)" style="font-family: sans-serif; font-size: 10px; fill: #000; opacity: 1;">ewao.com</text><text text-anchor="end" transform="translate(114.50000000000001,7) rotate(270) translate(0,3)" style="font-family: sans-serif; font-size: 10px; fill: #000; opacity: 1;">foodbabe.com</text><text text-anchor="end" transform="translate(135.5,7) rotate(270) translate(0,3)" style="font-family: sans-serif; font-size: 10px; fill: #000; opacity: 1;">galacticconnection.com</text><text text-anchor="end" transform="translate(156.5,7) rotate(270) translate(0,3)" style="font-family: sans-serif; font-size: 10px; fill: #000; opacity: 1;">geoengineeringwatch.org</text><text text-anchor="end" transform="translate(177.5,7) rotate(270) translate(0,3)" style="font-family: sans-serif; font-size: 10px; fill: #000; opacity: 1;">healthimpactnews.com</text><text text-anchor="end" transform="translate(198.5,7) rotate(270) translate(0,3)" style="font-family: sans-serif; font-size: 10px; fill: #000; opacity: 1;">healthnutnews.com</text><text text-anchor="end" transform="translate(219.5,7) rotate(270) translate(0,3)" style="font-family: sans-serif; font-size: 10px; fill: #000; opacity: 1;">healthy-holistic-living.com</text><text text-anchor="end" transform="translate(240.5,7) rotate(270) translate(0,3)" style="font-family: sans-serif; font-size: 10px; fill: #000; opacity: 1;">icr.org</text><text text-anchor="end" transform="translate(261.5,7) rotate(270) translate(0,3)" style="font-family: sans-serif; font-size: 10px; fill: #000; opacity: 1;">in5d.com</text><text text-anchor="end" transform="translate(282.5,7) rotate(270) translate(0,3)" style="font-family: sans-serif; font-size: 10px; fill: #000; opacity: 1;">naturalblaze.com</text><text text-anchor="end" transform="translate(303.5,7) rotate(270) translate(0,3)" style="font-family: sans-serif; font-size: 10px; fill: #000; opacity: 1;">naturalnews.com</text><text text-anchor="end" transform="translate(324.5,7) rotate(270) translate(0,3)" style="font-family: sans-serif; font-size: 10px; fill: #000; opacity: 1;">naturalnewsblogs.com</text><text text-anchor="end" transform="translate(345.5,7) rotate(270) translate(0,3)" style="font-family: sans-serif; font-size: 10px; fill: #000; opacity: 1;">realfarmacy.com</text><text text-anchor="end" transform="translate(366.5,7) rotate(270) translate(0,3)" style="font-family: sans-serif; font-size: 10px; fill: #000; opacity: 1;">responsibletechnology.org</text><text text-anchor="end" transform="translate(387.5,7) rotate(270) translate(0,3)" style="font-family: sans-serif; font-size: 10px; fill: #000; opacity: 1;">revolutions2040.com</text><text text-anchor="end" transform="translate(408.5,7) rotate(270) translate(0,3)" style="font-family: sans-serif; font-size: 10px; fill: #000; opacity: 1;">thetruthaboutcancer.com</text><text text-anchor="end" transform="translate(429.5,7) rotate(270) translate(0,3)" style="font-family: sans-serif; font-size: 10px; fill: #000; opacity: 1;">wakingtimes.com</text><text text-anchor="end" transform="translate(450.5,7) rotate(270) translate(0,3)" style="font-family: sans-serif; font-size: 10px; fill: #000; opacity: 1;">whydontyoutrythis.com</text><text text-anchor="end" transform="translate(471.5,7) rotate(270) translate(0,3)" style="font-family: sans-serif; font-size: 10px; fill: #000; opacity: 1;">worldwidehealthy.com</text></g><g class="mark-rule role-axis-domain" style="pointer-events: none;"><line transform="translate(0,0)" x2="483" y2="0" style="fill: none; stroke: #888; stroke-width: 1; opacity: 1;"></line></g><g class="mark-text role-axis-title" style="pointer-events: none;"><text text-anchor="middle" transform="translate(241.5,137.0009765625)" style="font-family: sans-serif; font-size: 11px; font-weight: bold; fill: #000; opacity: 1;">domains</text></g></g></g></g><g class="mark-group role-axis"><g transform="translate(0.5,0.5)"><path class="background" d="M0,0h0v0h0Z" style="pointer-events: none; fill: none;"></path><g><g class="mark-rule role-axis-tick" style="pointer-events: none;"><line transform="translate(0,300)" x2="-5" y2="0" style="fill: none; stroke: #888; stroke-width: 1; opacity: 1;"></line><line transform="translate(0,257)" x2="-5" y2="0" style="fill: none; stroke: #888; stroke-width: 1; opacity: 1;"></line><line transform="translate(0,214)" x2="-5" y2="0" style="fill: none; stroke: #888; stroke-width: 1; opacity: 1;"></line><line transform="translate(0,171)" x2="-5" y2="0" style="fill: none; stroke: #888; stroke-width: 1; opacity: 1;"></line><line transform="translate(0,129)" x2="-5" y2="0" style="fill: none; stroke: #888; stroke-width: 1; opacity: 1;"></line><line transform="translate(0,86)" x2="-5" y2="0" style="fill: none; stroke: #888; stroke-width: 1; opacity: 1;"></line><line transform="translate(0,43)" x2="-5" y2="0" style="fill: none; stroke: #888; stroke-width: 1; opacity: 1;"></line><line transform="translate(0,0)" x2="-5" y2="0" style="fill: none; stroke: #888; stroke-width: 1; opacity: 1;"></line></g><g class="mark-text role-axis-label" style="pointer-events: none;"><text text-anchor="end" transform="translate(-7,303)" style="font-family: sans-serif; font-size: 10px; fill: #000; opacity: 1;">0</text><text text-anchor="end" transform="translate(-7,260.14285714285717)" style="font-family: sans-serif; font-size: 10px; fill: #000; opacity: 1;">5,000</text><text text-anchor="end" transform="translate(-7,217.28571428571428)" style="font-family: sans-serif; font-size: 10px; fill: #000; opacity: 1;">10,000</text><text text-anchor="end" transform="translate(-7,174.42857142857144)" style="font-family: sans-serif; font-size: 10px; fill: #000; opacity: 1;">15,000</text><text text-anchor="end" transform="translate(-7,131.57142857142858)" style="font-family: sans-serif; font-size: 10px; fill: #000; opacity: 1;">20,000</text><text text-anchor="end" transform="translate(-7,88.71428571428572)" style="font-family: sans-serif; font-size: 10px; fill: #000; opacity: 1;">25,000</text><text text-anchor="end" transform="translate(-7,45.85714285714289)" style="font-family: sans-serif; font-size: 10px; fill: #000; opacity: 1;">30,000</text><text text-anchor="end" transform="translate(-7,3)" style="font-family: sans-serif; font-size: 10px; fill: #000; opacity: 1;">35,000</text></g><g class="mark-rule role-axis-domain" style="pointer-events: none;"><line transform="translate(0,300)" x2="0" y2="-300" style="fill: none; stroke: #888; stroke-width: 1; opacity: 1;"></line></g><g class="mark-text role-axis-title" style="pointer-events: none;"><text text-anchor="middle" transform="translate(-42.5859375,150) rotate(-90) translate(0,-2)" style="font-family: sans-serif; font-size: 11px; font-weight: bold; fill: #000; opacity: 1;">Count</text></g></g></g></g></g></g></g></g></svg>