<svg class="marks" width="1227" height="495" viewBox="0 0 1227 495" version="1.1" xmlns="http://www.w3.org/2000/svg" xmlns:xlink="http://www.w3.org/1999/xlink"><g transform="translate(67,11)"><g class="mark-group role-frame root"><g transform="translate(0,0)"><path class="background" d="M0.5,0.5h1155v300h-1155Z" style="fill: none; stroke: #ddd;"></path><g><g class="mark-group role-axis"><g transform="translate(0.5,0.5)"><path class="background" d="M0,0h0v0h0Z" style="pointer-events: none; fill: none;"></path><g><g class="mark-rule role-axis-grid" style="pointer-events: none;"><line transform="translate(0,300)" x2="1155" y2="0" style="fill: none; stroke: #ddd; stroke-width: 1; opacity: 1;"></line><line transform="translate(0,263)" x2="1155" y2="0" style="fill: none; stroke: #ddd; stroke-width: 1; opacity: 1;"></line><line transform="translate(0,225)" x2="1155" y2="0" style="fill: none; stroke: #ddd; stroke-width: 1; opacity: 1;"></line><line transform="translate(0,188)" x2="1155" y2="0" style="fill: none; stroke: #ddd; stroke-width: 1; opacity: 1;"></line><line transform="translate(0,150)" x2="1155" y2="0" style="fill: none; stroke: #ddd; stroke-width: 1; opacity: 1;"></line><line transform="translate(0,113)" x2="1155" y2="0" style="fill: none; stroke: #ddd; stroke-width: 1; opacity: 1;"></line><line transform="translate(0,75)" x2="1155" y2="0" style="fill: none; stroke: #ddd; stroke-width: 1; opacity: 1;"></line><line transform="translate(0,38)" x2="1155" y2="0" style="fill: none; stroke: #ddd; stroke-width: 1; opacity: 1;"></line><line transform="translate(0,0)" x2="1155" y2="0" style="fill: none; stroke: #ddd; stroke-width: 1; opacity: 1;"></line></g></g></g></g><g class="mark-rect role-mark marks"><path d="M526.0500000000001,299.2995h18.900000000000002v0.7004999999999768h-18.900000000000002Z" style="fill: #4c78a8;"></path><path d="M631.0500000000001,292.3845h18.900000000000002v7.615499999999997h-18.900000000000002Z" style="fill: #4c78a8;"></path><path d="M1135.0500000000002,299.898h18.900000000000002v0.10199999999997544h-18.900000000000002Z" style="fill: #4c78a8;"></path><path d="M652.0500000000001,297.62325h18.900000000000002v2.3767500000000155h-18.900000000000002Z" style="fill: #4c78a8;"></path><path d="M505.05000000000007,297.2805h18.900000000000002v2.7194999999999823h-18.900000000000002Z" style="fill: #4c78a8;"></path><path d="M85.05000000000007,299.814h18.900000000000002v0.18599999999997863h-18.900000000000002Z" style="fill: #4c78a8;"></path><path d="M1051.0500000000002,298.377h18.900000000000002v1.6229999999999905h-18.900000000000002Z" style="fill: #4c78a8;"></path><path d="M862.0500000000001,299.87025h18.900000000000002v0.12975000000000136h-18.900000000000002Z" style="fill: #4c78a8;"></path><path d="M232.05000000000007,298.9605h18.900000000000002v1.0394999999999754h-18.900000000000002Z" style="fill: #4c78a8;"></path><path d="M925.0500000000001,299.3775h18.900000000000002v0.6225000000000023h-18.900000000000002Z" style="fill: #4c78a8;"></path><path d="M883.0500000000001,256.53225h18.900000000000002v43.467750000000024h-18.900000000000002Z" style="fill: #4c78a8;"></path><path d="M1114.0500000000002,286.18575h18.900000000000002v13.814250000000015h-18.900000000000002Z" style="fill: #4c78a8;"></path><path d="M568.0500000000001,292.86525h18.900000000000002v7.134749999999997h-18.900000000000002Z" style="fill: #4c78a8;"></path><path d="M589.0500000000001,298.3365h18.900000000000002v1.663499999999999h-18.900000000000002Z" style="fill: #4c78a8;"></path><path d="M463.05000000000007,299.8185h18.900000000000002v0.1815000000000282h-18.900000000000002Z" style="fill: #4c78a8;"></path><path d="M1072.0500000000002,270.5445h18.900000000000002v29.455499999999972h-18.900000000000002Z" style="fill: #4c78a8;"></path><path d="M106.05000000000007,295.581h18.900000000000002v4.418999999999983h-18.900000000000002Z" style="fill: #4c78a8;"></path><path d="M22.050000000000068,291.0825h18.900000000000002v8.917500000000018h-18.900000000000002Z" style="fill: #4c78a8;"></path><path d="M1093.0500000000002,281.31975h18.900000000000002v18.68025h-18.900000000000002Z" style="fill: #4c78a8;"></path><path d="M904.0500000000001,286.74075h18.900000000000002v13.259250000000009h-18.900000000000002Z" style="fill: #4c78a8;"></path><path d="M673.0500000000001,289.5165h18.900000000000002v10.483499999999992h-18.900000000000002Z" style="fill: #4c78a8;"></path><path d="M316.05000000000007,251.4795h18.900000000000002v48.5205h-18.900000000000002Z" style="fill: #4c78a8;"></path><path d="M1030.0500000000002,294.285h18.900000000000002v5.714999999999975h-18.900000000000002Z" style="fill: #4c78a8;"></path><path d="M757.0500000000001,267.7215h18.900000000000002v32.27850000000001h-18.900000000000002Z" style="fill: #4c78a8;"></path><path d="M610.0500000000001,298.98825h18.900000000000002v1.0117500000000064h-18.900000000000002Z" style="fill: #4c78a8;"></path><path d="M190.05000000000007,297.342h18.900000000000002v2.6580000000000155h-18.900000000000002Z" style="fill: #4c78a8;"></path><path d="M442.05000000000007,299.3715h18.900000000000002v0.6284999999999741h-18.900000000000002Z" style="fill: #4c78a8;"></path><path d="M694.0500000000001,289.65225h18.900000000000002v10.347750000000019h-18.900000000000002Z" style="fill: #4c78a8;"></path><path d="M169.05000000000007,298.98525h18.900000000000002v1.0147499999999923h-18.900000000000002Z" style="fill: #4c78a8;"></path><path d="M778.0500000000001,299.931h18.900000000000002v0.06900000000001683h-18.900000000000002Z" style="fill: #4c78a8;"></path><path d="M211.05000000000007,292.497h18.900000000000002v7.502999999999986h-18.900000000000002Z" style="fill: #4c78a8;"></path><path d="M715.0500000000001,298.941h18.900000000000002v1.059000000000026h-18.900000000000002Z" style="fill: #4c78a8;"></path><path d="M337.05000000000007,4.960499999999968h18.900000000000002v295.03950000000003h-18.900000000000002Z" style="fill: #4c78a8;"></path><path d="M1009.0500000000001,290.69325h18.900000000000002v9.306750000000022h-18.900000000000002Z" style="fill: #4c78a8;"></path><path d="M295.05000000000007,296.0985h18.900000000000002v3.9014999999999986h-18.900000000000002Z" style="fill: #4c78a8;"></path><path d="M484.05000000000007,299.388h18.900000000000002v0.6120000000000232h-18.900000000000002Z" style="fill: #4c78a8;"></path><path d="M820.0500000000001,277.4775h18.900000000000002v22.52249999999998h-18.900000000000002Z" style="fill: #4c78a8;"></path><path d="M64.05000000000007,297.12525h18.900000000000002v2.874750000000006h-18.900000000000002Z" style="fill: #4c78a8;"></path><path d="M358.05000000000007,296.82825h18.900000000000002v3.1717499999999745h-18.900000000000002Z" style="fill: #4c78a8;"></path><path d="M988.0500000000001,297.80475h18.900000000000002v2.1952499999999873h-18.900000000000002Z" style="fill: #4c78a8;"></path><path d="M1.0500000000000682,294.9405h18.900000000000002v5.059500000000014h-18.900000000000002Z" style="fill: #4c78a8;"></path><path d="M946.0500000000001,282.45375h18.900000000000002v17.546249999999986h-18.900000000000002Z" style="fill: #4c78a8;"></path><path d="M253.05000000000007,295.66725h18.900000000000002v4.332749999999976h-18.900000000000002Z" style="fill: #4c78a8;"></path><path d="M736.0500000000001,293.655h18.900000000000002v6.345000000000027h-18.900000000000002Z" style="fill: #4c78a8;"></path><path d="M274.05000000000007,298.887h18.900000000000002v1.1129999999999995h-18.900000000000002Z" style="fill: #4c78a8;"></path><path d="M148.05000000000007,294.5655h18.900000000000002v5.434500000000014h-18.900000000000002Z" style="fill: #4c78a8;"></path><path d="M127.05000000000007,259.10925h18.900000000000002v40.890750000000025h-18.900000000000002Z" style="fill: #4c78a8;"></path><path d="M547.0500000000001,299.99775h18.900000000000002v0.002250000000003638h-18.900000000000002Z" style="fill: #4c78a8;"></path><path d="M799.0500000000001,299.15775h18.900000000000002v0.8422499999999786h-18.900000000000002Z" style="fill: #4c78a8;"></path><path d="M841.0500000000001,275.86125h18.900000000000002v24.138750000000016h-18.900000000000002Z" style="fill: #4c78a8;"></path><path d="M43.05000000000007,299.89725h18.900000000000002v0.10275000000001455h-18.900000000000002Z" style="fill: #4c78a8;"></path><path d="M379.05000000000007,296.94375h18.900000000000002v3.0562499999999773h-18.900000000000002Z" style="fill: #4c78a8;"></path><path d="M400.05000000000007,299.99925h18.900000000000002v0.0007499999999822649h-18.900000000000002Z" style="fill: #4c78a8;"></path><path d="M967.0500000000001,299.82975h18.900000000000002v0.17025000000001h-18.900000000000002Z" style="fill: #4c78a8;"></path><path d="M421.05000000000007,298.84425h18.900000000000002v1.1557500000000118h-18.900000000000002Z" style="fill: #4c78a8;"></path></g><g class="mark-group role-axis"><g transform="translate(0.5,300.5)"><path class="background" d="M0,0h0v0h0Z" style="pointer-events: none; fill: none;"></path><g><g class="mark-rule role-axis-tick" style="pointer-events: none;"><line transform="translate(10,0)" x2="0" y2="5" style="fill: none; stroke: #888; stroke-width: 1; opacity: 1;"></line><line transform="translate(31,0)" x2="0" y2="5" style="fill: none; stroke: #888; stroke-width: 1; opacity: 1;"></line><line transform="translate(52,0)" x2="0" y2="5" style="fill: none; stroke: #888; stroke-width: 1; opacity: 1;"></line><line transform="translate(73,0)" x2="0" y2="5" style="fill: none; stroke: #888; stroke-width: 1; opacity: 1;"></line><line transform="translate(94,0)" x2="0" y2="5" style="fill: none; stroke: #888; stroke-width: 1; opacity: 1;"></line><line transform="translate(115,0)" x2="0" y2="5" style="fill: none; stroke: #888; stroke-width: 1; opacity: 1;"></line><line transform="translate(136,0)" x2="0" y2="5" style="fill: none; stroke: #888; stroke-width: 1; opacity: 1;"></line><line transform="translate(157,0)" x2="0" y2="5" style="fill: none; stroke: #888; stroke-width: 1; opacity: 1;"></line><line transform="translate(178,0)" x2="0" y2="5" style="fill: none; stroke: #888; stroke-width: 1; opacity: 1;"></line><line transform="translate(199,0)" x2="0" y2="5" style="fill: none; stroke: #888; stroke-width: 1; opacity: 1;"></line><line transform="translate(220,0)" x2="0" y2="5" style="fill: none; stroke: #888; stroke-width: 1; opacity: 1;"></line><line transform="translate(241,0)" x2="0" y2="5" style="fill: none; stroke: #888; stroke-width: 1; opacity: 1;"></line><line transform="translate(262,0)" x2="0" y2="5" style="fill: none; stroke: #888; stroke-width: 1; opacity: 1;"></line><line transform="translate(283,0)" x2="0" y2="5" style="fill: none; stroke: #888; stroke-width: 1; opacity: 1;"></line><line transform="translate(304,0)" x2="0" y2="5" style="fill: none; stroke: #888; stroke-width: 1; opacity: 1;"></line><line transform="translate(325,0)" x2="0" y2="5" style="fill: none; stroke: #888; stroke-width: 1; opacity: 1;"></line><line transform="translate(346,0)" x2="0" y2="5" style="fill: none; stroke: #888; stroke-width: 1; opacity: 1;"></line><line transform="translate(367,0)" x2="0" y2="5" style="fill: none; stroke: #888; stroke-width: 1; opacity: 1;"></line><line transform="translate(388,0)" x2="0" y2="5" style="fill: none; stroke: #888; stroke-width: 1; opacity: 1;"></line><line transform="translate(409,0)" x2="0" y2="5" style="fill: none; stroke: #888; stroke-width: 1; opacity: 1;"></line><line transform="translate(430,0)" x2="0" y2="5" style="fill: none; stroke: #888; stroke-width: 1; opacity: 1;"></line><line transform="translate(451,0)" x2="0" y2="5" style="fill: none; stroke: #888; stroke-width: 1; opacity: 1;"></line><line transform="translate(472,0)" x2="0" y2="5" style="fill: none; stroke: #888; stroke-width: 1; opacity: 1;"></line><line transform="translate(493,0)" x2="0" y2="5" style="fill: none; stroke: #888; stroke-width: 1; opacity: 1;"></line><line transform="translate(514,0)" x2="0" y2="5" style="fill: none; stroke: #888; stroke-width: 1; opacity: 1;"></line><line transform="translate(535,0)" x2="0" y2="5" style="fill: none; stroke: #888; stroke-width: 1; opacity: 1;"></line><line transform="translate(556,0)" x2="0" y2="5" style="fill: none; stroke: #888; stroke-width: 1; opacity: 1;"></line><line transform="translate(577,0)" x2="0" y2="5" style="fill: none; stroke: #888; stroke-width: 1; opacity: 1;"></line><line transform="translate(598,0)" x2="0" y2="5" style="fill: none; stroke: #888; stroke-width: 1; opacity: 1;"></line><line transform="translate(619,0)" x2="0" y2="5" style="fill: none; stroke: #888; stroke-width: 1; opacity: 1;"></line><line transform="translate(640,0)" x2="0" y2="5" style="fill: none; stroke: #888; stroke-width: 1; opacity: 1;"></line><line transform="translate(661,0)" x2="0" y2="5" style="fill: none; stroke: #888; stroke-width: 1; opacity: 1;"></line><line transform="translate(682,0)" x2="0" y2="5" style="fill: none; stroke: #888; stroke-width: 1; opacity: 1;"></line><line transform="translate(703,0)" x2="0" y2="5" style="fill: none; stroke: #888; stroke-width: 1; opacity: 1;"></line><line transform="translate(724,0)" x2="0" y2="5" style="fill: none; stroke: #888; stroke-width: 1; opacity: 1;"></line><line transform="translate(745,0)" x2="0" y2="5" style="fill: none; stroke: #888; stroke-width: 1; opacity: 1;"></line><line transform="translate(766,0)" x2="0" y2="5" style="fill: none; stroke: #888; stroke-width: 1; opacity: 1;"></line><line transform="translate(787,0)" x2="0" y2="5" style="fill: none; stroke: #888; stroke-width: 1; opacity: 1;"></line><line transform="translate(808,0)" x2="0" y2="5" style="fill: none; stroke: #888; stroke-width: 1; opacity: 1;"></line><line transform="translate(829,0)" x2="0" y2="5" style="fill: none; stroke: #888; stroke-width: 1; opacity: 1;"></line><line transform="translate(850,0)" x2="0" y2="5" style="fill: none; stroke: #888; stroke-width: 1; opacity: 1;"></line><line transform="translate(871,0)" x2="0" y2="5" style="fill: none; stroke: #888; stroke-width: 1; opacity: 1;"></line><line transform="translate(892,0)" x2="0" y2="5" style="fill: none; stroke: #888; stroke-width: 1; opacity: 1;"></line><line transform="translate(913,0)" x2="0" y2="5" style="fill: none; stroke: #888; stroke-width: 1; opacity: 1;"></line><line transform="translate(934,0)" x2="0" y2="5" style="fill: none; stroke: #888; stroke-width: 1; opacity: 1;"></line><line transform="translate(955,0)" x2="0" y2="5" style="fill: none; stroke: #888; stroke-width: 1; opacity: 1;"></line><line transform="translate(976,0)" x2="0" y2="5" style="fill: none; stroke: #888; stroke-width: 1; opacity: 1;"></line><line transform="translate(997,0)" x2="0" y2="5" style="fill: none; stroke: #888; stroke-width: 1; opacity: 1;"></line><line transform="translate(1018,0)" x2="0" y2="5" style="fill: none; stroke: #888; stroke-width: 1; opacity: 1;"></line><line transform="translate(1039,0)" x2="0" y2="5" style="fill: none; stroke: #888; stroke-width: 1; opacity: 1;"></line><line transform="translate(1060,0)" x2="0" y2="5" style="fill: none; stroke: #888; stroke-width: 1; opacity: 1;"></line><line transform="translate(1081,0)" x2="0" y2="5" style="fill: none; stroke: #888; stroke-width: 1; opacity: 1;"></line><line transform="translate(1102,0)" x2="0" y2="5" style="fill: none; stroke: #888; stroke-width: 1; opacity: 1;"></line><line transform="translate(1123,0)" x2="0" y2="5" style="fill: none; stroke: #888; stroke-width: 1; opacity: 1;"></line><line transform="translate(1144,0)" x2="0" y2="5" style="fill: none; stroke: #888; stroke-width: 1; opacity: 1;"></line></g><g class="mark-text role-axis-label" style="pointer-events: none;"><text text-anchor="end" transform="translate(9.50000000000007,7) rotate(270) translate(0,3)" style="font-family: sans-serif; font-size: 10px; fill: #000; opacity: 1;">advocate.com</text><text text-anchor="end" transform="translate(30.50000000000007,7) rotate(270) translate(0,3)" style="font-family: sans-serif; font-size: 10px; fill: #000; opacity: 1;">alternet.org</text><text text-anchor="end" transform="translate(51.50000000000007,7) rotate(270) translate(0,3)" style="font-family: sans-serif; font-size: 10px; fill: #000; opacity: 1;">americannewsx.com</text><text text-anchor="end" transform="translate(72.50000000000007,7) rotate(270) translate(0,3)" style="font-family: sans-serif; font-size: 10px; fill: #000; opacity: 1;">americanprogress.org</text><text text-anchor="end" transform="translate(93.50000000000007,7) rotate(270) translate(0,3)" style="font-family: sans-serif; font-size: 10px; fill: #000; opacity: 1;">attn.com</text><text text-anchor="end" transform="translate(114.50000000000007,7) rotate(270) translate(0,3)" style="font-family: sans-serif; font-size: 10px; fill: #000; opacity: 1;">baptistnews.com</text><text text-anchor="end" transform="translate(135.50000000000006,7) rotate(270) translate(0,3)" style="font-family: sans-serif; font-size: 10px; fill: #000; opacity: 1;">breitbart.com</text><text text-anchor="end" transform="translate(156.50000000000006,7) rotate(270) translate(0,3)" style="font-family: sans-serif; font-size: 10px; fill: #000; opacity: 1;">chroniclesmagazine.org</text><text text-anchor="end" transform="translate(177.50000000000006,7) rotate(270) translate(0,3)" style="font-family: sans-serif; font-size: 10px; fill: #000; opacity: 1;">city-journal.org</text><text text-anchor="end" transform="translate(198.50000000000006,7) rotate(270) translate(0,3)" style="font-family: sans-serif; font-size: 10px; fill: #000; opacity: 1;">commentarymagazine.com</text><text text-anchor="end" transform="translate(219.50000000000006,7) rotate(270) translate(0,3)" style="font-family: sans-serif; font-size: 10px; fill: #000; opacity: 1;">commondreams.org</text><text text-anchor="end" transform="translate(240.50000000000006,7) rotate(270) translate(0,3)" style="font-family: sans-serif; font-size: 10px; fill: #000; opacity: 1;">conservativereview.com</text><text text-anchor="end" transform="translate(261.50000000000006,7) rotate(270) translate(0,3)" style="font-family: sans-serif; font-size: 10px; fill: #000; opacity: 1;">countercurrents.org</text><text text-anchor="end" transform="translate(282.50000000000006,7) rotate(270) translate(0,3)" style="font-family: sans-serif; font-size: 10px; fill: #000; opacity: 1;">counterinformation.wordpress.com</text><text text-anchor="end" transform="translate(303.50000000000006,7) rotate(270) translate(0,3)" style="font-family: sans-serif; font-size: 10px; fill: #000; opacity: 1;">counterpunch.org</text><text text-anchor="end" transform="translate(324.50000000000006,7) rotate(270) translate(0,3)" style="font-family: sans-serif; font-size: 10px; fill: #000; opacity: 1;">dailycaller.com</text><text text-anchor="end" transform="translate(345.50000000000006,7) rotate(270) translate(0,3)" style="font-family: sans-serif; font-size: 10px; fill: #000; opacity: 1;">dailykos.com</text><text text-anchor="end" transform="translate(366.50000000000006,7) rotate(270) translate(0,3)" style="font-family: sans-serif; font-size: 10px; fill: #000; opacity: 1;">dennismichaellynch.com</text><text text-anchor="end" transform="translate(387.50000000000006,7) rotate(270) translate(0,3)" style="font-family: sans-serif; font-size: 10px; fill: #000; opacity: 1;">dissentmagazine.org</text><text text-anchor="end" transform="translate(408.50000000000006,7) rotate(270) translate(0,3)" style="font-family: sans-serif; font-size: 10px; fill: #000; opacity: 1;">drudgereport.com</text><text text-anchor="end" transform="translate(429.50000000000006,7) rotate(270) translate(0,3)" style="font-family: sans-serif; font-size: 10px; fill: #000; opacity: 1;">economicnoise.com</text><text text-anchor="end" transform="translate(450.50000000000006,7) rotate(270) translate(0,3)" style="font-family: sans-serif; font-size: 10px; fill: #000; opacity: 1;">ecowatch.com</text><text text-anchor="end" transform="translate(471.50000000000006,7) rotate(270) translate(0,3)" style="font-family: sans-serif; font-size: 10px; fill: #000; opacity: 1;">filmsforaction.org</text><text text-anchor="end" transform="translate(492.50000000000006,7) rotate(270) translate(0,3)" style="font-family: sans-serif; font-size: 10px; fill: #000; opacity: 1;">foreignpolicyjournal.com</text><text text-anchor="end" transform="translate(513.5000000000001,7) rotate(270) translate(0,3)" style="font-family: sans-serif; font-size: 10px; fill: #000; opacity: 1;">freedomworks.org</text><text text-anchor="end" transform="translate(534.5000000000001,7) rotate(270) translate(0,3)" style="font-family: sans-serif; font-size: 10px; fill: #000; opacity: 1;">fusion.net</text><text text-anchor="end" transform="translate(555.5000000000001,7) rotate(270) translate(0,3)" style="font-family: sans-serif; font-size: 10px; fill: #000; opacity: 1;">geopolmonitor.com</text><text text-anchor="end" transform="translate(576.5000000000001,7) rotate(270) translate(0,3)" style="font-family: sans-serif; font-size: 10px; fill: #000; opacity: 1;">guardianlv.com</text><text text-anchor="end" transform="translate(597.5000000000001,7) rotate(270) translate(0,3)" style="font-family: sans-serif; font-size: 10px; fill: #000; opacity: 1;">heritage.org</text><text text-anchor="end" transform="translate(618.5000000000001,7) rotate(270) translate(0,3)" style="font-family: sans-serif; font-size: 10px; fill: #000; opacity: 1;">ijr.com</text><text text-anchor="end" transform="translate(639.5000000000001,7) rotate(270) translate(0,3)" style="font-family: sans-serif; font-size: 10px; fill: #000; opacity: 1;">jackpineradicals.com</text><text text-anchor="end" transform="translate(660.5000000000001,7) rotate(270) translate(0,3)" style="font-family: sans-serif; font-size: 10px; fill: #000; opacity: 1;">jacobinmag.com</text><text text-anchor="end" transform="translate(681.5000000000001,7) rotate(270) translate(0,3)" style="font-family: sans-serif; font-size: 10px; fill: #000; opacity: 1;">judicialwatch.org</text><text text-anchor="end" transform="translate(702.5000000000001,7) rotate(270) translate(0,3)" style="font-family: sans-serif; font-size: 10px; fill: #000; opacity: 1;">mintpressnews.com</text><text text-anchor="end" transform="translate(723.5000000000001,7) rotate(270) translate(0,3)" style="font-family: sans-serif; font-size: 10px; fill: #000; opacity: 1;">mrc.org</text><text text-anchor="end" transform="translate(744.5000000000001,7) rotate(270) translate(0,3)" style="font-family: sans-serif; font-size: 10px; fill: #000; opacity: 1;">nakedcapitalism.com</text><text text-anchor="end" transform="translate(765.5000000000001,7) rotate(270) translate(0,3)" style="font-family: sans-serif; font-size: 10px; fill: #000; opacity: 1;">nationalreview.com</text><text text-anchor="end" transform="translate(786.5000000000001,7) rotate(270) translate(0,3)" style="font-family: sans-serif; font-size: 10px; fill: #000; opacity: 1;">newcoldwar.org</text><text text-anchor="end" transform="translate(807.5000000000001,7) rotate(270) translate(0,3)" style="font-family: sans-serif; font-size: 10px; fill: #000; opacity: 1;">oann.com</text><text text-anchor="end" transform="translate(828.5000000000001,7) rotate(270) translate(0,3)" style="font-family: sans-serif; font-size: 10px; fill: #000; opacity: 1;">observer.com</text><text text-anchor="end" transform="translate(849.5000000000001,7) rotate(270) translate(0,3)" style="font-family: sans-serif; font-size: 10px; fill: #000; opacity: 1;">pjmedia.com</text><text text-anchor="end" transform="translate(870.5000000000001,7) rotate(270) translate(0,3)" style="font-family: sans-serif; font-size: 10px; fill: #000; opacity: 1;">proudemocrat.com</text><text text-anchor="end" transform="translate(891.5000000000001,7) rotate(270) translate(0,3)" style="font-family: sans-serif; font-size: 10px; fill: #000; opacity: 1;">rawstory.com</text><text text-anchor="end" transform="translate(912.5000000000001,7) rotate(270) translate(0,3)" style="font-family: sans-serif; font-size: 10px; fill: #000; opacity: 1;">redstate.com</text><text text-anchor="end" transform="translate(933.5000000000001,7) rotate(270) translate(0,3)" style="font-family: sans-serif; font-size: 10px; fill: #000; opacity: 1;">resistancereport.com</text><text text-anchor="end" transform="translate(954.5000000000001,7) rotate(270) translate(0,3)" style="font-family: sans-serif; font-size: 10px; fill: #000; opacity: 1;">rinf.com</text><text text-anchor="end" transform="translate(975.5000000000001,7) rotate(270) translate(0,3)" style="font-family: sans-serif; font-size: 10px; fill: #000; opacity: 1;">ronpaulinstitute.org</text><text text-anchor="end" transform="translate(996.5000000000001,7) rotate(270) translate(0,3)" style="font-family: sans-serif; font-size: 10px; fill: #000; opacity: 1;">theblaze.com</text><text text-anchor="end" transform="translate(1017.5000000000001,7) rotate(270) translate(0,3)" style="font-family: sans-serif; font-size: 10px; fill: #000; opacity: 1;">thedailybeast.com</text><text text-anchor="end" transform="translate(1038.5000000000002,7) rotate(270) translate(0,3)" style="font-family: sans-serif; font-size: 10px; fill: #000; opacity: 1;">thefifthcolumnnews.com</text><text text-anchor="end" transform="translate(1059.5000000000002,7) rotate(270) translate(0,3)" style="font-family: sans-serif; font-size: 10px; fill: #000; opacity: 1;">theintercept.com</text><text text-anchor="end" transform="translate(1080.5000000000002,7) rotate(270) translate(0,3)" style="font-family: sans-serif; font-size: 10px; fill: #000; opacity: 1;">thinkprogress.org</text><text text-anchor="end" transform="translate(1101.5000000000002,7) rotate(270) translate(0,3)" style="font-family: sans-serif; font-size: 10px; fill: #000; opacity: 1;">washingtonexaminer.com</text><text text-anchor="end" transform="translate(1122.5000000000002,7) rotate(270) translate(0,3)" style="font-family: sans-serif; font-size: 10px; fill: #000; opacity: 1;">weeklystandard.com</text><text text-anchor="end" transform="translate(1143.5000000000002,7) rotate(270) translate(0,3)" style="font-family: sans-serif; font-size: 10px; fill: #000; opacity: 1;">yellowhammernews.com</text></g><g class="mark-rule role-axis-domain" style="pointer-events: none;"><line transform="translate(0,0)" x2="1155" y2="0" style="fill: none; stroke: #888; stroke-width: 1; opacity: 1;"></line></g><g class="mark-text role-axis-title" style="pointer-events: none;"><text text-anchor="middle" transform="translate(577.5,174.3984375)" style="font-family: sans-serif; font-size: 11px; font-weight: bold; fill: #000; opacity: 1;">domains</text></g></g></g></g><g class="mark-group role-axis"><g transform="translate(0.5,0.5)"><path class="background" d="M0,0h0v0h0Z" style="pointer-events: none; fill: none;"></path><g><g class="mark-rule role-axis-tick" style="pointer-events: none;"><line transform="translate(0,300)" x2="-5" y2="0" style="fill: none; stroke: #888; stroke-width: 1; opacity: 1;"></line><line transform="translate(0,263)" x2="-5" y2="0" style="fill: none; stroke: #888; stroke-width: 1; opacity: 1;"></line><line transform="translate(0,225)" x2="-5" y2="0" style="fill: none; stroke: #888; stroke-width: 1; opacity: 1;"></line><line transform="translate(0,188)" x2="-5" y2="0" style="fill: none; stroke: #888; stroke-width: 1; opacity: 1;"></line><line transform="translate(0,150)" x2="-5" y2="0" style="fill: none; stroke: #888; stroke-width: 1; opacity: 1;"></line><line transform="translate(0,113)" x2="-5" y2="0" style="fill: none; stroke: #888; stroke-width: 1; opacity: 1;"></line><line transform="translate(0,75)" x2="-5" y2="0" style="fill: none; stroke: #888; stroke-width: 1; opacity: 1;"></line><line transform="translate(0,38)" x2="-5" y2="0" style="fill: none; stroke: #888; stroke-width: 1; opacity: 1;"></line><line transform="translate(0,0)" x2="-5" y2="0" style="fill: none; stroke: #888; stroke-width: 1; opacity: 1;"></line></g><g class="mark-text role-axis-label" style="pointer-events: none;"><text text-anchor="end" transform="translate(-7,303)" style="font-family: sans-serif; font-size: 10px; fill: #000; opacity: 1;">0</text><text text-anchor="end" transform="translate(-7,265.5)" style="font-family: sans-serif; font-size: 10px; fill: #000; opacity: 1;">50,000</text><text text-anchor="end" transform="translate(-7,228)" style="font-family: sans-serif; font-size: 10px; fill: #000; opacity: 1;">100,000</text><text text-anchor="end" transform="translate(-7,190.5)" style="font-family: sans-serif; font-size: 10px; fill: #000; opacity: 1;">150,000</text><text text-anchor="end" transform="translate(-7,153)" style="font-family: sans-serif; font-size: 10px; fill: #000; opacity: 1;">200,000</text><text text-anchor="end" transform="translate(-7,115.5)" style="font-family: sans-serif; font-size: 10px; fill: #000; opacity: 1;">250,000</text><text text-anchor="end" transform="translate(-7,78)" style="font-family: sans-serif; font-size: 10px; fill: #000; opacity: 1;">300,000</text><text text-anchor="end" transform="translate(-7,40.5)" style="font-family: sans-serif; font-size: 10px; fill: #000; opacity: 1;">350,000</text><text text-anchor="end" transform="translate(-7,3)" style="font-family: sans-serif; font-size: 10px; fill: #000; opacity: 1;">400,000</text></g><g class="mark-rule role-axis-domain" style="pointer-events: none;"><line transform="translate(0,300)" x2="0" y2="-300" style="fill: none; stroke: #888; stroke-width: 1; opacity: 1;"></line></g><g class="mark-text role-axis-title" style="pointer-events: none;"><text text-anchor="middle" transform="translate(-48.1474609375,150) rotate(-90) translate(0,-2)" style="font-family: sans-serif; font-size: 11px; font-weight: bold; fill: #000; opacity: 1;">Count</text></g></g></g></g></g></g></g></g></svg>