<svg class="marks" width="1171" height="507" viewBox="0 0 1171 507" version="1.1" xmlns="http://www.w3.org/2000/svg" xmlns:xlink="http://www.w3.org/1999/xlink"><g transform="translate(66,10)"><g class="mark-group role-frame root"><g transform="translate(0,0)"><path class="background" d="M0.5,0.5h1100v300h-1100Z" style="fill: none; stroke: #ddd;"></path><g><g class="mark-group role-axis"><g transform="translate(0.5,0.5)"><path class="background" d="M0,0h0v0h0Z" style="pointer-events: none; fill: none;"></path><g><g class="mark-rule role-axis-grid" style="pointer-events: none;"><line transform="translate(0,300)" x2="1100" y2="0" style="fill: none; stroke: #ddd; stroke-width: 1; opacity: 1;"></line><line transform="translate(0,263)" x2="1100" y2="0" style="fill: none; stroke: #ddd; stroke-width: 1; opacity: 1;"></line><line transform="translate(0,225)" x2="1100" y2="0" style="fill: none; stroke: #ddd; stroke-width: 1; opacity: 1;"></line><line transform="translate(0,188)" x2="1100" y2="0" style="fill: none; stroke: #ddd; stroke-width: 1; opacity: 1;"></line><line transform="translate(0,150)" x2="1100" y2="0" style="fill: none; stroke: #ddd; stroke-width: 1; opacity: 1;"></line><line transform="translate(0,113)" x2="1100" y2="0" style="fill: none; stroke: #ddd; stroke-width: 1; opacity: 1;"></line><line transform="translate(0,75)" x2="1100" y2="0" style="fill: none; stroke: #ddd; stroke-width: 1; opacity: 1;"></line><line transform="translate(0,38)" x2="1100" y2="0" style="fill: none; stroke: #ddd; stroke-width: 1; opacity: 1;"></line><line transform="translate(0,0)" x2="1100" y2="0" style="fill: none; stroke: #ddd; stroke-width: 1; opacity: 1;"></line></g></g></g></g><g class="mark-rect role-mark marks"><path d="M501,299.2995h18v0.7004999999999768h-18Z" style="fill: #4c78a8;"></path><path d="M601,292.3845h18v7.615499999999997h-18Z" style="fill: #4c78a8;"></path><path d="M1081,299.898h18v0.10199999999997544h-18Z" style="fill: #4c78a8;"></path><path d="M621,297.62325h18v2.3767500000000155h-18Z" style="fill: #4c78a8;"></path><path d="M481,297.2805h18v2.7194999999999823h-18Z" style="fill: #4c78a8;"></path><path d="M81,299.814h18v0.18599999999997863h-18Z" style="fill: #4c78a8;"></path><path d="M1001,298.377h18v1.6229999999999905h-18Z" style="fill: #4c78a8;"></path><path d="M821,299.87025h18v0.12975000000000136h-18Z" style="fill: #4c78a8;"></path><path d="M221,298.9605h18v1.0394999999999754h-18Z" style="fill: #4c78a8;"></path><path d="M881,299.3775h18v0.6225000000000023h-18Z" style="fill: #4c78a8;"></path><path d="M841,256.53225h18v43.467750000000024h-18Z" style="fill: #4c78a8;"></path><path d="M1061,286.18575h18v13.814250000000015h-18Z" style="fill: #4c78a8;"></path><path d="M541,292.86525h18v7.134749999999997h-18Z" style="fill: #4c78a8;"></path><path d="M561,298.3365h18v1.663499999999999h-18Z" style="fill: #4c78a8;"></path><path d="M441,299.8185h18v0.1815000000000282h-18Z" style="fill: #4c78a8;"></path><path d="M1021,270.5445h18v29.455499999999972h-18Z" style="fill: #4c78a8;"></path><path d="M101,295.581h18v4.418999999999983h-18Z" style="fill: #4c78a8;"></path><path d="M21,291.0825h18v8.917500000000018h-18Z" style="fill: #4c78a8;"></path><path d="M1041,281.31975h18v18.68025h-18Z" style="fill: #4c78a8;"></path><path d="M861,286.74075h18v13.259250000000009h-18Z" style="fill: #4c78a8;"></path><path d="M641,289.5165h18v10.483499999999992h-18Z" style="fill: #4c78a8;"></path><path d="M301,251.4795h18v48.5205h-18Z" style="fill: #4c78a8;"></path><path d="M981,294.285h18v5.714999999999975h-18Z" style="fill: #4c78a8;"></path><path d="M721,267.7215h18v32.27850000000001h-18Z" style="fill: #4c78a8;"></path><path d="M581,298.98825h18v1.0117500000000064h-18Z" style="fill: #4c78a8;"></path><path d="M181,297.342h18v2.6580000000000155h-18Z" style="fill: #4c78a8;"></path><path d="M421,299.3715h18v0.6284999999999741h-18Z" style="fill: #4c78a8;"></path><path d="M661,289.65225h18v10.347750000000019h-18Z" style="fill: #4c78a8;"></path><path d="M161,298.98525h18v1.0147499999999923h-18Z" style="fill: #4c78a8;"></path><path d="M741,299.931h18v0.06900000000001683h-18Z" style="fill: #4c78a8;"></path><path d="M201,292.497h18v7.502999999999986h-18Z" style="fill: #4c78a8;"></path><path d="M681,298.941h18v1.059000000000026h-18Z" style="fill: #4c78a8;"></path><path d="M321,4.960499999999968h18v295.03950000000003h-18Z" style="fill: #4c78a8;"></path><path d="M961,290.69325h18v9.306750000000022h-18Z" style="fill: #4c78a8;"></path><path d="M281,296.0985h18v3.9014999999999986h-18Z" style="fill: #4c78a8;"></path><path d="M461,299.388h18v0.6120000000000232h-18Z" style="fill: #4c78a8;"></path><path d="M781,277.4775h18v22.52249999999998h-18Z" style="fill: #4c78a8;"></path><path d="M61,297.12525h18v2.874750000000006h-18Z" style="fill: #4c78a8;"></path><path d="M341,296.82825h18v3.1717499999999745h-18Z" style="fill: #4c78a8;"></path><path d="M941,297.80475h18v2.1952499999999873h-18Z" style="fill: #4c78a8;"></path><path d="M1,294.9405h18v5.059500000000014h-18Z" style="fill: #4c78a8;"></path><path d="M901,282.45375h18v17.546249999999986h-18Z" style="fill: #4c78a8;"></path><path d="M241,295.66725h18v4.332749999999976h-18Z" style="fill: #4c78a8;"></path><path d="M701,293.655h18v6.345000000000027h-18Z" style="fill: #4c78a8;"></path><path d="M261,298.887h18v1.1129999999999995h-18Z" style="fill: #4c78a8;"></path><path d="M141,294.5655h18v5.434500000000014h-18Z" style="fill: #4c78a8;"></path><path d="M121,259.10925h18v40.890750000000025h-18Z" style="fill: #4c78a8;"></path><path d="M521,299.99775h18v0.002250000000003638h-18Z" style="fill: #4c78a8;"></path><path d="M761,299.15775h18v0.8422499999999786h-18Z" style="fill: #4c78a8;"></path><path d="M801,275.86125h18v24.138750000000016h-18Z" style="fill: #4c78a8;"></path><path d="M41,299.89725h18v0.10275000000001455h-18Z" style="fill: #4c78a8;"></path><path d="M361,296.94375h18v3.0562499999999773h-18Z" style="fill: #4c78a8;"></path><path d="M381,299.99925h18v0.0007499999999822649h-18Z" style="fill: #4c78a8;"></path><path d="M921,299.82975h18v0.17025000000001h-18Z" style="fill: #4c78a8;"></path><path d="M401,298.84425h18v1.1557500000000118h-18Z" style="fill: #4c78a8;"></path></g><g class="mark-group role-axis"><g transform="translate(0.5,300.5)"><path class="background" d="M0,0h0v0h0Z" style="pointer-events: none; fill: none;"></path><g><g class="mark-rule role-axis-tick" style="pointer-events: none;"><line transform="translate(9,0)" x2="0" y2="5" style="fill: none; stroke: #888; stroke-width: 1; opacity: 1;"></line><line transform="translate(29,0)" x2="0" y2="5" style="fill: none; stroke: #888; stroke-width: 1; opacity: 1;"></line><line transform="translate(49,0)" x2="0" y2="5" style="fill: none; stroke: #888; stroke-width: 1; opacity: 1;"></line><line transform="translate(69,0)" x2="0" y2="5" style="fill: none; stroke: #888; stroke-width: 1; opacity: 1;"></line><line transform="translate(89,0)" x2="0" y2="5" style="fill: none; stroke: #888; stroke-width: 1; opacity: 1;"></line><line transform="translate(109,0)" x2="0" y2="5" style="fill: none; stroke: #888; stroke-width: 1; opacity: 1;"></line><line transform="translate(129,0)" x2="0" y2="5" style="fill: none; stroke: #888; stroke-width: 1; opacity: 1;"></line><line transform="translate(149,0)" x2="0" y2="5" style="fill: none; stroke: #888; stroke-width: 1; opacity: 1;"></line><line transform="translate(169,0)" x2="0" y2="5" style="fill: none; stroke: #888; stroke-width: 1; opacity: 1;"></line><line transform="translate(189,0)" x2="0" y2="5" style="fill: none; stroke: #888; stroke-width: 1; opacity: 1;"></line><line transform="translate(209,0)" x2="0" y2="5" style="fill: none; stroke: #888; stroke-width: 1; opacity: 1;"></line><line transform="translate(229,0)" x2="0" y2="5" style="fill: none; stroke: #888; stroke-width: 1; opacity: 1;"></line><line transform="translate(249,0)" x2="0" y2="5" style="fill: none; stroke: #888; stroke-width: 1; opacity: 1;"></line><line transform="translate(269,0)" x2="0" y2="5" style="fill: none; stroke: #888; stroke-width: 1; opacity: 1;"></line><line transform="translate(289,0)" x2="0" y2="5" style="fill: none; stroke: #888; stroke-width: 1; opacity: 1;"></line><line transform="translate(309,0)" x2="0" y2="5" style="fill: none; stroke: #888; stroke-width: 1; opacity: 1;"></line><line transform="translate(329,0)" x2="0" y2="5" style="fill: none; stroke: #888; stroke-width: 1; opacity: 1;"></line><line transform="translate(349,0)" x2="0" y2="5" style="fill: none; stroke: #888; stroke-width: 1; opacity: 1;"></line><line transform="translate(369,0)" x2="0" y2="5" style="fill: none; stroke: #888; stroke-width: 1; opacity: 1;"></line><line transform="translate(389,0)" x2="0" y2="5" style="fill: none; stroke: #888; stroke-width: 1; opacity: 1;"></line><line transform="translate(409,0)" x2="0" y2="5" style="fill: none; stroke: #888; stroke-width: 1; opacity: 1;"></line><line transform="translate(429,0)" x2="0" y2="5" style="fill: none; stroke: #888; stroke-width: 1; opacity: 1;"></line><line transform="translate(449,0)" x2="0" y2="5" style="fill: none; stroke: #888; stroke-width: 1; opacity: 1;"></line><line transform="translate(469,0)" x2="0" y2="5" style="fill: none; stroke: #888; stroke-width: 1; opacity: 1;"></line><line transform="translate(489,0)" x2="0" y2="5" style="fill: none; stroke: #888; stroke-width: 1; opacity: 1;"></line><line transform="translate(509,0)" x2="0" y2="5" style="fill: none; stroke: #888; stroke-width: 1; opacity: 1;"></line><line transform="translate(529,0)" x2="0" y2="5" style="fill: none; stroke: #888; stroke-width: 1; opacity: 1;"></line><line transform="translate(549,0)" x2="0" y2="5" style="fill: none; stroke: #888; stroke-width: 1; opacity: 1;"></line><line transform="translate(569,0)" x2="0" y2="5" style="fill: none; stroke: #888; stroke-width: 1; opacity: 1;"></line><line transform="translate(589,0)" x2="0" y2="5" style="fill: none; stroke: #888; stroke-width: 1; opacity: 1;"></line><line transform="translate(609,0)" x2="0" y2="5" style="fill: none; stroke: #888; stroke-width: 1; opacity: 1;"></line><line transform="translate(629,0)" x2="0" y2="5" style="fill: none; stroke: #888; stroke-width: 1; opacity: 1;"></line><line transform="translate(649,0)" x2="0" y2="5" style="fill: none; stroke: #888; stroke-width: 1; opacity: 1;"></line><line transform="translate(669,0)" x2="0" y2="5" style="fill: none; stroke: #888; stroke-width: 1; opacity: 1;"></line><line transform="translate(689,0)" x2="0" y2="5" style="fill: none; stroke: #888; stroke-width: 1; opacity: 1;"></line><line transform="translate(709,0)" x2="0" y2="5" style="fill: none; stroke: #888; stroke-width: 1; opacity: 1;"></line><line transform="translate(729,0)" x2="0" y2="5" style="fill: none; stroke: #888; stroke-width: 1; opacity: 1;"></line><line transform="translate(749,0)" x2="0" y2="5" style="fill: none; stroke: #888; stroke-width: 1; opacity: 1;"></line><line transform="translate(769,0)" x2="0" y2="5" style="fill: none; stroke: #888; stroke-width: 1; opacity: 1;"></line><line transform="translate(789,0)" x2="0" y2="5" style="fill: none; stroke: #888; stroke-width: 1; opacity: 1;"></line><line transform="translate(809,0)" x2="0" y2="5" style="fill: none; stroke: #888; stroke-width: 1; opacity: 1;"></line><line transform="translate(829,0)" x2="0" y2="5" style="fill: none; stroke: #888; stroke-width: 1; opacity: 1;"></line><line transform="translate(849,0)" x2="0" y2="5" style="fill: none; stroke: #888; stroke-width: 1; opacity: 1;"></line><line transform="translate(869,0)" x2="0" y2="5" style="fill: none; stroke: #888; stroke-width: 1; opacity: 1;"></line><line transform="translate(889,0)" x2="0" y2="5" style="fill: none; stroke: #888; stroke-width: 1; opacity: 1;"></line><line transform="translate(909,0)" x2="0" y2="5" style="fill: none; stroke: #888; stroke-width: 1; opacity: 1;"></line><line transform="translate(929,0)" x2="0" y2="5" style="fill: none; stroke: #888; stroke-width: 1; opacity: 1;"></line><line transform="translate(949,0)" x2="0" y2="5" style="fill: none; stroke: #888; stroke-width: 1; opacity: 1;"></line><line transform="translate(969,0)" x2="0" y2="5" style="fill: none; stroke: #888; stroke-width: 1; opacity: 1;"></line><line transform="translate(989,0)" x2="0" y2="5" style="fill: none; stroke: #888; stroke-width: 1; opacity: 1;"></line><line transform="translate(1009,0)" x2="0" y2="5" style="fill: none; stroke: #888; stroke-width: 1; opacity: 1;"></line><line transform="translate(1029,0)" x2="0" y2="5" style="fill: none; stroke: #888; stroke-width: 1; opacity: 1;"></line><line transform="translate(1049,0)" x2="0" y2="5" style="fill: none; stroke: #888; stroke-width: 1; opacity: 1;"></line><line transform="translate(1069,0)" x2="0" y2="5" style="fill: none; stroke: #888; stroke-width: 1; opacity: 1;"></line><line transform="translate(1089,0)" x2="0" y2="5" style="fill: none; stroke: #888; stroke-width: 1; opacity: 1;"></line></g><g class="mark-text role-axis-label" style="pointer-events: none;"><text text-anchor="end" transform="translate(9,7) rotate(270) translate(0,3)" style="font-family: sans-serif; font-size: 10px; fill: #000; opacity: 1;">advocate.com</text><text text-anchor="end" transform="translate(29,7) rotate(270) translate(0,3)" style="font-family: sans-serif; font-size: 10px; fill: #000; opacity: 1;">alternet.org</text><text text-anchor="end" transform="translate(49,7) rotate(270) translate(0,3)" style="font-family: sans-serif; font-size: 10px; fill: #000; opacity: 1;">americannewsx.com</text><text text-anchor="end" transform="translate(69,7) rotate(270) translate(0,3)" style="font-family: sans-serif; font-size: 10px; fill: #000; opacity: 1;">americanprogress.org</text><text text-anchor="end" transform="translate(89,7) rotate(270) translate(0,3)" style="font-family: sans-serif; font-size: 10px; fill: #000; opacity: 1;">attn.com</text><text text-anchor="end" transform="translate(109,7) rotate(270) translate(0,3)" style="font-family: sans-serif; font-size: 10px; fill: #000; opacity: 1;">baptistnews.com</text><text text-anchor="end" transform="translate(129,7) rotate(270) translate(0,3)" style="font-family: sans-serif; font-size: 10px; fill: #000; opacity: 1;">breitbart.com</text><text text-anchor="end" transform="translate(149,7) rotate(270) translate(0,3)" style="font-family: sans-serif; font-size: 10px; fill: #000; opacity: 1;">chroniclesmagazine.org</text><text text-anchor="end" transform="translate(169,7) rotate(270) translate(0,3)" style="font-family: sans-serif; font-size: 10px; fill: #000; opacity: 1;">city-journal.org</text><text text-anchor="end" transform="translate(189,7) rotate(270) translate(0,3)" style="font-family: sans-serif; font-size: 10px; fill: #000; opacity: 1;">commentarymagazine.com</text><text text-anchor="end" transform="translate(209,7) rotate(270) translate(0,3)" style="font-family: sans-serif; font-size: 10px; fill: #000; opacity: 1;">commondreams.org</text><text text-anchor="end" transform="translate(229,7) rotate(270) translate(0,3)" style="font-family: sans-serif; font-size: 10px; fill: #000; opacity: 1;">conservativereview.com</text><text text-anchor="end" transform="translate(249,7) rotate(270) translate(0,3)" style="font-family: sans-serif; font-size: 10px; fill: #000; opacity: 1;">countercurrents.org</text><text text-anchor="end" transform="translate(269,7) rotate(270) translate(0,3)" style="font-family: sans-serif; font-size: 10px; fill: #000; opacity: 1;">counterinformation.wordpress.com</text><text text-anchor="end" transform="translate(289,7) rotate(270) translate(0,3)" style="font-family: sans-serif; font-size: 10px; fill: #000; opacity: 1;">counterpunch.org</text><text text-anchor="end" transform="translate(309,7) rotate(270) translate(0,3)" style="font-family: sans-serif; font-size: 10px; fill: #000; opacity: 1;">dailycaller.com</text><text text-anchor="end" transform="translate(329,7) rotate(270) translate(0,3)" style="font-family: sans-serif; font-size: 10px; fill: #000; opacity: 1;">dailykos.com</text><text text-anchor="end" transform="translate(349,7) rotate(270) translate(0,3)" style="font-family: sans-serif; font-size: 10px; fill: #000; opacity: 1;">dennismichaellynch.com</text><text text-anchor="end" transform="translate(369,7) rotate(270) translate(0,3)" style="font-family: sans-serif; font-size: 10px; fill: #000; opacity: 1;">dissentmagazine.org</text><text text-anchor="end" transform="translate(389,7) rotate(270) translate(0,3)" style="font-family: sans-serif; font-size: 10px; fill: #000; opacity: 1;">drudgereport.com</text><text text-anchor="end" transform="translate(409,7) rotate(270) translate(0,3)" style="font-family: sans-serif; font-size: 10px; fill: #000; opacity: 1;">economicnoise.com</text><text text-anchor="end" transform="translate(429,7) rotate(270) translate(0,3)" style="font-family: sans-serif; font-size: 10px; fill: #000; opacity: 1;">ecowatch.com</text><text text-anchor="end" transform="translate(449,7) rotate(270) translate(0,3)" style="font-family: sans-serif; font-size: 10px; fill: #000; opacity: 1;">filmsforaction.org</text><text text-anchor="end" transform="translate(469,7) rotate(270) translate(0,3)" style="font-family: sans-serif; font-size: 10px; fill: #000; opacity: 1;">foreignpolicyjournal.com</text><text text-anchor="end" transform="translate(489,7) rotate(270) translate(0,3)" style="font-family: sans-serif; font-size: 10px; fill: #000; opacity: 1;">freedomworks.org</text><text text-anchor="end" transform="translate(509,7) rotate(270) translate(0,3)" style="font-family: sans-serif; font-size: 10px; fill: #000; opacity: 1;">fusion.net</text><text text-anchor="end" transform="translate(529,7) rotate(270) translate(0,3)" style="font-family: sans-serif; font-size: 10px; fill: #000; opacity: 1;">geopolmonitor.com</text><text text-anchor="end" transform="translate(549,7) rotate(270) translate(0,3)" style="font-family: sans-serif; font-size: 10px; fill: #000; opacity: 1;">guardianlv.com</text><text text-anchor="end" transform="translate(569,7) rotate(270) translate(0,3)" style="font-family: sans-serif; font-size: 10px; fill: #000; opacity: 1;">heritage.org</text><text text-anchor="end" transform="translate(589,7) rotate(270) translate(0,3)" style="font-family: sans-serif; font-size: 10px; fill: #000; opacity: 1;">ijr.com</text><text text-anchor="end" transform="translate(609,7) rotate(270) translate(0,3)" style="font-family: sans-serif; font-size: 10px; fill: #000; opacity: 1;">jackpineradicals.com</text><text text-anchor="end" transform="translate(629,7) rotate(270) translate(0,3)" style="font-family: sans-serif; font-size: 10px; fill: #000; opacity: 1;">jacobinmag.com</text><text text-anchor="end" transform="translate(649,7) rotate(270) translate(0,3)" style="font-family: sans-serif; font-size: 10px; fill: #000; opacity: 1;">judicialwatch.org</text><text text-anchor="end" transform="translate(669,7) rotate(270) translate(0,3)" style="font-family: sans-serif; font-size: 10px; fill: #000; opacity: 1;">mintpressnews.com</text><text text-anchor="end" transform="translate(689,7) rotate(270) translate(0,3)" style="font-family: sans-serif; font-size: 10px; fill: #000; opacity: 1;">mrc.org</text><text text-anchor="end" transform="translate(709,7) rotate(270) translate(0,3)" style="font-family: sans-serif; font-size: 10px; fill: #000; opacity: 1;">nakedcapitalism.com</text><text text-anchor="end" transform="translate(729,7) rotate(270) translate(0,3)" style="font-family: sans-serif; font-size: 10px; fill: #000; opacity: 1;">nationalreview.com</text><text text-anchor="end" transform="translate(749,7) rotate(270) translate(0,3)" style="font-family: sans-serif; font-size: 10px; fill: #000; opacity: 1;">newcoldwar.org</text><text text-anchor="end" transform="translate(769,7) rotate(270) translate(0,3)" style="font-family: sans-serif; font-size: 10px; fill: #000; opacity: 1;">oann.com</text><text text-anchor="end" transform="translate(789,7) rotate(270) translate(0,3)" style="font-family: sans-serif; font-size: 10px; fill: #000; opacity: 1;">observer.com</text><text text-anchor="end" transform="translate(809,7) rotate(270) translate(0,3)" style="font-family: sans-serif; font-size: 10px; fill: #000; opacity: 1;">pjmedia.com</text><text text-anchor="end" transform="translate(829,7) rotate(270) translate(0,3)" style="font-family: sans-serif; font-size: 10px; fill: #000; opacity: 1;">proudemocrat.com</text><text text-anchor="end" transform="translate(849,7) rotate(270) translate(0,3)" style="font-family: sans-serif; font-size: 10px; fill: #000; opacity: 1;">rawstory.com</text><text text-anchor="end" transform="translate(869,7) rotate(270) translate(0,3)" style="font-family: sans-serif; font-size: 10px; fill: #000; opacity: 1;">redstate.com</text><text text-anchor="end" transform="translate(889,7) rotate(270) translate(0,3)" style="font-family: sans-serif; font-size: 10px; fill: #000; opacity: 1;">resistancereport.com</text><text text-anchor="end" transform="translate(909,7) rotate(270) translate(0,3)" style="font-family: sans-serif; font-size: 10px; fill: #000; opacity: 1;">rinf.com</text><text text-anchor="end" transform="translate(929,7) rotate(270) translate(0,3)" style="font-family: sans-serif; font-size: 10px; fill: #000; opacity: 1;">ronpaulinstitute.org</text><text text-anchor="end" transform="translate(949,7) rotate(270) translate(0,3)" style="font-family: sans-serif; font-size: 10px; fill: #000; opacity: 1;">theblaze.com</text><text text-anchor="end" transform="translate(969,7) rotate(270) translate(0,3)" style="font-family: sans-serif; font-size: 10px; fill: #000; opacity: 1;">thedailybeast.com</text><text text-anchor="end" transform="translate(989,7) rotate(270) translate(0,3)" style="font-family: sans-serif; font-size: 10px; fill: #000; opacity: 1;">thefifthcolumnnews.com</text><text text-anchor="end" transform="translate(1009,7) rotate(270) translate(0,3)" style="font-family: sans-serif; font-size: 10px; fill: #000; opacity: 1;">theintercept.com</text><text text-anchor="end" transform="translate(1029,7) rotate(270) translate(0,3)" style="font-family: sans-serif; font-size: 10px; fill: #000; opacity: 1;">thinkprogress.org</text><text text-anchor="end" transform="translate(1049,7) rotate(270) translate(0,3)" style="font-family: sans-serif; font-size: 10px; fill: #000; opacity: 1;">washingtonexaminer.com</text><text text-anchor="end" transform="translate(1069,7) rotate(270) translate(0,3)" style="font-family: sans-serif; font-size: 10px; fill: #000; opacity: 1;">weeklystandard.com</text><text text-anchor="end" transform="translate(1089,7) rotate(270) translate(0,3)" style="font-family: sans-serif; font-size: 10px; fill: #000; opacity: 1;">yellowhammernews.com</text></g><g class="mark-rule role-axis-domain" style="pointer-events: none;"><line transform="translate(0,0)" x2="1100" y2="0" style="fill: none; stroke: #888; stroke-width: 1; opacity: 1;"></line></g><g class="mark-text role-axis-title" style="pointer-events: none;"><text text-anchor="middle" transform="translate(550,190)" style="font-family: sans-serif; font-size: 11px; font-weight: bold; fill: #000; opacity: 1;">domains</text></g></g></g></g><g class="mark-group role-axis"><g transform="translate(0.5,0.5)"><path class="background" d="M0,0h0v0h0Z" style="pointer-events: none; fill: none;"></path><g><g class="mark-rule role-axis-tick" style="pointer-events: none;"><line transform="translate(0,300)" x2="-5" y2="0" style="fill: none; stroke: #888; stroke-width: 1; opacity: 1;"></line><line transform="translate(0,263)" x2="-5" y2="0" style="fill: none; stroke: #888; stroke-width: 1; opacity: 1;"></line><line transform="translate(0,225)" x2="-5" y2="0" style="fill: none; stroke: #888; stroke-width: 1; opacity: 1;"></line><line transform="translate(0,188)" x2="-5" y2="0" style="fill: none; stroke: #888; stroke-width: 1; opacity: 1;"></line><line transform="translate(0,150)" x2="-5" y2="0" style="fill: none; stroke: #888; stroke-width: 1; opacity: 1;"></line><line transform="translate(0,113)" x2="-5" y2="0" style="fill: none; stroke: #888; stroke-width: 1; opacity: 1;"></line><line transform="translate(0,75)" x2="-5" y2="0" style="fill: none; stroke: #888; stroke-width: 1; opacity: 1;"></line><line transform="translate(0,38)" x2="-5" y2="0" style="fill: none; stroke: #888; stroke-width: 1; opacity: 1;"></line><line transform="translate(0,0)" x2="-5" y2="0" style="fill: none; stroke: #888; stroke-width: 1; opacity: 1;"></line></g><g class="mark-text role-axis-label" style="pointer-events: none;"><text text-anchor="end" transform="translate(-7,303)" style="font-family: sans-serif; font-size: 10px; fill: #000; opacity: 1;">0</text><text text-anchor="end" transform="translate(-7,265.5)" style="font-family: sans-serif; font-size: 10px; fill: #000; opacity: 1;">50,000</text><text text-anchor="end" transform="translate(-7,228)" style="font-family: sans-serif; font-size: 10px; fill: #000; opacity: 1;">100,000</text><text text-anchor="end" transform="translate(-7,190.5)" style="font-family: sans-serif; font-size: 10px; fill: #000; opacity: 1;">150,000</text><text text-anchor="end" transform="translate(-7,153)" style="font-family: sans-serif; font-size: 10px; fill: #000; opacity: 1;">200,000</text><text text-anchor="end" transform="translate(-7,115.5)" style="font-family: sans-serif; font-size: 10px; fill: #000; opacity: 1;">250,000</text><text text-anchor="end" transform="translate(-7,78)" style="font-family: sans-serif; font-size: 10px; fill: #000; opacity: 1;">300,000</text><text text-anchor="end" transform="translate(-7,40.5)" style="font-family: sans-serif; font-size: 10px; fill: #000; opacity: 1;">350,000</text><text text-anchor="end" transform="translate(-7,3)" style="font-family: sans-serif; font-size: 10px; fill: #000; opacity: 1;">400,000</text></g><g class="mark-rule role-axis-domain" style="pointer-events: none;"><line transform="translate(0,300)" x2="0" y2="-300" style="fill: none; stroke: #888; stroke-width: 1; opacity: 1;"></line></g><g class="mark-text role-axis-title" style="pointer-events: none;"><text text-anchor="middle" transform="translate(-50,150) rotate(-90) translate(0,-2)" style="font-family: sans-serif; font-size: 11px; font-weight: bold; fill: #000; opacity: 1;">Count</text></g></g></g></g></g></g></g></g></svg>