<svg class="marks" width="1680" height="466" viewBox="0 0 1680 466" version="1.1" xmlns="http://www.w3.org/2000/svg" xmlns:xlink="http://www.w3.org/1999/xlink"><g transform="translate(75,10)"><g class="mark-group role-frame root"><g transform="translate(0,0)"><path class="background" d="M0.5,0.5h1600v300h-1600Z" style="fill: none; stroke: #ddd;"></path><g><g class="mark-group role-axis"><g transform="translate(0.5,0.5)"><path class="background" d="M0,0h0v0h0Z" style="pointer-events: none; fill: none;"></path><g><g class="mark-rule role-axis-grid" style="pointer-events: none;"><line transform="translate(0,300)" x2="1600" y2="0" style="fill: none; stroke: #ddd; stroke-width: 1; opacity: 1;"></line><line transform="translate(0,263)" x2="1600" y2="0" style="fill: none; stroke: #ddd; stroke-width: 1; opacity: 1;"></line><line transform="translate(0,225)" x2="1600" y2="0" style="fill: none; stroke: #ddd; stroke-width: 1; opacity: 1;"></line><line transform="translate(0,188)" x2="1600" y2="0" style="fill: none; stroke: #ddd; stroke-width: 1; opacity: 1;"></line><line transform="translate(0,150)" x2="1600" y2="0" style="fill: none; stroke: #ddd; stroke-width: 1; opacity: 1;"></line><line transform="translate(0,113)" x2="1600" y2="0" style="fill: none; stroke: #ddd; stroke-width: 1; opacity: 1;"></line><line transform="translate(0,75)" x2="1600" y2="0" style="fill: none; stroke: #ddd; stroke-width: 1; opacity: 1;"></line><line transform="translate(0,38)" x2="1600" y2="0" style="fill: none; stroke: #ddd; stroke-width: 1; opacity: 1;"></line><line transform="translate(0,0)" x2="1600" y2="0" style="fill: none; stroke: #ddd; stroke-width: 1; opacity: 1;"></line></g></g></g></g><g class="mark-rect role-mark marks"><path d="M661,299.05725h18v0.9427499999999895h-18Z" style="fill: #4c78a8;"></path><path d="M381,299.8475625h18v0.1524375000000191h-18Z" style="fill: #4c78a8;"></path><path d="M221,299.8674375h18v0.1325625000000059h-18Z" style="fill: #4c78a8;"></path><path d="M1241,299.91525h18v0.08474999999998545h-18Z" style="fill: #4c78a8;"></path><path d="M1201,299.723625h18v0.27637499999997317h-18Z" style="fill: #4c78a8;"></path><path d="M101,299.4958125h18v0.5041875000000005h-18Z" style="fill: #4c78a8;"></path><path d="M741,299.75925h18v0.24074999999999136h-18Z" style="fill: #4c78a8;"></path><path d="M241,299.5749375h18v0.4250625000000241h-18Z" style="fill: #4c78a8;"></path><path d="M1041,299.885625h18v0.11437499999999545h-18Z" style="fill: #4c78a8;"></path><path d="M841,299.8846875h18v0.11531250000001592h-18Z" style="fill: #4c78a8;"></path><path d="M201,299.7009375h18v0.2990624999999909h-18Z" style="fill: #4c78a8;"></path><path d="M361,299.6975625h18v0.30243749999999636h-18Z" style="fill: #4c78a8;"></path><path d="M1481,299.833125h18v0.16687500000000455h-18Z" style="fill: #4c78a8;"></path><path d="M1141,299.405625h18v0.5943750000000136h-18Z" style="fill: #4c78a8;"></path><path d="M481,299.698125h18v0.30187499999999545h-18Z" style="fill: #4c78a8;"></path><path d="M1341,299.7088125h18v0.29118749999997817h-18Z" style="fill: #4c78a8;"></path><path d="M261,299.7225h18v0.277499999999975h-18Z" style="fill: #4c78a8;"></path><path d="M641,299.721375h18v0.2786249999999768h-18Z" style="fill: #4c78a8;"></path><path d="M281,299.5425h18v0.4574999999999818h-18Z" style="fill: #4c78a8;"></path><path d="M121,299.3720625h18v0.6279374999999732h-18Z" style="fill: #4c78a8;"></path><path d="M1081,299.73h18v0.2699999999999818h-18Z" style="fill: #4c78a8;"></path><path d="M1581,299.499h18v0.5009999999999764h-18Z" style="fill: #4c78a8;"></path><path d="M801,299.2276875h18v0.7723124999999982h-18Z" style="fill: #4c78a8;"></path><path d="M81,299.8798125h18v0.1201874999999859h-18Z" style="fill: #4c78a8;"></path><path d="M1021,299.727375h18v0.272625000000005h-18Z" style="fill: #4c78a8;"></path><path d="M721,298.76775h18v1.2322500000000218h-18Z" style="fill: #4c78a8;"></path><path d="M981,299.82225h18v0.17775000000000318h-18Z" style="fill: #4c78a8;"></path><path d="M581,299.6214375h18v0.3785624999999868h-18Z" style="fill: #4c78a8;"></path><path d="M41,299.856375h18v0.1436249999999859h-18Z" style="fill: #4c78a8;"></path><path d="M421,299.2910625h18v0.7089374999999905h-18Z" style="fill: #4c78a8;"></path><path d="M1121,299.151375h18v0.8486250000000268h-18Z" style="fill: #4c78a8;"></path><path d="M1401,295.9138125h18v4.086187499999994h-18Z" style="fill: #4c78a8;"></path><path d="M701,299.7448125h18v0.2551874999999768h-18Z" style="fill: #4c78a8;"></path><path d="M1061,297.9525h18v2.0475000000000136h-18Z" style="fill: #4c78a8;"></path><path d="M1161,298.5796875h18v1.4203125000000227h-18Z" style="fill: #4c78a8;"></path><path d="M561,299.818875h18v0.18112500000000864h-18Z" style="fill: #4c78a8;"></path><path d="M901,296.648625h18v3.3513750000000186h-18Z" style="fill: #4c78a8;"></path><path d="M1101,299.0415h18v0.958500000000015h-18Z" style="fill: #4c78a8;"></path><path d="M1461,299.2389375h18v0.76106249999998h-18Z" style="fill: #4c78a8;"></path><path d="M181,298.9681875h18v1.031812500000001h-18Z" style="fill: #4c78a8;"></path><path d="M861,299.3911875h18v0.6088124999999991h-18Z" style="fill: #4c78a8;"></path><path d="M341,299.81325h18v0.18675000000001774h-18Z" style="fill: #4c78a8;"></path><path d="M21,299.0235h18v0.9764999999999873h-18Z" style="fill: #4c78a8;"></path><path d="M541,25.571062499999982h18v274.4289375h-18Z" style="fill: #4c78a8;"></path><path d="M1281,299.52825h18v0.4717499999999859h-18Z" style="fill: #4c78a8;"></path><path d="M1321,299.152875h18v0.8471250000000055h-18Z" style="fill: #4c78a8;"></path><path d="M601,299.701875h18v0.2981250000000273h-18Z" style="fill: #4c78a8;"></path><path d="M941,299.6184375h18v0.3815624999999727h-18Z" style="fill: #4c78a8;"></path><path d="M161,297.270375h18v2.7296249999999986h-18Z" style="fill: #4c78a8;"></path><path d="M1181,299.648625h18v0.35137500000001864h-18Z" style="fill: #4c78a8;"></path><path d="M441,299.6364375h18v0.36356250000000045h-18Z" style="fill: #4c78a8;"></path><path d="M781,299.73825h18v0.26175000000000637h-18Z" style="fill: #4c78a8;"></path><path d="M1,298.381125h18v1.6188750000000027h-18Z" style="fill: #4c78a8;"></path><path d="M921,299.332875h18v0.6671249999999986h-18Z" style="fill: #4c78a8;"></path><path d="M301,299.2531875h18v0.7468124999999759h-18Z" style="fill: #4c78a8;"></path><path d="M501,299.3465625h18v0.6534374999999955h-18Z" style="fill: #4c78a8;"></path><path d="M321,297.813h18v2.187000000000012h-18Z" style="fill: #4c78a8;"></path><path d="M1541,299.08875h18v0.9112499999999955h-18Z" style="fill: #4c78a8;"></path><path d="M821,298.758h18v1.2420000000000186h-18Z" style="fill: #4c78a8;"></path><path d="M881,299.57025h18v0.42975000000001273h-18Z" style="fill: #4c78a8;"></path><path d="M1301,299.2175625h18v0.7824375000000146h-18Z" style="fill: #4c78a8;"></path><path d="M401,299.87925h18v0.12074999999998681h-18Z" style="fill: #4c78a8;"></path><path d="M1261,299.392875h18v0.6071249999999964h-18Z" style="fill: #4c78a8;"></path><path d="M1381,293.66475h18v6.335249999999974h-18Z" style="fill: #4c78a8;"></path><path d="M681,297.7455h18v2.2545000000000073h-18Z" style="fill: #4c78a8;"></path><path d="M141,299.2344375h18v0.7655624999999873h-18Z" style="fill: #4c78a8;"></path><path d="M1001,299.7039375h18v0.296062500000005h-18Z" style="fill: #4c78a8;"></path><path d="M1361,299.8618125h18v0.138187500000015h-18Z" style="fill: #4c78a8;"></path><path d="M1221,299.256375h18v0.7436250000000086h-18Z" style="fill: #4c78a8;"></path><path d="M1561,295.96725h18v4.032750000000021h-18Z" style="fill: #4c78a8;"></path><path d="M461,296.90475h18v3.0952500000000214h-18Z" style="fill: #4c78a8;"></path><path d="M61,299.797875h18v0.20212500000002365h-18Z" style="fill: #4c78a8;"></path><path d="M521,299.4315h18v0.5684999999999718h-18Z" style="fill: #4c78a8;"></path><path d="M1521,299.850375h18v0.14962500000001455h-18Z" style="fill: #4c78a8;"></path><path d="M621,299.5869375h18v0.41306250000002365h-18Z" style="fill: #4c78a8;"></path><path d="M1501,299.051625h18v0.9483749999999986h-18Z" style="fill: #4c78a8;"></path><path d="M761,299.8486875h18v0.15131250000001728h-18Z" style="fill: #4c78a8;"></path><path d="M1421,299.886h18v0.1139999999999759h-18Z" style="fill: #4c78a8;"></path><path d="M961,299.690625h18v0.30937499999998863h-18Z" style="fill: #4c78a8;"></path><path d="M1441,298.811625h18v1.1883750000000077h-18Z" style="fill: #4c78a8;"></path></g><g class="mark-group role-axis"><g transform="translate(0.5,300.5)"><path class="background" d="M0,0h0v0h0Z" style="pointer-events: none; fill: none;"></path><g><g class="mark-rule role-axis-tick" style="pointer-events: none;"><line transform="translate(9,0)" x2="0" y2="5" style="fill: none; stroke: #888; stroke-width: 1; opacity: 1;"></line><line transform="translate(29,0)" x2="0" y2="5" style="fill: none; stroke: #888; stroke-width: 1; opacity: 1;"></line><line transform="translate(49,0)" x2="0" y2="5" style="fill: none; stroke: #888; stroke-width: 1; opacity: 1;"></line><line transform="translate(69,0)" x2="0" y2="5" style="fill: none; stroke: #888; stroke-width: 1; opacity: 1;"></line><line transform="translate(89,0)" x2="0" y2="5" style="fill: none; stroke: #888; stroke-width: 1; opacity: 1;"></line><line transform="translate(109,0)" x2="0" y2="5" style="fill: none; stroke: #888; stroke-width: 1; opacity: 1;"></line><line transform="translate(129,0)" x2="0" y2="5" style="fill: none; stroke: #888; stroke-width: 1; opacity: 1;"></line><line transform="translate(149,0)" x2="0" y2="5" style="fill: none; stroke: #888; stroke-width: 1; opacity: 1;"></line><line transform="translate(169,0)" x2="0" y2="5" style="fill: none; stroke: #888; stroke-width: 1; opacity: 1;"></line><line transform="translate(189,0)" x2="0" y2="5" style="fill: none; stroke: #888; stroke-width: 1; opacity: 1;"></line><line transform="translate(209,0)" x2="0" y2="5" style="fill: none; stroke: #888; stroke-width: 1; opacity: 1;"></line><line transform="translate(229,0)" x2="0" y2="5" style="fill: none; stroke: #888; stroke-width: 1; opacity: 1;"></line><line transform="translate(249,0)" x2="0" y2="5" style="fill: none; stroke: #888; stroke-width: 1; opacity: 1;"></line><line transform="translate(269,0)" x2="0" y2="5" style="fill: none; stroke: #888; stroke-width: 1; opacity: 1;"></line><line transform="translate(289,0)" x2="0" y2="5" style="fill: none; stroke: #888; stroke-width: 1; opacity: 1;"></line><line transform="translate(309,0)" x2="0" y2="5" style="fill: none; stroke: #888; stroke-width: 1; opacity: 1;"></line><line transform="translate(329,0)" x2="0" y2="5" style="fill: none; stroke: #888; stroke-width: 1; opacity: 1;"></line><line transform="translate(349,0)" x2="0" y2="5" style="fill: none; stroke: #888; stroke-width: 1; opacity: 1;"></line><line transform="translate(369,0)" x2="0" y2="5" style="fill: none; stroke: #888; stroke-width: 1; opacity: 1;"></line><line transform="translate(389,0)" x2="0" y2="5" style="fill: none; stroke: #888; stroke-width: 1; opacity: 1;"></line><line transform="translate(409,0)" x2="0" y2="5" style="fill: none; stroke: #888; stroke-width: 1; opacity: 1;"></line><line transform="translate(429,0)" x2="0" y2="5" style="fill: none; stroke: #888; stroke-width: 1; opacity: 1;"></line><line transform="translate(449,0)" x2="0" y2="5" style="fill: none; stroke: #888; stroke-width: 1; opacity: 1;"></line><line transform="translate(469,0)" x2="0" y2="5" style="fill: none; stroke: #888; stroke-width: 1; opacity: 1;"></line><line transform="translate(489,0)" x2="0" y2="5" style="fill: none; stroke: #888; stroke-width: 1; opacity: 1;"></line><line transform="translate(509,0)" x2="0" y2="5" style="fill: none; stroke: #888; stroke-width: 1; opacity: 1;"></line><line transform="translate(529,0)" x2="0" y2="5" style="fill: none; stroke: #888; stroke-width: 1; opacity: 1;"></line><line transform="translate(549,0)" x2="0" y2="5" style="fill: none; stroke: #888; stroke-width: 1; opacity: 1;"></line><line transform="translate(569,0)" x2="0" y2="5" style="fill: none; stroke: #888; stroke-width: 1; opacity: 1;"></line><line transform="translate(589,0)" x2="0" y2="5" style="fill: none; stroke: #888; stroke-width: 1; opacity: 1;"></line><line transform="translate(609,0)" x2="0" y2="5" style="fill: none; stroke: #888; stroke-width: 1; opacity: 1;"></line><line transform="translate(629,0)" x2="0" y2="5" style="fill: none; stroke: #888; stroke-width: 1; opacity: 1;"></line><line transform="translate(649,0)" x2="0" y2="5" style="fill: none; stroke: #888; stroke-width: 1; opacity: 1;"></line><line transform="translate(669,0)" x2="0" y2="5" style="fill: none; stroke: #888; stroke-width: 1; opacity: 1;"></line><line transform="translate(689,0)" x2="0" y2="5" style="fill: none; stroke: #888; stroke-width: 1; opacity: 1;"></line><line transform="translate(709,0)" x2="0" y2="5" style="fill: none; stroke: #888; stroke-width: 1; opacity: 1;"></line><line transform="translate(729,0)" x2="0" y2="5" style="fill: none; stroke: #888; stroke-width: 1; opacity: 1;"></line><line transform="translate(749,0)" x2="0" y2="5" style="fill: none; stroke: #888; stroke-width: 1; opacity: 1;"></line><line transform="translate(769,0)" x2="0" y2="5" style="fill: none; stroke: #888; stroke-width: 1; opacity: 1;"></line><line transform="translate(789,0)" x2="0" y2="5" style="fill: none; stroke: #888; stroke-width: 1; opacity: 1;"></line><line transform="translate(809,0)" x2="0" y2="5" style="fill: none; stroke: #888; stroke-width: 1; opacity: 1;"></line><line transform="translate(829,0)" x2="0" y2="5" style="fill: none; stroke: #888; stroke-width: 1; opacity: 1;"></line><line transform="translate(849,0)" x2="0" y2="5" style="fill: none; stroke: #888; stroke-width: 1; opacity: 1;"></line><line transform="translate(869,0)" x2="0" y2="5" style="fill: none; stroke: #888; stroke-width: 1; opacity: 1;"></line><line transform="translate(889,0)" x2="0" y2="5" style="fill: none; stroke: #888; stroke-width: 1; opacity: 1;"></line><line transform="translate(909,0)" x2="0" y2="5" style="fill: none; stroke: #888; stroke-width: 1; opacity: 1;"></line><line transform="translate(929,0)" x2="0" y2="5" style="fill: none; stroke: #888; stroke-width: 1; opacity: 1;"></line><line transform="translate(949,0)" x2="0" y2="5" style="fill: none; stroke: #888; stroke-width: 1; opacity: 1;"></line><line transform="translate(969,0)" x2="0" y2="5" style="fill: none; stroke: #888; stroke-width: 1; opacity: 1;"></line><line transform="translate(989,0)" x2="0" y2="5" style="fill: none; stroke: #888; stroke-width: 1; opacity: 1;"></line><line transform="translate(1009,0)" x2="0" y2="5" style="fill: none; stroke: #888; stroke-width: 1; opacity: 1;"></line><line transform="translate(1029,0)" x2="0" y2="5" style="fill: none; stroke: #888; stroke-width: 1; opacity: 1;"></line><line transform="translate(1049,0)" x2="0" y2="5" style="fill: none; stroke: #888; stroke-width: 1; opacity: 1;"></line><line transform="translate(1069,0)" x2="0" y2="5" style="fill: none; stroke: #888; stroke-width: 1; opacity: 1;"></line><line transform="translate(1089,0)" x2="0" y2="5" style="fill: none; stroke: #888; stroke-width: 1; opacity: 1;"></line><line transform="translate(1109,0)" x2="0" y2="5" style="fill: none; stroke: #888; stroke-width: 1; opacity: 1;"></line><line transform="translate(1129,0)" x2="0" y2="5" style="fill: none; stroke: #888; stroke-width: 1; opacity: 1;"></line><line transform="translate(1149,0)" x2="0" y2="5" style="fill: none; stroke: #888; stroke-width: 1; opacity: 1;"></line><line transform="translate(1169,0)" x2="0" y2="5" style="fill: none; stroke: #888; stroke-width: 1; opacity: 1;"></line><line transform="translate(1189,0)" x2="0" y2="5" style="fill: none; stroke: #888; stroke-width: 1; opacity: 1;"></line><line transform="translate(1209,0)" x2="0" y2="5" style="fill: none; stroke: #888; stroke-width: 1; opacity: 1;"></line><line transform="translate(1229,0)" x2="0" y2="5" style="fill: none; stroke: #888; stroke-width: 1; opacity: 1;"></line><line transform="translate(1249,0)" x2="0" y2="5" style="fill: none; stroke: #888; stroke-width: 1; opacity: 1;"></line><line transform="translate(1269,0)" x2="0" y2="5" style="fill: none; stroke: #888; stroke-width: 1; opacity: 1;"></line><line transform="translate(1289,0)" x2="0" y2="5" style="fill: none; stroke: #888; stroke-width: 1; opacity: 1;"></line><line transform="translate(1309,0)" x2="0" y2="5" style="fill: none; stroke: #888; stroke-width: 1; opacity: 1;"></line><line transform="translate(1329,0)" x2="0" y2="5" style="fill: none; stroke: #888; stroke-width: 1; opacity: 1;"></line><line transform="translate(1349,0)" x2="0" y2="5" style="fill: none; stroke: #888; stroke-width: 1; opacity: 1;"></line><line transform="translate(1369,0)" x2="0" y2="5" style="fill: none; stroke: #888; stroke-width: 1; opacity: 1;"></line><line transform="translate(1389,0)" x2="0" y2="5" style="fill: none; stroke: #888; stroke-width: 1; opacity: 1;"></line><line transform="translate(1409,0)" x2="0" y2="5" style="fill: none; stroke: #888; stroke-width: 1; opacity: 1;"></line><line transform="translate(1429,0)" x2="0" y2="5" style="fill: none; stroke: #888; stroke-width: 1; opacity: 1;"></line><line transform="translate(1449,0)" x2="0" y2="5" style="fill: none; stroke: #888; stroke-width: 1; opacity: 1;"></line><line transform="translate(1469,0)" x2="0" y2="5" style="fill: none; stroke: #888; stroke-width: 1; opacity: 1;"></line><line transform="translate(1489,0)" x2="0" y2="5" style="fill: none; stroke: #888; stroke-width: 1; opacity: 1;"></line><line transform="translate(1509,0)" x2="0" y2="5" style="fill: none; stroke: #888; stroke-width: 1; opacity: 1;"></line><line transform="translate(1529,0)" x2="0" y2="5" style="fill: none; stroke: #888; stroke-width: 1; opacity: 1;"></line><line transform="translate(1549,0)" x2="0" y2="5" style="fill: none; stroke: #888; stroke-width: 1; opacity: 1;"></line><line transform="translate(1569,0)" x2="0" y2="5" style="fill: none; stroke: #888; stroke-width: 1; opacity: 1;"></line><line transform="translate(1589,0)" x2="0" y2="5" style="fill: none; stroke: #888; stroke-width: 1; opacity: 1;"></line></g><g class="mark-text role-axis-label" style="pointer-events: none;"><text text-anchor="end" transform="translate(9,7) rotate(270) translate(0,3)" style="font-family: sans-serif; font-size: 10px; fill: #000; opacity: 1;">abcnews.go.com</text><text text-anchor="end" transform="translate(29,7) rotate(270) translate(0,3)" style="font-family: sans-serif; font-size: 10px; fill: #000; opacity: 1;">af.reuters.com</text><text text-anchor="end" transform="translate(49,7) rotate(270) translate(0,3)" style="font-family: sans-serif; font-size: 10px; fill: #000; opacity: 1;">au.be.yahoo.com</text><text text-anchor="end" transform="translate(69,7) rotate(270) translate(0,3)" style="font-family: sans-serif; font-size: 10px; fill: #000; opacity: 1;">au.finance.yahoo.com</text><text text-anchor="end" transform="translate(89,7) rotate(270) translate(0,3)" style="font-family: sans-serif; font-size: 10px; fill: #000; opacity: 1;">au.news.yahoo.com</text><text text-anchor="end" transform="translate(109,7) rotate(270) translate(0,3)" style="font-family: sans-serif; font-size: 10px; fill: #000; opacity: 1;">bleacherreport.com</text><text text-anchor="end" transform="translate(129,7) rotate(270) translate(0,3)" style="font-family: sans-serif; font-size: 10px; fill: #000; opacity: 1;">ca.news.yahoo.com</text><text text-anchor="end" transform="translate(149,7) rotate(270) translate(0,3)" style="font-family: sans-serif; font-size: 10px; fill: #000; opacity: 1;">ca.reuters.com</text><text text-anchor="end" transform="translate(169,7) rotate(270) translate(0,3)" style="font-family: sans-serif; font-size: 10px; fill: #000; opacity: 1;">christianpost.com</text><text text-anchor="end" transform="translate(189,7) rotate(270) translate(0,3)" style="font-family: sans-serif; font-size: 10px; fill: #000; opacity: 1;">consortiumnews.com</text><text text-anchor="end" transform="translate(209,7) rotate(270) translate(0,3)" style="font-family: sans-serif; font-size: 10px; fill: #000; opacity: 1;">de.finance.yahoo.com</text><text text-anchor="end" transform="translate(229,7) rotate(270) translate(0,3)" style="font-family: sans-serif; font-size: 10px; fill: #000; opacity: 1;">disneyworld.disney.go.com</text><text text-anchor="end" transform="translate(249,7) rotate(270) translate(0,3)" style="font-family: sans-serif; font-size: 10px; fill: #000; opacity: 1;">edition.cnn.com</text><text text-anchor="end" transform="translate(269,7) rotate(270) translate(0,3)" style="font-family: sans-serif; font-size: 10px; fill: #000; opacity: 1;">feeds.reuters.com</text><text text-anchor="end" transform="translate(289,7) rotate(270) translate(0,3)" style="font-family: sans-serif; font-size: 10px; fill: #000; opacity: 1;">finance.yahoo.com</text><text text-anchor="end" transform="translate(309,7) rotate(270) translate(0,3)" style="font-family: sans-serif; font-size: 10px; fill: #000; opacity: 1;">in.reuters.com</text><text text-anchor="end" transform="translate(329,7) rotate(270) translate(0,3)" style="font-family: sans-serif; font-size: 10px; fill: #000; opacity: 1;">indianexpress.com</text><text text-anchor="end" transform="translate(349,7) rotate(270) translate(0,3)" style="font-family: sans-serif; font-size: 10px; fill: #000; opacity: 1;">latino.foxnews.com</text><text text-anchor="end" transform="translate(369,7) rotate(270) translate(0,3)" style="font-family: sans-serif; font-size: 10px; fill: #000; opacity: 1;">m.mlb.com</text><text text-anchor="end" transform="translate(389,7) rotate(270) translate(0,3)" style="font-family: sans-serif; font-size: 10px; fill: #000; opacity: 1;">money.cnn.com</text><text text-anchor="end" transform="translate(409,7) rotate(270) translate(0,3)" style="font-family: sans-serif; font-size: 10px; fill: #000; opacity: 1;">motherboard.vice.com</text><text text-anchor="end" transform="translate(429,7) rotate(270) translate(0,3)" style="font-family: sans-serif; font-size: 10px; fill: #000; opacity: 1;">music.yahoo.com</text><text text-anchor="end" transform="translate(449,7) rotate(270) translate(0,3)" style="font-family: sans-serif; font-size: 10px; fill: #000; opacity: 1;">news.abs-cbn.com</text><text text-anchor="end" transform="translate(469,7) rotate(270) translate(0,3)" style="font-family: sans-serif; font-size: 10px; fill: #000; opacity: 1;">news.yahoo.com</text><text text-anchor="end" transform="translate(489,7) rotate(270) translate(0,3)" style="font-family: sans-serif; font-size: 10px; fill: #000; opacity: 1;">newsinfo.inquirer.net</text><text text-anchor="end" transform="translate(509,7) rotate(270) translate(0,3)" style="font-family: sans-serif; font-size: 10px; fill: #000; opacity: 1;">nutritionfacts.org</text><text text-anchor="end" transform="translate(529,7) rotate(270) translate(0,3)" style="font-family: sans-serif; font-size: 10px; fill: #000; opacity: 1;">nypost.com</text><text text-anchor="end" transform="translate(549,7) rotate(270) translate(0,3)" style="font-family: sans-serif; font-size: 10px; fill: #000; opacity: 1;">nytimes.com</text><text text-anchor="end" transform="translate(569,7) rotate(270) translate(0,3)" style="font-family: sans-serif; font-size: 10px; fill: #000; opacity: 1;">nz.news.yahoo.com</text><text text-anchor="end" transform="translate(589,7) rotate(270) translate(0,3)" style="font-family: sans-serif; font-size: 10px; fill: #000; opacity: 1;">nz.sports.yahoo.com</text><text text-anchor="end" transform="translate(609,7) rotate(270) translate(0,3)" style="font-family: sans-serif; font-size: 10px; fill: #000; opacity: 1;">online.wsj.com</text><text text-anchor="end" transform="translate(629,7) rotate(270) translate(0,3)" style="font-family: sans-serif; font-size: 10px; fill: #000; opacity: 1;">people.com</text><text text-anchor="end" transform="translate(649,7) rotate(270) translate(0,3)" style="font-family: sans-serif; font-size: 10px; fill: #000; opacity: 1;">profit.ndtv.com</text><text text-anchor="end" transform="translate(669,7) rotate(270) translate(0,3)" style="font-family: sans-serif; font-size: 10px; fill: #000; opacity: 1;">sports.yahoo.com</text><text text-anchor="end" transform="translate(689,7) rotate(270) translate(0,3)" style="font-family: sans-serif; font-size: 10px; fill: #000; opacity: 1;">uk.finance.yahoo.com</text><text text-anchor="end" transform="translate(709,7) rotate(270) translate(0,3)" style="font-family: sans-serif; font-size: 10px; fill: #000; opacity: 1;">uk.news.yahoo.com</text><text text-anchor="end" transform="translate(729,7) rotate(270) translate(0,3)" style="font-family: sans-serif; font-size: 10px; fill: #000; opacity: 1;">uk.reuters.com</text><text text-anchor="end" transform="translate(749,7) rotate(270) translate(0,3)" style="font-family: sans-serif; font-size: 10px; fill: #000; opacity: 1;">video.foxnews.com</text><text text-anchor="end" transform="translate(769,7) rotate(270) translate(0,3)" style="font-family: sans-serif; font-size: 10px; fill: #000; opacity: 1;">washpost.bloomberg.com</text><text text-anchor="end" transform="translate(789,7) rotate(270) translate(0,3)" style="font-family: sans-serif; font-size: 10px; fill: #000; opacity: 1;">wiki.mozilla.org</text><text text-anchor="end" transform="translate(809,7) rotate(270) translate(0,3)" style="font-family: sans-serif; font-size: 10px; fill: #000; opacity: 1;">www.bloomberg.com</text><text text-anchor="end" transform="translate(829,7) rotate(270) translate(0,3)" style="font-family: sans-serif; font-size: 10px; fill: #000; opacity: 1;">www.businessinsider.com</text><text text-anchor="end" transform="translate(849,7) rotate(270) translate(0,3)" style="font-family: sans-serif; font-size: 10px; fill: #000; opacity: 1;">www.buzzfeed.com</text><text text-anchor="end" transform="translate(869,7) rotate(270) translate(0,3)" style="font-family: sans-serif; font-size: 10px; fill: #000; opacity: 1;">www.cbsnews.com</text><text text-anchor="end" transform="translate(889,7) rotate(270) translate(0,3)" style="font-family: sans-serif; font-size: 10px; fill: #000; opacity: 1;">www.cbssports.com</text><text text-anchor="end" transform="translate(909,7) rotate(270) translate(0,3)" style="font-family: sans-serif; font-size: 10px; fill: #000; opacity: 1;">www.chron.com</text><text text-anchor="end" transform="translate(929,7) rotate(270) translate(0,3)" style="font-family: sans-serif; font-size: 10px; fill: #000; opacity: 1;">www.cnbc.com</text><text text-anchor="end" transform="translate(949,7) rotate(270) translate(0,3)" style="font-family: sans-serif; font-size: 10px; fill: #000; opacity: 1;">www.cnet.com</text><text text-anchor="end" transform="translate(969,7) rotate(270) translate(0,3)" style="font-family: sans-serif; font-size: 10px; fill: #000; opacity: 1;">www.cnn.com</text><text text-anchor="end" transform="translate(989,7) rotate(270) translate(0,3)" style="font-family: sans-serif; font-size: 10px; fill: #000; opacity: 1;">www.engadget.com</text><text text-anchor="end" transform="translate(1009,7) rotate(270) translate(0,3)" style="font-family: sans-serif; font-size: 10px; fill: #000; opacity: 1;">www.eonline.com</text><text text-anchor="end" transform="translate(1029,7) rotate(270) translate(0,3)" style="font-family: sans-serif; font-size: 10px; fill: #000; opacity: 1;">www.forbes.com</text><text text-anchor="end" transform="translate(1049,7) rotate(270) translate(0,3)" style="font-family: sans-serif; font-size: 10px; fill: #000; opacity: 1;">www.foxnews.com</text><text text-anchor="end" transform="translate(1069,7) rotate(270) translate(0,3)" style="font-family: sans-serif; font-size: 10px; fill: #000; opacity: 1;">www.huffingtonpost.com</text><text text-anchor="end" transform="translate(1089,7) rotate(270) translate(0,3)" style="font-family: sans-serif; font-size: 10px; fill: #000; opacity: 1;">www.investing.com</text><text text-anchor="end" transform="translate(1109,7) rotate(270) translate(0,3)" style="font-family: sans-serif; font-size: 10px; fill: #000; opacity: 1;">www.latimes.com</text><text text-anchor="end" transform="translate(1129,7) rotate(270) translate(0,3)" style="font-family: sans-serif; font-size: 10px; fill: #000; opacity: 1;">www.legacy.com</text><text text-anchor="end" transform="translate(1149,7) rotate(270) translate(0,3)" style="font-family: sans-serif; font-size: 10px; fill: #000; opacity: 1;">www.marketwatch.com</text><text text-anchor="end" transform="translate(1169,7) rotate(270) translate(0,3)" style="font-family: sans-serif; font-size: 10px; fill: #000; opacity: 1;">www.msn.com</text><text text-anchor="end" transform="translate(1189,7) rotate(270) translate(0,3)" style="font-family: sans-serif; font-size: 10px; fill: #000; opacity: 1;">www.nba.com</text><text text-anchor="end" transform="translate(1209,7) rotate(270) translate(0,3)" style="font-family: sans-serif; font-size: 10px; fill: #000; opacity: 1;">www.nbcnews.com</text><text text-anchor="end" transform="translate(1229,7) rotate(270) translate(0,3)" style="font-family: sans-serif; font-size: 10px; fill: #000; opacity: 1;">www.ndtv.com</text><text text-anchor="end" transform="translate(1249,7) rotate(270) translate(0,3)" style="font-family: sans-serif; font-size: 10px; fill: #000; opacity: 1;">www.nfl.com</text><text text-anchor="end" transform="translate(1269,7) rotate(270) translate(0,3)" style="font-family: sans-serif; font-size: 10px; fill: #000; opacity: 1;">www.nhl.com</text><text text-anchor="end" transform="translate(1289,7) rotate(270) translate(0,3)" style="font-family: sans-serif; font-size: 10px; fill: #000; opacity: 1;">www.npr.org</text><text text-anchor="end" transform="translate(1309,7) rotate(270) translate(0,3)" style="font-family: sans-serif; font-size: 10px; fill: #000; opacity: 1;">www.nydailynews.com</text><text text-anchor="end" transform="translate(1329,7) rotate(270) translate(0,3)" style="font-family: sans-serif; font-size: 10px; fill: #000; opacity: 1;">www.nytimes.com</text><text text-anchor="end" transform="translate(1349,7) rotate(270) translate(0,3)" style="font-family: sans-serif; font-size: 10px; fill: #000; opacity: 1;">www.politico.com</text><text text-anchor="end" transform="translate(1369,7) rotate(270) translate(0,3)" style="font-family: sans-serif; font-size: 10px; fill: #000; opacity: 1;">www.realclearpolitics.com</text><text text-anchor="end" transform="translate(1389,7) rotate(270) translate(0,3)" style="font-family: sans-serif; font-size: 10px; fill: #000; opacity: 1;">www.reuters.com</text><text text-anchor="end" transform="translate(1409,7) rotate(270) translate(0,3)" style="font-family: sans-serif; font-size: 10px; fill: #000; opacity: 1;">www.sfgate.com</text><text text-anchor="end" transform="translate(1429,7) rotate(270) translate(0,3)" style="font-family: sans-serif; font-size: 10px; fill: #000; opacity: 1;">www.theatlantic.com</text><text text-anchor="end" transform="translate(1449,7) rotate(270) translate(0,3)" style="font-family: sans-serif; font-size: 10px; fill: #000; opacity: 1;">www.theguardian.com</text><text text-anchor="end" transform="translate(1469,7) rotate(270) translate(0,3)" style="font-family: sans-serif; font-size: 10px; fill: #000; opacity: 1;">www.usatoday.com</text><text text-anchor="end" transform="translate(1489,7) rotate(270) translate(0,3)" style="font-family: sans-serif; font-size: 10px; fill: #000; opacity: 1;">www.vice.com</text><text text-anchor="end" transform="translate(1509,7) rotate(270) translate(0,3)" style="font-family: sans-serif; font-size: 10px; fill: #000; opacity: 1;">www.washingtonpost.com</text><text text-anchor="end" transform="translate(1529,7) rotate(270) translate(0,3)" style="font-family: sans-serif; font-size: 10px; fill: #000; opacity: 1;">www.wikihow.com</text><text text-anchor="end" transform="translate(1549,7) rotate(270) translate(0,3)" style="font-family: sans-serif; font-size: 10px; fill: #000; opacity: 1;">www.wsj.com</text><text text-anchor="end" transform="translate(1569,7) rotate(270) translate(0,3)" style="font-family: sans-serif; font-size: 10px; fill: #000; opacity: 1;">www.yahoo.com</text><text text-anchor="end" transform="translate(1589,7) rotate(270) translate(0,3)" style="font-family: sans-serif; font-size: 10px; fill: #000; opacity: 1;">zeenews.india.com</text></g><g class="mark-rule role-axis-domain" style="pointer-events: none;"><line transform="translate(0,0)" x2="1600" y2="0" style="fill: none; stroke: #888; stroke-width: 1; opacity: 1;"></line></g><g class="mark-text role-axis-title" style="pointer-events: none;"><text text-anchor="middle" transform="translate(800,149)" style="font-family: sans-serif; font-size: 11px; font-weight: bold; fill: #000; opacity: 1;">domains</text></g></g></g></g><g class="mark-group role-axis"><g transform="translate(0.5,0.5)"><path class="background" d="M0,0h0v0h0Z" style="pointer-events: none; fill: none;"></path><g><g class="mark-rule role-axis-tick" style="pointer-events: none;"><line transform="translate(0,300)" x2="-5" y2="0" style="fill: none; stroke: #888; stroke-width: 1; opacity: 1;"></line><line transform="translate(0,263)" x2="-5" y2="0" style="fill: none; stroke: #888; stroke-width: 1; opacity: 1;"></line><line transform="translate(0,225)" x2="-5" y2="0" style="fill: none; stroke: #888; stroke-width: 1; opacity: 1;"></line><line transform="translate(0,188)" x2="-5" y2="0" style="fill: none; stroke: #888; stroke-width: 1; opacity: 1;"></line><line transform="translate(0,150)" x2="-5" y2="0" style="fill: none; stroke: #888; stroke-width: 1; opacity: 1;"></line><line transform="translate(0,113)" x2="-5" y2="0" style="fill: none; stroke: #888; stroke-width: 1; opacity: 1;"></line><line transform="translate(0,75)" x2="-5" y2="0" style="fill: none; stroke: #888; stroke-width: 1; opacity: 1;"></line><line transform="translate(0,38)" x2="-5" y2="0" style="fill: none; stroke: #888; stroke-width: 1; opacity: 1;"></line><line transform="translate(0,0)" x2="-5" y2="0" style="fill: none; stroke: #888; stroke-width: 1; opacity: 1;"></line></g><g class="mark-text role-axis-label" style="pointer-events: none;"><text text-anchor="end" transform="translate(-7,303)" style="font-family: sans-serif; font-size: 10px; fill: #000; opacity: 1;">0</text><text text-anchor="end" transform="translate(-7,265.5)" style="font-family: sans-serif; font-size: 10px; fill: #000; opacity: 1;">200,000</text><text text-anchor="end" transform="translate(-7,228)" style="font-family: sans-serif; font-size: 10px; fill: #000; opacity: 1;">400,000</text><text text-anchor="end" transform="translate(-7,190.5)" style="font-family: sans-serif; font-size: 10px; fill: #000; opacity: 1;">600,000</text><text text-anchor="end" transform="translate(-7,153)" style="font-family: sans-serif; font-size: 10px; fill: #000; opacity: 1;">800,000</text><text text-anchor="end" transform="translate(-7,115.5)" style="font-family: sans-serif; font-size: 10px; fill: #000; opacity: 1;">1,000,000</text><text text-anchor="end" transform="translate(-7,78)" style="font-family: sans-serif; font-size: 10px; fill: #000; opacity: 1;">1,200,000</text><text text-anchor="end" transform="translate(-7,40.5)" style="font-family: sans-serif; font-size: 10px; fill: #000; opacity: 1;">1,400,000</text><text text-anchor="end" transform="translate(-7,3)" style="font-family: sans-serif; font-size: 10px; fill: #000; opacity: 1;">1,600,000</text></g><g class="mark-rule role-axis-domain" style="pointer-events: none;"><line transform="translate(0,300)" x2="0" y2="-300" style="fill: none; stroke: #888; stroke-width: 1; opacity: 1;"></line></g><g class="mark-text role-axis-title" style="pointer-events: none;"><text text-anchor="middle" transform="translate(-59,150) rotate(-90) translate(0,-2)" style="font-family: sans-serif; font-size: 11px; font-weight: bold; fill: #000; opacity: 1;">Count</text></g></g></g></g></g></g></g></g></svg>