<svg class="marks" width="1704" height="489" viewBox="0 0 1704 489" version="1.1" xmlns="http://www.w3.org/2000/svg" xmlns:xlink="http://www.w3.org/1999/xlink"><g transform="translate(61,11)"><g class="mark-group role-frame root"><g transform="translate(0,0)"><path class="background" d="M0.5,0.5h1638v300h-1638Z" style="fill: none; stroke: #ddd;"></path><g><g class="mark-group role-axis"><g transform="translate(0.5,0.5)"><path class="background" d="M0,0h0v0h0Z" style="pointer-events: none; fill: none;"></path><g><g class="mark-rule role-axis-grid" style="pointer-events: none;"><line transform="translate(0,300)" x2="1638" y2="0" style="fill: none; stroke: #ddd; stroke-width: 1; opacity: 1;"></line><line transform="translate(0,257)" x2="1638" y2="0" style="fill: none; stroke: #ddd; stroke-width: 1; opacity: 1;"></line><line transform="translate(0,214)" x2="1638" y2="0" style="fill: none; stroke: #ddd; stroke-width: 1; opacity: 1;"></line><line transform="translate(0,171)" x2="1638" y2="0" style="fill: none; stroke: #ddd; stroke-width: 1; opacity: 1;"></line><line transform="translate(0,129)" x2="1638" y2="0" style="fill: none; stroke: #ddd; stroke-width: 1; opacity: 1;"></line><line transform="translate(0,86)" x2="1638" y2="0" style="fill: none; stroke: #ddd; stroke-width: 1; opacity: 1;"></line><line transform="translate(0,43)" x2="1638" y2="0" style="fill: none; stroke: #ddd; stroke-width: 1; opacity: 1;"></line><line transform="translate(0,0)" x2="1638" y2="0" style="fill: none; stroke: #ddd; stroke-width: 1; opacity: 1;"></line></g></g></g></g><g class="mark-rect role-mark marks"><path d="M862.05,299.7685714285714h18.900000000000002v0.2314285714285802h-18.900000000000002Z" style="fill: #4c78a8;"></path><path d="M253.04999999999995,299.62285714285713h18.900000000000002v0.37714285714287143h-18.900000000000002Z" style="fill: #4c78a8;"></path><path d="M778.05,299.83714285714285h18.900000000000002v0.16285714285714903h-18.900000000000002Z" style="fill: #4c78a8;"></path><path d="M1618.05,299.5885714285714h18.900000000000002v0.411428571428587h-18.900000000000002Z" style="fill: #4c78a8;"></path><path d="M1114.05,299.4428571428571h18.900000000000002v0.5571428571428783h-18.900000000000002Z" style="fill: #4c78a8;"></path><path d="M1198.05,299.98285714285714h18.900000000000002v0.017142857142857792h-18.900000000000002Z" style="fill: #4c78a8;"></path><path d="M1093.05,297.97714285714284h18.900000000000002v2.0228571428571627h-18.900000000000002Z" style="fill: #4c78a8;"></path><path d="M1513.05,298.9457142857143h18.900000000000002v1.0542857142856974h-18.900000000000002Z" style="fill: #4c78a8;"></path><path d="M1303.05,293.9142857142857h18.900000000000002v6.085714285714289h-18.900000000000002Z" style="fill: #4c78a8;"></path><path d="M1324.05,276.6942857142857h18.900000000000002v23.305714285714316h-18.900000000000002Z" style="fill: #4c78a8;"></path><path d="M1156.05,299.5028571428571h18.900000000000002v0.497142857142876h-18.900000000000002Z" style="fill: #4c78a8;"></path><path d="M547.05,299.69142857142856h18.900000000000002v0.30857142857144026h-18.900000000000002Z" style="fill: #4c78a8;"></path><path d="M1030.05,299.52h18.900000000000002v0.4800000000000182h-18.900000000000002Z" style="fill: #4c78a8;"></path><path d="M820.05,298.02h18.900000000000002v1.9800000000000182h-18.900000000000002Z" style="fill: #4c78a8;"></path><path d="M1177.05,299.76h18.900000000000002v0.2400000000000091h-18.900000000000002Z" style="fill: #4c78a8;"></path><path d="M841.05,299.7857142857143h18.900000000000002v0.2142857142857224h-18.900000000000002Z" style="fill: #4c78a8;"></path><path d="M610.05,299.71714285714285h18.900000000000002v0.2828571428571536h-18.900000000000002Z" style="fill: #4c78a8;"></path><path d="M631.05,299.52h18.900000000000002v0.4800000000000182h-18.900000000000002Z" style="fill: #4c78a8;"></path><path d="M1387.05,212.45142857142855h18.900000000000002v87.54857142857145h-18.900000000000002Z" style="fill: #4c78a8;"></path><path d="M1576.05,295.62857142857143h18.900000000000002v4.371428571428567h-18.900000000000002Z" style="fill: #4c78a8;"></path><path d="M1282.05,204.84857142857143h18.900000000000002v95.15142857142857h-18.900000000000002Z" style="fill: #4c78a8;"></path><path d="M22.049999999999955,299.60571428571427h18.900000000000002v0.3942857142857292h-18.900000000000002Z" style="fill: #4c78a8;"></path><path d="M1.0499999999999545,299.7257142857143h18.900000000000002v0.2742857142857247h-18.900000000000002Z" style="fill: #4c78a8;"></path><path d="M1597.05,297.24857142857144h18.900000000000002v2.751428571428562h-18.900000000000002Z" style="fill: #4c78a8;"></path><path d="M169.04999999999995,299.2371428571429h18.900000000000002v0.7628571428571149h-18.900000000000002Z" style="fill: #4c78a8;"></path><path d="M43.049999999999955,289.0542857142857h18.900000000000002v10.945714285714303h-18.900000000000002Z" style="fill: #4c78a8;"></path><path d="M715.05,290.62285714285713h18.900000000000002v9.377142857142871h-18.900000000000002Z" style="fill: #4c78a8;"></path><path d="M946.05,299.8542857142857h18.900000000000002v0.14571428571429124h-18.900000000000002Z" style="fill: #4c78a8;"></path><path d="M190.04999999999995,298.5h18.900000000000002v1.5h-18.900000000000002Z" style="fill: #4c78a8;"></path><path d="M1450.05,296.60571428571427h18.900000000000002v3.3942857142857292h-18.900000000000002Z" style="fill: #4c78a8;"></path><path d="M148.04999999999995,298.56h18.900000000000002v1.4399999999999977h-18.900000000000002Z" style="fill: #4c78a8;"></path><path d="M463.04999999999995,299.7685714285714h18.900000000000002v0.2314285714285802h-18.900000000000002Z" style="fill: #4c78a8;"></path><path d="M568.05,299.57142857142856h18.900000000000002v0.4285714285714448h-18.900000000000002Z" style="fill: #4c78a8;"></path><path d="M85.04999999999995,299.3828571428571h18.900000000000002v0.6171428571428805h-18.900000000000002Z" style="fill: #4c78a8;"></path><path d="M505.04999999999995,299.46h18.900000000000002v0.5400000000000205h-18.900000000000002Z" style="fill: #4c78a8;"></path><path d="M1555.05,32.51142857142855h18.900000000000002v267.48857142857145h-18.900000000000002Z" style="fill: #4c78a8;"></path><path d="M106.04999999999995,299.1h18.900000000000002v0.8999999999999773h-18.900000000000002Z" style="fill: #4c78a8;"></path><path d="M274.04999999999995,296.16857142857145h18.900000000000002v3.831428571428546h-18.900000000000002Z" style="fill: #4c78a8;"></path><path d="M232.04999999999995,294.2742857142857h18.900000000000002v5.725714285714275h-18.900000000000002Z" style="fill: #4c78a8;"></path><path d="M1009.05,299.83714285714285h18.900000000000002v0.16285714285714903h-18.900000000000002Z" style="fill: #4c78a8;"></path><path d="M211.04999999999995,296.5885714285714h18.900000000000002v3.411428571428587h-18.900000000000002Z" style="fill: #4c78a8;"></path><path d="M421.04999999999995,299.07428571428574h18.900000000000002v0.925714285714264h-18.900000000000002Z" style="fill: #4c78a8;"></path><path d="M988.05,298.43142857142857h18.900000000000002v1.5685714285714312h-18.900000000000002Z" style="fill: #4c78a8;"></path><path d="M1219.05,299.2371428571429h18.900000000000002v0.7628571428571149h-18.900000000000002Z" style="fill: #4c78a8;"></path><path d="M484.04999999999995,252.3857142857143h18.900000000000002v47.6142857142857h-18.900000000000002Z" style="fill: #4c78a8;"></path><path d="M589.05,297.31714285714287h18.900000000000002v2.682857142857131h-18.900000000000002Z" style="fill: #4c78a8;"></path><path d="M358.04999999999995,299.87142857142857h18.900000000000002v0.12857142857143344h-18.900000000000002Z" style="fill: #4c78a8;"></path><path d="M295.04999999999995,298.7657142857143h18.900000000000002v1.2342857142857042h-18.900000000000002Z" style="fill: #4c78a8;"></path><path d="M1240.05,298.9371428571429h18.900000000000002v1.0628571428571263h-18.900000000000002Z" style="fill: #4c78a8;"></path><path d="M316.04999999999995,298.0628571428571h18.900000000000002v1.9371428571428737h-18.900000000000002Z" style="fill: #4c78a8;"></path><path d="M925.05,299.98285714285714h18.900000000000002v0.017142857142857792h-18.900000000000002Z" style="fill: #4c78a8;"></path><path d="M1072.05,292.37142857142857h18.900000000000002v7.628571428571433h-18.900000000000002Z" style="fill: #4c78a8;"></path><path d="M526.05,299.82h18.900000000000002v0.18000000000000682h-18.900000000000002Z" style="fill: #4c78a8;"></path><path d="M1051.05,299.1171428571429h18.900000000000002v0.8828571428571195h-18.900000000000002Z" style="fill: #4c78a8;"></path><path d="M337.04999999999995,299.77714285714285h18.900000000000002v0.2228571428571513h-18.900000000000002Z" style="fill: #4c78a8;"></path><path d="M379.04999999999995,299.34h18.900000000000002v0.660000000000025h-18.900000000000002Z" style="fill: #4c78a8;"></path><path d="M1408.05,299.08285714285716h18.900000000000002v0.917142857142835h-18.900000000000002Z" style="fill: #4c78a8;"></path><path d="M883.05,299.1771428571429h18.900000000000002v0.8228571428571172h-18.900000000000002Z" style="fill: #4c78a8;"></path><path d="M1534.05,299.0057142857143h18.900000000000002v0.9942857142856951h-18.900000000000002Z" style="fill: #4c78a8;"></path><path d="M127.04999999999995,299.3142857142857h18.900000000000002v0.6857142857143117h-18.900000000000002Z" style="fill: #4c78a8;"></path><path d="M442.04999999999995,297.45428571428573h18.900000000000002v2.5457142857142685h-18.900000000000002Z" style="fill: #4c78a8;"></path><path d="M1492.05,299.9657142857143h18.900000000000002v0.034285714285715585h-18.900000000000002Z" style="fill: #4c78a8;"></path><path d="M694.05,292.0285714285714h18.900000000000002v7.971428571428589h-18.900000000000002Z" style="fill: #4c78a8;"></path><path d="M400.04999999999995,292.74857142857144h18.900000000000002v7.251428571428562h-18.900000000000002Z" style="fill: #4c78a8;"></path><path d="M904.05,288.97714285714284h18.900000000000002v11.022857142857163h-18.900000000000002Z" style="fill: #4c78a8;"></path><path d="M1366.05,285.04285714285714h18.900000000000002v14.957142857142856h-18.900000000000002Z" style="fill: #4c78a8;"></path><path d="M673.05,295.92857142857144h18.900000000000002v4.071428571428555h-18.900000000000002Z" style="fill: #4c78a8;"></path><path d="M1345.05,295.6542857142857h18.900000000000002v4.34571428571428h-18.900000000000002Z" style="fill: #4c78a8;"></path><path d="M1429.05,299.87142857142857h18.900000000000002v0.12857142857143344h-18.900000000000002Z" style="fill: #4c78a8;"></path><path d="M757.05,298.78285714285715h18.900000000000002v1.2171428571428464h-18.900000000000002Z" style="fill: #4c78a8;"></path><path d="M736.05,297.77142857142854h18.900000000000002v2.228571428571456h-18.900000000000002Z" style="fill: #4c78a8;"></path><path d="M1471.05,255.72857142857143h18.900000000000002v44.27142857142857h-18.900000000000002Z" style="fill: #4c78a8;"></path><path d="M652.05,290.22857142857146h18.900000000000002v9.771428571428544h-18.900000000000002Z" style="fill: #4c78a8;"></path><path d="M799.05,293.16857142857145h18.900000000000002v6.831428571428546h-18.900000000000002Z" style="fill: #4c78a8;"></path><path d="M1261.05,298.0285714285714h18.900000000000002v1.9714285714285893h-18.900000000000002Z" style="fill: #4c78a8;"></path><path d="M1135.05,299.7342857142857h18.900000000000002v0.2657142857142958h-18.900000000000002Z" style="fill: #4c78a8;"></path><path d="M967.05,296.9485714285714h18.900000000000002v3.0514285714285734h-18.900000000000002Z" style="fill: #4c78a8;"></path><path d="M64.04999999999995,299.9142857142857h18.900000000000002v0.08571428571428896h-18.900000000000002Z" style="fill: #4c78a8;"></path></g><g class="mark-group role-axis"><g transform="translate(0.5,300.5)"><path class="background" d="M0,0h0v0h0Z" style="pointer-events: none; fill: none;"></path><g><g class="mark-rule role-axis-tick" style="pointer-events: none;"><line transform="translate(9,0)" x2="0" y2="5" style="fill: none; stroke: #888; stroke-width: 1; opacity: 1;"></line><line transform="translate(30,0)" x2="0" y2="5" style="fill: none; stroke: #888; stroke-width: 1; opacity: 1;"></line><line transform="translate(51,0)" x2="0" y2="5" style="fill: none; stroke: #888; stroke-width: 1; opacity: 1;"></line><line transform="translate(72,0)" x2="0" y2="5" style="fill: none; stroke: #888; stroke-width: 1; opacity: 1;"></line><line transform="translate(93,0)" x2="0" y2="5" style="fill: none; stroke: #888; stroke-width: 1; opacity: 1;"></line><line transform="translate(114,0)" x2="0" y2="5" style="fill: none; stroke: #888; stroke-width: 1; opacity: 1;"></line><line transform="translate(135,0)" x2="0" y2="5" style="fill: none; stroke: #888; stroke-width: 1; opacity: 1;"></line><line transform="translate(156,0)" x2="0" y2="5" style="fill: none; stroke: #888; stroke-width: 1; opacity: 1;"></line><line transform="translate(177,0)" x2="0" y2="5" style="fill: none; stroke: #888; stroke-width: 1; opacity: 1;"></line><line transform="translate(198,0)" x2="0" y2="5" style="fill: none; stroke: #888; stroke-width: 1; opacity: 1;"></line><line transform="translate(219,0)" x2="0" y2="5" style="fill: none; stroke: #888; stroke-width: 1; opacity: 1;"></line><line transform="translate(240,0)" x2="0" y2="5" style="fill: none; stroke: #888; stroke-width: 1; opacity: 1;"></line><line transform="translate(261,0)" x2="0" y2="5" style="fill: none; stroke: #888; stroke-width: 1; opacity: 1;"></line><line transform="translate(282,0)" x2="0" y2="5" style="fill: none; stroke: #888; stroke-width: 1; opacity: 1;"></line><line transform="translate(303,0)" x2="0" y2="5" style="fill: none; stroke: #888; stroke-width: 1; opacity: 1;"></line><line transform="translate(324,0)" x2="0" y2="5" style="fill: none; stroke: #888; stroke-width: 1; opacity: 1;"></line><line transform="translate(345,0)" x2="0" y2="5" style="fill: none; stroke: #888; stroke-width: 1; opacity: 1;"></line><line transform="translate(366,0)" x2="0" y2="5" style="fill: none; stroke: #888; stroke-width: 1; opacity: 1;"></line><line transform="translate(387,0)" x2="0" y2="5" style="fill: none; stroke: #888; stroke-width: 1; opacity: 1;"></line><line transform="translate(408,0)" x2="0" y2="5" style="fill: none; stroke: #888; stroke-width: 1; opacity: 1;"></line><line transform="translate(429,0)" x2="0" y2="5" style="fill: none; stroke: #888; stroke-width: 1; opacity: 1;"></line><line transform="translate(450,0)" x2="0" y2="5" style="fill: none; stroke: #888; stroke-width: 1; opacity: 1;"></line><line transform="translate(471,0)" x2="0" y2="5" style="fill: none; stroke: #888; stroke-width: 1; opacity: 1;"></line><line transform="translate(492,0)" x2="0" y2="5" style="fill: none; stroke: #888; stroke-width: 1; opacity: 1;"></line><line transform="translate(514,0)" x2="0" y2="5" style="fill: none; stroke: #888; stroke-width: 1; opacity: 1;"></line><line transform="translate(535,0)" x2="0" y2="5" style="fill: none; stroke: #888; stroke-width: 1; opacity: 1;"></line><line transform="translate(556,0)" x2="0" y2="5" style="fill: none; stroke: #888; stroke-width: 1; opacity: 1;"></line><line transform="translate(577,0)" x2="0" y2="5" style="fill: none; stroke: #888; stroke-width: 1; opacity: 1;"></line><line transform="translate(598,0)" x2="0" y2="5" style="fill: none; stroke: #888; stroke-width: 1; opacity: 1;"></line><line transform="translate(619,0)" x2="0" y2="5" style="fill: none; stroke: #888; stroke-width: 1; opacity: 1;"></line><line transform="translate(640,0)" x2="0" y2="5" style="fill: none; stroke: #888; stroke-width: 1; opacity: 1;"></line><line transform="translate(661,0)" x2="0" y2="5" style="fill: none; stroke: #888; stroke-width: 1; opacity: 1;"></line><line transform="translate(682,0)" x2="0" y2="5" style="fill: none; stroke: #888; stroke-width: 1; opacity: 1;"></line><line transform="translate(703,0)" x2="0" y2="5" style="fill: none; stroke: #888; stroke-width: 1; opacity: 1;"></line><line transform="translate(724,0)" x2="0" y2="5" style="fill: none; stroke: #888; stroke-width: 1; opacity: 1;"></line><line transform="translate(745,0)" x2="0" y2="5" style="fill: none; stroke: #888; stroke-width: 1; opacity: 1;"></line><line transform="translate(766,0)" x2="0" y2="5" style="fill: none; stroke: #888; stroke-width: 1; opacity: 1;"></line><line transform="translate(787,0)" x2="0" y2="5" style="fill: none; stroke: #888; stroke-width: 1; opacity: 1;"></line><line transform="translate(808,0)" x2="0" y2="5" style="fill: none; stroke: #888; stroke-width: 1; opacity: 1;"></line><line transform="translate(829,0)" x2="0" y2="5" style="fill: none; stroke: #888; stroke-width: 1; opacity: 1;"></line><line transform="translate(850,0)" x2="0" y2="5" style="fill: none; stroke: #888; stroke-width: 1; opacity: 1;"></line><line transform="translate(871,0)" x2="0" y2="5" style="fill: none; stroke: #888; stroke-width: 1; opacity: 1;"></line><line transform="translate(892,0)" x2="0" y2="5" style="fill: none; stroke: #888; stroke-width: 1; opacity: 1;"></line><line transform="translate(913,0)" x2="0" y2="5" style="fill: none; stroke: #888; stroke-width: 1; opacity: 1;"></line><line transform="translate(934,0)" x2="0" y2="5" style="fill: none; stroke: #888; stroke-width: 1; opacity: 1;"></line><line transform="translate(955,0)" x2="0" y2="5" style="fill: none; stroke: #888; stroke-width: 1; opacity: 1;"></line><line transform="translate(976,0)" x2="0" y2="5" style="fill: none; stroke: #888; stroke-width: 1; opacity: 1;"></line><line transform="translate(997,0)" x2="0" y2="5" style="fill: none; stroke: #888; stroke-width: 1; opacity: 1;"></line><line transform="translate(1018,0)" x2="0" y2="5" style="fill: none; stroke: #888; stroke-width: 1; opacity: 1;"></line><line transform="translate(1039,0)" x2="0" y2="5" style="fill: none; stroke: #888; stroke-width: 1; opacity: 1;"></line><line transform="translate(1060,0)" x2="0" y2="5" style="fill: none; stroke: #888; stroke-width: 1; opacity: 1;"></line><line transform="translate(1081,0)" x2="0" y2="5" style="fill: none; stroke: #888; stroke-width: 1; opacity: 1;"></line><line transform="translate(1102,0)" x2="0" y2="5" style="fill: none; stroke: #888; stroke-width: 1; opacity: 1;"></line><line transform="translate(1123,0)" x2="0" y2="5" style="fill: none; stroke: #888; stroke-width: 1; opacity: 1;"></line><line transform="translate(1144,0)" x2="0" y2="5" style="fill: none; stroke: #888; stroke-width: 1; opacity: 1;"></line><line transform="translate(1165,0)" x2="0" y2="5" style="fill: none; stroke: #888; stroke-width: 1; opacity: 1;"></line><line transform="translate(1186,0)" x2="0" y2="5" style="fill: none; stroke: #888; stroke-width: 1; opacity: 1;"></line><line transform="translate(1207,0)" x2="0" y2="5" style="fill: none; stroke: #888; stroke-width: 1; opacity: 1;"></line><line transform="translate(1228,0)" x2="0" y2="5" style="fill: none; stroke: #888; stroke-width: 1; opacity: 1;"></line><line transform="translate(1249,0)" x2="0" y2="5" style="fill: none; stroke: #888; stroke-width: 1; opacity: 1;"></line><line transform="translate(1270,0)" x2="0" y2="5" style="fill: none; stroke: #888; stroke-width: 1; opacity: 1;"></line><line transform="translate(1291,0)" x2="0" y2="5" style="fill: none; stroke: #888; stroke-width: 1; opacity: 1;"></line><line transform="translate(1312,0)" x2="0" y2="5" style="fill: none; stroke: #888; stroke-width: 1; opacity: 1;"></line><line transform="translate(1333,0)" x2="0" y2="5" style="fill: none; stroke: #888; stroke-width: 1; opacity: 1;"></line><line transform="translate(1354,0)" x2="0" y2="5" style="fill: none; stroke: #888; stroke-width: 1; opacity: 1;"></line><line transform="translate(1375,0)" x2="0" y2="5" style="fill: none; stroke: #888; stroke-width: 1; opacity: 1;"></line><line transform="translate(1396,0)" x2="0" y2="5" style="fill: none; stroke: #888; stroke-width: 1; opacity: 1;"></line><line transform="translate(1417,0)" x2="0" y2="5" style="fill: none; stroke: #888; stroke-width: 1; opacity: 1;"></line><line transform="translate(1438,0)" x2="0" y2="5" style="fill: none; stroke: #888; stroke-width: 1; opacity: 1;"></line><line transform="translate(1459,0)" x2="0" y2="5" style="fill: none; stroke: #888; stroke-width: 1; opacity: 1;"></line><line transform="translate(1480,0)" x2="0" y2="5" style="fill: none; stroke: #888; stroke-width: 1; opacity: 1;"></line><line transform="translate(1501,0)" x2="0" y2="5" style="fill: none; stroke: #888; stroke-width: 1; opacity: 1;"></line><line transform="translate(1522,0)" x2="0" y2="5" style="fill: none; stroke: #888; stroke-width: 1; opacity: 1;"></line><line transform="translate(1543,0)" x2="0" y2="5" style="fill: none; stroke: #888; stroke-width: 1; opacity: 1;"></line><line transform="translate(1564,0)" x2="0" y2="5" style="fill: none; stroke: #888; stroke-width: 1; opacity: 1;"></line><line transform="translate(1585,0)" x2="0" y2="5" style="fill: none; stroke: #888; stroke-width: 1; opacity: 1;"></line><line transform="translate(1606,0)" x2="0" y2="5" style="fill: none; stroke: #888; stroke-width: 1; opacity: 1;"></line><line transform="translate(1627,0)" x2="0" y2="5" style="fill: none; stroke: #888; stroke-width: 1; opacity: 1;"></line></g><g class="mark-text role-axis-label" style="pointer-events: none;"><text text-anchor="end" transform="translate(9.499999999999956,7) rotate(270) translate(0,3)" style="font-family: sans-serif; font-size: 10px; fill: #000; opacity: 1;">abriluno.com</text><text text-anchor="end" transform="translate(30.499999999999957,7) rotate(270) translate(0,3)" style="font-family: sans-serif; font-size: 10px; fill: #000; opacity: 1;">aceflashman.wordpress.com</text><text text-anchor="end" transform="translate(51.49999999999996,7) rotate(270) translate(0,3)" style="font-family: sans-serif; font-size: 10px; fill: #000; opacity: 1;">actualidadpanamericana.com</text><text text-anchor="end" transform="translate(72.49999999999996,7) rotate(270) translate(0,3)" style="font-family: sans-serif; font-size: 10px; fill: #000; opacity: 1;">adobochronicles.com</text><text text-anchor="end" transform="translate(93.49999999999996,7) rotate(270) translate(0,3)" style="font-family: sans-serif; font-size: 10px; fill: #000; opacity: 1;">awazetribune.com</text><text text-anchor="end" transform="translate(114.49999999999996,7) rotate(270) translate(0,3)" style="font-family: sans-serif; font-size: 10px; fill: #000; opacity: 1;">beehivebugle.com</text><text text-anchor="end" transform="translate(135.49999999999994,7) rotate(270) translate(0,3)" style="font-family: sans-serif; font-size: 10px; fill: #000; opacity: 1;">betootaadvocate.com</text><text text-anchor="end" transform="translate(156.49999999999994,7) rotate(270) translate(0,3)" style="font-family: sans-serif; font-size: 10px; fill: #000; opacity: 1;">bigamericannews.com</text><text text-anchor="end" transform="translate(177.49999999999994,7) rotate(270) translate(0,3)" style="font-family: sans-serif; font-size: 10px; fill: #000; opacity: 1;">burrardstreetjournal.com</text><text text-anchor="end" transform="translate(198.49999999999994,7) rotate(270) translate(0,3)" style="font-family: sans-serif; font-size: 10px; fill: #000; opacity: 1;">callthecops.net</text><text text-anchor="end" transform="translate(219.49999999999994,7) rotate(270) translate(0,3)" style="font-family: sans-serif; font-size: 10px; fill: #000; opacity: 1;">celebtricity.com</text><text text-anchor="end" transform="translate(240.49999999999994,7) rotate(270) translate(0,3)" style="font-family: sans-serif; font-size: 10px; fill: #000; opacity: 1;">chaser.com.au</text><text text-anchor="end" transform="translate(261.49999999999994,7) rotate(270) translate(0,3)" style="font-family: sans-serif; font-size: 10px; fill: #000; opacity: 1;">christwire.org</text><text text-anchor="end" transform="translate(282.49999999999994,7) rotate(270) translate(0,3)" style="font-family: sans-serif; font-size: 10px; fill: #000; opacity: 1;">chronicle.su</text><text text-anchor="end" transform="translate(303.49999999999994,7) rotate(270) translate(0,3)" style="font-family: sans-serif; font-size: 10px; fill: #000; opacity: 1;">clickhole.com</text><text text-anchor="end" transform="translate(324.49999999999994,7) rotate(270) translate(0,3)" style="font-family: sans-serif; font-size: 10px; fill: #000; opacity: 1;">creambmp.com</text><text text-anchor="end" transform="translate(345.49999999999994,7) rotate(270) translate(0,3)" style="font-family: sans-serif; font-size: 10px; fill: #000; opacity: 1;">dailycurrant.com</text><text text-anchor="end" transform="translate(366.49999999999994,7) rotate(270) translate(0,3)" style="font-family: sans-serif; font-size: 10px; fill: #000; opacity: 1;">dailyleak.org</text><text text-anchor="end" transform="translate(387.49999999999994,7) rotate(270) translate(0,3)" style="font-family: sans-serif; font-size: 10px; fill: #000; opacity: 1;">dailysnark.com</text><text text-anchor="end" transform="translate(408.49999999999994,7) rotate(270) translate(0,3)" style="font-family: sans-serif; font-size: 10px; fill: #000; opacity: 1;">dailysquib.co.uk</text><text text-anchor="end" transform="translate(429.49999999999994,7) rotate(270) translate(0,3)" style="font-family: sans-serif; font-size: 10px; fill: #000; opacity: 1;">dandygoat.com</text><text text-anchor="end" transform="translate(450.49999999999994,7) rotate(270) translate(0,3)" style="font-family: sans-serif; font-size: 10px; fill: #000; opacity: 1;">der-postillon.com</text><text text-anchor="end" transform="translate(471.49999999999994,7) rotate(270) translate(0,3)" style="font-family: sans-serif; font-size: 10px; fill: #000; opacity: 1;">derfmagazine.com</text><text text-anchor="end" transform="translate(492.49999999999994,7) rotate(270) translate(0,3)" style="font-family: sans-serif; font-size: 10px; fill: #000; opacity: 1;">disclose.tv</text><text text-anchor="end" transform="translate(513.5,7) rotate(270) translate(0,3)" style="font-family: sans-serif; font-size: 10px; fill: #000; opacity: 1;">diversitychronicle.wordpress.com</text><text text-anchor="end" transform="translate(534.5,7) rotate(270) translate(0,3)" style="font-family: sans-serif; font-size: 10px; fill: #000; opacity: 1;">duhprogressive.com</text><text text-anchor="end" transform="translate(555.5,7) rotate(270) translate(0,3)" style="font-family: sans-serif; font-size: 10px; fill: #000; opacity: 1;">elkoshary.com</text><text text-anchor="end" transform="translate(576.5,7) rotate(270) translate(0,3)" style="font-family: sans-serif; font-size: 10px; fill: #000; opacity: 1;">elmundotoday.com</text><text text-anchor="end" transform="translate(597.5,7) rotate(270) translate(0,3)" style="font-family: sans-serif; font-size: 10px; fill: #000; opacity: 1;">empiresports.co</text><text text-anchor="end" transform="translate(618.5,7) rotate(270) translate(0,3)" style="font-family: sans-serif; font-size: 10px; fill: #000; opacity: 1;">fognews.ru</text><text text-anchor="end" transform="translate(639.5,7) rotate(270) translate(0,3)" style="font-family: sans-serif; font-size: 10px; fill: #000; opacity: 1;">freewoodpost.com</text><text text-anchor="end" transform="translate(660.5,7) rotate(270) translate(0,3)" style="font-family: sans-serif; font-size: 10px; fill: #000; opacity: 1;">fridaymash.com</text><text text-anchor="end" transform="translate(681.5,7) rotate(270) translate(0,3)" style="font-family: sans-serif; font-size: 10px; fill: #000; opacity: 1;">glossynews.com</text><text text-anchor="end" transform="translate(702.5,7) rotate(270) translate(0,3)" style="font-family: sans-serif; font-size: 10px; fill: #000; opacity: 1;">gomerblog.com</text><text text-anchor="end" transform="translate(723.5,7) rotate(270) translate(0,3)" style="font-family: sans-serif; font-size: 10px; fill: #000; opacity: 1;">humortimes.com</text><text text-anchor="end" transform="translate(744.5,7) rotate(270) translate(0,3)" style="font-family: sans-serif; font-size: 10px; fill: #000; opacity: 1;">huzlers.com</text><text text-anchor="end" transform="translate(765.5,7) rotate(270) translate(0,3)" style="font-family: sans-serif; font-size: 10px; fill: #000; opacity: 1;">islamicanews.com</text><text text-anchor="end" transform="translate(786.5,7) rotate(270) translate(0,3)" style="font-family: sans-serif; font-size: 10px; fill: #000; opacity: 1;">johnnyrobish.com</text><text text-anchor="end" transform="translate(807.5,7) rotate(270) translate(0,3)" style="font-family: sans-serif; font-size: 10px; fill: #000; opacity: 1;">landoverbaptist.org</text><text text-anchor="end" transform="translate(828.5,7) rotate(270) translate(0,3)" style="font-family: sans-serif; font-size: 10px; fill: #000; opacity: 1;">liberalbias.com</text><text text-anchor="end" transform="translate(849.5,7) rotate(270) translate(0,3)" style="font-family: sans-serif; font-size: 10px; fill: #000; opacity: 1;">liberaldarkness.com</text><text text-anchor="end" transform="translate(870.5,7) rotate(270) translate(0,3)" style="font-family: sans-serif; font-size: 10px; fill: #000; opacity: 1;">lushforlife.com</text><text text-anchor="end" transform="translate(891.5,7) rotate(270) translate(0,3)" style="font-family: sans-serif; font-size: 10px; fill: #000; opacity: 1;">nationalreport.net</text><text text-anchor="end" transform="translate(912.5,7) rotate(270) translate(0,3)" style="font-family: sans-serif; font-size: 10px; fill: #000; opacity: 1;">ncscooper.com</text><text text-anchor="end" transform="translate(933.5,7) rotate(270) translate(0,3)" style="font-family: sans-serif; font-size: 10px; fill: #000; opacity: 1;">newsbiscuit.com</text><text text-anchor="end" transform="translate(954.5,7) rotate(270) translate(0,3)" style="font-family: sans-serif; font-size: 10px; fill: #000; opacity: 1;">newsbreakers.org</text><text text-anchor="end" transform="translate(975.5,7) rotate(270) translate(0,3)" style="font-family: sans-serif; font-size: 10px; fill: #000; opacity: 1;">newsmutiny.com</text><text text-anchor="end" transform="translate(996.5,7) rotate(270) translate(0,3)" style="font-family: sans-serif; font-size: 10px; fill: #000; opacity: 1;">newsthump.com</text><text text-anchor="end" transform="translate(1017.5,7) rotate(270) translate(0,3)" style="font-family: sans-serif; font-size: 10px; fill: #000; opacity: 1;">newstoad.net</text><text text-anchor="end" transform="translate(1038.5,7) rotate(270) translate(0,3)" style="font-family: sans-serif; font-size: 10px; fill: #000; opacity: 1;">objectiveministries.org</text><text text-anchor="end" transform="translate(1059.5,7) rotate(270) translate(0,3)" style="font-family: sans-serif; font-size: 10px; fill: #000; opacity: 1;">patriotnewsdaily.com</text><text text-anchor="end" transform="translate(1080.5,7) rotate(270) translate(0,3)" style="font-family: sans-serif; font-size: 10px; fill: #000; opacity: 1;">politicops.com</text><text text-anchor="end" transform="translate(1101.5,7) rotate(270) translate(0,3)" style="font-family: sans-serif; font-size: 10px; fill: #000; opacity: 1;">politicot.com</text><text text-anchor="end" transform="translate(1122.5,7) rotate(270) translate(0,3)" style="font-family: sans-serif; font-size: 10px; fill: #000; opacity: 1;">reductress.com</text><text text-anchor="end" transform="translate(1143.5,7) rotate(270) translate(0,3)" style="font-family: sans-serif; font-size: 10px; fill: #000; opacity: 1;">rockcitytimes.com</text><text text-anchor="end" transform="translate(1164.5,7) rotate(270) translate(0,3)" style="font-family: sans-serif; font-size: 10px; fill: #000; opacity: 1;">scrappleface.com</text><text text-anchor="end" transform="translate(1185.5,7) rotate(270) translate(0,3)" style="font-family: sans-serif; font-size: 10px; fill: #000; opacity: 1;">sensationalisttimes.com</text><text text-anchor="end" transform="translate(1206.5,7) rotate(270) translate(0,3)" style="font-family: sans-serif; font-size: 10px; fill: #000; opacity: 1;">speld.nl</text><text text-anchor="end" transform="translate(1227.5,7) rotate(270) translate(0,3)" style="font-family: sans-serif; font-size: 10px; fill: #000; opacity: 1;">sportspickle.com</text><text text-anchor="end" transform="translate(1248.5,7) rotate(270) translate(0,3)" style="font-family: sans-serif; font-size: 10px; fill: #000; opacity: 1;">stneotscitizen.com</text><text text-anchor="end" transform="translate(1269.5,7) rotate(270) translate(0,3)" style="font-family: sans-serif; font-size: 10px; fill: #000; opacity: 1;">stuppid.com</text><text text-anchor="end" transform="translate(1290.5,7) rotate(270) translate(0,3)" style="font-family: sans-serif; font-size: 10px; fill: #000; opacity: 1;">thedailymash.co.uk</text><text text-anchor="end" transform="translate(1311.5,7) rotate(270) translate(0,3)" style="font-family: sans-serif; font-size: 10px; fill: #000; opacity: 1;">thedailywtf.com</text><text text-anchor="end" transform="translate(1332.5,7) rotate(270) translate(0,3)" style="font-family: sans-serif; font-size: 10px; fill: #000; opacity: 1;">thehardtimes.net</text><text text-anchor="end" transform="translate(1353.5,7) rotate(270) translate(0,3)" style="font-family: sans-serif; font-size: 10px; fill: #000; opacity: 1;">theineptowl.com</text><text text-anchor="end" transform="translate(1374.5,7) rotate(270) translate(0,3)" style="font-family: sans-serif; font-size: 10px; fill: #000; opacity: 1;">themideastbeast.com</text><text text-anchor="end" transform="translate(1395.5,7) rotate(270) translate(0,3)" style="font-family: sans-serif; font-size: 10px; fill: #000; opacity: 1;">theonion.com</text><text text-anchor="end" transform="translate(1416.5,7) rotate(270) translate(0,3)" style="font-family: sans-serif; font-size: 10px; fill: #000; opacity: 1;">thepoke.co.uk</text><text text-anchor="end" transform="translate(1437.5,7) rotate(270) translate(0,3)" style="font-family: sans-serif; font-size: 10px; fill: #000; opacity: 1;">therightists.com</text><text text-anchor="end" transform="translate(1458.5,7) rotate(270) translate(0,3)" style="font-family: sans-serif; font-size: 10px; fill: #000; opacity: 1;">theshovel.com.au</text><text text-anchor="end" transform="translate(1479.5,7) rotate(270) translate(0,3)" style="font-family: sans-serif; font-size: 10px; fill: #000; opacity: 1;">thespoof.com</text><text text-anchor="end" transform="translate(1500.5,7) rotate(270) translate(0,3)" style="font-family: sans-serif; font-size: 10px; fill: #000; opacity: 1;">thestatelyharold.com</text><text text-anchor="end" transform="translate(1521.5,7) rotate(270) translate(0,3)" style="font-family: sans-serif; font-size: 10px; fill: #000; opacity: 1;">thevalleyreport.com</text><text text-anchor="end" transform="translate(1542.5,7) rotate(270) translate(0,3)" style="font-family: sans-serif; font-size: 10px; fill: #000; opacity: 1;">unconfirmedsources.com</text><text text-anchor="end" transform="translate(1563.5,7) rotate(270) translate(0,3)" style="font-family: sans-serif; font-size: 10px; fill: #000; opacity: 1;">us.blastingnews.com</text><text text-anchor="end" transform="translate(1584.5,7) rotate(270) translate(0,3)" style="font-family: sans-serif; font-size: 10px; fill: #000; opacity: 1;">waterfordwhispersnews.com</text><text text-anchor="end" transform="translate(1605.5,7) rotate(270) translate(0,3)" style="font-family: sans-serif; font-size: 10px; fill: #000; opacity: 1;">worldnewsdailyreport.com</text><text text-anchor="end" transform="translate(1626.5,7) rotate(270) translate(0,3)" style="font-family: sans-serif; font-size: 10px; fill: #000; opacity: 1;">wundergroundmusic.com</text></g><g class="mark-rule role-axis-domain" style="pointer-events: none;"><line transform="translate(0,0)" x2="1638" y2="0" style="fill: none; stroke: #888; stroke-width: 1; opacity: 1;"></line></g><g class="mark-text role-axis-title" style="pointer-events: none;"><text text-anchor="middle" transform="translate(819,168.2705078125)" style="font-family: sans-serif; font-size: 11px; font-weight: bold; fill: #000; opacity: 1;">domains</text></g></g></g></g><g class="mark-group role-axis"><g transform="translate(0.5,0.5)"><path class="background" d="M0,0h0v0h0Z" style="pointer-events: none; fill: none;"></path><g><g class="mark-rule role-axis-tick" style="pointer-events: none;"><line transform="translate(0,300)" x2="-5" y2="0" style="fill: none; stroke: #888; stroke-width: 1; opacity: 1;"></line><line transform="translate(0,257)" x2="-5" y2="0" style="fill: none; stroke: #888; stroke-width: 1; opacity: 1;"></line><line transform="translate(0,214)" x2="-5" y2="0" style="fill: none; stroke: #888; stroke-width: 1; opacity: 1;"></line><line transform="translate(0,171)" x2="-5" y2="0" style="fill: none; stroke: #888; stroke-width: 1; opacity: 1;"></line><line transform="translate(0,129)" x2="-5" y2="0" style="fill: none; stroke: #888; stroke-width: 1; opacity: 1;"></line><line transform="translate(0,86)" x2="-5" y2="0" style="fill: none; stroke: #888; stroke-width: 1; opacity: 1;"></line><line transform="translate(0,43)" x2="-5" y2="0" style="fill: none; stroke: #888; stroke-width: 1; opacity: 1;"></line><line transform="translate(0,0)" x2="-5" y2="0" style="fill: none; stroke: #888; stroke-width: 1; opacity: 1;"></line></g><g class="mark-text role-axis-label" style="pointer-events: none;"><text text-anchor="end" transform="translate(-7,303)" style="font-family: sans-serif; font-size: 10px; fill: #000; opacity: 1;">0</text><text text-anchor="end" transform="translate(-7,260.14285714285717)" style="font-family: sans-serif; font-size: 10px; fill: #000; opacity: 1;">5,000</text><text text-anchor="end" transform="translate(-7,217.28571428571428)" style="font-family: sans-serif; font-size: 10px; fill: #000; opacity: 1;">10,000</text><text text-anchor="end" transform="translate(-7,174.42857142857144)" style="font-family: sans-serif; font-size: 10px; fill: #000; opacity: 1;">15,000</text><text text-anchor="end" transform="translate(-7,131.57142857142858)" style="font-family: sans-serif; font-size: 10px; fill: #000; opacity: 1;">20,000</text><text text-anchor="end" transform="translate(-7,88.71428571428572)" style="font-family: sans-serif; font-size: 10px; fill: #000; opacity: 1;">25,000</text><text text-anchor="end" transform="translate(-7,45.85714285714289)" style="font-family: sans-serif; font-size: 10px; fill: #000; opacity: 1;">30,000</text><text text-anchor="end" transform="translate(-7,3)" style="font-family: sans-serif; font-size: 10px; fill: #000; opacity: 1;">35,000</text></g><g class="mark-rule role-axis-domain" style="pointer-events: none;"><line transform="translate(0,300)" x2="0" y2="-300" style="fill: none; stroke: #888; stroke-width: 1; opacity: 1;"></line></g><g class="mark-text role-axis-title" style="pointer-events: none;"><text text-anchor="middle" transform="translate(-42.5859375,150) rotate(-90) translate(0,-2)" style="font-family: sans-serif; font-size: 11px; font-weight: bold; fill: #000; opacity: 1;">Count</text></g></g></g></g></g></g></g></g></svg>