<svg class="marks" width="1625" height="497" viewBox="0 0 1625 497" version="1.1" xmlns="http://www.w3.org/2000/svg" xmlns:xlink="http://www.w3.org/1999/xlink"><g transform="translate(60,10)"><g class="mark-group role-frame root"><g transform="translate(0,0)"><path class="background" d="M0.5,0.5h1560v300h-1560Z" style="fill: none; stroke: #ddd;"></path><g><g class="mark-group role-axis"><g transform="translate(0.5,0.5)"><path class="background" d="M0,0h0v0h0Z" style="pointer-events: none; fill: none;"></path><g><g class="mark-rule role-axis-grid" style="pointer-events: none;"><line transform="translate(0,300)" x2="1560" y2="0" style="fill: none; stroke: #ddd; stroke-width: 1; opacity: 1;"></line><line transform="translate(0,257)" x2="1560" y2="0" style="fill: none; stroke: #ddd; stroke-width: 1; opacity: 1;"></line><line transform="translate(0,214)" x2="1560" y2="0" style="fill: none; stroke: #ddd; stroke-width: 1; opacity: 1;"></line><line transform="translate(0,171)" x2="1560" y2="0" style="fill: none; stroke: #ddd; stroke-width: 1; opacity: 1;"></line><line transform="translate(0,129)" x2="1560" y2="0" style="fill: none; stroke: #ddd; stroke-width: 1; opacity: 1;"></line><line transform="translate(0,86)" x2="1560" y2="0" style="fill: none; stroke: #ddd; stroke-width: 1; opacity: 1;"></line><line transform="translate(0,43)" x2="1560" y2="0" style="fill: none; stroke: #ddd; stroke-width: 1; opacity: 1;"></line><line transform="translate(0,0)" x2="1560" y2="0" style="fill: none; stroke: #ddd; stroke-width: 1; opacity: 1;"></line></g></g></g></g><g class="mark-rect role-mark marks"><path d="M821,299.7685714285714h18v0.2314285714285802h-18Z" style="fill: #4c78a8;"></path><path d="M241,299.62285714285713h18v0.37714285714287143h-18Z" style="fill: #4c78a8;"></path><path d="M741,299.83714285714285h18v0.16285714285714903h-18Z" style="fill: #4c78a8;"></path><path d="M1541,299.5885714285714h18v0.411428571428587h-18Z" style="fill: #4c78a8;"></path><path d="M1061,299.4428571428571h18v0.5571428571428783h-18Z" style="fill: #4c78a8;"></path><path d="M1141,299.98285714285714h18v0.017142857142857792h-18Z" style="fill: #4c78a8;"></path><path d="M1041,297.97714285714284h18v2.0228571428571627h-18Z" style="fill: #4c78a8;"></path><path d="M1441,298.9457142857143h18v1.0542857142856974h-18Z" style="fill: #4c78a8;"></path><path d="M1241,293.9142857142857h18v6.085714285714289h-18Z" style="fill: #4c78a8;"></path><path d="M1261,276.6942857142857h18v23.305714285714316h-18Z" style="fill: #4c78a8;"></path><path d="M1101,299.5028571428571h18v0.497142857142876h-18Z" style="fill: #4c78a8;"></path><path d="M521,299.69142857142856h18v0.30857142857144026h-18Z" style="fill: #4c78a8;"></path><path d="M981,299.52h18v0.4800000000000182h-18Z" style="fill: #4c78a8;"></path><path d="M781,298.02h18v1.9800000000000182h-18Z" style="fill: #4c78a8;"></path><path d="M1121,299.76h18v0.2400000000000091h-18Z" style="fill: #4c78a8;"></path><path d="M801,299.7857142857143h18v0.2142857142857224h-18Z" style="fill: #4c78a8;"></path><path d="M581,299.71714285714285h18v0.2828571428571536h-18Z" style="fill: #4c78a8;"></path><path d="M601,299.52h18v0.4800000000000182h-18Z" style="fill: #4c78a8;"></path><path d="M1321,212.45142857142855h18v87.54857142857145h-18Z" style="fill: #4c78a8;"></path><path d="M1501,295.62857142857143h18v4.371428571428567h-18Z" style="fill: #4c78a8;"></path><path d="M1221,204.84857142857143h18v95.15142857142857h-18Z" style="fill: #4c78a8;"></path><path d="M21,299.60571428571427h18v0.3942857142857292h-18Z" style="fill: #4c78a8;"></path><path d="M1,299.7257142857143h18v0.2742857142857247h-18Z" style="fill: #4c78a8;"></path><path d="M1521,297.24857142857144h18v2.751428571428562h-18Z" style="fill: #4c78a8;"></path><path d="M161,299.2371428571429h18v0.7628571428571149h-18Z" style="fill: #4c78a8;"></path><path d="M41,289.0542857142857h18v10.945714285714303h-18Z" style="fill: #4c78a8;"></path><path d="M681,290.62285714285713h18v9.377142857142871h-18Z" style="fill: #4c78a8;"></path><path d="M901,299.8542857142857h18v0.14571428571429124h-18Z" style="fill: #4c78a8;"></path><path d="M181,298.5h18v1.5h-18Z" style="fill: #4c78a8;"></path><path d="M1381,296.60571428571427h18v3.3942857142857292h-18Z" style="fill: #4c78a8;"></path><path d="M141,298.56h18v1.4399999999999977h-18Z" style="fill: #4c78a8;"></path><path d="M441,299.7685714285714h18v0.2314285714285802h-18Z" style="fill: #4c78a8;"></path><path d="M541,299.57142857142856h18v0.4285714285714448h-18Z" style="fill: #4c78a8;"></path><path d="M81,299.3828571428571h18v0.6171428571428805h-18Z" style="fill: #4c78a8;"></path><path d="M481,299.46h18v0.5400000000000205h-18Z" style="fill: #4c78a8;"></path><path d="M1481,32.51142857142855h18v267.48857142857145h-18Z" style="fill: #4c78a8;"></path><path d="M101,299.1h18v0.8999999999999773h-18Z" style="fill: #4c78a8;"></path><path d="M261,296.16857142857145h18v3.831428571428546h-18Z" style="fill: #4c78a8;"></path><path d="M221,294.2742857142857h18v5.725714285714275h-18Z" style="fill: #4c78a8;"></path><path d="M961,299.83714285714285h18v0.16285714285714903h-18Z" style="fill: #4c78a8;"></path><path d="M201,296.5885714285714h18v3.411428571428587h-18Z" style="fill: #4c78a8;"></path><path d="M401,299.07428571428574h18v0.925714285714264h-18Z" style="fill: #4c78a8;"></path><path d="M941,298.43142857142857h18v1.5685714285714312h-18Z" style="fill: #4c78a8;"></path><path d="M1161,299.2371428571429h18v0.7628571428571149h-18Z" style="fill: #4c78a8;"></path><path d="M461,252.3857142857143h18v47.6142857142857h-18Z" style="fill: #4c78a8;"></path><path d="M561,297.31714285714287h18v2.682857142857131h-18Z" style="fill: #4c78a8;"></path><path d="M341,299.87142857142857h18v0.12857142857143344h-18Z" style="fill: #4c78a8;"></path><path d="M281,298.7657142857143h18v1.2342857142857042h-18Z" style="fill: #4c78a8;"></path><path d="M1181,298.9371428571429h18v1.0628571428571263h-18Z" style="fill: #4c78a8;"></path><path d="M301,298.0628571428571h18v1.9371428571428737h-18Z" style="fill: #4c78a8;"></path><path d="M881,299.98285714285714h18v0.017142857142857792h-18Z" style="fill: #4c78a8;"></path><path d="M1021,292.37142857142857h18v7.628571428571433h-18Z" style="fill: #4c78a8;"></path><path d="M501,299.82h18v0.18000000000000682h-18Z" style="fill: #4c78a8;"></path><path d="M1001,299.1171428571429h18v0.8828571428571195h-18Z" style="fill: #4c78a8;"></path><path d="M321,299.77714285714285h18v0.2228571428571513h-18Z" style="fill: #4c78a8;"></path><path d="M361,299.34h18v0.660000000000025h-18Z" style="fill: #4c78a8;"></path><path d="M1341,299.08285714285716h18v0.917142857142835h-18Z" style="fill: #4c78a8;"></path><path d="M841,299.1771428571429h18v0.8228571428571172h-18Z" style="fill: #4c78a8;"></path><path d="M1461,299.0057142857143h18v0.9942857142856951h-18Z" style="fill: #4c78a8;"></path><path d="M121,299.3142857142857h18v0.6857142857143117h-18Z" style="fill: #4c78a8;"></path><path d="M421,297.45428571428573h18v2.5457142857142685h-18Z" style="fill: #4c78a8;"></path><path d="M1421,299.9657142857143h18v0.034285714285715585h-18Z" style="fill: #4c78a8;"></path><path d="M661,292.0285714285714h18v7.971428571428589h-18Z" style="fill: #4c78a8;"></path><path d="M381,292.74857142857144h18v7.251428571428562h-18Z" style="fill: #4c78a8;"></path><path d="M861,288.97714285714284h18v11.022857142857163h-18Z" style="fill: #4c78a8;"></path><path d="M1301,285.04285714285714h18v14.957142857142856h-18Z" style="fill: #4c78a8;"></path><path d="M641,295.92857142857144h18v4.071428571428555h-18Z" style="fill: #4c78a8;"></path><path d="M1281,295.6542857142857h18v4.34571428571428h-18Z" style="fill: #4c78a8;"></path><path d="M1361,299.87142857142857h18v0.12857142857143344h-18Z" style="fill: #4c78a8;"></path><path d="M721,298.78285714285715h18v1.2171428571428464h-18Z" style="fill: #4c78a8;"></path><path d="M701,297.77142857142854h18v2.228571428571456h-18Z" style="fill: #4c78a8;"></path><path d="M1401,255.72857142857143h18v44.27142857142857h-18Z" style="fill: #4c78a8;"></path><path d="M621,290.22857142857146h18v9.771428571428544h-18Z" style="fill: #4c78a8;"></path><path d="M761,293.16857142857145h18v6.831428571428546h-18Z" style="fill: #4c78a8;"></path><path d="M1201,298.0285714285714h18v1.9714285714285893h-18Z" style="fill: #4c78a8;"></path><path d="M1081,299.7342857142857h18v0.2657142857142958h-18Z" style="fill: #4c78a8;"></path><path d="M921,296.9485714285714h18v3.0514285714285734h-18Z" style="fill: #4c78a8;"></path><path d="M61,299.9142857142857h18v0.08571428571428896h-18Z" style="fill: #4c78a8;"></path></g><g class="mark-group role-axis"><g transform="translate(0.5,300.5)"><path class="background" d="M0,0h0v0h0Z" style="pointer-events: none; fill: none;"></path><g><g class="mark-rule role-axis-tick" style="pointer-events: none;"><line transform="translate(9,0)" x2="0" y2="5" style="fill: none; stroke: #888; stroke-width: 1; opacity: 1;"></line><line transform="translate(29,0)" x2="0" y2="5" style="fill: none; stroke: #888; stroke-width: 1; opacity: 1;"></line><line transform="translate(49,0)" x2="0" y2="5" style="fill: none; stroke: #888; stroke-width: 1; opacity: 1;"></line><line transform="translate(69,0)" x2="0" y2="5" style="fill: none; stroke: #888; stroke-width: 1; opacity: 1;"></line><line transform="translate(89,0)" x2="0" y2="5" style="fill: none; stroke: #888; stroke-width: 1; opacity: 1;"></line><line transform="translate(109,0)" x2="0" y2="5" style="fill: none; stroke: #888; stroke-width: 1; opacity: 1;"></line><line transform="translate(129,0)" x2="0" y2="5" style="fill: none; stroke: #888; stroke-width: 1; opacity: 1;"></line><line transform="translate(149,0)" x2="0" y2="5" style="fill: none; stroke: #888; stroke-width: 1; opacity: 1;"></line><line transform="translate(169,0)" x2="0" y2="5" style="fill: none; stroke: #888; stroke-width: 1; opacity: 1;"></line><line transform="translate(189,0)" x2="0" y2="5" style="fill: none; stroke: #888; stroke-width: 1; opacity: 1;"></line><line transform="translate(209,0)" x2="0" y2="5" style="fill: none; stroke: #888; stroke-width: 1; opacity: 1;"></line><line transform="translate(229,0)" x2="0" y2="5" style="fill: none; stroke: #888; stroke-width: 1; opacity: 1;"></line><line transform="translate(249,0)" x2="0" y2="5" style="fill: none; stroke: #888; stroke-width: 1; opacity: 1;"></line><line transform="translate(269,0)" x2="0" y2="5" style="fill: none; stroke: #888; stroke-width: 1; opacity: 1;"></line><line transform="translate(289,0)" x2="0" y2="5" style="fill: none; stroke: #888; stroke-width: 1; opacity: 1;"></line><line transform="translate(309,0)" x2="0" y2="5" style="fill: none; stroke: #888; stroke-width: 1; opacity: 1;"></line><line transform="translate(329,0)" x2="0" y2="5" style="fill: none; stroke: #888; stroke-width: 1; opacity: 1;"></line><line transform="translate(349,0)" x2="0" y2="5" style="fill: none; stroke: #888; stroke-width: 1; opacity: 1;"></line><line transform="translate(369,0)" x2="0" y2="5" style="fill: none; stroke: #888; stroke-width: 1; opacity: 1;"></line><line transform="translate(389,0)" x2="0" y2="5" style="fill: none; stroke: #888; stroke-width: 1; opacity: 1;"></line><line transform="translate(409,0)" x2="0" y2="5" style="fill: none; stroke: #888; stroke-width: 1; opacity: 1;"></line><line transform="translate(429,0)" x2="0" y2="5" style="fill: none; stroke: #888; stroke-width: 1; opacity: 1;"></line><line transform="translate(449,0)" x2="0" y2="5" style="fill: none; stroke: #888; stroke-width: 1; opacity: 1;"></line><line transform="translate(469,0)" x2="0" y2="5" style="fill: none; stroke: #888; stroke-width: 1; opacity: 1;"></line><line transform="translate(489,0)" x2="0" y2="5" style="fill: none; stroke: #888; stroke-width: 1; opacity: 1;"></line><line transform="translate(509,0)" x2="0" y2="5" style="fill: none; stroke: #888; stroke-width: 1; opacity: 1;"></line><line transform="translate(529,0)" x2="0" y2="5" style="fill: none; stroke: #888; stroke-width: 1; opacity: 1;"></line><line transform="translate(549,0)" x2="0" y2="5" style="fill: none; stroke: #888; stroke-width: 1; opacity: 1;"></line><line transform="translate(569,0)" x2="0" y2="5" style="fill: none; stroke: #888; stroke-width: 1; opacity: 1;"></line><line transform="translate(589,0)" x2="0" y2="5" style="fill: none; stroke: #888; stroke-width: 1; opacity: 1;"></line><line transform="translate(609,0)" x2="0" y2="5" style="fill: none; stroke: #888; stroke-width: 1; opacity: 1;"></line><line transform="translate(629,0)" x2="0" y2="5" style="fill: none; stroke: #888; stroke-width: 1; opacity: 1;"></line><line transform="translate(649,0)" x2="0" y2="5" style="fill: none; stroke: #888; stroke-width: 1; opacity: 1;"></line><line transform="translate(669,0)" x2="0" y2="5" style="fill: none; stroke: #888; stroke-width: 1; opacity: 1;"></line><line transform="translate(689,0)" x2="0" y2="5" style="fill: none; stroke: #888; stroke-width: 1; opacity: 1;"></line><line transform="translate(709,0)" x2="0" y2="5" style="fill: none; stroke: #888; stroke-width: 1; opacity: 1;"></line><line transform="translate(729,0)" x2="0" y2="5" style="fill: none; stroke: #888; stroke-width: 1; opacity: 1;"></line><line transform="translate(749,0)" x2="0" y2="5" style="fill: none; stroke: #888; stroke-width: 1; opacity: 1;"></line><line transform="translate(769,0)" x2="0" y2="5" style="fill: none; stroke: #888; stroke-width: 1; opacity: 1;"></line><line transform="translate(789,0)" x2="0" y2="5" style="fill: none; stroke: #888; stroke-width: 1; opacity: 1;"></line><line transform="translate(809,0)" x2="0" y2="5" style="fill: none; stroke: #888; stroke-width: 1; opacity: 1;"></line><line transform="translate(829,0)" x2="0" y2="5" style="fill: none; stroke: #888; stroke-width: 1; opacity: 1;"></line><line transform="translate(849,0)" x2="0" y2="5" style="fill: none; stroke: #888; stroke-width: 1; opacity: 1;"></line><line transform="translate(869,0)" x2="0" y2="5" style="fill: none; stroke: #888; stroke-width: 1; opacity: 1;"></line><line transform="translate(889,0)" x2="0" y2="5" style="fill: none; stroke: #888; stroke-width: 1; opacity: 1;"></line><line transform="translate(909,0)" x2="0" y2="5" style="fill: none; stroke: #888; stroke-width: 1; opacity: 1;"></line><line transform="translate(929,0)" x2="0" y2="5" style="fill: none; stroke: #888; stroke-width: 1; opacity: 1;"></line><line transform="translate(949,0)" x2="0" y2="5" style="fill: none; stroke: #888; stroke-width: 1; opacity: 1;"></line><line transform="translate(969,0)" x2="0" y2="5" style="fill: none; stroke: #888; stroke-width: 1; opacity: 1;"></line><line transform="translate(989,0)" x2="0" y2="5" style="fill: none; stroke: #888; stroke-width: 1; opacity: 1;"></line><line transform="translate(1009,0)" x2="0" y2="5" style="fill: none; stroke: #888; stroke-width: 1; opacity: 1;"></line><line transform="translate(1029,0)" x2="0" y2="5" style="fill: none; stroke: #888; stroke-width: 1; opacity: 1;"></line><line transform="translate(1049,0)" x2="0" y2="5" style="fill: none; stroke: #888; stroke-width: 1; opacity: 1;"></line><line transform="translate(1069,0)" x2="0" y2="5" style="fill: none; stroke: #888; stroke-width: 1; opacity: 1;"></line><line transform="translate(1089,0)" x2="0" y2="5" style="fill: none; stroke: #888; stroke-width: 1; opacity: 1;"></line><line transform="translate(1109,0)" x2="0" y2="5" style="fill: none; stroke: #888; stroke-width: 1; opacity: 1;"></line><line transform="translate(1129,0)" x2="0" y2="5" style="fill: none; stroke: #888; stroke-width: 1; opacity: 1;"></line><line transform="translate(1149,0)" x2="0" y2="5" style="fill: none; stroke: #888; stroke-width: 1; opacity: 1;"></line><line transform="translate(1169,0)" x2="0" y2="5" style="fill: none; stroke: #888; stroke-width: 1; opacity: 1;"></line><line transform="translate(1189,0)" x2="0" y2="5" style="fill: none; stroke: #888; stroke-width: 1; opacity: 1;"></line><line transform="translate(1209,0)" x2="0" y2="5" style="fill: none; stroke: #888; stroke-width: 1; opacity: 1;"></line><line transform="translate(1229,0)" x2="0" y2="5" style="fill: none; stroke: #888; stroke-width: 1; opacity: 1;"></line><line transform="translate(1249,0)" x2="0" y2="5" style="fill: none; stroke: #888; stroke-width: 1; opacity: 1;"></line><line transform="translate(1269,0)" x2="0" y2="5" style="fill: none; stroke: #888; stroke-width: 1; opacity: 1;"></line><line transform="translate(1289,0)" x2="0" y2="5" style="fill: none; stroke: #888; stroke-width: 1; opacity: 1;"></line><line transform="translate(1309,0)" x2="0" y2="5" style="fill: none; stroke: #888; stroke-width: 1; opacity: 1;"></line><line transform="translate(1329,0)" x2="0" y2="5" style="fill: none; stroke: #888; stroke-width: 1; opacity: 1;"></line><line transform="translate(1349,0)" x2="0" y2="5" style="fill: none; stroke: #888; stroke-width: 1; opacity: 1;"></line><line transform="translate(1369,0)" x2="0" y2="5" style="fill: none; stroke: #888; stroke-width: 1; opacity: 1;"></line><line transform="translate(1389,0)" x2="0" y2="5" style="fill: none; stroke: #888; stroke-width: 1; opacity: 1;"></line><line transform="translate(1409,0)" x2="0" y2="5" style="fill: none; stroke: #888; stroke-width: 1; opacity: 1;"></line><line transform="translate(1429,0)" x2="0" y2="5" style="fill: none; stroke: #888; stroke-width: 1; opacity: 1;"></line><line transform="translate(1449,0)" x2="0" y2="5" style="fill: none; stroke: #888; stroke-width: 1; opacity: 1;"></line><line transform="translate(1469,0)" x2="0" y2="5" style="fill: none; stroke: #888; stroke-width: 1; opacity: 1;"></line><line transform="translate(1489,0)" x2="0" y2="5" style="fill: none; stroke: #888; stroke-width: 1; opacity: 1;"></line><line transform="translate(1509,0)" x2="0" y2="5" style="fill: none; stroke: #888; stroke-width: 1; opacity: 1;"></line><line transform="translate(1529,0)" x2="0" y2="5" style="fill: none; stroke: #888; stroke-width: 1; opacity: 1;"></line><line transform="translate(1549,0)" x2="0" y2="5" style="fill: none; stroke: #888; stroke-width: 1; opacity: 1;"></line></g><g class="mark-text role-axis-label" style="pointer-events: none;"><text text-anchor="end" transform="translate(9,7) rotate(270) translate(0,3)" style="font-family: sans-serif; font-size: 10px; fill: #000; opacity: 1;">abriluno.com</text><text text-anchor="end" transform="translate(29,7) rotate(270) translate(0,3)" style="font-family: sans-serif; font-size: 10px; fill: #000; opacity: 1;">aceflashman.wordpress.com</text><text text-anchor="end" transform="translate(49,7) rotate(270) translate(0,3)" style="font-family: sans-serif; font-size: 10px; fill: #000; opacity: 1;">actualidadpanamericana.com</text><text text-anchor="end" transform="translate(69,7) rotate(270) translate(0,3)" style="font-family: sans-serif; font-size: 10px; fill: #000; opacity: 1;">adobochronicles.com</text><text text-anchor="end" transform="translate(89,7) rotate(270) translate(0,3)" style="font-family: sans-serif; font-size: 10px; fill: #000; opacity: 1;">awazetribune.com</text><text text-anchor="end" transform="translate(109,7) rotate(270) translate(0,3)" style="font-family: sans-serif; font-size: 10px; fill: #000; opacity: 1;">beehivebugle.com</text><text text-anchor="end" transform="translate(129,7) rotate(270) translate(0,3)" style="font-family: sans-serif; font-size: 10px; fill: #000; opacity: 1;">betootaadvocate.com</text><text text-anchor="end" transform="translate(149,7) rotate(270) translate(0,3)" style="font-family: sans-serif; font-size: 10px; fill: #000; opacity: 1;">bigamericannews.com</text><text text-anchor="end" transform="translate(169,7) rotate(270) translate(0,3)" style="font-family: sans-serif; font-size: 10px; fill: #000; opacity: 1;">burrardstreetjournal.com</text><text text-anchor="end" transform="translate(189,7) rotate(270) translate(0,3)" style="font-family: sans-serif; font-size: 10px; fill: #000; opacity: 1;">callthecops.net</text><text text-anchor="end" transform="translate(209,7) rotate(270) translate(0,3)" style="font-family: sans-serif; font-size: 10px; fill: #000; opacity: 1;">celebtricity.com</text><text text-anchor="end" transform="translate(229,7) rotate(270) translate(0,3)" style="font-family: sans-serif; font-size: 10px; fill: #000; opacity: 1;">chaser.com.au</text><text text-anchor="end" transform="translate(249,7) rotate(270) translate(0,3)" style="font-family: sans-serif; font-size: 10px; fill: #000; opacity: 1;">christwire.org</text><text text-anchor="end" transform="translate(269,7) rotate(270) translate(0,3)" style="font-family: sans-serif; font-size: 10px; fill: #000; opacity: 1;">chronicle.su</text><text text-anchor="end" transform="translate(289,7) rotate(270) translate(0,3)" style="font-family: sans-serif; font-size: 10px; fill: #000; opacity: 1;">clickhole.com</text><text text-anchor="end" transform="translate(309,7) rotate(270) translate(0,3)" style="font-family: sans-serif; font-size: 10px; fill: #000; opacity: 1;">creambmp.com</text><text text-anchor="end" transform="translate(329,7) rotate(270) translate(0,3)" style="font-family: sans-serif; font-size: 10px; fill: #000; opacity: 1;">dailycurrant.com</text><text text-anchor="end" transform="translate(349,7) rotate(270) translate(0,3)" style="font-family: sans-serif; font-size: 10px; fill: #000; opacity: 1;">dailyleak.org</text><text text-anchor="end" transform="translate(369,7) rotate(270) translate(0,3)" style="font-family: sans-serif; font-size: 10px; fill: #000; opacity: 1;">dailysnark.com</text><text text-anchor="end" transform="translate(389,7) rotate(270) translate(0,3)" style="font-family: sans-serif; font-size: 10px; fill: #000; opacity: 1;">dailysquib.co.uk</text><text text-anchor="end" transform="translate(409,7) rotate(270) translate(0,3)" style="font-family: sans-serif; font-size: 10px; fill: #000; opacity: 1;">dandygoat.com</text><text text-anchor="end" transform="translate(429,7) rotate(270) translate(0,3)" style="font-family: sans-serif; font-size: 10px; fill: #000; opacity: 1;">der-postillon.com</text><text text-anchor="end" transform="translate(449,7) rotate(270) translate(0,3)" style="font-family: sans-serif; font-size: 10px; fill: #000; opacity: 1;">derfmagazine.com</text><text text-anchor="end" transform="translate(469,7) rotate(270) translate(0,3)" style="font-family: sans-serif; font-size: 10px; fill: #000; opacity: 1;">disclose.tv</text><text text-anchor="end" transform="translate(489,7) rotate(270) translate(0,3)" style="font-family: sans-serif; font-size: 10px; fill: #000; opacity: 1;">diversitychronicle.wordpress.com</text><text text-anchor="end" transform="translate(509,7) rotate(270) translate(0,3)" style="font-family: sans-serif; font-size: 10px; fill: #000; opacity: 1;">duhprogressive.com</text><text text-anchor="end" transform="translate(529,7) rotate(270) translate(0,3)" style="font-family: sans-serif; font-size: 10px; fill: #000; opacity: 1;">elkoshary.com</text><text text-anchor="end" transform="translate(549,7) rotate(270) translate(0,3)" style="font-family: sans-serif; font-size: 10px; fill: #000; opacity: 1;">elmundotoday.com</text><text text-anchor="end" transform="translate(569,7) rotate(270) translate(0,3)" style="font-family: sans-serif; font-size: 10px; fill: #000; opacity: 1;">empiresports.co</text><text text-anchor="end" transform="translate(589,7) rotate(270) translate(0,3)" style="font-family: sans-serif; font-size: 10px; fill: #000; opacity: 1;">fognews.ru</text><text text-anchor="end" transform="translate(609,7) rotate(270) translate(0,3)" style="font-family: sans-serif; font-size: 10px; fill: #000; opacity: 1;">freewoodpost.com</text><text text-anchor="end" transform="translate(629,7) rotate(270) translate(0,3)" style="font-family: sans-serif; font-size: 10px; fill: #000; opacity: 1;">fridaymash.com</text><text text-anchor="end" transform="translate(649,7) rotate(270) translate(0,3)" style="font-family: sans-serif; font-size: 10px; fill: #000; opacity: 1;">glossynews.com</text><text text-anchor="end" transform="translate(669,7) rotate(270) translate(0,3)" style="font-family: sans-serif; font-size: 10px; fill: #000; opacity: 1;">gomerblog.com</text><text text-anchor="end" transform="translate(689,7) rotate(270) translate(0,3)" style="font-family: sans-serif; font-size: 10px; fill: #000; opacity: 1;">humortimes.com</text><text text-anchor="end" transform="translate(709,7) rotate(270) translate(0,3)" style="font-family: sans-serif; font-size: 10px; fill: #000; opacity: 1;">huzlers.com</text><text text-anchor="end" transform="translate(729,7) rotate(270) translate(0,3)" style="font-family: sans-serif; font-size: 10px; fill: #000; opacity: 1;">islamicanews.com</text><text text-anchor="end" transform="translate(749,7) rotate(270) translate(0,3)" style="font-family: sans-serif; font-size: 10px; fill: #000; opacity: 1;">johnnyrobish.com</text><text text-anchor="end" transform="translate(769,7) rotate(270) translate(0,3)" style="font-family: sans-serif; font-size: 10px; fill: #000; opacity: 1;">landoverbaptist.org</text><text text-anchor="end" transform="translate(789,7) rotate(270) translate(0,3)" style="font-family: sans-serif; font-size: 10px; fill: #000; opacity: 1;">liberalbias.com</text><text text-anchor="end" transform="translate(809,7) rotate(270) translate(0,3)" style="font-family: sans-serif; font-size: 10px; fill: #000; opacity: 1;">liberaldarkness.com</text><text text-anchor="end" transform="translate(829,7) rotate(270) translate(0,3)" style="font-family: sans-serif; font-size: 10px; fill: #000; opacity: 1;">lushforlife.com</text><text text-anchor="end" transform="translate(849,7) rotate(270) translate(0,3)" style="font-family: sans-serif; font-size: 10px; fill: #000; opacity: 1;">nationalreport.net</text><text text-anchor="end" transform="translate(869,7) rotate(270) translate(0,3)" style="font-family: sans-serif; font-size: 10px; fill: #000; opacity: 1;">ncscooper.com</text><text text-anchor="end" transform="translate(889,7) rotate(270) translate(0,3)" style="font-family: sans-serif; font-size: 10px; fill: #000; opacity: 1;">newsbiscuit.com</text><text text-anchor="end" transform="translate(909,7) rotate(270) translate(0,3)" style="font-family: sans-serif; font-size: 10px; fill: #000; opacity: 1;">newsbreakers.org</text><text text-anchor="end" transform="translate(929,7) rotate(270) translate(0,3)" style="font-family: sans-serif; font-size: 10px; fill: #000; opacity: 1;">newsmutiny.com</text><text text-anchor="end" transform="translate(949,7) rotate(270) translate(0,3)" style="font-family: sans-serif; font-size: 10px; fill: #000; opacity: 1;">newsthump.com</text><text text-anchor="end" transform="translate(969,7) rotate(270) translate(0,3)" style="font-family: sans-serif; font-size: 10px; fill: #000; opacity: 1;">newstoad.net</text><text text-anchor="end" transform="translate(989,7) rotate(270) translate(0,3)" style="font-family: sans-serif; font-size: 10px; fill: #000; opacity: 1;">objectiveministries.org</text><text text-anchor="end" transform="translate(1009,7) rotate(270) translate(0,3)" style="font-family: sans-serif; font-size: 10px; fill: #000; opacity: 1;">patriotnewsdaily.com</text><text text-anchor="end" transform="translate(1029,7) rotate(270) translate(0,3)" style="font-family: sans-serif; font-size: 10px; fill: #000; opacity: 1;">politicops.com</text><text text-anchor="end" transform="translate(1049,7) rotate(270) translate(0,3)" style="font-family: sans-serif; font-size: 10px; fill: #000; opacity: 1;">politicot.com</text><text text-anchor="end" transform="translate(1069,7) rotate(270) translate(0,3)" style="font-family: sans-serif; font-size: 10px; fill: #000; opacity: 1;">reductress.com</text><text text-anchor="end" transform="translate(1089,7) rotate(270) translate(0,3)" style="font-family: sans-serif; font-size: 10px; fill: #000; opacity: 1;">rockcitytimes.com</text><text text-anchor="end" transform="translate(1109,7) rotate(270) translate(0,3)" style="font-family: sans-serif; font-size: 10px; fill: #000; opacity: 1;">scrappleface.com</text><text text-anchor="end" transform="translate(1129,7) rotate(270) translate(0,3)" style="font-family: sans-serif; font-size: 10px; fill: #000; opacity: 1;">sensationalisttimes.com</text><text text-anchor="end" transform="translate(1149,7) rotate(270) translate(0,3)" style="font-family: sans-serif; font-size: 10px; fill: #000; opacity: 1;">speld.nl</text><text text-anchor="end" transform="translate(1169,7) rotate(270) translate(0,3)" style="font-family: sans-serif; font-size: 10px; fill: #000; opacity: 1;">sportspickle.com</text><text text-anchor="end" transform="translate(1189,7) rotate(270) translate(0,3)" style="font-family: sans-serif; font-size: 10px; fill: #000; opacity: 1;">stneotscitizen.com</text><text text-anchor="end" transform="translate(1209,7) rotate(270) translate(0,3)" style="font-family: sans-serif; font-size: 10px; fill: #000; opacity: 1;">stuppid.com</text><text text-anchor="end" transform="translate(1229,7) rotate(270) translate(0,3)" style="font-family: sans-serif; font-size: 10px; fill: #000; opacity: 1;">thedailymash.co.uk</text><text text-anchor="end" transform="translate(1249,7) rotate(270) translate(0,3)" style="font-family: sans-serif; font-size: 10px; fill: #000; opacity: 1;">thedailywtf.com</text><text text-anchor="end" transform="translate(1269,7) rotate(270) translate(0,3)" style="font-family: sans-serif; font-size: 10px; fill: #000; opacity: 1;">thehardtimes.net</text><text text-anchor="end" transform="translate(1289,7) rotate(270) translate(0,3)" style="font-family: sans-serif; font-size: 10px; fill: #000; opacity: 1;">theineptowl.com</text><text text-anchor="end" transform="translate(1309,7) rotate(270) translate(0,3)" style="font-family: sans-serif; font-size: 10px; fill: #000; opacity: 1;">themideastbeast.com</text><text text-anchor="end" transform="translate(1329,7) rotate(270) translate(0,3)" style="font-family: sans-serif; font-size: 10px; fill: #000; opacity: 1;">theonion.com</text><text text-anchor="end" transform="translate(1349,7) rotate(270) translate(0,3)" style="font-family: sans-serif; font-size: 10px; fill: #000; opacity: 1;">thepoke.co.uk</text><text text-anchor="end" transform="translate(1369,7) rotate(270) translate(0,3)" style="font-family: sans-serif; font-size: 10px; fill: #000; opacity: 1;">therightists.com</text><text text-anchor="end" transform="translate(1389,7) rotate(270) translate(0,3)" style="font-family: sans-serif; font-size: 10px; fill: #000; opacity: 1;">theshovel.com.au</text><text text-anchor="end" transform="translate(1409,7) rotate(270) translate(0,3)" style="font-family: sans-serif; font-size: 10px; fill: #000; opacity: 1;">thespoof.com</text><text text-anchor="end" transform="translate(1429,7) rotate(270) translate(0,3)" style="font-family: sans-serif; font-size: 10px; fill: #000; opacity: 1;">thestatelyharold.com</text><text text-anchor="end" transform="translate(1449,7) rotate(270) translate(0,3)" style="font-family: sans-serif; font-size: 10px; fill: #000; opacity: 1;">thevalleyreport.com</text><text text-anchor="end" transform="translate(1469,7) rotate(270) translate(0,3)" style="font-family: sans-serif; font-size: 10px; fill: #000; opacity: 1;">unconfirmedsources.com</text><text text-anchor="end" transform="translate(1489,7) rotate(270) translate(0,3)" style="font-family: sans-serif; font-size: 10px; fill: #000; opacity: 1;">us.blastingnews.com</text><text text-anchor="end" transform="translate(1509,7) rotate(270) translate(0,3)" style="font-family: sans-serif; font-size: 10px; fill: #000; opacity: 1;">waterfordwhispersnews.com</text><text text-anchor="end" transform="translate(1529,7) rotate(270) translate(0,3)" style="font-family: sans-serif; font-size: 10px; fill: #000; opacity: 1;">worldnewsdailyreport.com</text><text text-anchor="end" transform="translate(1549,7) rotate(270) translate(0,3)" style="font-family: sans-serif; font-size: 10px; fill: #000; opacity: 1;">wundergroundmusic.com</text></g><g class="mark-rule role-axis-domain" style="pointer-events: none;"><line transform="translate(0,0)" x2="1560" y2="0" style="fill: none; stroke: #888; stroke-width: 1; opacity: 1;"></line></g><g class="mark-text role-axis-title" style="pointer-events: none;"><text text-anchor="middle" transform="translate(780,180)" style="font-family: sans-serif; font-size: 11px; font-weight: bold; fill: #000; opacity: 1;">domains</text></g></g></g></g><g class="mark-group role-axis"><g transform="translate(0.5,0.5)"><path class="background" d="M0,0h0v0h0Z" style="pointer-events: none; fill: none;"></path><g><g class="mark-rule role-axis-tick" style="pointer-events: none;"><line transform="translate(0,300)" x2="-5" y2="0" style="fill: none; stroke: #888; stroke-width: 1; opacity: 1;"></line><line transform="translate(0,257)" x2="-5" y2="0" style="fill: none; stroke: #888; stroke-width: 1; opacity: 1;"></line><line transform="translate(0,214)" x2="-5" y2="0" style="fill: none; stroke: #888; stroke-width: 1; opacity: 1;"></line><line transform="translate(0,171)" x2="-5" y2="0" style="fill: none; stroke: #888; stroke-width: 1; opacity: 1;"></line><line transform="translate(0,129)" x2="-5" y2="0" style="fill: none; stroke: #888; stroke-width: 1; opacity: 1;"></line><line transform="translate(0,86)" x2="-5" y2="0" style="fill: none; stroke: #888; stroke-width: 1; opacity: 1;"></line><line transform="translate(0,43)" x2="-5" y2="0" style="fill: none; stroke: #888; stroke-width: 1; opacity: 1;"></line><line transform="translate(0,0)" x2="-5" y2="0" style="fill: none; stroke: #888; stroke-width: 1; opacity: 1;"></line></g><g class="mark-text role-axis-label" style="pointer-events: none;"><text text-anchor="end" transform="translate(-7,303)" style="font-family: sans-serif; font-size: 10px; fill: #000; opacity: 1;">0</text><text text-anchor="end" transform="translate(-7,260.14285714285717)" style="font-family: sans-serif; font-size: 10px; fill: #000; opacity: 1;">5,000</text><text text-anchor="end" transform="translate(-7,217.28571428571428)" style="font-family: sans-serif; font-size: 10px; fill: #000; opacity: 1;">10,000</text><text text-anchor="end" transform="translate(-7,174.42857142857144)" style="font-family: sans-serif; font-size: 10px; fill: #000; opacity: 1;">15,000</text><text text-anchor="end" transform="translate(-7,131.57142857142858)" style="font-family: sans-serif; font-size: 10px; fill: #000; opacity: 1;">20,000</text><text text-anchor="end" transform="translate(-7,88.71428571428572)" style="font-family: sans-serif; font-size: 10px; fill: #000; opacity: 1;">25,000</text><text text-anchor="end" transform="translate(-7,45.85714285714289)" style="font-family: sans-serif; font-size: 10px; fill: #000; opacity: 1;">30,000</text><text text-anchor="end" transform="translate(-7,3)" style="font-family: sans-serif; font-size: 10px; fill: #000; opacity: 1;">35,000</text></g><g class="mark-rule role-axis-domain" style="pointer-events: none;"><line transform="translate(0,300)" x2="0" y2="-300" style="fill: none; stroke: #888; stroke-width: 1; opacity: 1;"></line></g><g class="mark-text role-axis-title" style="pointer-events: none;"><text text-anchor="middle" transform="translate(-44,150) rotate(-90) translate(0,-2)" style="font-family: sans-serif; font-size: 11px; font-weight: bold; fill: #000; opacity: 1;">Count</text></g></g></g></g></g></g></g></g></svg>