<svg class="marks" width="1389" height="478" viewBox="0 0 1389 478" version="1.1" xmlns="http://www.w3.org/2000/svg" xmlns:xlink="http://www.w3.org/1999/xlink"><g transform="translate(61,11)"><g class="mark-group role-frame root"><g transform="translate(0,0)"><path class="background" d="M0.5,0.5h1323v300h-1323Z" style="fill: none; stroke: #ddd;"></path><g><g class="mark-group role-axis"><g transform="translate(0.5,0.5)"><path class="background" d="M0,0h0v0h0Z" style="pointer-events: none; fill: none;"></path><g><g class="mark-rule role-axis-grid" style="pointer-events: none;"><line transform="translate(0,300)" x2="1323" y2="0" style="fill: none; stroke: #ddd; stroke-width: 1; opacity: 1;"></line><line transform="translate(0,263)" x2="1323" y2="0" style="fill: none; stroke: #ddd; stroke-width: 1; opacity: 1;"></line><line transform="translate(0,225)" x2="1323" y2="0" style="fill: none; stroke: #ddd; stroke-width: 1; opacity: 1;"></line><line transform="translate(0,188)" x2="1323" y2="0" style="fill: none; stroke: #ddd; stroke-width: 1; opacity: 1;"></line><line transform="translate(0,150)" x2="1323" y2="0" style="fill: none; stroke: #ddd; stroke-width: 1; opacity: 1;"></line><line transform="translate(0,113)" x2="1323" y2="0" style="fill: none; stroke: #ddd; stroke-width: 1; opacity: 1;"></line><line transform="translate(0,75)" x2="1323" y2="0" style="fill: none; stroke: #ddd; stroke-width: 1; opacity: 1;"></line><line transform="translate(0,38)" x2="1323" y2="0" style="fill: none; stroke: #ddd; stroke-width: 1; opacity: 1;"></line><line transform="translate(0,0)" x2="1323" y2="0" style="fill: none; stroke: #ddd; stroke-width: 1; opacity: 1;"></line></g></g></g></g><g class="mark-rect role-mark marks"><path d="M1177.0500000000002,298.8375h18.900000000000002v1.1625000000000227h-18.900000000000002Z" style="fill: #4c78a8;"></path><path d="M1156.0500000000002,285.3h18.900000000000002v14.699999999999989h-18.900000000000002Z" style="fill: #4c78a8;"></path><path d="M1072.0500000000002,299.5275h18.900000000000002v0.472500000000025h-18.900000000000002Z" style="fill: #4c78a8;"></path><path d="M1.0500000000000682,299.9925h18.900000000000002v0.007499999999993179h-18.900000000000002Z" style="fill: #4c78a8;"></path><path d="M484.05000000000007,299.955h18.900000000000002v0.045000000000015916h-18.900000000000002Z" style="fill: #4c78a8;"></path><path d="M1303.0500000000002,299.3475h18.900000000000002v0.652499999999975h-18.900000000000002Z" style="fill: #4c78a8;"></path><path d="M106.05000000000007,299.5125h18.900000000000002v0.48750000000001137h-18.900000000000002Z" style="fill: #4c78a8;"></path><path d="M820.0500000000001,299.985h18.900000000000002v0.014999999999986358h-18.900000000000002Z" style="fill: #4c78a8;"></path><path d="M295.05000000000007,299.8575h18.900000000000002v0.14249999999998408h-18.900000000000002Z" style="fill: #4c78a8;"></path><path d="M568.0500000000001,293.805h18.900000000000002v6.194999999999993h-18.900000000000002Z" style="fill: #4c78a8;"></path><path d="M253.05000000000007,296.355h18.900000000000002v3.644999999999982h-18.900000000000002Z" style="fill: #4c78a8;"></path><path d="M442.05000000000007,259.515h18.900000000000002v40.485000000000014h-18.900000000000002Z" style="fill: #4c78a8;"></path><path d="M862.0500000000001,238.2975h18.900000000000002v61.702499999999986h-18.900000000000002Z" style="fill: #4c78a8;"></path><path d="M736.0500000000001,227.4075h18.900000000000002v72.5925h-18.900000000000002Z" style="fill: #4c78a8;"></path><path d="M652.0500000000001,299.5725h18.900000000000002v0.4275000000000091h-18.900000000000002Z" style="fill: #4c78a8;"></path><path d="M1198.0500000000002,290.205h18.900000000000002v9.795000000000016h-18.900000000000002Z" style="fill: #4c78a8;"></path><path d="M400.05000000000007,289.5675h18.900000000000002v10.432500000000005h-18.900000000000002Z" style="fill: #4c78a8;"></path><path d="M757.0500000000001,297.12h18.900000000000002v2.8799999999999955h-18.900000000000002Z" style="fill: #4c78a8;"></path><path d="M148.05000000000007,299.94h18.900000000000002v0.060000000000002274h-18.900000000000002Z" style="fill: #4c78a8;"></path><path d="M316.05000000000007,251.685h18.900000000000002v48.315h-18.900000000000002Z" style="fill: #4c78a8;"></path><path d="M379.05000000000007,281.5125h18.900000000000002v18.48750000000001h-18.900000000000002Z" style="fill: #4c78a8;"></path><path d="M43.05000000000007,281.04h18.900000000000002v18.95999999999998h-18.900000000000002Z" style="fill: #4c78a8;"></path><path d="M85.05000000000007,280.3575h18.900000000000002v19.642499999999984h-18.900000000000002Z" style="fill: #4c78a8;"></path><path d="M190.05000000000007,148.29h18.900000000000002v151.71h-18.900000000000002Z" style="fill: #4c78a8;"></path><path d="M694.0500000000001,298.8825h18.900000000000002v1.1175000000000068h-18.900000000000002Z" style="fill: #4c78a8;"></path><path d="M274.05000000000007,299.955h18.900000000000002v0.045000000000015916h-18.900000000000002Z" style="fill: #4c78a8;"></path><path d="M421.05000000000007,78.72h18.900000000000002v221.28h-18.900000000000002Z" style="fill: #4c78a8;"></path><path d="M1030.0500000000002,297.3h18.900000000000002v2.6999999999999886h-18.900000000000002Z" style="fill: #4c78a8;"></path><path d="M547.0500000000001,287.73h18.900000000000002v12.269999999999982h-18.900000000000002Z" style="fill: #4c78a8;"></path><path d="M1051.0500000000002,275.685h18.900000000000002v24.314999999999998h-18.900000000000002Z" style="fill: #4c78a8;"></path><path d="M631.0500000000001,240.1725h18.900000000000002v59.827499999999986h-18.900000000000002Z" style="fill: #4c78a8;"></path><path d="M967.0500000000001,234.645h18.900000000000002v65.35499999999999h-18.900000000000002Z" style="fill: #4c78a8;"></path><path d="M526.0500000000001,259.995h18.900000000000002v40.004999999999995h-18.900000000000002Z" style="fill: #4c78a8;"></path><path d="M358.05000000000007,293.0325h18.900000000000002v6.967499999999973h-18.900000000000002Z" style="fill: #4c78a8;"></path><path d="M673.0500000000001,299.9325h18.900000000000002v0.06749999999999545h-18.900000000000002Z" style="fill: #4c78a8;"></path><path d="M1219.0500000000002,294.3075h18.900000000000002v5.6924999999999955h-18.900000000000002Z" style="fill: #4c78a8;"></path><path d="M799.0500000000001,294.855h18.900000000000002v5.144999999999982h-18.900000000000002Z" style="fill: #4c78a8;"></path><path d="M1261.0500000000002,299.6025h18.900000000000002v0.39749999999997954h-18.900000000000002Z" style="fill: #4c78a8;"></path><path d="M211.05000000000007,299.9925h18.900000000000002v0.007499999999993179h-18.900000000000002Z" style="fill: #4c78a8;"></path><path d="M505.05000000000007,281.4225h18.900000000000002v18.577499999999986h-18.900000000000002Z" style="fill: #4c78a8;"></path><path d="M589.0500000000001,295.1025h18.900000000000002v4.8974999999999795h-18.900000000000002Z" style="fill: #4c78a8;"></path><path d="M463.05000000000007,288.075h18.900000000000002v11.925000000000011h-18.900000000000002Z" style="fill: #4c78a8;"></path><path d="M1135.0500000000002,298.6725h18.900000000000002v1.3274999999999864h-18.900000000000002Z" style="fill: #4c78a8;"></path><path d="M904.0500000000001,257.85h18.900000000000002v42.14999999999998h-18.900000000000002Z" style="fill: #4c78a8;"></path><path d="M1282.0500000000002,299.655h18.900000000000002v0.3450000000000273h-18.900000000000002Z" style="fill: #4c78a8;"></path><path d="M1093.0500000000002,287.8725h18.900000000000002v12.127499999999998h-18.900000000000002Z" style="fill: #4c78a8;"></path><path d="M778.0500000000001,291.3075h18.900000000000002v8.692499999999995h-18.900000000000002Z" style="fill: #4c78a8;"></path><path d="M64.05000000000007,294.06h18.900000000000002v5.939999999999998h-18.900000000000002Z" style="fill: #4c78a8;"></path><path d="M127.05000000000007,299.76h18.900000000000002v0.2400000000000091h-18.900000000000002Z" style="fill: #4c78a8;"></path><path d="M169.05000000000007,299.9475h18.900000000000002v0.052500000000009095h-18.900000000000002Z" style="fill: #4c78a8;"></path><path d="M841.0500000000001,293.6475h18.900000000000002v6.3525000000000205h-18.900000000000002Z" style="fill: #4c78a8;"></path><path d="M22.050000000000068,299.895h18.900000000000002v0.10500000000001819h-18.900000000000002Z" style="fill: #4c78a8;"></path><path d="M1009.0500000000001,299.7075h18.900000000000002v0.2925000000000182h-18.900000000000002Z" style="fill: #4c78a8;"></path><path d="M232.05000000000007,294.3075h18.900000000000002v5.6924999999999955h-18.900000000000002Z" style="fill: #4c78a8;"></path><path d="M925.0500000000001,299.9925h18.900000000000002v0.007499999999993179h-18.900000000000002Z" style="fill: #4c78a8;"></path><path d="M1240.0500000000002,293.5125h18.900000000000002v6.487500000000011h-18.900000000000002Z" style="fill: #4c78a8;"></path><path d="M988.0500000000001,164.955h18.900000000000002v135.045h-18.900000000000002Z" style="fill: #4c78a8;"></path><path d="M610.0500000000001,299.2875h18.900000000000002v0.7124999999999773h-18.900000000000002Z" style="fill: #4c78a8;"></path><path d="M883.0500000000001,15.704999999999984h18.900000000000002v284.295h-18.900000000000002Z" style="fill: #4c78a8;"></path><path d="M715.0500000000001,299.85h18.900000000000002v0.14999999999997726h-18.900000000000002Z" style="fill: #4c78a8;"></path><path d="M337.05000000000007,272.2875h18.900000000000002v27.712499999999977h-18.900000000000002Z" style="fill: #4c78a8;"></path><path d="M946.0500000000001,72.30000000000001h18.900000000000002v227.7h-18.900000000000002Z" style="fill: #4c78a8;"></path><path d="M1114.0500000000002,294.2775h18.900000000000002v5.722500000000025h-18.900000000000002Z" style="fill: #4c78a8;"></path></g><g class="mark-group role-axis"><g transform="translate(0.5,300.5)"><path class="background" d="M0,0h0v0h0Z" style="pointer-events: none; fill: none;"></path><g><g class="mark-rule role-axis-tick" style="pointer-events: none;"><line transform="translate(10,0)" x2="0" y2="5" style="fill: none; stroke: #888; stroke-width: 1; opacity: 1;"></line><line transform="translate(31,0)" x2="0" y2="5" style="fill: none; stroke: #888; stroke-width: 1; opacity: 1;"></line><line transform="translate(52,0)" x2="0" y2="5" style="fill: none; stroke: #888; stroke-width: 1; opacity: 1;"></line><line transform="translate(73,0)" x2="0" y2="5" style="fill: none; stroke: #888; stroke-width: 1; opacity: 1;"></line><line transform="translate(94,0)" x2="0" y2="5" style="fill: none; stroke: #888; stroke-width: 1; opacity: 1;"></line><line transform="translate(115,0)" x2="0" y2="5" style="fill: none; stroke: #888; stroke-width: 1; opacity: 1;"></line><line transform="translate(136,0)" x2="0" y2="5" style="fill: none; stroke: #888; stroke-width: 1; opacity: 1;"></line><line transform="translate(157,0)" x2="0" y2="5" style="fill: none; stroke: #888; stroke-width: 1; opacity: 1;"></line><line transform="translate(178,0)" x2="0" y2="5" style="fill: none; stroke: #888; stroke-width: 1; opacity: 1;"></line><line transform="translate(199,0)" x2="0" y2="5" style="fill: none; stroke: #888; stroke-width: 1; opacity: 1;"></line><line transform="translate(220,0)" x2="0" y2="5" style="fill: none; stroke: #888; stroke-width: 1; opacity: 1;"></line><line transform="translate(241,0)" x2="0" y2="5" style="fill: none; stroke: #888; stroke-width: 1; opacity: 1;"></line><line transform="translate(262,0)" x2="0" y2="5" style="fill: none; stroke: #888; stroke-width: 1; opacity: 1;"></line><line transform="translate(283,0)" x2="0" y2="5" style="fill: none; stroke: #888; stroke-width: 1; opacity: 1;"></line><line transform="translate(304,0)" x2="0" y2="5" style="fill: none; stroke: #888; stroke-width: 1; opacity: 1;"></line><line transform="translate(325,0)" x2="0" y2="5" style="fill: none; stroke: #888; stroke-width: 1; opacity: 1;"></line><line transform="translate(346,0)" x2="0" y2="5" style="fill: none; stroke: #888; stroke-width: 1; opacity: 1;"></line><line transform="translate(367,0)" x2="0" y2="5" style="fill: none; stroke: #888; stroke-width: 1; opacity: 1;"></line><line transform="translate(388,0)" x2="0" y2="5" style="fill: none; stroke: #888; stroke-width: 1; opacity: 1;"></line><line transform="translate(409,0)" x2="0" y2="5" style="fill: none; stroke: #888; stroke-width: 1; opacity: 1;"></line><line transform="translate(430,0)" x2="0" y2="5" style="fill: none; stroke: #888; stroke-width: 1; opacity: 1;"></line><line transform="translate(451,0)" x2="0" y2="5" style="fill: none; stroke: #888; stroke-width: 1; opacity: 1;"></line><line transform="translate(472,0)" x2="0" y2="5" style="fill: none; stroke: #888; stroke-width: 1; opacity: 1;"></line><line transform="translate(493,0)" x2="0" y2="5" style="fill: none; stroke: #888; stroke-width: 1; opacity: 1;"></line><line transform="translate(514,0)" x2="0" y2="5" style="fill: none; stroke: #888; stroke-width: 1; opacity: 1;"></line><line transform="translate(535,0)" x2="0" y2="5" style="fill: none; stroke: #888; stroke-width: 1; opacity: 1;"></line><line transform="translate(556,0)" x2="0" y2="5" style="fill: none; stroke: #888; stroke-width: 1; opacity: 1;"></line><line transform="translate(577,0)" x2="0" y2="5" style="fill: none; stroke: #888; stroke-width: 1; opacity: 1;"></line><line transform="translate(598,0)" x2="0" y2="5" style="fill: none; stroke: #888; stroke-width: 1; opacity: 1;"></line><line transform="translate(619,0)" x2="0" y2="5" style="fill: none; stroke: #888; stroke-width: 1; opacity: 1;"></line><line transform="translate(640,0)" x2="0" y2="5" style="fill: none; stroke: #888; stroke-width: 1; opacity: 1;"></line><line transform="translate(661,0)" x2="0" y2="5" style="fill: none; stroke: #888; stroke-width: 1; opacity: 1;"></line><line transform="translate(682,0)" x2="0" y2="5" style="fill: none; stroke: #888; stroke-width: 1; opacity: 1;"></line><line transform="translate(703,0)" x2="0" y2="5" style="fill: none; stroke: #888; stroke-width: 1; opacity: 1;"></line><line transform="translate(724,0)" x2="0" y2="5" style="fill: none; stroke: #888; stroke-width: 1; opacity: 1;"></line><line transform="translate(745,0)" x2="0" y2="5" style="fill: none; stroke: #888; stroke-width: 1; opacity: 1;"></line><line transform="translate(766,0)" x2="0" y2="5" style="fill: none; stroke: #888; stroke-width: 1; opacity: 1;"></line><line transform="translate(787,0)" x2="0" y2="5" style="fill: none; stroke: #888; stroke-width: 1; opacity: 1;"></line><line transform="translate(808,0)" x2="0" y2="5" style="fill: none; stroke: #888; stroke-width: 1; opacity: 1;"></line><line transform="translate(829,0)" x2="0" y2="5" style="fill: none; stroke: #888; stroke-width: 1; opacity: 1;"></line><line transform="translate(850,0)" x2="0" y2="5" style="fill: none; stroke: #888; stroke-width: 1; opacity: 1;"></line><line transform="translate(871,0)" x2="0" y2="5" style="fill: none; stroke: #888; stroke-width: 1; opacity: 1;"></line><line transform="translate(892,0)" x2="0" y2="5" style="fill: none; stroke: #888; stroke-width: 1; opacity: 1;"></line><line transform="translate(913,0)" x2="0" y2="5" style="fill: none; stroke: #888; stroke-width: 1; opacity: 1;"></line><line transform="translate(934,0)" x2="0" y2="5" style="fill: none; stroke: #888; stroke-width: 1; opacity: 1;"></line><line transform="translate(955,0)" x2="0" y2="5" style="fill: none; stroke: #888; stroke-width: 1; opacity: 1;"></line><line transform="translate(976,0)" x2="0" y2="5" style="fill: none; stroke: #888; stroke-width: 1; opacity: 1;"></line><line transform="translate(997,0)" x2="0" y2="5" style="fill: none; stroke: #888; stroke-width: 1; opacity: 1;"></line><line transform="translate(1018,0)" x2="0" y2="5" style="fill: none; stroke: #888; stroke-width: 1; opacity: 1;"></line><line transform="translate(1039,0)" x2="0" y2="5" style="fill: none; stroke: #888; stroke-width: 1; opacity: 1;"></line><line transform="translate(1060,0)" x2="0" y2="5" style="fill: none; stroke: #888; stroke-width: 1; opacity: 1;"></line><line transform="translate(1081,0)" x2="0" y2="5" style="fill: none; stroke: #888; stroke-width: 1; opacity: 1;"></line><line transform="translate(1102,0)" x2="0" y2="5" style="fill: none; stroke: #888; stroke-width: 1; opacity: 1;"></line><line transform="translate(1123,0)" x2="0" y2="5" style="fill: none; stroke: #888; stroke-width: 1; opacity: 1;"></line><line transform="translate(1144,0)" x2="0" y2="5" style="fill: none; stroke: #888; stroke-width: 1; opacity: 1;"></line><line transform="translate(1165,0)" x2="0" y2="5" style="fill: none; stroke: #888; stroke-width: 1; opacity: 1;"></line><line transform="translate(1186,0)" x2="0" y2="5" style="fill: none; stroke: #888; stroke-width: 1; opacity: 1;"></line><line transform="translate(1207,0)" x2="0" y2="5" style="fill: none; stroke: #888; stroke-width: 1; opacity: 1;"></line><line transform="translate(1228,0)" x2="0" y2="5" style="fill: none; stroke: #888; stroke-width: 1; opacity: 1;"></line><line transform="translate(1249,0)" x2="0" y2="5" style="fill: none; stroke: #888; stroke-width: 1; opacity: 1;"></line><line transform="translate(1270,0)" x2="0" y2="5" style="fill: none; stroke: #888; stroke-width: 1; opacity: 1;"></line><line transform="translate(1291,0)" x2="0" y2="5" style="fill: none; stroke: #888; stroke-width: 1; opacity: 1;"></line><line transform="translate(1312,0)" x2="0" y2="5" style="fill: none; stroke: #888; stroke-width: 1; opacity: 1;"></line></g><g class="mark-text role-axis-label" style="pointer-events: none;"><text text-anchor="end" transform="translate(9.50000000000007,7) rotate(270) translate(0,3)" style="font-family: sans-serif; font-size: 10px; fill: #000; opacity: 1;">Zengardner.com</text><text text-anchor="end" transform="translate(30.50000000000007,7) rotate(270) translate(0,3)" style="font-family: sans-serif; font-size: 10px; fill: #000; opacity: 1;">fantasticword.com</text><text text-anchor="end" transform="translate(51.50000000000007,7) rotate(270) translate(0,3)" style="font-family: sans-serif; font-size: 10px; fill: #000; opacity: 1;">flyheight.com</text><text text-anchor="end" transform="translate(72.50000000000007,7) rotate(270) translate(0,3)" style="font-family: sans-serif; font-size: 10px; fill: #000; opacity: 1;">kauilapele.wordpress.com</text><text text-anchor="end" transform="translate(93.50000000000007,7) rotate(270) translate(0,3)" style="font-family: sans-serif; font-size: 10px; fill: #000; opacity: 1;">kingworldnews.com</text><text text-anchor="end" transform="translate(114.50000000000007,7) rotate(270) translate(0,3)" style="font-family: sans-serif; font-size: 10px; fill: #000; opacity: 1;">legorafi.fr</text><text text-anchor="end" transform="translate(135.50000000000006,7) rotate(270) translate(0,3)" style="font-family: sans-serif; font-size: 10px; fill: #000; opacity: 1;">lightlybraisedturnip.com</text><text text-anchor="end" transform="translate(156.50000000000006,7) rotate(270) translate(0,3)" style="font-family: sans-serif; font-size: 10px; fill: #000; opacity: 1;">livefreelivenatural.com</text><text text-anchor="end" transform="translate(177.50000000000006,7) rotate(270) translate(0,3)" style="font-family: sans-serif; font-size: 10px; fill: #000; opacity: 1;">observatorial.com</text><text text-anchor="end" transform="translate(198.50000000000006,7) rotate(270) translate(0,3)" style="font-family: sans-serif; font-size: 10px; fill: #000; opacity: 1;">opednews.com</text><text text-anchor="end" transform="translate(219.50000000000006,7) rotate(270) translate(0,3)" style="font-family: sans-serif; font-size: 10px; fill: #000; opacity: 1;">patriotarchives.blogspot.com</text><text text-anchor="end" transform="translate(240.50000000000006,7) rotate(270) translate(0,3)" style="font-family: sans-serif; font-size: 10px; fill: #000; opacity: 1;">policestateusa.com</text><text text-anchor="end" transform="translate(261.50000000000006,7) rotate(270) translate(0,3)" style="font-family: sans-serif; font-size: 10px; fill: #000; opacity: 1;">policyreview.info</text><text text-anchor="end" transform="translate(282.50000000000006,7) rotate(270) translate(0,3)" style="font-family: sans-serif; font-size: 10px; fill: #000; opacity: 1;">politicsinformation.com</text><text text-anchor="end" transform="translate(303.50000000000006,7) rotate(270) translate(0,3)" style="font-family: sans-serif; font-size: 10px; fill: #000; opacity: 1;">politicsinusa.com</text><text text-anchor="end" transform="translate(324.50000000000006,7) rotate(270) translate(0,3)" style="font-family: sans-serif; font-size: 10px; fill: #000; opacity: 1;">powerlineblog.com</text><text text-anchor="end" transform="translate(345.50000000000006,7) rotate(270) translate(0,3)" style="font-family: sans-serif; font-size: 10px; fill: #000; opacity: 1;">randpaulreview.com</text><text text-anchor="end" transform="translate(366.50000000000006,7) rotate(270) translate(0,3)" style="font-family: sans-serif; font-size: 10px; fill: #000; opacity: 1;">rbth.com</text><text text-anchor="end" transform="translate(387.50000000000006,7) rotate(270) translate(0,3)" style="font-family: sans-serif; font-size: 10px; fill: #000; opacity: 1;">readynutrition.com</text><text text-anchor="end" transform="translate(408.50000000000006,7) rotate(270) translate(0,3)" style="font-family: sans-serif; font-size: 10px; fill: #000; opacity: 1;">russia-direct.org</text><text text-anchor="end" transform="translate(429.50000000000006,7) rotate(270) translate(0,3)" style="font-family: sans-serif; font-size: 10px; fill: #000; opacity: 1;">shadowproof.com</text><text text-anchor="end" transform="translate(450.50000000000006,7) rotate(270) translate(0,3)" style="font-family: sans-serif; font-size: 10px; fill: #000; opacity: 1;">shiftfrequency.com</text><text text-anchor="end" transform="translate(471.50000000000006,7) rotate(270) translate(0,3)" style="font-family: sans-serif; font-size: 10px; fill: #000; opacity: 1;">shtfplan.com</text><text text-anchor="end" transform="translate(492.50000000000006,7) rotate(270) translate(0,3)" style="font-family: sans-serif; font-size: 10px; fill: #000; opacity: 1;">silentmajoritypatriots.com</text><text text-anchor="end" transform="translate(513.5000000000001,7) rotate(270) translate(0,3)" style="font-family: sans-serif; font-size: 10px; fill: #000; opacity: 1;">sott.net</text><text text-anchor="end" transform="translate(534.5000000000001,7) rotate(270) translate(0,3)" style="font-family: sans-serif; font-size: 10px; fill: #000; opacity: 1;">southfront.org</text><text text-anchor="end" transform="translate(555.5000000000001,7) rotate(270) translate(0,3)" style="font-family: sans-serif; font-size: 10px; fill: #000; opacity: 1;">strategic-culture.org</text><text text-anchor="end" transform="translate(576.5000000000001,7) rotate(270) translate(0,3)" style="font-family: sans-serif; font-size: 10px; fill: #000; opacity: 1;">surenews.com</text><text text-anchor="end" transform="translate(597.5000000000001,7) rotate(270) translate(0,3)" style="font-family: sans-serif; font-size: 10px; fill: #000; opacity: 1;">survivopedia.com</text><text text-anchor="end" transform="translate(618.5000000000001,7) rotate(270) translate(0,3)" style="font-family: sans-serif; font-size: 10px; fill: #000; opacity: 1;">teapartyeconomist.com</text><text text-anchor="end" transform="translate(639.5000000000001,7) rotate(270) translate(0,3)" style="font-family: sans-serif; font-size: 10px; fill: #000; opacity: 1;">teapartytribune.com</text><text text-anchor="end" transform="translate(660.5000000000001,7) rotate(270) translate(0,3)" style="font-family: sans-serif; font-size: 10px; fill: #000; opacity: 1;">the-newspapers.com</text><text text-anchor="end" transform="translate(681.5000000000001,7) rotate(270) translate(0,3)" style="font-family: sans-serif; font-size: 10px; fill: #000; opacity: 1;">theamericancause.org</text><text text-anchor="end" transform="translate(702.5000000000001,7) rotate(270) translate(0,3)" style="font-family: sans-serif; font-size: 10px; fill: #000; opacity: 1;">theamericanmirror.com</text><text text-anchor="end" transform="translate(723.5000000000001,7) rotate(270) translate(0,3)" style="font-family: sans-serif; font-size: 10px; fill: #000; opacity: 1;">thecivilian.co.nz</text><text text-anchor="end" transform="translate(744.5000000000001,7) rotate(270) translate(0,3)" style="font-family: sans-serif; font-size: 10px; fill: #000; opacity: 1;">theconservativetreehouse.com</text><text text-anchor="end" transform="translate(765.5000000000001,7) rotate(270) translate(0,3)" style="font-family: sans-serif; font-size: 10px; fill: #000; opacity: 1;">thedailybell.com</text><text text-anchor="end" transform="translate(786.5000000000001,7) rotate(270) translate(0,3)" style="font-family: sans-serif; font-size: 10px; fill: #000; opacity: 1;">thegoldwater.com</text><text text-anchor="end" transform="translate(807.5000000000001,7) rotate(270) translate(0,3)" style="font-family: sans-serif; font-size: 10px; fill: #000; opacity: 1;">thenewinquiry.com</text><text text-anchor="end" transform="translate(828.5000000000001,7) rotate(270) translate(0,3)" style="font-family: sans-serif; font-size: 10px; fill: #000; opacity: 1;">theopenscroll.blogspot.com</text><text text-anchor="end" transform="translate(849.5000000000001,7) rotate(270) translate(0,3)" style="font-family: sans-serif; font-size: 10px; fill: #000; opacity: 1;">theorganicprepper.ca</text><text text-anchor="end" transform="translate(870.5000000000001,7) rotate(270) translate(0,3)" style="font-family: sans-serif; font-size: 10px; fill: #000; opacity: 1;">thepeoplescube.com</text><text text-anchor="end" transform="translate(891.5000000000001,7) rotate(270) translate(0,3)" style="font-family: sans-serif; font-size: 10px; fill: #000; opacity: 1;">thepostemail.com</text><text text-anchor="end" transform="translate(912.5000000000001,7) rotate(270) translate(0,3)" style="font-family: sans-serif; font-size: 10px; fill: #000; opacity: 1;">therebel.media</text><text text-anchor="end" transform="translate(933.5000000000001,7) rotate(270) translate(0,3)" style="font-family: sans-serif; font-size: 10px; fill: #000; opacity: 1;">therundownlive.com</text><text text-anchor="end" transform="translate(954.5000000000001,7) rotate(270) translate(0,3)" style="font-family: sans-serif; font-size: 10px; fill: #000; opacity: 1;">therussophile.org</text><text text-anchor="end" transform="translate(975.5000000000001,7) rotate(270) translate(0,3)" style="font-family: sans-serif; font-size: 10px; fill: #000; opacity: 1;">thesaker.is</text><text text-anchor="end" transform="translate(996.5000000000001,7) rotate(270) translate(0,3)" style="font-family: sans-serif; font-size: 10px; fill: #000; opacity: 1;">thesleuthjournal.com</text><text text-anchor="end" transform="translate(1017.5000000000001,7) rotate(270) translate(0,3)" style="font-family: sans-serif; font-size: 10px; fill: #000; opacity: 1;">thirdworldtraveler.com</text><text text-anchor="end" transform="translate(1038.5000000000002,7) rotate(270) translate(0,3)" style="font-family: sans-serif; font-size: 10px; fill: #000; opacity: 1;">thrivemovement.com</text><text text-anchor="end" transform="translate(1059.5000000000002,7) rotate(270) translate(0,3)" style="font-family: sans-serif; font-size: 10px; fill: #000; opacity: 1;">toprightnews.com</text><text text-anchor="end" transform="translate(1080.5000000000002,7) rotate(270) translate(0,3)" style="font-family: sans-serif; font-size: 10px; fill: #000; opacity: 1;">tribuneherald.net</text><text text-anchor="end" transform="translate(1101.5000000000002,7) rotate(270) translate(0,3)" style="font-family: sans-serif; font-size: 10px; fill: #000; opacity: 1;">tribunist.com</text><text text-anchor="end" transform="translate(1122.5000000000002,7) rotate(270) translate(0,3)" style="font-family: sans-serif; font-size: 10px; fill: #000; opacity: 1;">trueeconomics.blogspot.com</text><text text-anchor="end" transform="translate(1143.5000000000002,7) rotate(270) translate(0,3)" style="font-family: sans-serif; font-size: 10px; fill: #000; opacity: 1;">trunews.com</text><text text-anchor="end" transform="translate(1164.5000000000002,7) rotate(270) translate(0,3)" style="font-family: sans-serif; font-size: 10px; fill: #000; opacity: 1;">truthingold.com</text><text text-anchor="end" transform="translate(1185.5000000000002,7) rotate(270) translate(0,3)" style="font-family: sans-serif; font-size: 10px; fill: #000; opacity: 1;">truthnetwork.com</text><text text-anchor="end" transform="translate(1206.5000000000002,7) rotate(270) translate(0,3)" style="font-family: sans-serif; font-size: 10px; fill: #000; opacity: 1;">tyronetribulations.com</text><text text-anchor="end" transform="translate(1227.5000000000002,7) rotate(270) translate(0,3)" style="font-family: sans-serif; font-size: 10px; fill: #000; opacity: 1;">undergroundhealth.com</text><text text-anchor="end" transform="translate(1248.5000000000002,7) rotate(270) translate(0,3)" style="font-family: sans-serif; font-size: 10px; fill: #000; opacity: 1;">unionleader.com</text><text text-anchor="end" transform="translate(1269.5000000000002,7) rotate(270) translate(0,3)" style="font-family: sans-serif; font-size: 10px; fill: #000; opacity: 1;">wealthwire.com</text><text text-anchor="end" transform="translate(1290.5000000000002,7) rotate(270) translate(0,3)" style="font-family: sans-serif; font-size: 10px; fill: #000; opacity: 1;">world24monitor.com</text><text text-anchor="end" transform="translate(1311.5000000000002,7) rotate(270) translate(0,3)" style="font-family: sans-serif; font-size: 10px; fill: #000; opacity: 1;">worlddaily.info</text></g><g class="mark-rule role-axis-domain" style="pointer-events: none;"><line transform="translate(0,0)" x2="1323" y2="0" style="fill: none; stroke: #888; stroke-width: 1; opacity: 1;"></line></g><g class="mark-text role-axis-title" style="pointer-events: none;"><text text-anchor="middle" transform="translate(661.5,157.1865234375)" style="font-family: sans-serif; font-size: 11px; font-weight: bold; fill: #000; opacity: 1;">domains</text></g></g></g></g><g class="mark-group role-axis"><g transform="translate(0.5,0.5)"><path class="background" d="M0,0h0v0h0Z" style="pointer-events: none; fill: none;"></path><g><g class="mark-rule role-axis-tick" style="pointer-events: none;"><line transform="translate(0,300)" x2="-5" y2="0" style="fill: none; stroke: #888; stroke-width: 1; opacity: 1;"></line><line transform="translate(0,263)" x2="-5" y2="0" style="fill: none; stroke: #888; stroke-width: 1; opacity: 1;"></line><line transform="translate(0,225)" x2="-5" y2="0" style="fill: none; stroke: #888; stroke-width: 1; opacity: 1;"></line><line transform="translate(0,188)" x2="-5" y2="0" style="fill: none; stroke: #888; stroke-width: 1; opacity: 1;"></line><line transform="translate(0,150)" x2="-5" y2="0" style="fill: none; stroke: #888; stroke-width: 1; opacity: 1;"></line><line transform="translate(0,113)" x2="-5" y2="0" style="fill: none; stroke: #888; stroke-width: 1; opacity: 1;"></line><line transform="translate(0,75)" x2="-5" y2="0" style="fill: none; stroke: #888; stroke-width: 1; opacity: 1;"></line><line transform="translate(0,38)" x2="-5" y2="0" style="fill: none; stroke: #888; stroke-width: 1; opacity: 1;"></line><line transform="translate(0,0)" x2="-5" y2="0" style="fill: none; stroke: #888; stroke-width: 1; opacity: 1;"></line></g><g class="mark-text role-axis-label" style="pointer-events: none;"><text text-anchor="end" transform="translate(-7,303)" style="font-family: sans-serif; font-size: 10px; fill: #000; opacity: 1;">0</text><text text-anchor="end" transform="translate(-7,265.5)" style="font-family: sans-serif; font-size: 10px; fill: #000; opacity: 1;">5,000</text><text text-anchor="end" transform="translate(-7,228)" style="font-family: sans-serif; font-size: 10px; fill: #000; opacity: 1;">10,000</text><text text-anchor="end" transform="translate(-7,190.5)" style="font-family: sans-serif; font-size: 10px; fill: #000; opacity: 1;">15,000</text><text text-anchor="end" transform="translate(-7,153)" style="font-family: sans-serif; font-size: 10px; fill: #000; opacity: 1;">20,000</text><text text-anchor="end" transform="translate(-7,115.5)" style="font-family: sans-serif; font-size: 10px; fill: #000; opacity: 1;">25,000</text><text text-anchor="end" transform="translate(-7,78)" style="font-family: sans-serif; font-size: 10px; fill: #000; opacity: 1;">30,000</text><text text-anchor="end" transform="translate(-7,40.5)" style="font-family: sans-serif; font-size: 10px; fill: #000; opacity: 1;">35,000</text><text text-anchor="end" transform="translate(-7,3)" style="font-family: sans-serif; font-size: 10px; fill: #000; opacity: 1;">40,000</text></g><g class="mark-rule role-axis-domain" style="pointer-events: none;"><line transform="translate(0,300)" x2="0" y2="-300" style="fill: none; stroke: #888; stroke-width: 1; opacity: 1;"></line></g><g class="mark-text role-axis-title" style="pointer-events: none;"><text text-anchor="middle" transform="translate(-42.5859375,150) rotate(-90) translate(0,-2)" style="font-family: sans-serif; font-size: 11px; font-weight: bold; fill: #000; opacity: 1;">Count</text></g></g></g></g></g></g></g></g></svg>