<svg class="marks" width="2151" height="471" viewBox="0 0 2151 471" version="1.1" xmlns="http://www.w3.org/2000/svg" xmlns:xlink="http://www.w3.org/1999/xlink"><g transform="translate(67,11)"><g class="mark-group role-frame root"><g transform="translate(0,0)"><path class="background" d="M0.5,0.5h2079v300h-2079Z" style="fill: none; stroke: #ddd;"></path><g><g class="mark-group role-axis"><g transform="translate(0.5,0.5)"><path class="background" d="M0,0h0v0h0Z" style="pointer-events: none; fill: none;"></path><g><g class="mark-rule role-axis-grid" style="pointer-events: none;"><line transform="translate(0,300)" x2="2079" y2="0" style="fill: none; stroke: #ddd; stroke-width: 1; opacity: 1;"></line><line transform="translate(0,257)" x2="2079" y2="0" style="fill: none; stroke: #ddd; stroke-width: 1; opacity: 1;"></line><line transform="translate(0,214)" x2="2079" y2="0" style="fill: none; stroke: #ddd; stroke-width: 1; opacity: 1;"></line><line transform="translate(0,171)" x2="2079" y2="0" style="fill: none; stroke: #ddd; stroke-width: 1; opacity: 1;"></line><line transform="translate(0,129)" x2="2079" y2="0" style="fill: none; stroke: #ddd; stroke-width: 1; opacity: 1;"></line><line transform="translate(0,86)" x2="2079" y2="0" style="fill: none; stroke: #ddd; stroke-width: 1; opacity: 1;"></line><line transform="translate(0,43)" x2="2079" y2="0" style="fill: none; stroke: #ddd; stroke-width: 1; opacity: 1;"></line><line transform="translate(0,0)" x2="2079" y2="0" style="fill: none; stroke: #ddd; stroke-width: 1; opacity: 1;"></line></g></g></g></g><g class="mark-rect role-mark marks"><path d="M757.05,299.9995714285714h18.900000000000002v0.00042857142858565567h-18.900000000000002Z" style="fill: #4c78a8;"></path><path d="M1912.05,299.99485714285714h18.900000000000002v0.005142857142857338h-18.900000000000002Z" style="fill: #4c78a8;"></path><path d="M1324.05,299.9725714285714h18.900000000000002v0.027428571428572468h-18.900000000000002Z" style="fill: #4c78a8;"></path><path d="M1660.05,299.9164285714286h18.900000000000002v0.08357142857141753h-18.900000000000002Z" style="fill: #4c78a8;"></path><path d="M1765.05,299.9987142857143h18.900000000000002v0.0012857142857001236h-18.900000000000002Z" style="fill: #4c78a8;"></path><path d="M1786.05,299.5015714285714h18.900000000000002v0.4984285714285761h-18.900000000000002Z" style="fill: #4c78a8;"></path><path d="M841.05,299.84742857142857h18.900000000000002v0.15257142857143435h-18.900000000000002Z" style="fill: #4c78a8;"></path><path d="M1177.05,299.95414285714287h18.900000000000002v0.045857142857130384h-18.900000000000002Z" style="fill: #4c78a8;"></path><path d="M2059.05,299.9884285714286h18.900000000000002v0.011571428571414799h-18.900000000000002Z" style="fill: #4c78a8;"></path><path d="M1723.05,299.9995714285714h18.900000000000002v0.00042857142858565567h-18.900000000000002Z" style="fill: #4c78a8;"></path><path d="M253.04999999999995,299.9991428571429h18.900000000000002v0.0008571428571144679h-18.900000000000002Z" style="fill: #4c78a8;"></path><path d="M379.04999999999995,299.8697142857143h18.900000000000002v0.13028571428571922h-18.900000000000002Z" style="fill: #4c78a8;"></path><path d="M1576.05,299.98285714285714h18.900000000000002v0.017142857142857792h-18.900000000000002Z" style="fill: #4c78a8;"></path><path d="M1828.05,299.99357142857144h18.900000000000002v0.006428571428557461h-18.900000000000002Z" style="fill: #4c78a8;"></path><path d="M211.04999999999995,298.98214285714283h18.900000000000002v1.0178571428571672h-18.900000000000002Z" style="fill: #4c78a8;"></path><path d="M1849.05,299.9391428571429h18.900000000000002v0.06085714285711674h-18.900000000000002Z" style="fill: #4c78a8;"></path><path d="M1534.05,298.8115714285714h18.900000000000002v1.1884285714285738h-18.900000000000002Z" style="fill: #4c78a8;"></path><path d="M463.04999999999995,299.9524285714286h18.900000000000002v0.04757142857141616h-18.900000000000002Z" style="fill: #4c78a8;"></path><path d="M883.05,299.9995714285714h18.900000000000002v0.00042857142858565567h-18.900000000000002Z" style="fill: #4c78a8;"></path><path d="M1.0499999999999545,299.6134285714286h18.900000000000002v0.3865714285714148h-18.900000000000002Z" style="fill: #4c78a8;"></path><path d="M820.05,299.9995714285714h18.900000000000002v0.00042857142858565567h-18.900000000000002Z" style="fill: #4c78a8;"></path><path d="M1303.05,299.9982857142857h18.900000000000002v0.0017142857142857792h-18.900000000000002Z" style="fill: #4c78a8;"></path><path d="M1933.05,299.86071428571427h18.900000000000002v0.13928571428573377h-18.900000000000002Z" style="fill: #4c78a8;"></path><path d="M358.04999999999995,299.9485714285714h18.900000000000002v0.05142857142857338h-18.900000000000002Z" style="fill: #4c78a8;"></path><path d="M904.05,297.8712857142857h18.900000000000002v2.1287142857142953h-18.900000000000002Z" style="fill: #4c78a8;"></path><path d="M631.05,299.96485714285717h18.900000000000002v0.03514285714283005h-18.900000000000002Z" style="fill: #4c78a8;"></path><path d="M190.04999999999995,299.991h18.900000000000002v0.009000000000014552h-18.900000000000002Z" style="fill: #4c78a8;"></path><path d="M1513.05,298.59985714285716h18.900000000000002v1.4001428571428391h-18.900000000000002Z" style="fill: #4c78a8;"></path><path d="M232.04999999999995,295.5407142857143h18.900000000000002v4.459285714285727h-18.900000000000002Z" style="fill: #4c78a8;"></path><path d="M1702.05,299.9892857142857h18.900000000000002v0.010714285714300331h-18.900000000000002Z" style="fill: #4c78a8;"></path><path d="M568.05,299.9044285714286h18.900000000000002v0.09557142857141798h-18.900000000000002Z" style="fill: #4c78a8;"></path><path d="M106.04999999999995,7.394142857142867h18.900000000000002v292.60585714285713h-18.900000000000002Z" style="fill: #4c78a8;"></path><path d="M1555.05,299.9995714285714h18.900000000000002v0.00042857142858565567h-18.900000000000002Z" style="fill: #4c78a8;"></path><path d="M64.04999999999995,299.99014285714287h18.900000000000002v0.00985714285712902h-18.900000000000002Z" style="fill: #4c78a8;"></path><path d="M715.05,299.997h18.900000000000002v0.002999999999985903h-18.900000000000002Z" style="fill: #4c78a8;"></path><path d="M652.05,299.9717142857143h18.900000000000002v0.028285714285686936h-18.900000000000002Z" style="fill: #4c78a8;"></path><path d="M1345.05,299.66957142857143h18.900000000000002v0.33042857142856974h-18.900000000000002Z" style="fill: #4c78a8;"></path><path d="M22.049999999999955,299.91685714285717h18.900000000000002v0.08314285714283187h-18.900000000000002Z" style="fill: #4c78a8;"></path><path d="M295.04999999999995,299.9267142857143h18.900000000000002v0.07328571428570285h-18.900000000000002Z" style="fill: #4c78a8;"></path><path d="M1240.05,299.9995714285714h18.900000000000002v0.00042857142858565567h-18.900000000000002Z" style="fill: #4c78a8;"></path><path d="M274.04999999999995,299.763h18.900000000000002v0.2370000000000232h-18.900000000000002Z" style="fill: #4c78a8;"></path><path d="M1996.05,299.6712857142857h18.900000000000002v0.32871428571428396h-18.900000000000002Z" style="fill: #4c78a8;"></path><path d="M1597.05,292.38685714285714h18.900000000000002v7.613142857142861h-18.900000000000002Z" style="fill: #4c78a8;"></path><path d="M1975.05,299.967h18.900000000000002v0.03300000000001546h-18.900000000000002Z" style="fill: #4c78a8;"></path><path d="M1891.05,299.98028571428574h18.900000000000002v0.01971428571425804h-18.900000000000002Z" style="fill: #4c78a8;"></path><path d="M946.05,299.98285714285714h18.900000000000002v0.017142857142857792h-18.900000000000002Z" style="fill: #4c78a8;"></path><path d="M1681.05,299.9734285714286h18.900000000000002v0.026571428571401157h-18.900000000000002Z" style="fill: #4c78a8;"></path><path d="M799.05,299.99442857142856h18.900000000000002v0.005571428571442993h-18.900000000000002Z" style="fill: #4c78a8;"></path><path d="M2017.05,299.9952857142857h18.900000000000002v0.004714285714271682h-18.900000000000002Z" style="fill: #4c78a8;"></path><path d="M1219.05,299.5774285714286h18.900000000000002v0.42257142857141616h-18.900000000000002Z" style="fill: #4c78a8;"></path><path d="M148.04999999999995,299.9995714285714h18.900000000000002v0.00042857142858565567h-18.900000000000002Z" style="fill: #4c78a8;"></path><path d="M1450.05,299.98414285714284h18.900000000000002v0.01585714285715767h-18.900000000000002Z" style="fill: #4c78a8;"></path><path d="M400.04999999999995,299.45785714285716h18.900000000000002v0.542142857142835h-18.900000000000002Z" style="fill: #4c78a8;"></path><path d="M1282.05,299.991h18.900000000000002v0.009000000000014552h-18.900000000000002Z" style="fill: #4c78a8;"></path><path d="M1807.05,299.9995714285714h18.900000000000002v0.00042857142858565567h-18.900000000000002Z" style="fill: #4c78a8;"></path><path d="M673.05,299.98285714285714h18.900000000000002v0.017142857142857792h-18.900000000000002Z" style="fill: #4c78a8;"></path><path d="M127.04999999999995,299.9995714285714h18.900000000000002v0.00042857142858565567h-18.900000000000002Z" style="fill: #4c78a8;"></path><path d="M862.05,299.1634285714286h18.900000000000002v0.8365714285714034h-18.900000000000002Z" style="fill: #4c78a8;"></path><path d="M1429.05,296.81271428571426h18.900000000000002v3.1872857142857356h-18.900000000000002Z" style="fill: #4c78a8;"></path><path d="M1051.05,299.7437142857143h18.900000000000002v0.2562857142856956h-18.900000000000002Z" style="fill: #4c78a8;"></path><path d="M484.04999999999995,299.84614285714287h18.900000000000002v0.15385714285713448h-18.900000000000002Z" style="fill: #4c78a8;"></path><path d="M1387.05,299.6498571428571h18.900000000000002v0.3501428571428846h-18.900000000000002Z" style="fill: #4c78a8;"></path><path d="M442.04999999999995,299.931h18.900000000000002v0.06900000000001683h-18.900000000000002Z" style="fill: #4c78a8;"></path><path d="M1408.05,298.35685714285717h18.900000000000002v1.6431428571428341h-18.900000000000002Z" style="fill: #4c78a8;"></path><path d="M43.049999999999955,299.98028571428574h18.900000000000002v0.01971428571425804h-18.900000000000002Z" style="fill: #4c78a8;"></path><path d="M1618.05,299.89628571428574h18.900000000000002v0.10371428571426122h-18.900000000000002Z" style="fill: #4c78a8;"></path><path d="M1870.05,299.98285714285714h18.900000000000002v0.017142857142857792h-18.900000000000002Z" style="fill: #4c78a8;"></path><path d="M778.05,299.9884285714286h18.900000000000002v0.011571428571414799h-18.900000000000002Z" style="fill: #4c78a8;"></path><path d="M316.04999999999995,299.9035714285714h18.900000000000002v0.0964285714285893h-18.900000000000002Z" style="fill: #4c78a8;"></path><path d="M505.04999999999995,299.616h18.900000000000002v0.38400000000001455h-18.900000000000002Z" style="fill: #4c78a8;"></path><path d="M337.04999999999995,299.9022857142857h18.900000000000002v0.09771428571428942h-18.900000000000002Z" style="fill: #4c78a8;"></path><path d="M421.04999999999995,299.9875714285714h18.900000000000002v0.01242857142858611h-18.900000000000002Z" style="fill: #4c78a8;"></path><path d="M925.05,299.9875714285714h18.900000000000002v0.01242857142858611h-18.900000000000002Z" style="fill: #4c78a8;"></path><path d="M589.05,299.9952857142857h18.900000000000002v0.004714285714271682h-18.900000000000002Z" style="fill: #4c78a8;"></path><path d="M1009.05,299.8174285714286h18.900000000000002v0.18257142857140707h-18.900000000000002Z" style="fill: #4c78a8;"></path><path d="M610.05,299.9974285714286h18.900000000000002v0.002571428571400247h-18.900000000000002Z" style="fill: #4c78a8;"></path><path d="M1471.05,292.62h18.900000000000002v7.3799999999999955h-18.900000000000002Z" style="fill: #4c78a8;"></path><path d="M694.05,299.9755714285714h18.900000000000002v0.024428571428586565h-18.900000000000002Z" style="fill: #4c78a8;"></path><path d="M988.05,299.9854285714286h18.900000000000002v0.014571428571400702h-18.900000000000002Z" style="fill: #4c78a8;"></path><path d="M1366.05,299.88471428571427h18.900000000000002v0.11528571428573287h-18.900000000000002Z" style="fill: #4c78a8;"></path><path d="M1135.05,299.98414285714284h18.900000000000002v0.01585714285715767h-18.900000000000002Z" style="fill: #4c78a8;"></path><path d="M1261.05,299.955h18.900000000000002v0.045000000000015916h-18.900000000000002Z" style="fill: #4c78a8;"></path><path d="M1030.05,299.9035714285714h18.900000000000002v0.0964285714285893h-18.900000000000002Z" style="fill: #4c78a8;"></path><path d="M967.05,299.9352857142857h18.900000000000002v0.06471428571427396h-18.900000000000002Z" style="fill: #4c78a8;"></path><path d="M1114.05,299.847h18.900000000000002v0.15300000000002h-18.900000000000002Z" style="fill: #4c78a8;"></path><path d="M169.04999999999995,299.9987142857143h18.900000000000002v0.0012857142857001236h-18.900000000000002Z" style="fill: #4c78a8;"></path><path d="M1198.05,299.97085714285714h18.900000000000002v0.029142857142858247h-18.900000000000002Z" style="fill: #4c78a8;"></path><path d="M1156.05,299.88471428571427h18.900000000000002v0.11528571428573287h-18.900000000000002Z" style="fill: #4c78a8;"></path><path d="M1072.05,299.99485714285714h18.900000000000002v0.005142857142857338h-18.900000000000002Z" style="fill: #4c78a8;"></path><path d="M1093.05,299.9982857142857h18.900000000000002v0.0017142857142857792h-18.900000000000002Z" style="fill: #4c78a8;"></path><path d="M1492.05,299.93357142857144h18.900000000000002v0.06642857142855974h-18.900000000000002Z" style="fill: #4c78a8;"></path><path d="M1954.05,299.9884285714286h18.900000000000002v0.011571428571414799h-18.900000000000002Z" style="fill: #4c78a8;"></path><path d="M736.05,299.97857142857146h18.900000000000002v0.02142857142854382h-18.900000000000002Z" style="fill: #4c78a8;"></path><path d="M1639.05,299.958h18.900000000000002v0.04199999999997317h-18.900000000000002Z" style="fill: #4c78a8;"></path><path d="M85.04999999999995,299.9995714285714h18.900000000000002v0.00042857142858565567h-18.900000000000002Z" style="fill: #4c78a8;"></path><path d="M1744.05,299.9982857142857h18.900000000000002v0.0017142857142857792h-18.900000000000002Z" style="fill: #4c78a8;"></path><path d="M2038.05,299.9995714285714h18.900000000000002v0.00042857142858565567h-18.900000000000002Z" style="fill: #4c78a8;"></path><path d="M526.05,299.97814285714287h18.900000000000002v0.021857142857129475h-18.900000000000002Z" style="fill: #4c78a8;"></path><path d="M547.05,299.98885714285717h18.900000000000002v0.011142857142829143h-18.900000000000002Z" style="fill: #4c78a8;"></path></g><g class="mark-group role-axis"><g transform="translate(0.5,300.5)"><path class="background" d="M0,0h0v0h0Z" style="pointer-events: none; fill: none;"></path><g><g class="mark-rule role-axis-tick" style="pointer-events: none;"><line transform="translate(9,0)" x2="0" y2="5" style="fill: none; stroke: #888; stroke-width: 1; opacity: 1;"></line><line transform="translate(30,0)" x2="0" y2="5" style="fill: none; stroke: #888; stroke-width: 1; opacity: 1;"></line><line transform="translate(51,0)" x2="0" y2="5" style="fill: none; stroke: #888; stroke-width: 1; opacity: 1;"></line><line transform="translate(72,0)" x2="0" y2="5" style="fill: none; stroke: #888; stroke-width: 1; opacity: 1;"></line><line transform="translate(93,0)" x2="0" y2="5" style="fill: none; stroke: #888; stroke-width: 1; opacity: 1;"></line><line transform="translate(114,0)" x2="0" y2="5" style="fill: none; stroke: #888; stroke-width: 1; opacity: 1;"></line><line transform="translate(135,0)" x2="0" y2="5" style="fill: none; stroke: #888; stroke-width: 1; opacity: 1;"></line><line transform="translate(156,0)" x2="0" y2="5" style="fill: none; stroke: #888; stroke-width: 1; opacity: 1;"></line><line transform="translate(177,0)" x2="0" y2="5" style="fill: none; stroke: #888; stroke-width: 1; opacity: 1;"></line><line transform="translate(198,0)" x2="0" y2="5" style="fill: none; stroke: #888; stroke-width: 1; opacity: 1;"></line><line transform="translate(219,0)" x2="0" y2="5" style="fill: none; stroke: #888; stroke-width: 1; opacity: 1;"></line><line transform="translate(240,0)" x2="0" y2="5" style="fill: none; stroke: #888; stroke-width: 1; opacity: 1;"></line><line transform="translate(261,0)" x2="0" y2="5" style="fill: none; stroke: #888; stroke-width: 1; opacity: 1;"></line><line transform="translate(282,0)" x2="0" y2="5" style="fill: none; stroke: #888; stroke-width: 1; opacity: 1;"></line><line transform="translate(303,0)" x2="0" y2="5" style="fill: none; stroke: #888; stroke-width: 1; opacity: 1;"></line><line transform="translate(324,0)" x2="0" y2="5" style="fill: none; stroke: #888; stroke-width: 1; opacity: 1;"></line><line transform="translate(345,0)" x2="0" y2="5" style="fill: none; stroke: #888; stroke-width: 1; opacity: 1;"></line><line transform="translate(366,0)" x2="0" y2="5" style="fill: none; stroke: #888; stroke-width: 1; opacity: 1;"></line><line transform="translate(387,0)" x2="0" y2="5" style="fill: none; stroke: #888; stroke-width: 1; opacity: 1;"></line><line transform="translate(408,0)" x2="0" y2="5" style="fill: none; stroke: #888; stroke-width: 1; opacity: 1;"></line><line transform="translate(429,0)" x2="0" y2="5" style="fill: none; stroke: #888; stroke-width: 1; opacity: 1;"></line><line transform="translate(450,0)" x2="0" y2="5" style="fill: none; stroke: #888; stroke-width: 1; opacity: 1;"></line><line transform="translate(471,0)" x2="0" y2="5" style="fill: none; stroke: #888; stroke-width: 1; opacity: 1;"></line><line transform="translate(492,0)" x2="0" y2="5" style="fill: none; stroke: #888; stroke-width: 1; opacity: 1;"></line><line transform="translate(514,0)" x2="0" y2="5" style="fill: none; stroke: #888; stroke-width: 1; opacity: 1;"></line><line transform="translate(535,0)" x2="0" y2="5" style="fill: none; stroke: #888; stroke-width: 1; opacity: 1;"></line><line transform="translate(556,0)" x2="0" y2="5" style="fill: none; stroke: #888; stroke-width: 1; opacity: 1;"></line><line transform="translate(577,0)" x2="0" y2="5" style="fill: none; stroke: #888; stroke-width: 1; opacity: 1;"></line><line transform="translate(598,0)" x2="0" y2="5" style="fill: none; stroke: #888; stroke-width: 1; opacity: 1;"></line><line transform="translate(619,0)" x2="0" y2="5" style="fill: none; stroke: #888; stroke-width: 1; opacity: 1;"></line><line transform="translate(640,0)" x2="0" y2="5" style="fill: none; stroke: #888; stroke-width: 1; opacity: 1;"></line><line transform="translate(661,0)" x2="0" y2="5" style="fill: none; stroke: #888; stroke-width: 1; opacity: 1;"></line><line transform="translate(682,0)" x2="0" y2="5" style="fill: none; stroke: #888; stroke-width: 1; opacity: 1;"></line><line transform="translate(703,0)" x2="0" y2="5" style="fill: none; stroke: #888; stroke-width: 1; opacity: 1;"></line><line transform="translate(724,0)" x2="0" y2="5" style="fill: none; stroke: #888; stroke-width: 1; opacity: 1;"></line><line transform="translate(745,0)" x2="0" y2="5" style="fill: none; stroke: #888; stroke-width: 1; opacity: 1;"></line><line transform="translate(766,0)" x2="0" y2="5" style="fill: none; stroke: #888; stroke-width: 1; opacity: 1;"></line><line transform="translate(787,0)" x2="0" y2="5" style="fill: none; stroke: #888; stroke-width: 1; opacity: 1;"></line><line transform="translate(808,0)" x2="0" y2="5" style="fill: none; stroke: #888; stroke-width: 1; opacity: 1;"></line><line transform="translate(829,0)" x2="0" y2="5" style="fill: none; stroke: #888; stroke-width: 1; opacity: 1;"></line><line transform="translate(850,0)" x2="0" y2="5" style="fill: none; stroke: #888; stroke-width: 1; opacity: 1;"></line><line transform="translate(871,0)" x2="0" y2="5" style="fill: none; stroke: #888; stroke-width: 1; opacity: 1;"></line><line transform="translate(892,0)" x2="0" y2="5" style="fill: none; stroke: #888; stroke-width: 1; opacity: 1;"></line><line transform="translate(913,0)" x2="0" y2="5" style="fill: none; stroke: #888; stroke-width: 1; opacity: 1;"></line><line transform="translate(934,0)" x2="0" y2="5" style="fill: none; stroke: #888; stroke-width: 1; opacity: 1;"></line><line transform="translate(955,0)" x2="0" y2="5" style="fill: none; stroke: #888; stroke-width: 1; opacity: 1;"></line><line transform="translate(976,0)" x2="0" y2="5" style="fill: none; stroke: #888; stroke-width: 1; opacity: 1;"></line><line transform="translate(997,0)" x2="0" y2="5" style="fill: none; stroke: #888; stroke-width: 1; opacity: 1;"></line><line transform="translate(1018,0)" x2="0" y2="5" style="fill: none; stroke: #888; stroke-width: 1; opacity: 1;"></line><line transform="translate(1039,0)" x2="0" y2="5" style="fill: none; stroke: #888; stroke-width: 1; opacity: 1;"></line><line transform="translate(1060,0)" x2="0" y2="5" style="fill: none; stroke: #888; stroke-width: 1; opacity: 1;"></line><line transform="translate(1081,0)" x2="0" y2="5" style="fill: none; stroke: #888; stroke-width: 1; opacity: 1;"></line><line transform="translate(1102,0)" x2="0" y2="5" style="fill: none; stroke: #888; stroke-width: 1; opacity: 1;"></line><line transform="translate(1123,0)" x2="0" y2="5" style="fill: none; stroke: #888; stroke-width: 1; opacity: 1;"></line><line transform="translate(1144,0)" x2="0" y2="5" style="fill: none; stroke: #888; stroke-width: 1; opacity: 1;"></line><line transform="translate(1165,0)" x2="0" y2="5" style="fill: none; stroke: #888; stroke-width: 1; opacity: 1;"></line><line transform="translate(1186,0)" x2="0" y2="5" style="fill: none; stroke: #888; stroke-width: 1; opacity: 1;"></line><line transform="translate(1207,0)" x2="0" y2="5" style="fill: none; stroke: #888; stroke-width: 1; opacity: 1;"></line><line transform="translate(1228,0)" x2="0" y2="5" style="fill: none; stroke: #888; stroke-width: 1; opacity: 1;"></line><line transform="translate(1249,0)" x2="0" y2="5" style="fill: none; stroke: #888; stroke-width: 1; opacity: 1;"></line><line transform="translate(1270,0)" x2="0" y2="5" style="fill: none; stroke: #888; stroke-width: 1; opacity: 1;"></line><line transform="translate(1291,0)" x2="0" y2="5" style="fill: none; stroke: #888; stroke-width: 1; opacity: 1;"></line><line transform="translate(1312,0)" x2="0" y2="5" style="fill: none; stroke: #888; stroke-width: 1; opacity: 1;"></line><line transform="translate(1333,0)" x2="0" y2="5" style="fill: none; stroke: #888; stroke-width: 1; opacity: 1;"></line><line transform="translate(1354,0)" x2="0" y2="5" style="fill: none; stroke: #888; stroke-width: 1; opacity: 1;"></line><line transform="translate(1375,0)" x2="0" y2="5" style="fill: none; stroke: #888; stroke-width: 1; opacity: 1;"></line><line transform="translate(1396,0)" x2="0" y2="5" style="fill: none; stroke: #888; stroke-width: 1; opacity: 1;"></line><line transform="translate(1417,0)" x2="0" y2="5" style="fill: none; stroke: #888; stroke-width: 1; opacity: 1;"></line><line transform="translate(1438,0)" x2="0" y2="5" style="fill: none; stroke: #888; stroke-width: 1; opacity: 1;"></line><line transform="translate(1459,0)" x2="0" y2="5" style="fill: none; stroke: #888; stroke-width: 1; opacity: 1;"></line><line transform="translate(1480,0)" x2="0" y2="5" style="fill: none; stroke: #888; stroke-width: 1; opacity: 1;"></line><line transform="translate(1501,0)" x2="0" y2="5" style="fill: none; stroke: #888; stroke-width: 1; opacity: 1;"></line><line transform="translate(1522,0)" x2="0" y2="5" style="fill: none; stroke: #888; stroke-width: 1; opacity: 1;"></line><line transform="translate(1543,0)" x2="0" y2="5" style="fill: none; stroke: #888; stroke-width: 1; opacity: 1;"></line><line transform="translate(1564,0)" x2="0" y2="5" style="fill: none; stroke: #888; stroke-width: 1; opacity: 1;"></line><line transform="translate(1585,0)" x2="0" y2="5" style="fill: none; stroke: #888; stroke-width: 1; opacity: 1;"></line><line transform="translate(1606,0)" x2="0" y2="5" style="fill: none; stroke: #888; stroke-width: 1; opacity: 1;"></line><line transform="translate(1627,0)" x2="0" y2="5" style="fill: none; stroke: #888; stroke-width: 1; opacity: 1;"></line><line transform="translate(1648,0)" x2="0" y2="5" style="fill: none; stroke: #888; stroke-width: 1; opacity: 1;"></line><line transform="translate(1669,0)" x2="0" y2="5" style="fill: none; stroke: #888; stroke-width: 1; opacity: 1;"></line><line transform="translate(1690,0)" x2="0" y2="5" style="fill: none; stroke: #888; stroke-width: 1; opacity: 1;"></line><line transform="translate(1711,0)" x2="0" y2="5" style="fill: none; stroke: #888; stroke-width: 1; opacity: 1;"></line><line transform="translate(1732,0)" x2="0" y2="5" style="fill: none; stroke: #888; stroke-width: 1; opacity: 1;"></line><line transform="translate(1753,0)" x2="0" y2="5" style="fill: none; stroke: #888; stroke-width: 1; opacity: 1;"></line><line transform="translate(1774,0)" x2="0" y2="5" style="fill: none; stroke: #888; stroke-width: 1; opacity: 1;"></line><line transform="translate(1795,0)" x2="0" y2="5" style="fill: none; stroke: #888; stroke-width: 1; opacity: 1;"></line><line transform="translate(1816,0)" x2="0" y2="5" style="fill: none; stroke: #888; stroke-width: 1; opacity: 1;"></line><line transform="translate(1837,0)" x2="0" y2="5" style="fill: none; stroke: #888; stroke-width: 1; opacity: 1;"></line><line transform="translate(1858,0)" x2="0" y2="5" style="fill: none; stroke: #888; stroke-width: 1; opacity: 1;"></line><line transform="translate(1879,0)" x2="0" y2="5" style="fill: none; stroke: #888; stroke-width: 1; opacity: 1;"></line><line transform="translate(1900,0)" x2="0" y2="5" style="fill: none; stroke: #888; stroke-width: 1; opacity: 1;"></line><line transform="translate(1921,0)" x2="0" y2="5" style="fill: none; stroke: #888; stroke-width: 1; opacity: 1;"></line><line transform="translate(1942,0)" x2="0" y2="5" style="fill: none; stroke: #888; stroke-width: 1; opacity: 1;"></line><line transform="translate(1963,0)" x2="0" y2="5" style="fill: none; stroke: #888; stroke-width: 1; opacity: 1;"></line><line transform="translate(1984,0)" x2="0" y2="5" style="fill: none; stroke: #888; stroke-width: 1; opacity: 1;"></line><line transform="translate(2005,0)" x2="0" y2="5" style="fill: none; stroke: #888; stroke-width: 1; opacity: 1;"></line><line transform="translate(2026,0)" x2="0" y2="5" style="fill: none; stroke: #888; stroke-width: 1; opacity: 1;"></line><line transform="translate(2047,0)" x2="0" y2="5" style="fill: none; stroke: #888; stroke-width: 1; opacity: 1;"></line><line transform="translate(2068,0)" x2="0" y2="5" style="fill: none; stroke: #888; stroke-width: 1; opacity: 1;"></line></g><g class="mark-text role-axis-label" style="pointer-events: none;"><text text-anchor="end" transform="translate(9.499999999999956,7) rotate(270) translate(0,3)" style="font-family: sans-serif; font-size: 10px; fill: #000; opacity: 1;">70news.wordpress.com</text><text text-anchor="end" transform="translate(30.499999999999957,7) rotate(270) translate(0,3)" style="font-family: sans-serif; font-size: 10px; fill: #000; opacity: 1;">americannews.com</text><text text-anchor="end" transform="translate(51.49999999999996,7) rotate(270) translate(0,3)" style="font-family: sans-serif; font-size: 10px; fill: #000; opacity: 1;">americanoverlook.com</text><text text-anchor="end" transform="translate(72.49999999999996,7) rotate(270) translate(0,3)" style="font-family: sans-serif; font-size: 10px; fill: #000; opacity: 1;">anonjekloy.tk</text><text text-anchor="end" transform="translate(93.49999999999996,7) rotate(270) translate(0,3)" style="font-family: sans-serif; font-size: 10px; fill: #000; opacity: 1;">aurora-news.us</text><text text-anchor="end" transform="translate(114.49999999999996,7) rotate(270) translate(0,3)" style="font-family: sans-serif; font-size: 10px; fill: #000; opacity: 1;">beforeitsnews.com</text><text text-anchor="end" transform="translate(135.49999999999994,7) rotate(270) translate(0,3)" style="font-family: sans-serif; font-size: 10px; fill: #000; opacity: 1;">bighairynews.com</text><text text-anchor="end" transform="translate(156.49999999999994,7) rotate(270) translate(0,3)" style="font-family: sans-serif; font-size: 10px; fill: #000; opacity: 1;">bostonleader.com</text><text text-anchor="end" transform="translate(177.49999999999994,7) rotate(270) translate(0,3)" style="font-family: sans-serif; font-size: 10px; fill: #000; opacity: 1;">channel18news.com</text><text text-anchor="end" transform="translate(198.49999999999994,7) rotate(270) translate(0,3)" style="font-family: sans-serif; font-size: 10px; fill: #000; opacity: 1;">civictribune.com</text><text text-anchor="end" transform="translate(219.49999999999994,7) rotate(270) translate(0,3)" style="font-family: sans-serif; font-size: 10px; fill: #000; opacity: 1;">clashdaily.com</text><text text-anchor="end" transform="translate(240.49999999999994,7) rotate(270) translate(0,3)" style="font-family: sans-serif; font-size: 10px; fill: #000; opacity: 1;">coed.com</text><text text-anchor="end" transform="translate(261.49999999999994,7) rotate(270) translate(0,3)" style="font-family: sans-serif; font-size: 10px; fill: #000; opacity: 1;">conservativebyte.com</text><text text-anchor="end" transform="translate(282.49999999999994,7) rotate(270) translate(0,3)" style="font-family: sans-serif; font-size: 10px; fill: #000; opacity: 1;">conservativedailypost.com</text><text text-anchor="end" transform="translate(303.49999999999994,7) rotate(270) translate(0,3)" style="font-family: sans-serif; font-size: 10px; fill: #000; opacity: 1;">conservativefighters.com</text><text text-anchor="end" transform="translate(324.49999999999994,7) rotate(270) translate(0,3)" style="font-family: sans-serif; font-size: 10px; fill: #000; opacity: 1;">dailybuzzlive.com</text><text text-anchor="end" transform="translate(345.49999999999994,7) rotate(270) translate(0,3)" style="font-family: sans-serif; font-size: 10px; fill: #000; opacity: 1;">dailyheadlines.com</text><text text-anchor="end" transform="translate(366.49999999999994,7) rotate(270) translate(0,3)" style="font-family: sans-serif; font-size: 10px; fill: #000; opacity: 1;">dailyheadlines.net</text><text text-anchor="end" transform="translate(387.49999999999994,7) rotate(270) translate(0,3)" style="font-family: sans-serif; font-size: 10px; fill: #000; opacity: 1;">dailysurge.com</text><text text-anchor="end" transform="translate(408.49999999999994,7) rotate(270) translate(0,3)" style="font-family: sans-serif; font-size: 10px; fill: #000; opacity: 1;">dcgazette.com</text><text text-anchor="end" transform="translate(429.49999999999994,7) rotate(270) translate(0,3)" style="font-family: sans-serif; font-size: 10px; fill: #000; opacity: 1;">donaldtrumpnews.co</text><text text-anchor="end" transform="translate(450.49999999999994,7) rotate(270) translate(0,3)" style="font-family: sans-serif; font-size: 10px; fill: #000; opacity: 1;">downtrend.com</text><text text-anchor="end" transform="translate(471.49999999999994,7) rotate(270) translate(0,3)" style="font-family: sans-serif; font-size: 10px; fill: #000; opacity: 1;">empireherald.com</text><text text-anchor="end" transform="translate(492.49999999999994,7) rotate(270) translate(0,3)" style="font-family: sans-serif; font-size: 10px; fill: #000; opacity: 1;">empirenews.net</text><text text-anchor="end" transform="translate(513.5,7) rotate(270) translate(0,3)" style="font-family: sans-serif; font-size: 10px; fill: #000; opacity: 1;">enduringvision.com</text><text text-anchor="end" transform="translate(534.5,7) rotate(270) translate(0,3)" style="font-family: sans-serif; font-size: 10px; fill: #000; opacity: 1;">enhlive.com</text><text text-anchor="end" transform="translate(555.5,7) rotate(270) translate(0,3)" style="font-family: sans-serif; font-size: 10px; fill: #000; opacity: 1;">flashnewscorner.com</text><text text-anchor="end" transform="translate(576.5,7) rotate(270) translate(0,3)" style="font-family: sans-serif; font-size: 10px; fill: #000; opacity: 1;">freedomdaily.com</text><text text-anchor="end" transform="translate(597.5,7) rotate(270) translate(0,3)" style="font-family: sans-serif; font-size: 10px; fill: #000; opacity: 1;">globalpoliticsnow.com</text><text text-anchor="end" transform="translate(618.5,7) rotate(270) translate(0,3)" style="font-family: sans-serif; font-size: 10px; fill: #000; opacity: 1;">goneleft.com</text><text text-anchor="end" transform="translate(639.5,7) rotate(270) translate(0,3)" style="font-family: sans-serif; font-size: 10px; fill: #000; opacity: 1;">gopthedailydose.com</text><text text-anchor="end" transform="translate(660.5,7) rotate(270) translate(0,3)" style="font-family: sans-serif; font-size: 10px; fill: #000; opacity: 1;">healthycareandbeauty.com</text><text text-anchor="end" transform="translate(681.5,7) rotate(270) translate(0,3)" style="font-family: sans-serif; font-size: 10px; fill: #000; opacity: 1;">intrendtoday.com</text><text text-anchor="end" transform="translate(702.5,7) rotate(270) translate(0,3)" style="font-family: sans-serif; font-size: 10px; fill: #000; opacity: 1;">itaglive.com</text><text text-anchor="end" transform="translate(723.5,7) rotate(270) translate(0,3)" style="font-family: sans-serif; font-size: 10px; fill: #000; opacity: 1;">krbcnews.com</text><text text-anchor="end" transform="translate(744.5,7) rotate(270) translate(0,3)" style="font-family: sans-serif; font-size: 10px; fill: #000; opacity: 1;">learnprogress.org</text><text text-anchor="end" transform="translate(765.5,7) rotate(270) translate(0,3)" style="font-family: sans-serif; font-size: 10px; fill: #000; opacity: 1;">libertyalliance.com</text><text text-anchor="end" transform="translate(786.5,7) rotate(270) translate(0,3)" style="font-family: sans-serif; font-size: 10px; fill: #000; opacity: 1;">metropolitanworlds.com</text><text text-anchor="end" transform="translate(807.5,7) rotate(270) translate(0,3)" style="font-family: sans-serif; font-size: 10px; fill: #000; opacity: 1;">news4ktla.com</text><text text-anchor="end" transform="translate(828.5,7) rotate(270) translate(0,3)" style="font-family: sans-serif; font-size: 10px; fill: #000; opacity: 1;">newsbreakshere.com</text><text text-anchor="end" transform="translate(849.5,7) rotate(270) translate(0,3)" style="font-family: sans-serif; font-size: 10px; fill: #000; opacity: 1;">newsfrompolitics.com</text><text text-anchor="end" transform="translate(870.5,7) rotate(270) translate(0,3)" style="font-family: sans-serif; font-size: 10px; fill: #000; opacity: 1;">newslo.com</text><text text-anchor="end" transform="translate(891.5,7) rotate(270) translate(0,3)" style="font-family: sans-serif; font-size: 10px; fill: #000; opacity: 1;">newsmagazine.com</text><text text-anchor="end" transform="translate(912.5,7) rotate(270) translate(0,3)" style="font-family: sans-serif; font-size: 10px; fill: #000; opacity: 1;">newswithviews.com</text><text text-anchor="end" transform="translate(933.5,7) rotate(270) translate(0,3)" style="font-family: sans-serif; font-size: 10px; fill: #000; opacity: 1;">now8news.com</text><text text-anchor="end" transform="translate(954.5,7) rotate(270) translate(0,3)" style="font-family: sans-serif; font-size: 10px; fill: #000; opacity: 1;">onepoliticalplaza.com</text><text text-anchor="end" transform="translate(975.5,7) rotate(270) translate(0,3)" style="font-family: sans-serif; font-size: 10px; fill: #000; opacity: 1;">onlineconservativepress.com</text><text text-anchor="end" transform="translate(996.5,7) rotate(270) translate(0,3)" style="font-family: sans-serif; font-size: 10px; fill: #000; opacity: 1;">openmagazines.com</text><text text-anchor="end" transform="translate(1017.5,7) rotate(270) translate(0,3)" style="font-family: sans-serif; font-size: 10px; fill: #000; opacity: 1;">politicalsitenews.com</text><text text-anchor="end" transform="translate(1038.5,7) rotate(270) translate(0,3)" style="font-family: sans-serif; font-size: 10px; fill: #000; opacity: 1;">president45donaldtrump.com</text><text text-anchor="end" transform="translate(1059.5,7) rotate(270) translate(0,3)" style="font-family: sans-serif; font-size: 10px; fill: #000; opacity: 1;">prntly.com</text><text text-anchor="end" transform="translate(1080.5,7) rotate(270) translate(0,3)" style="font-family: sans-serif; font-size: 10px; fill: #000; opacity: 1;">proamericanews.com</text><text text-anchor="end" transform="translate(1101.5,7) rotate(270) translate(0,3)" style="font-family: sans-serif; font-size: 10px; fill: #000; opacity: 1;">proudcons.com</text><text text-anchor="end" transform="translate(1122.5,7) rotate(270) translate(0,3)" style="font-family: sans-serif; font-size: 10px; fill: #000; opacity: 1;">realnewsrightnow.com</text><text text-anchor="end" transform="translate(1143.5,7) rotate(270) translate(0,3)" style="font-family: sans-serif; font-size: 10px; fill: #000; opacity: 1;">redcountry.us</text><text text-anchor="end" transform="translate(1164.5,7) rotate(270) translate(0,3)" style="font-family: sans-serif; font-size: 10px; fill: #000; opacity: 1;">redrocktribune.com</text><text text-anchor="end" transform="translate(1185.5,7) rotate(270) translate(0,3)" style="font-family: sans-serif; font-size: 10px; fill: #000; opacity: 1;">religionmind.com</text><text text-anchor="end" transform="translate(1206.5,7) rotate(270) translate(0,3)" style="font-family: sans-serif; font-size: 10px; fill: #000; opacity: 1;">rhotv.com</text><text text-anchor="end" transform="translate(1227.5,7) rotate(270) translate(0,3)" style="font-family: sans-serif; font-size: 10px; fill: #000; opacity: 1;">rickwells.us</text><text text-anchor="end" transform="translate(1248.5,7) rotate(270) translate(0,3)" style="font-family: sans-serif; font-size: 10px; fill: #000; opacity: 1;">rogue-nation3.com</text><text text-anchor="end" transform="translate(1269.5,7) rotate(270) translate(0,3)" style="font-family: sans-serif; font-size: 10px; fill: #000; opacity: 1;">smag31.com</text><text text-anchor="end" transform="translate(1290.5,7) rotate(270) translate(0,3)" style="font-family: sans-serif; font-size: 10px; fill: #000; opacity: 1;">stormcloudsgathering.com</text><text text-anchor="end" transform="translate(1311.5,7) rotate(270) translate(0,3)" style="font-family: sans-serif; font-size: 10px; fill: #000; opacity: 1;">subjectpolitics.com</text><text text-anchor="end" transform="translate(1332.5,7) rotate(270) translate(0,3)" style="font-family: sans-serif; font-size: 10px; fill: #000; opacity: 1;">success-street.com</text><text text-anchor="end" transform="translate(1353.5,7) rotate(270) translate(0,3)" style="font-family: sans-serif; font-size: 10px; fill: #000; opacity: 1;">teaparty.org</text><text text-anchor="end" transform="translate(1374.5,7) rotate(270) translate(0,3)" style="font-family: sans-serif; font-size: 10px; fill: #000; opacity: 1;">thebigriddle.com</text><text text-anchor="end" transform="translate(1395.5,7) rotate(270) translate(0,3)" style="font-family: sans-serif; font-size: 10px; fill: #000; opacity: 1;">thecommonsenseshow.com</text><text text-anchor="end" transform="translate(1416.5,7) rotate(270) translate(0,3)" style="font-family: sans-serif; font-size: 10px; fill: #000; opacity: 1;">thefreepatriot.org</text><text text-anchor="end" transform="translate(1437.5,7) rotate(270) translate(0,3)" style="font-family: sans-serif; font-size: 10px; fill: #000; opacity: 1;">theinternetpost.net</text><text text-anchor="end" transform="translate(1458.5,7) rotate(270) translate(0,3)" style="font-family: sans-serif; font-size: 10px; fill: #000; opacity: 1;">thelastgreatstand.com</text><text text-anchor="end" transform="translate(1479.5,7) rotate(270) translate(0,3)" style="font-family: sans-serif; font-size: 10px; fill: #000; opacity: 1;">thenet24h.com</text><text text-anchor="end" transform="translate(1500.5,7) rotate(270) translate(0,3)" style="font-family: sans-serif; font-size: 10px; fill: #000; opacity: 1;">thenewyorkevening.com</text><text text-anchor="end" transform="translate(1521.5,7) rotate(270) translate(0,3)" style="font-family: sans-serif; font-size: 10px; fill: #000; opacity: 1;">therightscoop.com</text><text text-anchor="end" transform="translate(1542.5,7) rotate(270) translate(0,3)" style="font-family: sans-serif; font-size: 10px; fill: #000; opacity: 1;">thetruthdivision.com</text><text text-anchor="end" transform="translate(1563.5,7) rotate(270) translate(0,3)" style="font-family: sans-serif; font-size: 10px; fill: #000; opacity: 1;">thetruthseeker.co.uk</text><text text-anchor="end" transform="translate(1584.5,7) rotate(270) translate(0,3)" style="font-family: sans-serif; font-size: 10px; fill: #000; opacity: 1;">thewashingtonpress.com</text><text text-anchor="end" transform="translate(1605.5,7) rotate(270) translate(0,3)" style="font-family: sans-serif; font-size: 10px; fill: #000; opacity: 1;">threepercenternation.com</text><text text-anchor="end" transform="translate(1626.5,7) rotate(270) translate(0,3)" style="font-family: sans-serif; font-size: 10px; fill: #000; opacity: 1;">universepolitics.com</text><text text-anchor="end" transform="translate(1647.5,7) rotate(270) translate(0,3)" style="font-family: sans-serif; font-size: 10px; fill: #000; opacity: 1;">usa-television.com</text><text text-anchor="end" transform="translate(1668.5,7) rotate(270) translate(0,3)" style="font-family: sans-serif; font-size: 10px; fill: #000; opacity: 1;">usadailytime.com</text><text text-anchor="end" transform="translate(1689.5,7) rotate(270) translate(0,3)" style="font-family: sans-serif; font-size: 10px; fill: #000; opacity: 1;">usadosenews.com</text><text text-anchor="end" transform="translate(1710.5,7) rotate(270) translate(0,3)" style="font-family: sans-serif; font-size: 10px; fill: #000; opacity: 1;">usafirstinformation.com</text><text text-anchor="end" transform="translate(1731.5,7) rotate(270) translate(0,3)" style="font-family: sans-serif; font-size: 10px; fill: #000; opacity: 1;">usanewsflash.com</text><text text-anchor="end" transform="translate(1752.5,7) rotate(270) translate(0,3)" style="font-family: sans-serif; font-size: 10px; fill: #000; opacity: 1;">usaphase.com</text><text text-anchor="end" transform="translate(1773.5,7) rotate(270) translate(0,3)" style="font-family: sans-serif; font-size: 10px; fill: #000; opacity: 1;">usapoliticszone.com</text><text text-anchor="end" transform="translate(1794.5,7) rotate(270) translate(0,3)" style="font-family: sans-serif; font-size: 10px; fill: #000; opacity: 1;">usasupreme.com</text><text text-anchor="end" transform="translate(1815.5,7) rotate(270) translate(0,3)" style="font-family: sans-serif; font-size: 10px; fill: #000; opacity: 1;">usatoday.com.co</text><text text-anchor="end" transform="translate(1836.5,7) rotate(270) translate(0,3)" style="font-family: sans-serif; font-size: 10px; fill: #000; opacity: 1;">usatwentyfour.com</text><text text-anchor="end" transform="translate(1857.5,7) rotate(270) translate(0,3)" style="font-family: sans-serif; font-size: 10px; fill: #000; opacity: 1;">ushealthyadvisor.com</text><text text-anchor="end" transform="translate(1878.5,7) rotate(270) translate(0,3)" style="font-family: sans-serif; font-size: 10px; fill: #000; opacity: 1;">usinfonews.com</text><text text-anchor="end" transform="translate(1899.5,7) rotate(270) translate(0,3)" style="font-family: sans-serif; font-size: 10px; fill: #000; opacity: 1;">uspoliticslive.com</text><text text-anchor="end" transform="translate(1920.5,7) rotate(270) translate(0,3)" style="font-family: sans-serif; font-size: 10px; fill: #000; opacity: 1;">uspoln.com</text><text text-anchor="end" transform="translate(1941.5,7) rotate(270) translate(0,3)" style="font-family: sans-serif; font-size: 10px; fill: #000; opacity: 1;">vigilantcitizen.com</text><text text-anchor="end" transform="translate(1962.5,7) rotate(270) translate(0,3)" style="font-family: sans-serif; font-size: 10px; fill: #000; opacity: 1;">viralactions.com</text><text text-anchor="end" transform="translate(1983.5,7) rotate(270) translate(0,3)" style="font-family: sans-serif; font-size: 10px; fill: #000; opacity: 1;">viralliberty.com</text><text text-anchor="end" transform="translate(2004.5,7) rotate(270) translate(0,3)" style="font-family: sans-serif; font-size: 10px; fill: #000; opacity: 1;">weeklyworldnews.com</text><text text-anchor="end" transform="translate(2025.5,7) rotate(270) translate(0,3)" style="font-family: sans-serif; font-size: 10px; fill: #000; opacity: 1;">worldpoliticsnow.com</text><text text-anchor="end" transform="translate(2046.5,7) rotate(270) translate(0,3)" style="font-family: sans-serif; font-size: 10px; fill: #000; opacity: 1;">wtoe5news.com</text><text text-anchor="end" transform="translate(2067.5,7) rotate(270) translate(0,3)" style="font-family: sans-serif; font-size: 10px; fill: #000; opacity: 1;">yesimright.com</text></g><g class="mark-rule role-axis-domain" style="pointer-events: none;"><line transform="translate(0,0)" x2="2079" y2="0" style="fill: none; stroke: #888; stroke-width: 1; opacity: 1;"></line></g><g class="mark-text role-axis-title" style="pointer-events: none;"><text text-anchor="middle" transform="translate(1039.5,150.521484375)" style="font-family: sans-serif; font-size: 11px; font-weight: bold; fill: #000; opacity: 1;">domains</text></g></g></g></g><g class="mark-group role-axis"><g transform="translate(0.5,0.5)"><path class="background" d="M0,0h0v0h0Z" style="pointer-events: none; fill: none;"></path><g><g class="mark-rule role-axis-tick" style="pointer-events: none;"><line transform="translate(0,300)" x2="-5" y2="0" style="fill: none; stroke: #888; stroke-width: 1; opacity: 1;"></line><line transform="translate(0,257)" x2="-5" y2="0" style="fill: none; stroke: #888; stroke-width: 1; opacity: 1;"></line><line transform="translate(0,214)" x2="-5" y2="0" style="fill: none; stroke: #888; stroke-width: 1; opacity: 1;"></line><line transform="translate(0,171)" x2="-5" y2="0" style="fill: none; stroke: #888; stroke-width: 1; opacity: 1;"></line><line transform="translate(0,129)" x2="-5" y2="0" style="fill: none; stroke: #888; stroke-width: 1; opacity: 1;"></line><line transform="translate(0,86)" x2="-5" y2="0" style="fill: none; stroke: #888; stroke-width: 1; opacity: 1;"></line><line transform="translate(0,43)" x2="-5" y2="0" style="fill: none; stroke: #888; stroke-width: 1; opacity: 1;"></line><line transform="translate(0,0)" x2="-5" y2="0" style="fill: none; stroke: #888; stroke-width: 1; opacity: 1;"></line></g><g class="mark-text role-axis-label" style="pointer-events: none;"><text text-anchor="end" transform="translate(-7,303)" style="font-family: sans-serif; font-size: 10px; fill: #000; opacity: 1;">0</text><text text-anchor="end" transform="translate(-7,260.14285714285717)" style="font-family: sans-serif; font-size: 10px; fill: #000; opacity: 1;">100,000</text><text text-anchor="end" transform="translate(-7,217.28571428571428)" style="font-family: sans-serif; font-size: 10px; fill: #000; opacity: 1;">200,000</text><text text-anchor="end" transform="translate(-7,174.42857142857144)" style="font-family: sans-serif; font-size: 10px; fill: #000; opacity: 1;">300,000</text><text text-anchor="end" transform="translate(-7,131.57142857142858)" style="font-family: sans-serif; font-size: 10px; fill: #000; opacity: 1;">400,000</text><text text-anchor="end" transform="translate(-7,88.71428571428572)" style="font-family: sans-serif; font-size: 10px; fill: #000; opacity: 1;">500,000</text><text text-anchor="end" transform="translate(-7,45.85714285714289)" style="font-family: sans-serif; font-size: 10px; fill: #000; opacity: 1;">600,000</text><text text-anchor="end" transform="translate(-7,3)" style="font-family: sans-serif; font-size: 10px; fill: #000; opacity: 1;">700,000</text></g><g class="mark-rule role-axis-domain" style="pointer-events: none;"><line transform="translate(0,300)" x2="0" y2="-300" style="fill: none; stroke: #888; stroke-width: 1; opacity: 1;"></line></g><g class="mark-text role-axis-title" style="pointer-events: none;"><text text-anchor="middle" transform="translate(-48.1474609375,150) rotate(-90) translate(0,-2)" style="font-family: sans-serif; font-size: 11px; font-weight: bold; fill: #000; opacity: 1;">Count</text></g></g></g></g></g></g></g></g></svg>