<svg class="marks" width="309" height="395" viewBox="0 0 309 395" version="1.1" xmlns="http://www.w3.org/2000/svg" xmlns:xlink="http://www.w3.org/1999/xlink"><g transform="translate(52,11)"><g class="mark-group role-frame root"><g transform="translate(0,0)"><path class="background" d="M0.5,0.5h252v300h-252Z" style="fill: none; stroke: #ddd;"></path><g><g class="mark-group role-axis"><g transform="translate(0.5,0.5)"><path class="background" d="M0,0h0v0h0Z" style="pointer-events: none; fill: none;"></path><g><g class="mark-rule role-axis-grid" style="pointer-events: none;"><line transform="translate(0,300)" x2="252" y2="0" style="fill: none; stroke: #ddd; stroke-width: 1; opacity: 1;"></line><line transform="translate(0,263)" x2="252" y2="0" style="fill: none; stroke: #ddd; stroke-width: 1; opacity: 1;"></line><line transform="translate(0,225)" x2="252" y2="0" style="fill: none; stroke: #ddd; stroke-width: 1; opacity: 1;"></line><line transform="translate(0,188)" x2="252" y2="0" style="fill: none; stroke: #ddd; stroke-width: 1; opacity: 1;"></line><line transform="translate(0,150)" x2="252" y2="0" style="fill: none; stroke: #ddd; stroke-width: 1; opacity: 1;"></line><line transform="translate(0,113)" x2="252" y2="0" style="fill: none; stroke: #ddd; stroke-width: 1; opacity: 1;"></line><line transform="translate(0,75)" x2="252" y2="0" style="fill: none; stroke: #ddd; stroke-width: 1; opacity: 1;"></line><line transform="translate(0,38)" x2="252" y2="0" style="fill: none; stroke: #ddd; stroke-width: 1; opacity: 1;"></line><line transform="translate(0,0)" x2="252" y2="0" style="fill: none; stroke: #ddd; stroke-width: 1; opacity: 1;"></line></g></g></g></g><g class="mark-rule role-mark layer_0_marks"><line transform="translate(220.5,230.28409090909093)" x2="0" y2="-60.17045454545456" style="fill: none; stroke: black;"></line><line transform="translate(115.5,254.38815789473685)" x2="0" y2="-70.63815789473685" style="fill: none; stroke: black;"></line><line transform="translate(52.5,255.30766171792155)" x2="0" y2="-71.28459703075293" style="fill: none; stroke: black;"></line><line transform="translate(73.5,234)" x2="0" y2="-54" style="fill: none; stroke: black;"></line><line transform="translate(241.5,179.96428571428572)" x2="0" y2="-65.67857142857144" style="fill: none; stroke: black;"></line><line transform="translate(94.5,194.46589931153187)" x2="0" y2="-42.75096815834772" style="fill: none; stroke: black;"></line><line transform="translate(31.5,215.15625)" x2="0" y2="-44.15625" style="fill: none; stroke: black;"></line><line transform="translate(178.5,194.37500000000003)" x2="0" y2="-46.87500000000003" style="fill: none; stroke: black;"></line><line transform="translate(157.5,213.21428571428572)" x2="0" y2="-40.71428571428572" style="fill: none; stroke: black;"></line><line transform="translate(10.499999999999998,239.85452586206895)" x2="0" y2="-63.47521551724137" style="fill: none; stroke: black;"></line><line transform="translate(199.5,219.40732758620692)" x2="0" y2="-42.76939655172413" style="fill: none; stroke: black;"></line><line transform="translate(136.5,216.25)" x2="0" y2="-57.75" style="fill: none; stroke: black;"></line></g><g class="mark-rect role-mark layer_1_marks"><path d="M218,82.03125h5v88.08238636363637h-5Z" style="fill: #4c78a8;"></path><path d="M113,85.35714285714286h5v98.39285714285714h-5Z" style="fill: #4c78a8;"></path><path d="M50,82.5h5v101.52306468716861h-5Z" style="fill: #4c78a8;"></path><path d="M71,105h5v75h-5Z" style="fill: #4c78a8;"></path><path d="M239,70.5h5v43.78571428571428h-5Z" style="fill: #4c78a8;"></path><path d="M92,94.01629983388702h5v57.698631319297135h-5Z" style="fill: #4c78a8;"></path><path d="M29,99.55882352941174h5v71.44117647058826h-5Z" style="fill: #4c78a8;"></path><path d="M176,81.1764705882353h5v66.3235294117647h-5Z" style="fill: #4c78a8;"></path><path d="M155,113.33333333333334h5v59.16666666666666h-5Z" style="fill: #4c78a8;"></path><path d="M7.999999999999998,92.61627906976742h5v83.76303127506017h-5Z" style="fill: #4c78a8;"></path><path d="M197,103.5h5v73.13793103448279h-5Z" style="fill: #4c78a8;"></path><path d="M134,89.37500000000003h5v69.12499999999997h-5Z" style="fill: #4c78a8;"></path></g><g class="mark-rule role-mark layer_2_marks"><line transform="translate(220.5,10.078125)" x2="0" y2="71.953125" style="fill: none; stroke: black;"></line><line transform="translate(115.5,8.406015037593932)" x2="0" y2="76.95112781954893" style="fill: none; stroke: black;"></line><line transform="translate(52.5,1.5000000000000568)" x2="0" y2="80.99999999999994" style="fill: none; stroke: black;"></line><line transform="translate(73.5,46.5)" x2="0" y2="58.5" style="fill: none; stroke: black;"></line><line transform="translate(241.5,70.5)" x2="0" y2="0" style="fill: none; stroke: black;"></line><line transform="translate(94.5,50.219321013289004)" x2="0" y2="43.796978820598014" style="fill: none; stroke: black;"></line><line transform="translate(31.5,36.55330882352939)" x2="0" y2="63.00551470588235" style="fill: none; stroke: black;"></line><line transform="translate(178.5,28.56617647058829)" x2="0" y2="52.610294117647015" style="fill: none; stroke: black;"></line><line transform="translate(157.5,65.2976190476191)" x2="0" y2="48.03571428571425" style="fill: none; stroke: black;"></line><line transform="translate(10.499999999999998,30.446947674418595)" x2="0" y2="62.16933139534882" style="fill: none; stroke: black;"></line><line transform="translate(199.5,36.5625)" x2="0" y2="66.9375" style="fill: none; stroke: black;"></line><line transform="translate(136.5,43.43750000000006)" x2="0" y2="45.93749999999997" style="fill: none; stroke: black;"></line></g><g class="mark-rect role-mark layer_3_marks"><path d="M218,129.5h5v1h-5Z" style="fill: white; opacity: 0.7;"></path><path d="M113,136.1578947368421h5v1h-5Z" style="fill: white; opacity: 0.7;"></path><path d="M50,136h5v1h-5Z" style="fill: white; opacity: 0.7;"></path><path d="M71,143.5h5v1h-5Z" style="fill: white; opacity: 0.7;"></path><path d="M239,70h5v1h-5Z" style="fill: white; opacity: 0.7;"></path><path d="M92,122.71428571428572h5v1h-5Z" style="fill: white; opacity: 0.7;"></path><path d="M29,141.0625h5v1h-5Z" style="fill: white; opacity: 0.7;"></path><path d="M176,115.75h5v1h-5Z" style="fill: white; opacity: 0.7;"></path><path d="M155,144.85714285714283h5v1h-5Z" style="fill: white; opacity: 0.7;"></path><path d="M7.999999999999998,133.5625h5v1h-5Z" style="fill: white; opacity: 0.7;"></path><path d="M197,147.625h5v1h-5Z" style="fill: white; opacity: 0.7;"></path><path d="M134,119.5h5v1h-5Z" style="fill: white; opacity: 0.7;"></path></g><g class="mark-group role-axis"><g transform="translate(0.5,300.5)"><path class="background" d="M0,0h0v0h0Z" style="pointer-events: none; fill: none;"></path><g><g class="mark-rule role-axis-tick" style="pointer-events: none;"><line transform="translate(9,0)" x2="0" y2="5" style="fill: none; stroke: #888; stroke-width: 1; opacity: 1;"></line><line transform="translate(31,0)" x2="0" y2="5" style="fill: none; stroke: #888; stroke-width: 1; opacity: 1;"></line><line transform="translate(52,0)" x2="0" y2="5" style="fill: none; stroke: #888; stroke-width: 1; opacity: 1;"></line><line transform="translate(73,0)" x2="0" y2="5" style="fill: none; stroke: #888; stroke-width: 1; opacity: 1;"></line><line transform="translate(94,0)" x2="0" y2="5" style="fill: none; stroke: #888; stroke-width: 1; opacity: 1;"></line><line transform="translate(115,0)" x2="0" y2="5" style="fill: none; stroke: #888; stroke-width: 1; opacity: 1;"></line><line transform="translate(136,0)" x2="0" y2="5" style="fill: none; stroke: #888; stroke-width: 1; opacity: 1;"></line><line transform="translate(157,0)" x2="0" y2="5" style="fill: none; stroke: #888; stroke-width: 1; opacity: 1;"></line><line transform="translate(178,0)" x2="0" y2="5" style="fill: none; stroke: #888; stroke-width: 1; opacity: 1;"></line><line transform="translate(199,0)" x2="0" y2="5" style="fill: none; stroke: #888; stroke-width: 1; opacity: 1;"></line><line transform="translate(220,0)" x2="0" y2="5" style="fill: none; stroke: #888; stroke-width: 1; opacity: 1;"></line><line transform="translate(241,0)" x2="0" y2="5" style="fill: none; stroke: #888; stroke-width: 1; opacity: 1;"></line></g><g class="mark-text role-axis-label" style="pointer-events: none;"><text text-anchor="end" transform="translate(9.499999999999998,7) rotate(270) translate(0,3)" style="font-family: sans-serif; font-size: 10px; fill: #000; opacity: 1;">bias</text><text text-anchor="end" transform="translate(30.5,7) rotate(270) translate(0,3)" style="font-family: sans-serif; font-size: 10px; fill: #000; opacity: 1;">clickbait</text><text text-anchor="end" transform="translate(51.5,7) rotate(270) translate(0,3)" style="font-family: sans-serif; font-size: 10px; fill: #000; opacity: 1;">conspiracy</text><text text-anchor="end" transform="translate(72.5,7) rotate(270) translate(0,3)" style="font-family: sans-serif; font-size: 10px; fill: #000; opacity: 1;">fake</text><text text-anchor="end" transform="translate(93.5,7) rotate(270) translate(0,3)" style="font-family: sans-serif; font-size: 10px; fill: #000; opacity: 1;">hate</text><text text-anchor="end" transform="translate(114.5,7) rotate(270) translate(0,3)" style="font-family: sans-serif; font-size: 10px; fill: #000; opacity: 1;">junksci</text><text text-anchor="end" transform="translate(135.5,7) rotate(270) translate(0,3)" style="font-family: sans-serif; font-size: 10px; fill: #000; opacity: 1;">political</text><text text-anchor="end" transform="translate(156.5,7) rotate(270) translate(0,3)" style="font-family: sans-serif; font-size: 10px; fill: #000; opacity: 1;">reliable</text><text text-anchor="end" transform="translate(177.5,7) rotate(270) translate(0,3)" style="font-family: sans-serif; font-size: 10px; fill: #000; opacity: 1;">rumor</text><text text-anchor="end" transform="translate(198.5,7) rotate(270) translate(0,3)" style="font-family: sans-serif; font-size: 10px; fill: #000; opacity: 1;">satire</text><text text-anchor="end" transform="translate(219.5,7) rotate(270) translate(0,3)" style="font-family: sans-serif; font-size: 10px; fill: #000; opacity: 1;">unknown</text><text text-anchor="end" transform="translate(240.5,7) rotate(270) translate(0,3)" style="font-family: sans-serif; font-size: 10px; fill: #000; opacity: 1;">unreliable</text></g><g class="mark-rule role-axis-domain" style="pointer-events: none;"><line transform="translate(0,0)" x2="252" y2="0" style="fill: none; stroke: #888; stroke-width: 1; opacity: 1;"></line></g><g class="mark-text role-axis-title" style="pointer-events: none;"><text text-anchor="middle" transform="translate(126,75)" style="font-family: sans-serif; font-size: 11px; font-weight: bold; fill: #000; opacity: 1;">type</text></g></g></g></g><g class="mark-group role-axis"><g transform="translate(0.5,0.5)"><path class="background" d="M0,0h0v0h0Z" style="pointer-events: none; fill: none;"></path><g><g class="mark-rule role-axis-tick" style="pointer-events: none;"><line transform="translate(0,300)" x2="-5" y2="0" style="fill: none; stroke: #888; stroke-width: 1; opacity: 1;"></line><line transform="translate(0,263)" x2="-5" y2="0" style="fill: none; stroke: #888; stroke-width: 1; opacity: 1;"></line><line transform="translate(0,225)" x2="-5" y2="0" style="fill: none; stroke: #888; stroke-width: 1; opacity: 1;"></line><line transform="translate(0,188)" x2="-5" y2="0" style="fill: none; stroke: #888; stroke-width: 1; opacity: 1;"></line><line transform="translate(0,150)" x2="-5" y2="0" style="fill: none; stroke: #888; stroke-width: 1; opacity: 1;"></line><line transform="translate(0,113)" x2="-5" y2="0" style="fill: none; stroke: #888; stroke-width: 1; opacity: 1;"></line><line transform="translate(0,75)" x2="-5" y2="0" style="fill: none; stroke: #888; stroke-width: 1; opacity: 1;"></line><line transform="translate(0,38)" x2="-5" y2="0" style="fill: none; stroke: #888; stroke-width: 1; opacity: 1;"></line><line transform="translate(0,0)" x2="-5" y2="0" style="fill: none; stroke: #888; stroke-width: 1; opacity: 1;"></line></g><g class="mark-text role-axis-label" style="pointer-events: none;"><text text-anchor="end" transform="translate(-7,303)" style="font-family: sans-serif; font-size: 10px; fill: #000; opacity: 1;">0</text><text text-anchor="end" transform="translate(-7,265.5)" style="font-family: sans-serif; font-size: 10px; fill: #000; opacity: 1;">5</text><text text-anchor="end" transform="translate(-7,228)" style="font-family: sans-serif; font-size: 10px; fill: #000; opacity: 1;">10</text><text text-anchor="end" transform="translate(-7,190.5)" style="font-family: sans-serif; font-size: 10px; fill: #000; opacity: 1;">15</text><text text-anchor="end" transform="translate(-7,153)" style="font-family: sans-serif; font-size: 10px; fill: #000; opacity: 1;">20</text><text text-anchor="end" transform="translate(-7,115.5)" style="font-family: sans-serif; font-size: 10px; fill: #000; opacity: 1;">25</text><text text-anchor="end" transform="translate(-7,78)" style="font-family: sans-serif; font-size: 10px; fill: #000; opacity: 1;">30</text><text text-anchor="end" transform="translate(-7,40.5)" style="font-family: sans-serif; font-size: 10px; fill: #000; opacity: 1;">35</text><text text-anchor="end" transform="translate(-7,3)" style="font-family: sans-serif; font-size: 10px; fill: #000; opacity: 1;">40</text></g><g class="mark-rule role-axis-domain" style="pointer-events: none;"><line transform="translate(0,300)" x2="0" y2="-300" style="fill: none; stroke: #888; stroke-width: 1; opacity: 1;"></line></g><g class="mark-text role-axis-title" style="pointer-events: none;"><text text-anchor="middle" transform="translate(-34,150) rotate(-90) translate(0,-2)" style="font-family: sans-serif; font-size: 11px; font-weight: bold; fill: #000; opacity: 1;">Average Sentence Length</text></g></g></g></g></g></g></g></g></svg>