<svg class="marks" width="309" height="395" viewBox="0 0 309 395" version="1.1" xmlns="http://www.w3.org/2000/svg" xmlns:xlink="http://www.w3.org/1999/xlink"><g transform="translate(52,11)"><g class="mark-group role-frame root"><g transform="translate(0,0)"><path class="background" d="M0.5,0.5h252v300h-252Z" style="fill: none; stroke: #ddd;"></path><g><g class="mark-group role-axis"><g transform="translate(0.5,0.5)"><path class="background" d="M0,0h0v0h0Z" style="pointer-events: none; fill: none;"></path><g><g class="mark-rule role-axis-grid" style="pointer-events: none;"><line transform="translate(0,300)" x2="252" y2="0" style="fill: none; stroke: #ddd; stroke-width: 1; opacity: 1;"></line><line transform="translate(0,267)" x2="252" y2="0" style="fill: none; stroke: #ddd; stroke-width: 1; opacity: 1;"></line><line transform="translate(0,233)" x2="252" y2="0" style="fill: none; stroke: #ddd; stroke-width: 1; opacity: 1;"></line><line transform="translate(0,200)" x2="252" y2="0" style="fill: none; stroke: #ddd; stroke-width: 1; opacity: 1;"></line><line transform="translate(0,167)" x2="252" y2="0" style="fill: none; stroke: #ddd; stroke-width: 1; opacity: 1;"></line><line transform="translate(0,133)" x2="252" y2="0" style="fill: none; stroke: #ddd; stroke-width: 1; opacity: 1;"></line><line transform="translate(0,100)" x2="252" y2="0" style="fill: none; stroke: #ddd; stroke-width: 1; opacity: 1;"></line><line transform="translate(0,67)" x2="252" y2="0" style="fill: none; stroke: #ddd; stroke-width: 1; opacity: 1;"></line><line transform="translate(0,33)" x2="252" y2="0" style="fill: none; stroke: #ddd; stroke-width: 1; opacity: 1;"></line><line transform="translate(0,0)" x2="252" y2="0" style="fill: none; stroke: #ddd; stroke-width: 1; opacity: 1;"></line></g></g></g></g><g class="mark-rule role-mark layer_0_marks"><line transform="translate(178.5,236.66666666666666)" x2="0" y2="-20" style="fill: none; stroke: black;"></line><line transform="translate(94.5,253.33333333333334)" x2="0" y2="-50.00000000000003" style="fill: none; stroke: black;"></line><line transform="translate(241.5,216.66666666666666)" x2="0" y2="0" style="fill: none; stroke: black;"></line><line transform="translate(52.5,246.66666666666666)" x2="0" y2="-19.99999999999997" style="fill: none; stroke: black;"></line><line transform="translate(31.5,270)" x2="0" y2="-50" style="fill: none; stroke: black;"></line><line transform="translate(199.5,253.33333333333334)" x2="0" y2="-30" style="fill: none; stroke: black;"></line><line transform="translate(73.5,251.66666666666666)" x2="0" y2="-35" style="fill: none; stroke: black;"></line><line transform="translate(157.5,255)" x2="0" y2="-45" style="fill: none; stroke: black;"></line><line transform="translate(10.499999999999998,250)" x2="0" y2="-30" style="fill: none; stroke: black;"></line><line transform="translate(136.5,223.33333333333334)" x2="0" y2="-20.00000000000003" style="fill: none; stroke: black;"></line><line transform="translate(115.5,270)" x2="0" y2="-50" style="fill: none; stroke: black;"></line><line transform="translate(220.5,278.3333333333333)" x2="0" y2="-54.99999999999997" style="fill: none; stroke: black;"></line></g><g class="mark-rect role-mark layer_1_marks"><path d="M176,183.33333333333331h5v33.33333333333334h-5Z" style="fill: #4c78a8;"></path><path d="M92,113.33333333333334h5v89.99999999999997h-5Z" style="fill: #4c78a8;"></path><path d="M239,176.66666666666669h5v39.99999999999997h-5Z" style="fill: #4c78a8;"></path><path d="M50,163.33333333333334h5v63.33333333333334h-5Z" style="fill: #4c78a8;"></path><path d="M29,143.33333333333331h5v76.66666666666669h-5Z" style="fill: #4c78a8;"></path><path d="M197,170h5v53.33333333333334h-5Z" style="fill: #4c78a8;"></path><path d="M71,150h5v66.66666666666666h-5Z" style="fill: #4c78a8;"></path><path d="M155,113.33333333333334h5v96.66666666666666h-5Z" style="fill: #4c78a8;"></path><path d="M7.999999999999998,160h5v60h-5Z" style="fill: #4c78a8;"></path><path d="M134,130h5v73.33333333333331h-5Z" style="fill: #4c78a8;"></path><path d="M113,136.66666666666669h5v83.33333333333331h-5Z" style="fill: #4c78a8;"></path><path d="M218,126.66666666666669h5v96.66666666666666h-5Z" style="fill: #4c78a8;"></path></g><g class="mark-rule role-mark layer_2_marks"><line transform="translate(178.5,153.33333333333334)" x2="0" y2="29.99999999999997" style="fill: none; stroke: black;"></line><line transform="translate(94.5,28.333333333333314)" x2="0" y2="85.00000000000003" style="fill: none; stroke: black;"></line><line transform="translate(241.5,116.66666666666666)" x2="0" y2="60.00000000000003" style="fill: none; stroke: black;"></line><line transform="translate(52.5,88.33333333333331)" x2="0" y2="75.00000000000003" style="fill: none; stroke: black;"></line><line transform="translate(31.5,78.33333333333331)" x2="0" y2="65" style="fill: none; stroke: black;"></line><line transform="translate(199.5,120)" x2="0" y2="50" style="fill: none; stroke: black;"></line><line transform="translate(73.5,85)" x2="0" y2="65" style="fill: none; stroke: black;"></line><line transform="translate(157.5,13.333333333333314)" x2="0" y2="100.00000000000003" style="fill: none; stroke: black;"></line><line transform="translate(10.499999999999998,100)" x2="0" y2="60" style="fill: none; stroke: black;"></line><line transform="translate(136.5,40)" x2="0" y2="90" style="fill: none; stroke: black;"></line><line transform="translate(115.5,61.666666666666686)" x2="0" y2="75" style="fill: none; stroke: black;"></line><line transform="translate(220.5,36.666666666666686)" x2="0" y2="90" style="fill: none; stroke: black;"></line></g><g class="mark-rect role-mark layer_3_marks"><path d="M176,202.83333333333331h5v1h-5Z" style="fill: white; opacity: 0.7;"></path><path d="M92,169.5h5v1h-5Z" style="fill: white; opacity: 0.7;"></path><path d="M239,216.16666666666666h5v1h-5Z" style="fill: white; opacity: 0.7;"></path><path d="M50,212.83333333333334h5v1h-5Z" style="fill: white; opacity: 0.7;"></path><path d="M29,186.16666666666669h5v1h-5Z" style="fill: white; opacity: 0.7;"></path><path d="M197,202.83333333333331h5v1h-5Z" style="fill: white; opacity: 0.7;"></path><path d="M71,192.83333333333331h5v1h-5Z" style="fill: white; opacity: 0.7;"></path><path d="M155,179.5h5v1h-5Z" style="fill: white; opacity: 0.7;"></path><path d="M7.999999999999998,199.5h5v1h-5Z" style="fill: white; opacity: 0.7;"></path><path d="M134,189.5h5v1h-5Z" style="fill: white; opacity: 0.7;"></path><path d="M113,186.16666666666669h5v1h-5Z" style="fill: white; opacity: 0.7;"></path><path d="M218,186.16666666666669h5v1h-5Z" style="fill: white; opacity: 0.7;"></path></g><g class="mark-group role-axis"><g transform="translate(0.5,300.5)"><path class="background" d="M0,0h0v0h0Z" style="pointer-events: none; fill: none;"></path><g><g class="mark-rule role-axis-tick" style="pointer-events: none;"><line transform="translate(9,0)" x2="0" y2="5" style="fill: none; stroke: #888; stroke-width: 1; opacity: 1;"></line><line transform="translate(31,0)" x2="0" y2="5" style="fill: none; stroke: #888; stroke-width: 1; opacity: 1;"></line><line transform="translate(52,0)" x2="0" y2="5" style="fill: none; stroke: #888; stroke-width: 1; opacity: 1;"></line><line transform="translate(73,0)" x2="0" y2="5" style="fill: none; stroke: #888; stroke-width: 1; opacity: 1;"></line><line transform="translate(94,0)" x2="0" y2="5" style="fill: none; stroke: #888; stroke-width: 1; opacity: 1;"></line><line transform="translate(115,0)" x2="0" y2="5" style="fill: none; stroke: #888; stroke-width: 1; opacity: 1;"></line><line transform="translate(136,0)" x2="0" y2="5" style="fill: none; stroke: #888; stroke-width: 1; opacity: 1;"></line><line transform="translate(157,0)" x2="0" y2="5" style="fill: none; stroke: #888; stroke-width: 1; opacity: 1;"></line><line transform="translate(178,0)" x2="0" y2="5" style="fill: none; stroke: #888; stroke-width: 1; opacity: 1;"></line><line transform="translate(199,0)" x2="0" y2="5" style="fill: none; stroke: #888; stroke-width: 1; opacity: 1;"></line><line transform="translate(220,0)" x2="0" y2="5" style="fill: none; stroke: #888; stroke-width: 1; opacity: 1;"></line><line transform="translate(241,0)" x2="0" y2="5" style="fill: none; stroke: #888; stroke-width: 1; opacity: 1;"></line></g><g class="mark-text role-axis-label" style="pointer-events: none;"><text text-anchor="end" transform="translate(9.499999999999998,7) rotate(270) translate(0,3)" style="font-family: sans-serif; font-size: 10px; fill: #000; opacity: 1;">bias</text><text text-anchor="end" transform="translate(30.5,7) rotate(270) translate(0,3)" style="font-family: sans-serif; font-size: 10px; fill: #000; opacity: 1;">clickbait</text><text text-anchor="end" transform="translate(51.5,7) rotate(270) translate(0,3)" style="font-family: sans-serif; font-size: 10px; fill: #000; opacity: 1;">conspiracy</text><text text-anchor="end" transform="translate(72.5,7) rotate(270) translate(0,3)" style="font-family: sans-serif; font-size: 10px; fill: #000; opacity: 1;">fake</text><text text-anchor="end" transform="translate(93.5,7) rotate(270) translate(0,3)" style="font-family: sans-serif; font-size: 10px; fill: #000; opacity: 1;">hate</text><text text-anchor="end" transform="translate(114.5,7) rotate(270) translate(0,3)" style="font-family: sans-serif; font-size: 10px; fill: #000; opacity: 1;">junksci</text><text text-anchor="end" transform="translate(135.5,7) rotate(270) translate(0,3)" style="font-family: sans-serif; font-size: 10px; fill: #000; opacity: 1;">political</text><text text-anchor="end" transform="translate(156.5,7) rotate(270) translate(0,3)" style="font-family: sans-serif; font-size: 10px; fill: #000; opacity: 1;">reliable</text><text text-anchor="end" transform="translate(177.5,7) rotate(270) translate(0,3)" style="font-family: sans-serif; font-size: 10px; fill: #000; opacity: 1;">rumor</text><text text-anchor="end" transform="translate(198.5,7) rotate(270) translate(0,3)" style="font-family: sans-serif; font-size: 10px; fill: #000; opacity: 1;">satire</text><text text-anchor="end" transform="translate(219.5,7) rotate(270) translate(0,3)" style="font-family: sans-serif; font-size: 10px; fill: #000; opacity: 1;">unknown</text><text text-anchor="end" transform="translate(240.5,7) rotate(270) translate(0,3)" style="font-family: sans-serif; font-size: 10px; fill: #000; opacity: 1;">unreliable</text></g><g class="mark-rule role-axis-domain" style="pointer-events: none;"><line transform="translate(0,0)" x2="252" y2="0" style="fill: none; stroke: #888; stroke-width: 1; opacity: 1;"></line></g><g class="mark-text role-axis-title" style="pointer-events: none;"><text text-anchor="middle" transform="translate(126,75)" style="font-family: sans-serif; font-size: 11px; font-weight: bold; fill: #000; opacity: 1;">type</text></g></g></g></g><g class="mark-group role-axis"><g transform="translate(0.5,0.5)"><path class="background" d="M0,0h0v0h0Z" style="pointer-events: none; fill: none;"></path><g><g class="mark-rule role-axis-tick" style="pointer-events: none;"><line transform="translate(0,300)" x2="-5" y2="0" style="fill: none; stroke: #888; stroke-width: 1; opacity: 1;"></line><line transform="translate(0,267)" x2="-5" y2="0" style="fill: none; stroke: #888; stroke-width: 1; opacity: 1;"></line><line transform="translate(0,233)" x2="-5" y2="0" style="fill: none; stroke: #888; stroke-width: 1; opacity: 1;"></line><line transform="translate(0,200)" x2="-5" y2="0" style="fill: none; stroke: #888; stroke-width: 1; opacity: 1;"></line><line transform="translate(0,167)" x2="-5" y2="0" style="fill: none; stroke: #888; stroke-width: 1; opacity: 1;"></line><line transform="translate(0,133)" x2="-5" y2="0" style="fill: none; stroke: #888; stroke-width: 1; opacity: 1;"></line><line transform="translate(0,100)" x2="-5" y2="0" style="fill: none; stroke: #888; stroke-width: 1; opacity: 1;"></line><line transform="translate(0,67)" x2="-5" y2="0" style="fill: none; stroke: #888; stroke-width: 1; opacity: 1;"></line><line transform="translate(0,33)" x2="-5" y2="0" style="fill: none; stroke: #888; stroke-width: 1; opacity: 1;"></line><line transform="translate(0,0)" x2="-5" y2="0" style="fill: none; stroke: #888; stroke-width: 1; opacity: 1;"></line></g><g class="mark-text role-axis-label" style="pointer-events: none;"><text text-anchor="end" transform="translate(-7,303)" style="font-family: sans-serif; font-size: 10px; fill: #000; opacity: 1;">-20</text><text text-anchor="end" transform="translate(-7,269.6666666666667)" style="font-family: sans-serif; font-size: 10px; fill: #000; opacity: 1;">-10</text><text text-anchor="end" transform="translate(-7,236.33333333333334)" style="font-family: sans-serif; font-size: 10px; fill: #000; opacity: 1;">0</text><text text-anchor="end" transform="translate(-7,203)" style="font-family: sans-serif; font-size: 10px; fill: #000; opacity: 1;">10</text><text text-anchor="end" transform="translate(-7,169.66666666666669)" style="font-family: sans-serif; font-size: 10px; fill: #000; opacity: 1;">20</text><text text-anchor="end" transform="translate(-7,136.33333333333331)" style="font-family: sans-serif; font-size: 10px; fill: #000; opacity: 1;">30</text><text text-anchor="end" transform="translate(-7,103)" style="font-family: sans-serif; font-size: 10px; fill: #000; opacity: 1;">40</text><text text-anchor="end" transform="translate(-7,69.66666666666666)" style="font-family: sans-serif; font-size: 10px; fill: #000; opacity: 1;">50</text><text text-anchor="end" transform="translate(-7,36.33333333333337)" style="font-family: sans-serif; font-size: 10px; fill: #000; opacity: 1;">60</text><text text-anchor="end" transform="translate(-7,3)" style="font-family: sans-serif; font-size: 10px; fill: #000; opacity: 1;">70</text></g><g class="mark-rule role-axis-domain" style="pointer-events: none;"><line transform="translate(0,300)" x2="0" y2="-300" style="fill: none; stroke: #888; stroke-width: 1; opacity: 1;"></line></g><g class="mark-text role-axis-title" style="pointer-events: none;"><text text-anchor="middle" transform="translate(-34,150) rotate(-90) translate(0,-2)" style="font-family: sans-serif; font-size: 11px; font-weight: bold; fill: #000; opacity: 1;">Number of sentences</text></g></g></g></g></g></g></g></g></svg>