<svg class="marks" width="1760" height="461" viewBox="0 0 1760 461" version="1.1" xmlns="http://www.w3.org/2000/svg" xmlns:xlink="http://www.w3.org/1999/xlink"><g transform="translate(75,11)"><g class="mark-group role-frame root"><g transform="translate(0,0)"><path class="background" d="M0.5,0.5h1680v300h-1680Z" style="fill: none; stroke: #ddd;"></path><g><g class="mark-group role-axis"><g transform="translate(0.5,0.5)"><path class="background" d="M0,0h0v0h0Z" style="pointer-events: none; fill: none;"></path><g><g class="mark-rule role-axis-grid" style="pointer-events: none;"><line transform="translate(0,300)" x2="1680" y2="0" style="fill: none; stroke: #ddd; stroke-width: 1; opacity: 1;"></line><line transform="translate(0,263)" x2="1680" y2="0" style="fill: none; stroke: #ddd; stroke-width: 1; opacity: 1;"></line><line transform="translate(0,225)" x2="1680" y2="0" style="fill: none; stroke: #ddd; stroke-width: 1; opacity: 1;"></line><line transform="translate(0,188)" x2="1680" y2="0" style="fill: none; stroke: #ddd; stroke-width: 1; opacity: 1;"></line><line transform="translate(0,150)" x2="1680" y2="0" style="fill: none; stroke: #ddd; stroke-width: 1; opacity: 1;"></line><line transform="translate(0,113)" x2="1680" y2="0" style="fill: none; stroke: #ddd; stroke-width: 1; opacity: 1;"></line><line transform="translate(0,75)" x2="1680" y2="0" style="fill: none; stroke: #ddd; stroke-width: 1; opacity: 1;"></line><line transform="translate(0,38)" x2="1680" y2="0" style="fill: none; stroke: #ddd; stroke-width: 1; opacity: 1;"></line><line transform="translate(0,0)" x2="1680" y2="0" style="fill: none; stroke: #ddd; stroke-width: 1; opacity: 1;"></line></g></g></g></g><g class="mark-rect role-mark marks"><path d="M694.05,299.05725h18.900000000000002v0.9427499999999895h-18.900000000000002Z" style="fill: #4c78a8;"></path><path d="M400.04999999999995,299.8475625h18.900000000000002v0.1524375000000191h-18.900000000000002Z" style="fill: #4c78a8;"></path><path d="M232.04999999999995,299.8674375h18.900000000000002v0.1325625000000059h-18.900000000000002Z" style="fill: #4c78a8;"></path><path d="M1303.05,299.91525h18.900000000000002v0.08474999999998545h-18.900000000000002Z" style="fill: #4c78a8;"></path><path d="M1261.05,299.723625h18.900000000000002v0.27637499999997317h-18.900000000000002Z" style="fill: #4c78a8;"></path><path d="M106.04999999999995,299.4958125h18.900000000000002v0.5041875000000005h-18.900000000000002Z" style="fill: #4c78a8;"></path><path d="M778.05,299.75925h18.900000000000002v0.24074999999999136h-18.900000000000002Z" style="fill: #4c78a8;"></path><path d="M253.04999999999995,299.5749375h18.900000000000002v0.4250625000000241h-18.900000000000002Z" style="fill: #4c78a8;"></path><path d="M1093.05,299.885625h18.900000000000002v0.11437499999999545h-18.900000000000002Z" style="fill: #4c78a8;"></path><path d="M883.05,299.8846875h18.900000000000002v0.11531250000001592h-18.900000000000002Z" style="fill: #4c78a8;"></path><path d="M211.04999999999995,299.7009375h18.900000000000002v0.2990624999999909h-18.900000000000002Z" style="fill: #4c78a8;"></path><path d="M379.04999999999995,299.6975625h18.900000000000002v0.30243749999999636h-18.900000000000002Z" style="fill: #4c78a8;"></path><path d="M1555.05,299.833125h18.900000000000002v0.16687500000000455h-18.900000000000002Z" style="fill: #4c78a8;"></path><path d="M1198.05,299.405625h18.900000000000002v0.5943750000000136h-18.900000000000002Z" style="fill: #4c78a8;"></path><path d="M505.04999999999995,299.698125h18.900000000000002v0.30187499999999545h-18.900000000000002Z" style="fill: #4c78a8;"></path><path d="M1408.05,299.7088125h18.900000000000002v0.29118749999997817h-18.900000000000002Z" style="fill: #4c78a8;"></path><path d="M274.04999999999995,299.7225h18.900000000000002v0.277499999999975h-18.900000000000002Z" style="fill: #4c78a8;"></path><path d="M673.05,299.721375h18.900000000000002v0.2786249999999768h-18.900000000000002Z" style="fill: #4c78a8;"></path><path d="M295.04999999999995,299.5425h18.900000000000002v0.4574999999999818h-18.900000000000002Z" style="fill: #4c78a8;"></path><path d="M127.04999999999995,299.3720625h18.900000000000002v0.6279374999999732h-18.900000000000002Z" style="fill: #4c78a8;"></path><path d="M1135.05,299.73h18.900000000000002v0.2699999999999818h-18.900000000000002Z" style="fill: #4c78a8;"></path><path d="M1660.05,299.499h18.900000000000002v0.5009999999999764h-18.900000000000002Z" style="fill: #4c78a8;"></path><path d="M841.05,299.2276875h18.900000000000002v0.7723124999999982h-18.900000000000002Z" style="fill: #4c78a8;"></path><path d="M85.04999999999995,299.8798125h18.900000000000002v0.1201874999999859h-18.900000000000002Z" style="fill: #4c78a8;"></path><path d="M1072.05,299.727375h18.900000000000002v0.272625000000005h-18.900000000000002Z" style="fill: #4c78a8;"></path><path d="M757.05,298.76775h18.900000000000002v1.2322500000000218h-18.900000000000002Z" style="fill: #4c78a8;"></path><path d="M1030.05,299.82225h18.900000000000002v0.17775000000000318h-18.900000000000002Z" style="fill: #4c78a8;"></path><path d="M610.05,299.6214375h18.900000000000002v0.3785624999999868h-18.900000000000002Z" style="fill: #4c78a8;"></path><path d="M43.049999999999955,299.856375h18.900000000000002v0.1436249999999859h-18.900000000000002Z" style="fill: #4c78a8;"></path><path d="M442.04999999999995,299.2910625h18.900000000000002v0.7089374999999905h-18.900000000000002Z" style="fill: #4c78a8;"></path><path d="M1177.05,299.151375h18.900000000000002v0.8486250000000268h-18.900000000000002Z" style="fill: #4c78a8;"></path><path d="M1471.05,295.9138125h18.900000000000002v4.086187499999994h-18.900000000000002Z" style="fill: #4c78a8;"></path><path d="M736.05,299.7448125h18.900000000000002v0.2551874999999768h-18.900000000000002Z" style="fill: #4c78a8;"></path><path d="M1114.05,297.9525h18.900000000000002v2.0475000000000136h-18.900000000000002Z" style="fill: #4c78a8;"></path><path d="M1219.05,298.5796875h18.900000000000002v1.4203125000000227h-18.900000000000002Z" style="fill: #4c78a8;"></path><path d="M589.05,299.818875h18.900000000000002v0.18112500000000864h-18.900000000000002Z" style="fill: #4c78a8;"></path><path d="M946.05,296.648625h18.900000000000002v3.3513750000000186h-18.900000000000002Z" style="fill: #4c78a8;"></path><path d="M1156.05,299.0415h18.900000000000002v0.958500000000015h-18.900000000000002Z" style="fill: #4c78a8;"></path><path d="M1534.05,299.2389375h18.900000000000002v0.76106249999998h-18.900000000000002Z" style="fill: #4c78a8;"></path><path d="M190.04999999999995,298.9681875h18.900000000000002v1.031812500000001h-18.900000000000002Z" style="fill: #4c78a8;"></path><path d="M904.05,299.3911875h18.900000000000002v0.6088124999999991h-18.900000000000002Z" style="fill: #4c78a8;"></path><path d="M358.04999999999995,299.81325h18.900000000000002v0.18675000000001774h-18.900000000000002Z" style="fill: #4c78a8;"></path><path d="M22.049999999999955,299.0235h18.900000000000002v0.9764999999999873h-18.900000000000002Z" style="fill: #4c78a8;"></path><path d="M568.05,25.571062499999982h18.900000000000002v274.4289375h-18.900000000000002Z" style="fill: #4c78a8;"></path><path d="M1345.05,299.52825h18.900000000000002v0.4717499999999859h-18.900000000000002Z" style="fill: #4c78a8;"></path><path d="M1387.05,299.152875h18.900000000000002v0.8471250000000055h-18.900000000000002Z" style="fill: #4c78a8;"></path><path d="M631.05,299.701875h18.900000000000002v0.2981250000000273h-18.900000000000002Z" style="fill: #4c78a8;"></path><path d="M988.05,299.6184375h18.900000000000002v0.3815624999999727h-18.900000000000002Z" style="fill: #4c78a8;"></path><path d="M169.04999999999995,297.270375h18.900000000000002v2.7296249999999986h-18.900000000000002Z" style="fill: #4c78a8;"></path><path d="M1240.05,299.648625h18.900000000000002v0.35137500000001864h-18.900000000000002Z" style="fill: #4c78a8;"></path><path d="M463.04999999999995,299.6364375h18.900000000000002v0.36356250000000045h-18.900000000000002Z" style="fill: #4c78a8;"></path><path d="M820.05,299.73825h18.900000000000002v0.26175000000000637h-18.900000000000002Z" style="fill: #4c78a8;"></path><path d="M1.0499999999999545,298.381125h18.900000000000002v1.6188750000000027h-18.900000000000002Z" style="fill: #4c78a8;"></path><path d="M967.05,299.332875h18.900000000000002v0.6671249999999986h-18.900000000000002Z" style="fill: #4c78a8;"></path><path d="M316.04999999999995,299.2531875h18.900000000000002v0.7468124999999759h-18.900000000000002Z" style="fill: #4c78a8;"></path><path d="M526.05,299.3465625h18.900000000000002v0.6534374999999955h-18.900000000000002Z" style="fill: #4c78a8;"></path><path d="M337.04999999999995,297.813h18.900000000000002v2.187000000000012h-18.900000000000002Z" style="fill: #4c78a8;"></path><path d="M1618.05,299.08875h18.900000000000002v0.9112499999999955h-18.900000000000002Z" style="fill: #4c78a8;"></path><path d="M862.05,298.758h18.900000000000002v1.2420000000000186h-18.900000000000002Z" style="fill: #4c78a8;"></path><path d="M925.05,299.57025h18.900000000000002v0.42975000000001273h-18.900000000000002Z" style="fill: #4c78a8;"></path><path d="M1366.05,299.2175625h18.900000000000002v0.7824375000000146h-18.900000000000002Z" style="fill: #4c78a8;"></path><path d="M421.04999999999995,299.87925h18.900000000000002v0.12074999999998681h-18.900000000000002Z" style="fill: #4c78a8;"></path><path d="M1324.05,299.392875h18.900000000000002v0.6071249999999964h-18.900000000000002Z" style="fill: #4c78a8;"></path><path d="M1450.05,293.66475h18.900000000000002v6.335249999999974h-18.900000000000002Z" style="fill: #4c78a8;"></path><path d="M715.05,297.7455h18.900000000000002v2.2545000000000073h-18.900000000000002Z" style="fill: #4c78a8;"></path><path d="M148.04999999999995,299.2344375h18.900000000000002v0.7655624999999873h-18.900000000000002Z" style="fill: #4c78a8;"></path><path d="M1051.05,299.7039375h18.900000000000002v0.296062500000005h-18.900000000000002Z" style="fill: #4c78a8;"></path><path d="M1429.05,299.8618125h18.900000000000002v0.138187500000015h-18.900000000000002Z" style="fill: #4c78a8;"></path><path d="M1282.05,299.256375h18.900000000000002v0.7436250000000086h-18.900000000000002Z" style="fill: #4c78a8;"></path><path d="M1639.05,295.96725h18.900000000000002v4.032750000000021h-18.900000000000002Z" style="fill: #4c78a8;"></path><path d="M484.04999999999995,296.90475h18.900000000000002v3.0952500000000214h-18.900000000000002Z" style="fill: #4c78a8;"></path><path d="M64.04999999999995,299.797875h18.900000000000002v0.20212500000002365h-18.900000000000002Z" style="fill: #4c78a8;"></path><path d="M547.05,299.4315h18.900000000000002v0.5684999999999718h-18.900000000000002Z" style="fill: #4c78a8;"></path><path d="M1597.05,299.850375h18.900000000000002v0.14962500000001455h-18.900000000000002Z" style="fill: #4c78a8;"></path><path d="M652.05,299.5869375h18.900000000000002v0.41306250000002365h-18.900000000000002Z" style="fill: #4c78a8;"></path><path d="M1576.05,299.051625h18.900000000000002v0.9483749999999986h-18.900000000000002Z" style="fill: #4c78a8;"></path><path d="M799.05,299.8486875h18.900000000000002v0.15131250000001728h-18.900000000000002Z" style="fill: #4c78a8;"></path><path d="M1492.05,299.886h18.900000000000002v0.1139999999999759h-18.900000000000002Z" style="fill: #4c78a8;"></path><path d="M1009.05,299.690625h18.900000000000002v0.30937499999998863h-18.900000000000002Z" style="fill: #4c78a8;"></path><path d="M1513.05,298.811625h18.900000000000002v1.1883750000000077h-18.900000000000002Z" style="fill: #4c78a8;"></path></g><g class="mark-group role-axis"><g transform="translate(0.5,300.5)"><path class="background" d="M0,0h0v0h0Z" style="pointer-events: none; fill: none;"></path><g><g class="mark-rule role-axis-tick" style="pointer-events: none;"><line transform="translate(9,0)" x2="0" y2="5" style="fill: none; stroke: #888; stroke-width: 1; opacity: 1;"></line><line transform="translate(30,0)" x2="0" y2="5" style="fill: none; stroke: #888; stroke-width: 1; opacity: 1;"></line><line transform="translate(51,0)" x2="0" y2="5" style="fill: none; stroke: #888; stroke-width: 1; opacity: 1;"></line><line transform="translate(72,0)" x2="0" y2="5" style="fill: none; stroke: #888; stroke-width: 1; opacity: 1;"></line><line transform="translate(93,0)" x2="0" y2="5" style="fill: none; stroke: #888; stroke-width: 1; opacity: 1;"></line><line transform="translate(114,0)" x2="0" y2="5" style="fill: none; stroke: #888; stroke-width: 1; opacity: 1;"></line><line transform="translate(135,0)" x2="0" y2="5" style="fill: none; stroke: #888; stroke-width: 1; opacity: 1;"></line><line transform="translate(156,0)" x2="0" y2="5" style="fill: none; stroke: #888; stroke-width: 1; opacity: 1;"></line><line transform="translate(177,0)" x2="0" y2="5" style="fill: none; stroke: #888; stroke-width: 1; opacity: 1;"></line><line transform="translate(198,0)" x2="0" y2="5" style="fill: none; stroke: #888; stroke-width: 1; opacity: 1;"></line><line transform="translate(219,0)" x2="0" y2="5" style="fill: none; stroke: #888; stroke-width: 1; opacity: 1;"></line><line transform="translate(240,0)" x2="0" y2="5" style="fill: none; stroke: #888; stroke-width: 1; opacity: 1;"></line><line transform="translate(261,0)" x2="0" y2="5" style="fill: none; stroke: #888; stroke-width: 1; opacity: 1;"></line><line transform="translate(282,0)" x2="0" y2="5" style="fill: none; stroke: #888; stroke-width: 1; opacity: 1;"></line><line transform="translate(303,0)" x2="0" y2="5" style="fill: none; stroke: #888; stroke-width: 1; opacity: 1;"></line><line transform="translate(324,0)" x2="0" y2="5" style="fill: none; stroke: #888; stroke-width: 1; opacity: 1;"></line><line transform="translate(345,0)" x2="0" y2="5" style="fill: none; stroke: #888; stroke-width: 1; opacity: 1;"></line><line transform="translate(366,0)" x2="0" y2="5" style="fill: none; stroke: #888; stroke-width: 1; opacity: 1;"></line><line transform="translate(387,0)" x2="0" y2="5" style="fill: none; stroke: #888; stroke-width: 1; opacity: 1;"></line><line transform="translate(408,0)" x2="0" y2="5" style="fill: none; stroke: #888; stroke-width: 1; opacity: 1;"></line><line transform="translate(429,0)" x2="0" y2="5" style="fill: none; stroke: #888; stroke-width: 1; opacity: 1;"></line><line transform="translate(450,0)" x2="0" y2="5" style="fill: none; stroke: #888; stroke-width: 1; opacity: 1;"></line><line transform="translate(471,0)" x2="0" y2="5" style="fill: none; stroke: #888; stroke-width: 1; opacity: 1;"></line><line transform="translate(492,0)" x2="0" y2="5" style="fill: none; stroke: #888; stroke-width: 1; opacity: 1;"></line><line transform="translate(514,0)" x2="0" y2="5" style="fill: none; stroke: #888; stroke-width: 1; opacity: 1;"></line><line transform="translate(535,0)" x2="0" y2="5" style="fill: none; stroke: #888; stroke-width: 1; opacity: 1;"></line><line transform="translate(556,0)" x2="0" y2="5" style="fill: none; stroke: #888; stroke-width: 1; opacity: 1;"></line><line transform="translate(577,0)" x2="0" y2="5" style="fill: none; stroke: #888; stroke-width: 1; opacity: 1;"></line><line transform="translate(598,0)" x2="0" y2="5" style="fill: none; stroke: #888; stroke-width: 1; opacity: 1;"></line><line transform="translate(619,0)" x2="0" y2="5" style="fill: none; stroke: #888; stroke-width: 1; opacity: 1;"></line><line transform="translate(640,0)" x2="0" y2="5" style="fill: none; stroke: #888; stroke-width: 1; opacity: 1;"></line><line transform="translate(661,0)" x2="0" y2="5" style="fill: none; stroke: #888; stroke-width: 1; opacity: 1;"></line><line transform="translate(682,0)" x2="0" y2="5" style="fill: none; stroke: #888; stroke-width: 1; opacity: 1;"></line><line transform="translate(703,0)" x2="0" y2="5" style="fill: none; stroke: #888; stroke-width: 1; opacity: 1;"></line><line transform="translate(724,0)" x2="0" y2="5" style="fill: none; stroke: #888; stroke-width: 1; opacity: 1;"></line><line transform="translate(745,0)" x2="0" y2="5" style="fill: none; stroke: #888; stroke-width: 1; opacity: 1;"></line><line transform="translate(766,0)" x2="0" y2="5" style="fill: none; stroke: #888; stroke-width: 1; opacity: 1;"></line><line transform="translate(787,0)" x2="0" y2="5" style="fill: none; stroke: #888; stroke-width: 1; opacity: 1;"></line><line transform="translate(808,0)" x2="0" y2="5" style="fill: none; stroke: #888; stroke-width: 1; opacity: 1;"></line><line transform="translate(829,0)" x2="0" y2="5" style="fill: none; stroke: #888; stroke-width: 1; opacity: 1;"></line><line transform="translate(850,0)" x2="0" y2="5" style="fill: none; stroke: #888; stroke-width: 1; opacity: 1;"></line><line transform="translate(871,0)" x2="0" y2="5" style="fill: none; stroke: #888; stroke-width: 1; opacity: 1;"></line><line transform="translate(892,0)" x2="0" y2="5" style="fill: none; stroke: #888; stroke-width: 1; opacity: 1;"></line><line transform="translate(913,0)" x2="0" y2="5" style="fill: none; stroke: #888; stroke-width: 1; opacity: 1;"></line><line transform="translate(934,0)" x2="0" y2="5" style="fill: none; stroke: #888; stroke-width: 1; opacity: 1;"></line><line transform="translate(955,0)" x2="0" y2="5" style="fill: none; stroke: #888; stroke-width: 1; opacity: 1;"></line><line transform="translate(976,0)" x2="0" y2="5" style="fill: none; stroke: #888; stroke-width: 1; opacity: 1;"></line><line transform="translate(997,0)" x2="0" y2="5" style="fill: none; stroke: #888; stroke-width: 1; opacity: 1;"></line><line transform="translate(1018,0)" x2="0" y2="5" style="fill: none; stroke: #888; stroke-width: 1; opacity: 1;"></line><line transform="translate(1039,0)" x2="0" y2="5" style="fill: none; stroke: #888; stroke-width: 1; opacity: 1;"></line><line transform="translate(1060,0)" x2="0" y2="5" style="fill: none; stroke: #888; stroke-width: 1; opacity: 1;"></line><line transform="translate(1081,0)" x2="0" y2="5" style="fill: none; stroke: #888; stroke-width: 1; opacity: 1;"></line><line transform="translate(1102,0)" x2="0" y2="5" style="fill: none; stroke: #888; stroke-width: 1; opacity: 1;"></line><line transform="translate(1123,0)" x2="0" y2="5" style="fill: none; stroke: #888; stroke-width: 1; opacity: 1;"></line><line transform="translate(1144,0)" x2="0" y2="5" style="fill: none; stroke: #888; stroke-width: 1; opacity: 1;"></line><line transform="translate(1165,0)" x2="0" y2="5" style="fill: none; stroke: #888; stroke-width: 1; opacity: 1;"></line><line transform="translate(1186,0)" x2="0" y2="5" style="fill: none; stroke: #888; stroke-width: 1; opacity: 1;"></line><line transform="translate(1207,0)" x2="0" y2="5" style="fill: none; stroke: #888; stroke-width: 1; opacity: 1;"></line><line transform="translate(1228,0)" x2="0" y2="5" style="fill: none; stroke: #888; stroke-width: 1; opacity: 1;"></line><line transform="translate(1249,0)" x2="0" y2="5" style="fill: none; stroke: #888; stroke-width: 1; opacity: 1;"></line><line transform="translate(1270,0)" x2="0" y2="5" style="fill: none; stroke: #888; stroke-width: 1; opacity: 1;"></line><line transform="translate(1291,0)" x2="0" y2="5" style="fill: none; stroke: #888; stroke-width: 1; opacity: 1;"></line><line transform="translate(1312,0)" x2="0" y2="5" style="fill: none; stroke: #888; stroke-width: 1; opacity: 1;"></line><line transform="translate(1333,0)" x2="0" y2="5" style="fill: none; stroke: #888; stroke-width: 1; opacity: 1;"></line><line transform="translate(1354,0)" x2="0" y2="5" style="fill: none; stroke: #888; stroke-width: 1; opacity: 1;"></line><line transform="translate(1375,0)" x2="0" y2="5" style="fill: none; stroke: #888; stroke-width: 1; opacity: 1;"></line><line transform="translate(1396,0)" x2="0" y2="5" style="fill: none; stroke: #888; stroke-width: 1; opacity: 1;"></line><line transform="translate(1417,0)" x2="0" y2="5" style="fill: none; stroke: #888; stroke-width: 1; opacity: 1;"></line><line transform="translate(1438,0)" x2="0" y2="5" style="fill: none; stroke: #888; stroke-width: 1; opacity: 1;"></line><line transform="translate(1459,0)" x2="0" y2="5" style="fill: none; stroke: #888; stroke-width: 1; opacity: 1;"></line><line transform="translate(1480,0)" x2="0" y2="5" style="fill: none; stroke: #888; stroke-width: 1; opacity: 1;"></line><line transform="translate(1501,0)" x2="0" y2="5" style="fill: none; stroke: #888; stroke-width: 1; opacity: 1;"></line><line transform="translate(1522,0)" x2="0" y2="5" style="fill: none; stroke: #888; stroke-width: 1; opacity: 1;"></line><line transform="translate(1543,0)" x2="0" y2="5" style="fill: none; stroke: #888; stroke-width: 1; opacity: 1;"></line><line transform="translate(1564,0)" x2="0" y2="5" style="fill: none; stroke: #888; stroke-width: 1; opacity: 1;"></line><line transform="translate(1585,0)" x2="0" y2="5" style="fill: none; stroke: #888; stroke-width: 1; opacity: 1;"></line><line transform="translate(1606,0)" x2="0" y2="5" style="fill: none; stroke: #888; stroke-width: 1; opacity: 1;"></line><line transform="translate(1627,0)" x2="0" y2="5" style="fill: none; stroke: #888; stroke-width: 1; opacity: 1;"></line><line transform="translate(1648,0)" x2="0" y2="5" style="fill: none; stroke: #888; stroke-width: 1; opacity: 1;"></line><line transform="translate(1669,0)" x2="0" y2="5" style="fill: none; stroke: #888; stroke-width: 1; opacity: 1;"></line></g><g class="mark-text role-axis-label" style="pointer-events: none;"><text text-anchor="end" transform="translate(9.499999999999956,7) rotate(270) translate(0,3)" style="font-family: sans-serif; font-size: 10px; fill: #000; opacity: 1;">abcnews.go.com</text><text text-anchor="end" transform="translate(30.499999999999957,7) rotate(270) translate(0,3)" style="font-family: sans-serif; font-size: 10px; fill: #000; opacity: 1;">af.reuters.com</text><text text-anchor="end" transform="translate(51.49999999999996,7) rotate(270) translate(0,3)" style="font-family: sans-serif; font-size: 10px; fill: #000; opacity: 1;">au.be.yahoo.com</text><text text-anchor="end" transform="translate(72.49999999999996,7) rotate(270) translate(0,3)" style="font-family: sans-serif; font-size: 10px; fill: #000; opacity: 1;">au.finance.yahoo.com</text><text text-anchor="end" transform="translate(93.49999999999996,7) rotate(270) translate(0,3)" style="font-family: sans-serif; font-size: 10px; fill: #000; opacity: 1;">au.news.yahoo.com</text><text text-anchor="end" transform="translate(114.49999999999996,7) rotate(270) translate(0,3)" style="font-family: sans-serif; font-size: 10px; fill: #000; opacity: 1;">bleacherreport.com</text><text text-anchor="end" transform="translate(135.49999999999994,7) rotate(270) translate(0,3)" style="font-family: sans-serif; font-size: 10px; fill: #000; opacity: 1;">ca.news.yahoo.com</text><text text-anchor="end" transform="translate(156.49999999999994,7) rotate(270) translate(0,3)" style="font-family: sans-serif; font-size: 10px; fill: #000; opacity: 1;">ca.reuters.com</text><text text-anchor="end" transform="translate(177.49999999999994,7) rotate(270) translate(0,3)" style="font-family: sans-serif; font-size: 10px; fill: #000; opacity: 1;">christianpost.com</text><text text-anchor="end" transform="translate(198.49999999999994,7) rotate(270) translate(0,3)" style="font-family: sans-serif; font-size: 10px; fill: #000; opacity: 1;">consortiumnews.com</text><text text-anchor="end" transform="translate(219.49999999999994,7) rotate(270) translate(0,3)" style="font-family: sans-serif; font-size: 10px; fill: #000; opacity: 1;">de.finance.yahoo.com</text><text text-anchor="end" transform="translate(240.49999999999994,7) rotate(270) translate(0,3)" style="font-family: sans-serif; font-size: 10px; fill: #000; opacity: 1;">disneyworld.disney.go.com</text><text text-anchor="end" transform="translate(261.49999999999994,7) rotate(270) translate(0,3)" style="font-family: sans-serif; font-size: 10px; fill: #000; opacity: 1;">edition.cnn.com</text><text text-anchor="end" transform="translate(282.49999999999994,7) rotate(270) translate(0,3)" style="font-family: sans-serif; font-size: 10px; fill: #000; opacity: 1;">feeds.reuters.com</text><text text-anchor="end" transform="translate(303.49999999999994,7) rotate(270) translate(0,3)" style="font-family: sans-serif; font-size: 10px; fill: #000; opacity: 1;">finance.yahoo.com</text><text text-anchor="end" transform="translate(324.49999999999994,7) rotate(270) translate(0,3)" style="font-family: sans-serif; font-size: 10px; fill: #000; opacity: 1;">in.reuters.com</text><text text-anchor="end" transform="translate(345.49999999999994,7) rotate(270) translate(0,3)" style="font-family: sans-serif; font-size: 10px; fill: #000; opacity: 1;">indianexpress.com</text><text text-anchor="end" transform="translate(366.49999999999994,7) rotate(270) translate(0,3)" style="font-family: sans-serif; font-size: 10px; fill: #000; opacity: 1;">latino.foxnews.com</text><text text-anchor="end" transform="translate(387.49999999999994,7) rotate(270) translate(0,3)" style="font-family: sans-serif; font-size: 10px; fill: #000; opacity: 1;">m.mlb.com</text><text text-anchor="end" transform="translate(408.49999999999994,7) rotate(270) translate(0,3)" style="font-family: sans-serif; font-size: 10px; fill: #000; opacity: 1;">money.cnn.com</text><text text-anchor="end" transform="translate(429.49999999999994,7) rotate(270) translate(0,3)" style="font-family: sans-serif; font-size: 10px; fill: #000; opacity: 1;">motherboard.vice.com</text><text text-anchor="end" transform="translate(450.49999999999994,7) rotate(270) translate(0,3)" style="font-family: sans-serif; font-size: 10px; fill: #000; opacity: 1;">music.yahoo.com</text><text text-anchor="end" transform="translate(471.49999999999994,7) rotate(270) translate(0,3)" style="font-family: sans-serif; font-size: 10px; fill: #000; opacity: 1;">news.abs-cbn.com</text><text text-anchor="end" transform="translate(492.49999999999994,7) rotate(270) translate(0,3)" style="font-family: sans-serif; font-size: 10px; fill: #000; opacity: 1;">news.yahoo.com</text><text text-anchor="end" transform="translate(513.5,7) rotate(270) translate(0,3)" style="font-family: sans-serif; font-size: 10px; fill: #000; opacity: 1;">newsinfo.inquirer.net</text><text text-anchor="end" transform="translate(534.5,7) rotate(270) translate(0,3)" style="font-family: sans-serif; font-size: 10px; fill: #000; opacity: 1;">nutritionfacts.org</text><text text-anchor="end" transform="translate(555.5,7) rotate(270) translate(0,3)" style="font-family: sans-serif; font-size: 10px; fill: #000; opacity: 1;">nypost.com</text><text text-anchor="end" transform="translate(576.5,7) rotate(270) translate(0,3)" style="font-family: sans-serif; font-size: 10px; fill: #000; opacity: 1;">nytimes.com</text><text text-anchor="end" transform="translate(597.5,7) rotate(270) translate(0,3)" style="font-family: sans-serif; font-size: 10px; fill: #000; opacity: 1;">nz.news.yahoo.com</text><text text-anchor="end" transform="translate(618.5,7) rotate(270) translate(0,3)" style="font-family: sans-serif; font-size: 10px; fill: #000; opacity: 1;">nz.sports.yahoo.com</text><text text-anchor="end" transform="translate(639.5,7) rotate(270) translate(0,3)" style="font-family: sans-serif; font-size: 10px; fill: #000; opacity: 1;">online.wsj.com</text><text text-anchor="end" transform="translate(660.5,7) rotate(270) translate(0,3)" style="font-family: sans-serif; font-size: 10px; fill: #000; opacity: 1;">people.com</text><text text-anchor="end" transform="translate(681.5,7) rotate(270) translate(0,3)" style="font-family: sans-serif; font-size: 10px; fill: #000; opacity: 1;">profit.ndtv.com</text><text text-anchor="end" transform="translate(702.5,7) rotate(270) translate(0,3)" style="font-family: sans-serif; font-size: 10px; fill: #000; opacity: 1;">sports.yahoo.com</text><text text-anchor="end" transform="translate(723.5,7) rotate(270) translate(0,3)" style="font-family: sans-serif; font-size: 10px; fill: #000; opacity: 1;">uk.finance.yahoo.com</text><text text-anchor="end" transform="translate(744.5,7) rotate(270) translate(0,3)" style="font-family: sans-serif; font-size: 10px; fill: #000; opacity: 1;">uk.news.yahoo.com</text><text text-anchor="end" transform="translate(765.5,7) rotate(270) translate(0,3)" style="font-family: sans-serif; font-size: 10px; fill: #000; opacity: 1;">uk.reuters.com</text><text text-anchor="end" transform="translate(786.5,7) rotate(270) translate(0,3)" style="font-family: sans-serif; font-size: 10px; fill: #000; opacity: 1;">video.foxnews.com</text><text text-anchor="end" transform="translate(807.5,7) rotate(270) translate(0,3)" style="font-family: sans-serif; font-size: 10px; fill: #000; opacity: 1;">washpost.bloomberg.com</text><text text-anchor="end" transform="translate(828.5,7) rotate(270) translate(0,3)" style="font-family: sans-serif; font-size: 10px; fill: #000; opacity: 1;">wiki.mozilla.org</text><text text-anchor="end" transform="translate(849.5,7) rotate(270) translate(0,3)" style="font-family: sans-serif; font-size: 10px; fill: #000; opacity: 1;">www.bloomberg.com</text><text text-anchor="end" transform="translate(870.5,7) rotate(270) translate(0,3)" style="font-family: sans-serif; font-size: 10px; fill: #000; opacity: 1;">www.businessinsider.com</text><text text-anchor="end" transform="translate(891.5,7) rotate(270) translate(0,3)" style="font-family: sans-serif; font-size: 10px; fill: #000; opacity: 1;">www.buzzfeed.com</text><text text-anchor="end" transform="translate(912.5,7) rotate(270) translate(0,3)" style="font-family: sans-serif; font-size: 10px; fill: #000; opacity: 1;">www.cbsnews.com</text><text text-anchor="end" transform="translate(933.5,7) rotate(270) translate(0,3)" style="font-family: sans-serif; font-size: 10px; fill: #000; opacity: 1;">www.cbssports.com</text><text text-anchor="end" transform="translate(954.5,7) rotate(270) translate(0,3)" style="font-family: sans-serif; font-size: 10px; fill: #000; opacity: 1;">www.chron.com</text><text text-anchor="end" transform="translate(975.5,7) rotate(270) translate(0,3)" style="font-family: sans-serif; font-size: 10px; fill: #000; opacity: 1;">www.cnbc.com</text><text text-anchor="end" transform="translate(996.5,7) rotate(270) translate(0,3)" style="font-family: sans-serif; font-size: 10px; fill: #000; opacity: 1;">www.cnet.com</text><text text-anchor="end" transform="translate(1017.5,7) rotate(270) translate(0,3)" style="font-family: sans-serif; font-size: 10px; fill: #000; opacity: 1;">www.cnn.com</text><text text-anchor="end" transform="translate(1038.5,7) rotate(270) translate(0,3)" style="font-family: sans-serif; font-size: 10px; fill: #000; opacity: 1;">www.engadget.com</text><text text-anchor="end" transform="translate(1059.5,7) rotate(270) translate(0,3)" style="font-family: sans-serif; font-size: 10px; fill: #000; opacity: 1;">www.eonline.com</text><text text-anchor="end" transform="translate(1080.5,7) rotate(270) translate(0,3)" style="font-family: sans-serif; font-size: 10px; fill: #000; opacity: 1;">www.forbes.com</text><text text-anchor="end" transform="translate(1101.5,7) rotate(270) translate(0,3)" style="font-family: sans-serif; font-size: 10px; fill: #000; opacity: 1;">www.foxnews.com</text><text text-anchor="end" transform="translate(1122.5,7) rotate(270) translate(0,3)" style="font-family: sans-serif; font-size: 10px; fill: #000; opacity: 1;">www.huffingtonpost.com</text><text text-anchor="end" transform="translate(1143.5,7) rotate(270) translate(0,3)" style="font-family: sans-serif; font-size: 10px; fill: #000; opacity: 1;">www.investing.com</text><text text-anchor="end" transform="translate(1164.5,7) rotate(270) translate(0,3)" style="font-family: sans-serif; font-size: 10px; fill: #000; opacity: 1;">www.latimes.com</text><text text-anchor="end" transform="translate(1185.5,7) rotate(270) translate(0,3)" style="font-family: sans-serif; font-size: 10px; fill: #000; opacity: 1;">www.legacy.com</text><text text-anchor="end" transform="translate(1206.5,7) rotate(270) translate(0,3)" style="font-family: sans-serif; font-size: 10px; fill: #000; opacity: 1;">www.marketwatch.com</text><text text-anchor="end" transform="translate(1227.5,7) rotate(270) translate(0,3)" style="font-family: sans-serif; font-size: 10px; fill: #000; opacity: 1;">www.msn.com</text><text text-anchor="end" transform="translate(1248.5,7) rotate(270) translate(0,3)" style="font-family: sans-serif; font-size: 10px; fill: #000; opacity: 1;">www.nba.com</text><text text-anchor="end" transform="translate(1269.5,7) rotate(270) translate(0,3)" style="font-family: sans-serif; font-size: 10px; fill: #000; opacity: 1;">www.nbcnews.com</text><text text-anchor="end" transform="translate(1290.5,7) rotate(270) translate(0,3)" style="font-family: sans-serif; font-size: 10px; fill: #000; opacity: 1;">www.ndtv.com</text><text text-anchor="end" transform="translate(1311.5,7) rotate(270) translate(0,3)" style="font-family: sans-serif; font-size: 10px; fill: #000; opacity: 1;">www.nfl.com</text><text text-anchor="end" transform="translate(1332.5,7) rotate(270) translate(0,3)" style="font-family: sans-serif; font-size: 10px; fill: #000; opacity: 1;">www.nhl.com</text><text text-anchor="end" transform="translate(1353.5,7) rotate(270) translate(0,3)" style="font-family: sans-serif; font-size: 10px; fill: #000; opacity: 1;">www.npr.org</text><text text-anchor="end" transform="translate(1374.5,7) rotate(270) translate(0,3)" style="font-family: sans-serif; font-size: 10px; fill: #000; opacity: 1;">www.nydailynews.com</text><text text-anchor="end" transform="translate(1395.5,7) rotate(270) translate(0,3)" style="font-family: sans-serif; font-size: 10px; fill: #000; opacity: 1;">www.nytimes.com</text><text text-anchor="end" transform="translate(1416.5,7) rotate(270) translate(0,3)" style="font-family: sans-serif; font-size: 10px; fill: #000; opacity: 1;">www.politico.com</text><text text-anchor="end" transform="translate(1437.5,7) rotate(270) translate(0,3)" style="font-family: sans-serif; font-size: 10px; fill: #000; opacity: 1;">www.realclearpolitics.com</text><text text-anchor="end" transform="translate(1458.5,7) rotate(270) translate(0,3)" style="font-family: sans-serif; font-size: 10px; fill: #000; opacity: 1;">www.reuters.com</text><text text-anchor="end" transform="translate(1479.5,7) rotate(270) translate(0,3)" style="font-family: sans-serif; font-size: 10px; fill: #000; opacity: 1;">www.sfgate.com</text><text text-anchor="end" transform="translate(1500.5,7) rotate(270) translate(0,3)" style="font-family: sans-serif; font-size: 10px; fill: #000; opacity: 1;">www.theatlantic.com</text><text text-anchor="end" transform="translate(1521.5,7) rotate(270) translate(0,3)" style="font-family: sans-serif; font-size: 10px; fill: #000; opacity: 1;">www.theguardian.com</text><text text-anchor="end" transform="translate(1542.5,7) rotate(270) translate(0,3)" style="font-family: sans-serif; font-size: 10px; fill: #000; opacity: 1;">www.usatoday.com</text><text text-anchor="end" transform="translate(1563.5,7) rotate(270) translate(0,3)" style="font-family: sans-serif; font-size: 10px; fill: #000; opacity: 1;">www.vice.com</text><text text-anchor="end" transform="translate(1584.5,7) rotate(270) translate(0,3)" style="font-family: sans-serif; font-size: 10px; fill: #000; opacity: 1;">www.washingtonpost.com</text><text text-anchor="end" transform="translate(1605.5,7) rotate(270) translate(0,3)" style="font-family: sans-serif; font-size: 10px; fill: #000; opacity: 1;">www.wikihow.com</text><text text-anchor="end" transform="translate(1626.5,7) rotate(270) translate(0,3)" style="font-family: sans-serif; font-size: 10px; fill: #000; opacity: 1;">www.wsj.com</text><text text-anchor="end" transform="translate(1647.5,7) rotate(270) translate(0,3)" style="font-family: sans-serif; font-size: 10px; fill: #000; opacity: 1;">www.yahoo.com</text><text text-anchor="end" transform="translate(1668.5,7) rotate(270) translate(0,3)" style="font-family: sans-serif; font-size: 10px; fill: #000; opacity: 1;">zeenews.india.com</text></g><g class="mark-rule role-axis-domain" style="pointer-events: none;"><line transform="translate(0,0)" x2="1680" y2="0" style="fill: none; stroke: #888; stroke-width: 1; opacity: 1;"></line></g><g class="mark-text role-axis-title" style="pointer-events: none;"><text text-anchor="middle" transform="translate(840,140.31640625)" style="font-family: sans-serif; font-size: 11px; font-weight: bold; fill: #000; opacity: 1;">domains</text></g></g></g></g><g class="mark-group role-axis"><g transform="translate(0.5,0.5)"><path class="background" d="M0,0h0v0h0Z" style="pointer-events: none; fill: none;"></path><g><g class="mark-rule role-axis-tick" style="pointer-events: none;"><line transform="translate(0,300)" x2="-5" y2="0" style="fill: none; stroke: #888; stroke-width: 1; opacity: 1;"></line><line transform="translate(0,263)" x2="-5" y2="0" style="fill: none; stroke: #888; stroke-width: 1; opacity: 1;"></line><line transform="translate(0,225)" x2="-5" y2="0" style="fill: none; stroke: #888; stroke-width: 1; opacity: 1;"></line><line transform="translate(0,188)" x2="-5" y2="0" style="fill: none; stroke: #888; stroke-width: 1; opacity: 1;"></line><line transform="translate(0,150)" x2="-5" y2="0" style="fill: none; stroke: #888; stroke-width: 1; opacity: 1;"></line><line transform="translate(0,113)" x2="-5" y2="0" style="fill: none; stroke: #888; stroke-width: 1; opacity: 1;"></line><line transform="translate(0,75)" x2="-5" y2="0" style="fill: none; stroke: #888; stroke-width: 1; opacity: 1;"></line><line transform="translate(0,38)" x2="-5" y2="0" style="fill: none; stroke: #888; stroke-width: 1; opacity: 1;"></line><line transform="translate(0,0)" x2="-5" y2="0" style="fill: none; stroke: #888; stroke-width: 1; opacity: 1;"></line></g><g class="mark-text role-axis-label" style="pointer-events: none;"><text text-anchor="end" transform="translate(-7,303)" style="font-family: sans-serif; font-size: 10px; fill: #000; opacity: 1;">0</text><text text-anchor="end" transform="translate(-7,265.5)" style="font-family: sans-serif; font-size: 10px; fill: #000; opacity: 1;">200,000</text><text text-anchor="end" transform="translate(-7,228)" style="font-family: sans-serif; font-size: 10px; fill: #000; opacity: 1;">400,000</text><text text-anchor="end" transform="translate(-7,190.5)" style="font-family: sans-serif; font-size: 10px; fill: #000; opacity: 1;">600,000</text><text text-anchor="end" transform="translate(-7,153)" style="font-family: sans-serif; font-size: 10px; fill: #000; opacity: 1;">800,000</text><text text-anchor="end" transform="translate(-7,115.5)" style="font-family: sans-serif; font-size: 10px; fill: #000; opacity: 1;">1,000,000</text><text text-anchor="end" transform="translate(-7,78)" style="font-family: sans-serif; font-size: 10px; fill: #000; opacity: 1;">1,200,000</text><text text-anchor="end" transform="translate(-7,40.5)" style="font-family: sans-serif; font-size: 10px; fill: #000; opacity: 1;">1,400,000</text><text text-anchor="end" transform="translate(-7,3)" style="font-family: sans-serif; font-size: 10px; fill: #000; opacity: 1;">1,600,000</text></g><g class="mark-rule role-axis-domain" style="pointer-events: none;"><line transform="translate(0,300)" x2="0" y2="-300" style="fill: none; stroke: #888; stroke-width: 1; opacity: 1;"></line></g><g class="mark-text role-axis-title" style="pointer-events: none;"><text text-anchor="middle" transform="translate(-56.4873046875,150) rotate(-90) translate(0,-2)" style="font-family: sans-serif; font-size: 11px; font-weight: bold; fill: #000; opacity: 1;">Count</text></g></g></g></g></g></g></g></g></svg>